<svg width="699" height="523" viewBox="0 0 699 523" fill="none" xmlns="http://www.w3.org/2000/svg">
<g clip-path="url(#clip0_10208_2932)">
<rect width="699" height="522.937" fill="#FCFAF9"/>
<path fill-rule="evenodd" clip-rule="evenodd" d="M121.361 527.566C122.335 526.467 123.049 525.215 123.499 523.817C123.967 522.435 124.202 521.026 124.202 519.592C124.202 517.937 123.894 516.433 123.263 515.094C122.663 513.746 121.822 512.602 120.74 511.671C119.662 510.718 118.389 509.997 116.929 509.502C115.492 509.006 113.95 508.761 112.308 508.761H108.101C108.101 508.761 108.812 507.091 108.812 505.507V499.005L104.632 499.496V508.757H94.8765V499.005L94.2254 499.081C93.8617 499.124 93.5928 499.158 93.4284 499.184C93.286 499.187 93.1029 499.2 92.8881 499.222L88.3564 499.703V501.91H88.9394C89.2168 501.91 89.4801 501.931 89.73 501.973L89.7536 501.977L89.7774 501.979C89.955 501.993 90.0942 502.049 90.2126 502.141L90.2404 502.163L90.2705 502.181C90.3738 502.243 90.4935 502.368 90.6018 502.62L90.6085 502.635C90.6999 502.833 90.7676 503.162 90.7676 503.667V523.854L94.912 523.36V511.873L103.108 511.873C103.342 511.873 103.579 511.903 103.817 511.962C103.996 512.007 104.151 512.094 104.291 512.234L104.302 512.245L104.313 512.256C104.471 512.398 104.614 512.602 104.73 512.89C104.823 513.124 104.887 513.454 104.899 513.904L104.901 531.162L112.166 531.166C114.233 531.166 116.04 530.851 117.572 530.198L117.576 530.196C119.105 529.53 120.37 528.658 121.356 527.571L121.361 527.566ZM110.783 528.05H108.821V511.877H110.145C111.604 511.877 112.926 511.993 114.113 512.222L114.124 512.223C115.282 512.424 116.25 512.81 117.043 513.367L117.052 513.373C117.824 513.894 118.431 514.641 118.865 515.64L118.872 515.654C119.319 516.613 119.561 517.914 119.561 519.592C119.561 521.064 119.4 522.33 119.088 523.4L119.086 523.407C118.802 524.433 118.328 525.279 117.669 525.958L117.663 525.965C117.036 526.634 116.172 527.155 115.041 527.51L115.038 527.511C113.932 527.865 112.52 528.05 110.783 528.05Z" fill="#F3E8E1"/>
<path fill-rule="evenodd" clip-rule="evenodd" d="M10.9486 323.158C11.9231 322.059 12.6367 320.808 13.087 319.409C13.5552 318.027 13.7901 316.618 13.7901 315.184C13.7901 313.529 13.4814 312.025 12.8507 310.686C12.2506 309.338 11.4098 308.194 10.3282 307.263C9.24991 306.31 7.97663 305.589 6.51687 305.094C5.07973 304.598 3.53803 304.353 1.89607 304.353H-2.31068C-2.31068 304.353 -1.6006 302.683 -1.6006 301.099V294.597L-5.78043 295.088V304.349H-15.5356V294.597L-16.1867 294.673C-16.5504 294.716 -16.8193 294.75 -16.9837 294.776C-17.1261 294.779 -17.3093 294.793 -17.524 294.814L-22.0557 295.295V297.502H-21.4727C-21.1953 297.502 -20.932 297.523 -20.6821 297.565L-20.6585 297.569L-20.6347 297.571C-20.4571 297.585 -20.3179 297.641 -20.1995 297.733L-20.1718 297.755L-20.1416 297.773C-20.0383 297.835 -19.9186 297.96 -19.8103 298.212L-19.8036 298.227C-19.7122 298.425 -19.6445 298.754 -19.6445 299.259V319.446L-15.5001 318.952V307.465L-7.30429 307.465C-7.06973 307.465 -6.83353 307.495 -6.59468 307.554C-6.41659 307.599 -6.26119 307.686 -6.12088 307.827L-6.11004 307.837L-6.09865 307.848C-5.94065 307.99 -5.79786 308.194 -5.6826 308.482C-5.5891 308.716 -5.52521 309.046 -5.51349 309.496L-5.51148 326.754L1.75424 326.759C3.82085 326.759 5.6282 326.443 7.15969 325.79L7.16387 325.788C8.6928 325.122 9.95837 324.25 10.9442 323.163L10.9486 323.158ZM0.37138 323.642H-1.59132V307.469H-0.266865C1.19215 307.469 2.51383 307.585 3.7007 307.814L3.71139 307.815C4.86987 308.016 5.83797 308.402 6.63136 308.959L6.64021 308.965C7.41201 309.487 8.01868 310.233 8.45288 311.232L8.45942 311.246C8.90697 312.205 9.14935 313.506 9.14935 315.184C9.14935 316.656 8.98806 317.922 8.6762 318.992L8.67403 318.999C8.39023 320.026 7.91558 320.871 7.25698 321.55L7.25045 321.557C6.62344 322.226 5.75976 322.747 4.62913 323.102L4.62596 323.103C3.52028 323.457 2.10756 323.642 0.37138 323.642Z" fill="#F3E8E1"/>
<path fill-rule="evenodd" clip-rule="evenodd" d="M43.8803 508.969C44.8547 507.869 45.5684 506.618 46.0186 505.219C46.4869 503.838 46.7218 502.429 46.7218 500.994C46.7218 499.339 46.4131 497.836 45.7824 496.496C45.1822 495.148 44.3414 494.005 43.2598 493.073C42.1815 492.121 40.9083 491.399 39.4485 490.904C38.0114 490.409 36.4697 490.164 34.8277 490.164H30.621C30.621 490.164 31.331 488.493 31.331 486.909V480.407L27.1512 480.899V490.16H17.396V480.407L16.745 480.484C16.3812 480.527 16.1123 480.561 15.9479 480.587C15.8055 480.589 15.6224 480.603 15.4077 480.625L10.876 481.106V483.312H11.4589C11.7363 483.312 11.9996 483.334 12.2495 483.375L12.2731 483.379L12.297 483.381C12.4746 483.396 12.6137 483.452 12.7321 483.544L12.7599 483.566L12.7901 483.584C12.8933 483.646 13.013 483.77 13.1213 484.023L13.128 484.037C13.2195 484.235 13.2871 484.565 13.2871 485.07V505.256L17.4315 504.763V493.276L25.6274 493.276C25.8619 493.276 26.0981 493.305 26.337 493.365C26.5151 493.409 26.6704 493.497 26.8108 493.637L26.8216 493.648L26.833 493.658C26.991 493.8 27.1338 494.004 27.249 494.292C27.3425 494.526 27.4064 494.857 27.4181 495.306L27.4202 512.565L34.6859 512.569C36.7525 512.569 38.5598 512.253 40.0913 511.6L40.0955 511.599C41.6244 510.933 42.89 510.061 43.8758 508.974L43.8803 508.969ZM33.303 509.453H31.3403V493.28H32.6648C34.1238 493.28 35.4455 493.396 36.6323 493.624L36.643 493.626C37.8015 493.826 38.7696 494.212 39.563 494.77L39.5718 494.776C40.3437 495.297 40.9503 496.044 41.3845 497.043L41.3911 497.057C41.8386 498.016 42.081 499.317 42.081 500.994C42.081 502.466 41.9197 503.733 41.6078 504.802L41.6057 504.81C41.3219 505.836 40.8472 506.681 40.1886 507.361L40.1821 507.368C39.5551 508.037 38.6914 508.558 37.5608 508.912L37.5576 508.913C36.4519 509.267 35.0392 509.453 33.303 509.453Z" fill="#F3E8E1"/>
<path fill-rule="evenodd" clip-rule="evenodd" d="M160.101 537.183C161.075 536.083 161.789 534.832 162.239 533.433C162.708 532.052 162.942 530.642 162.942 529.208C162.942 527.553 162.634 526.05 162.003 524.71C161.403 523.362 160.562 522.218 159.481 521.287C158.402 520.335 157.129 519.613 155.669 519.118C154.232 518.623 152.69 518.378 151.048 518.378H146.842C146.842 518.378 147.552 516.707 147.552 515.123V508.621L143.372 509.113V518.374H133.617V508.621L132.966 508.698C132.602 508.74 132.333 508.775 132.169 508.801C132.026 508.803 131.843 508.817 131.628 508.838L127.097 509.32V511.526H127.68C127.957 511.526 128.22 511.547 128.47 511.589L128.494 511.593L128.518 511.595C128.695 511.61 128.834 511.666 128.953 511.758L128.981 511.78L129.011 511.798C129.114 511.86 129.234 511.984 129.342 512.237L129.349 512.251C129.44 512.449 129.508 512.779 129.508 513.283V533.47L133.652 532.977V521.49L141.848 521.49C142.083 521.49 142.319 521.519 142.558 521.579C142.736 521.623 142.891 521.711 143.031 521.851L143.042 521.862L143.054 521.872C143.212 522.014 143.354 522.218 143.47 522.506C143.563 522.74 143.627 523.071 143.639 523.52L143.641 540.779L150.907 540.783C152.973 540.783 154.781 540.467 156.312 539.814L156.316 539.813C157.845 539.147 159.111 538.275 160.097 537.188L160.101 537.183ZM149.524 537.667H147.561V521.494H148.885C150.344 521.494 151.666 521.61 152.853 521.838L152.864 521.84C154.022 522.04 154.99 522.426 155.784 522.983L155.793 522.989C156.564 523.511 157.171 524.258 157.605 525.256L157.612 525.27C158.059 526.229 158.302 527.531 158.302 529.208C158.302 530.68 158.14 531.947 157.829 533.016L157.826 533.024C157.543 534.05 157.068 534.895 156.409 535.575L156.403 535.582C155.776 536.251 154.912 536.772 153.781 537.126L153.778 537.127C152.673 537.481 151.26 537.667 149.524 537.667Z" fill="#F3E8E1"/>
<path fill-rule="evenodd" clip-rule="evenodd" d="M5.13906 499.671C6.11351 498.572 6.82715 497.32 7.27744 495.921C7.74564 494.54 7.98056 493.131 7.98056 491.696C7.98056 490.041 7.67188 488.538 7.04118 487.199C6.44104 485.85 5.60019 484.707 4.51864 483.775C3.44034 482.823 2.16706 482.101 0.707296 481.606C-0.729837 481.111 -2.27154 480.866 -3.9135 480.866H-8.12025C-8.12025 480.866 -7.41017 479.195 -7.41017 477.611V471.109L-11.59 471.601V480.862H-21.3452V471.109L-21.9962 471.186C-22.36 471.229 -22.6289 471.263 -22.7933 471.289C-22.9357 471.292 -23.1188 471.305 -23.3335 471.327L-27.8652 471.808V474.014H-27.2823C-27.0049 474.014 -26.7416 474.036 -26.4917 474.077L-26.4681 474.081L-26.4442 474.083C-26.2666 474.098 -26.1275 474.154 -26.0091 474.246L-25.9813 474.268L-25.9511 474.286C-25.8479 474.348 -25.7282 474.472 -25.6199 474.725L-25.6132 474.739C-25.5217 474.938 -25.4541 475.267 -25.4541 475.772V495.958L-21.3097 495.465V483.978L-13.1139 483.978C-12.8793 483.978 -12.6431 484.007 -12.4042 484.067C-12.2262 484.112 -12.0708 484.199 -11.9305 484.339L-11.9196 484.35L-11.9082 484.36C-11.7502 484.503 -11.6074 484.706 -11.4922 484.995C-11.3987 485.228 -11.3348 485.559 -11.3231 486.008L-11.321 503.267L-4.05533 503.271C-1.98872 503.271 -0.181374 502.955 1.35012 502.303L1.3543 502.301C2.88323 501.635 4.1488 500.763 5.13461 499.676L5.13906 499.671ZM-5.43819 500.155H-7.40089V483.982H-6.07644C-4.61742 483.982 -3.29574 484.098 -2.10887 484.326L-2.09818 484.328C-0.939695 484.529 0.0284042 484.914 0.821785 485.472L0.830635 485.478C1.60244 485.999 2.20911 486.746 2.64331 487.745L2.64985 487.759C3.09739 488.718 3.33978 490.019 3.33978 491.696C3.33978 493.169 3.17849 494.435 2.86663 495.504L2.86446 495.512C2.58066 496.538 2.10601 497.383 1.44741 498.063L1.44088 498.07C0.813873 498.739 -0.0498142 499.26 -1.18044 499.615L-1.18361 499.616C-2.2893 499.969 -3.70201 500.155 -5.43819 500.155Z" fill="#F3E8E1"/>
<path fill-rule="evenodd" clip-rule="evenodd" d="M82.6205 518.586C83.595 517.486 84.3086 516.235 84.7589 514.836C85.2271 513.455 85.462 512.046 85.462 510.611C85.462 508.956 85.1533 507.453 84.5226 506.113C83.9225 504.765 83.0816 503.621 82.0001 502.69C80.9218 501.738 79.6485 501.016 78.1887 500.521C76.7516 500.026 75.2099 499.781 73.5679 499.781H69.3612C69.3612 499.781 70.0713 498.11 70.0713 496.526V490.024L65.8914 490.516V499.777H56.1363V490.024L55.4852 490.101C55.1214 490.144 54.8526 490.178 54.6882 490.204C54.5458 490.206 54.3626 490.22 54.1479 490.241L49.6162 490.723V492.929H50.1992C50.4765 492.929 50.7399 492.951 50.9898 492.992L51.0134 492.996L51.0372 492.998C51.2148 493.013 51.354 493.069 51.4723 493.161L51.5001 493.183L51.5303 493.201C51.6336 493.263 51.7533 493.387 51.8615 493.64L51.8683 493.654C51.9597 493.852 52.0274 494.182 52.0274 494.686V514.873L56.1717 514.38V502.893L64.3676 502.893C64.6021 502.893 64.8383 502.922 65.0772 502.982C65.2553 503.026 65.4107 503.114 65.551 503.254L65.5618 503.265L65.5732 503.275C65.7312 503.417 65.874 503.621 65.9893 503.909C66.0828 504.143 66.1467 504.474 66.1584 504.923L66.1604 522.182L73.4261 522.186C75.4927 522.186 77.3001 521.87 78.8316 521.217L78.8357 521.216C80.3647 520.55 81.6302 519.678 82.6161 518.591L82.6205 518.586ZM72.0433 519.07H70.0806V502.897H71.405C72.864 502.897 74.1857 503.013 75.3726 503.241L75.3833 503.243C76.5417 503.443 77.5098 503.829 78.3032 504.387L78.3121 504.393C79.0839 504.914 79.6906 505.661 80.1248 506.66L80.1313 506.674C80.5788 507.633 80.8212 508.934 80.8212 510.611C80.8212 512.083 80.6599 513.35 80.3481 514.419L80.3459 514.427C80.0621 515.453 79.5875 516.298 78.9289 516.978L78.9223 516.985C78.2953 517.654 77.4316 518.175 76.301 518.529L76.2978 518.53C75.1922 518.884 73.7794 519.07 72.0433 519.07Z" fill="#F3E8E1"/>
<path fill-rule="evenodd" clip-rule="evenodd" d="M46.7855 421.029C47.76 419.929 48.4736 418.678 48.9239 417.279C49.3921 415.898 49.627 414.489 49.627 413.054C49.627 411.399 49.3184 409.896 48.6877 408.556C48.0875 407.208 47.2467 406.065 46.1651 405.133C45.0868 404.181 43.8135 403.459 42.3538 402.964C40.9166 402.469 39.3749 402.224 37.733 402.224H33.5262C33.5262 402.224 34.2363 400.553 34.2363 398.969V392.467L30.0565 392.959V402.22H20.3013V392.467L19.6503 392.544C19.2865 392.587 19.0176 392.621 18.8532 392.647C18.7108 392.649 18.5277 392.663 18.313 392.685L13.7812 393.166V395.372H14.3642C14.6416 395.372 14.9049 395.394 15.1548 395.435L15.1784 395.439L15.2022 395.441C15.3799 395.456 15.519 395.512 15.6374 395.604L15.6652 395.626L15.6953 395.644C15.7986 395.706 15.9183 395.83 16.0266 396.083L16.0333 396.097C16.1247 396.296 16.1924 396.625 16.1924 397.13V417.316L20.3368 416.823V405.336L28.5326 405.336C28.7672 405.336 29.0034 405.365 29.2422 405.425C29.4203 405.47 29.5757 405.557 29.716 405.697L29.7269 405.708L29.7383 405.718C29.8963 405.86 30.0391 406.064 30.1543 406.352C30.2478 406.586 30.3117 406.917 30.3234 407.366L30.3254 424.625L37.5912 424.629C39.6578 424.629 41.4651 424.313 42.9966 423.661L43.0008 423.659C44.5297 422.993 45.7953 422.121 46.7811 421.034L46.7855 421.029ZM36.2083 421.513H34.2456V405.34H35.57C37.0291 405.34 38.3507 405.456 39.5376 405.684L39.5483 405.686C40.7068 405.887 41.6749 406.272 42.4683 406.83L42.4771 406.836C43.2489 407.357 43.8556 408.104 44.2898 409.103L44.2963 409.117C44.7439 410.076 44.9863 411.377 44.9863 413.054C44.9863 414.526 44.825 415.793 44.5131 416.862L44.5109 416.87C44.2271 417.896 43.7525 418.741 43.0939 419.421L43.0874 419.428C42.4604 420.097 41.5967 420.618 40.466 420.972L40.4629 420.973C39.3572 421.327 37.9445 421.513 36.2083 421.513Z" fill="#F3E8E1"/>
<path fill-rule="evenodd" clip-rule="evenodd" d="M8.04531 411.731C9.01976 410.631 9.7334 409.38 10.1837 407.981C10.6519 406.6 10.8868 405.19 10.8868 403.756C10.8868 402.101 10.5781 400.598 9.94743 399.258C9.34729 397.91 8.50644 396.766 7.42489 395.835C6.34659 394.883 5.07331 394.161 3.61355 393.666C2.17641 393.171 0.634712 392.926 -1.00725 392.926H-5.214C-5.214 392.926 -4.50392 391.255 -4.50392 389.671V383.169L-8.68375 383.661V392.922H-18.4389V383.169L-19.09 383.246C-19.4538 383.288 -19.7226 383.323 -19.887 383.348C-20.0294 383.351 -20.2126 383.365 -20.4273 383.386L-24.959 383.868V386.074H-24.376C-24.0987 386.074 -23.8353 386.095 -23.5854 386.137L-23.5618 386.141L-23.538 386.143C-23.3604 386.158 -23.2212 386.214 -23.1029 386.306L-23.0751 386.327L-23.0449 386.345C-22.9416 386.407 -22.8219 386.532 -22.7137 386.784L-22.7069 386.799C-22.6155 386.997 -22.5478 387.327 -22.5478 387.831V408.018L-18.4035 407.525V396.038L-10.2076 396.038C-9.97305 396.038 -9.73685 396.067 -9.498 396.127C-9.31991 396.171 -9.16451 396.258 -9.0242 396.399L-9.01336 396.41L-9.00197 396.42C-8.84397 396.562 -8.70118 396.766 -8.58592 397.054C-8.49242 397.288 -8.42853 397.619 -8.41681 398.068L-8.4148 415.327L-1.14908 415.331C0.917526 415.331 2.72488 415.015 4.25637 414.362L4.26055 414.36C5.78948 413.695 7.05505 412.822 8.04086 411.736L8.04531 411.731ZM-2.53194 412.215H-4.49464V396.042H-3.17019C-1.71117 396.042 -0.389492 396.158 0.797382 396.386L0.808071 396.388C1.96655 396.588 2.93465 396.974 3.72803 397.531L3.73689 397.537C4.50869 398.059 5.11536 398.806 5.54956 399.804L5.5561 399.818C6.00364 400.777 6.24603 402.079 6.24603 403.756C6.24603 405.228 6.08474 406.495 5.77288 407.564L5.77071 407.572C5.48691 408.598 5.01226 409.443 4.35366 410.123L4.34713 410.13C3.72012 410.798 2.85644 411.319 1.72581 411.674L1.72264 411.675C0.616955 412.029 -0.795763 412.215 -2.53194 412.215Z" fill="#F3E8E1"/>
<path fill-rule="evenodd" clip-rule="evenodd" d="M85.5258 430.646C86.5002 429.546 87.2139 428.295 87.6642 426.896C88.1324 425.515 88.3673 424.105 88.3673 422.671C88.3673 421.016 88.0586 419.513 87.4279 418.173C86.8278 416.825 85.9869 415.681 84.9054 414.75C83.8271 413.798 82.5538 413.076 81.094 412.581C79.6569 412.086 78.1152 411.841 76.4732 411.841H72.2665C72.2665 411.841 72.9766 410.17 72.9766 408.586V402.084L68.7967 402.576V411.837H59.0415V402.084L58.3905 402.161C58.0267 402.203 57.7578 402.238 57.5935 402.263C57.4511 402.266 57.2679 402.28 57.0532 402.301L52.5215 402.783V404.989H53.1044C53.3818 404.989 53.6451 405.01 53.895 405.052L53.9186 405.056L53.9425 405.058C54.1201 405.073 54.2592 405.129 54.3776 405.221L54.4054 405.242L54.4356 405.261C54.5388 405.322 54.6585 405.447 54.7668 405.7L54.7735 405.714C54.865 405.912 54.9326 406.242 54.9326 406.746V426.933L59.077 426.44V414.953L67.2729 414.953C67.5074 414.953 67.7436 414.982 67.9825 415.042C68.1606 415.086 68.316 415.174 68.4563 415.314L68.4671 415.325L68.4785 415.335C68.6365 415.477 68.7793 415.681 68.8945 415.969C68.988 416.203 69.0519 416.534 69.0637 416.983L69.0657 434.242L76.3314 434.246C78.398 434.246 80.2053 433.93 81.7368 433.277L81.741 433.275C83.2699 432.61 84.5355 431.737 85.5213 430.651L85.5258 430.646ZM74.9485 431.13H72.9858V414.957H74.3103C75.7693 414.957 77.091 415.073 78.2779 415.301L78.2885 415.303C79.447 415.503 80.4151 415.889 81.2085 416.446L81.2174 416.452C81.9892 416.974 82.5958 417.721 83.03 418.719L83.0366 418.733C83.4841 419.692 83.7265 420.994 83.7265 422.671C83.7265 424.143 83.5652 425.41 83.2534 426.479L83.2512 426.487C82.9674 427.513 82.4927 428.358 81.8341 429.038L81.8276 429.045C81.2006 429.713 80.3369 430.234 79.2063 430.589L79.2031 430.59C78.0974 430.944 76.6847 431.13 74.9485 431.13Z" fill="#F3E8E1"/>
<path fill-rule="evenodd" clip-rule="evenodd" d="M29.9906 535.268C30.9651 534.169 31.6787 532.917 32.129 531.519C32.5972 530.137 32.8321 528.728 32.8321 527.293C32.8321 525.638 32.5234 524.135 31.8927 522.796C31.2926 521.448 30.4517 520.304 29.3702 519.372C28.2919 518.42 27.0186 517.699 25.5589 517.204C24.1217 516.708 22.58 516.463 20.9381 516.463H16.7313C16.7313 516.463 17.4414 514.793 17.4414 513.208V506.707L13.2616 507.198V516.459H3.50639V506.707L2.85533 506.783C2.49155 506.826 2.22269 506.86 2.0583 506.886C1.91589 506.889 1.73273 506.902 1.51803 506.924L-3.01367 507.405V509.612H-2.43072C-2.15336 509.612 -1.89003 509.633 -1.64011 509.675L-1.61652 509.678L-1.59268 509.68C-1.41507 509.695 -1.27591 509.751 -1.15755 509.843L-1.12977 509.865L-1.09958 509.883C-0.996316 509.945 -0.876616 510.069 -0.768343 510.322L-0.761619 510.337C-0.670176 510.535 -0.602527 510.864 -0.602527 511.369V531.556L3.54185 531.062V519.575L11.7377 519.575C11.9723 519.575 12.2085 519.605 12.4473 519.664C12.6254 519.709 12.7808 519.796 12.9211 519.936L12.932 519.947L12.9433 519.957C13.1013 520.1 13.2441 520.304 13.3594 520.592C13.4529 520.825 13.5168 521.156 13.5285 521.606L13.5305 538.864L20.7962 538.868C22.8628 538.868 24.6702 538.553 26.2017 537.9L26.2059 537.898C27.7348 537.232 29.0004 536.36 29.9862 535.273L29.9906 535.268ZM19.4134 535.752H17.4507V519.579H18.7751C20.2341 519.579 21.5558 519.695 22.7427 519.923L22.7534 519.925C23.9119 520.126 24.88 520.511 25.6733 521.069L25.6822 521.075C26.454 521.596 27.0607 522.343 27.4949 523.342L27.5014 523.356C27.949 524.315 28.1913 525.616 28.1913 527.293C28.1913 528.766 28.0301 530.032 27.7182 531.102L27.716 531.109C27.4322 532.135 26.9576 532.98 26.299 533.66L26.2924 533.667C25.6654 534.336 24.8017 534.857 23.6711 535.212L23.668 535.213C22.5623 535.567 21.1495 535.752 19.4134 535.752Z" fill="#F3E8E1"/>
<path fill-rule="evenodd" clip-rule="evenodd" d="M35.8002 359.074C36.7746 357.974 37.4883 356.723 37.9386 355.324C38.4068 353.943 38.6417 352.534 38.6417 351.099C38.6417 349.444 38.333 347.941 37.7023 346.601C37.1022 345.253 36.2613 344.11 35.1798 343.178C34.1015 342.226 32.8282 341.504 31.3684 341.009C29.9313 340.514 28.3896 340.269 26.7476 340.269H22.5409C22.5409 340.269 23.251 338.598 23.251 337.014V330.512L19.0711 331.004V340.265H9.31596V330.512L8.6649 330.589C8.30112 330.632 8.03226 330.666 7.86787 330.692C7.72546 330.694 7.5423 330.708 7.3276 330.73L2.7959 331.211V333.417H3.37885C3.65621 333.417 3.91955 333.439 4.16946 333.48L4.19305 333.484L4.21689 333.486C4.3945 333.501 4.53366 333.557 4.65202 333.649L4.67981 333.671L4.70999 333.689C4.81325 333.751 4.93295 333.875 5.04123 334.128L5.04795 334.142C5.13939 334.34 5.20704 334.67 5.20704 335.175V355.361L9.35142 354.868V343.381L17.5473 343.381C17.7818 343.381 18.018 343.41 18.2569 343.47C18.435 343.514 18.5904 343.602 18.7307 343.742L18.7415 343.753L18.7529 343.763C18.9109 343.905 19.0537 344.109 19.169 344.397C19.2625 344.631 19.3264 344.962 19.3381 345.411L19.3401 362.67L26.6058 362.674C28.6724 362.674 30.4798 362.358 32.0113 361.705L32.0154 361.704C33.5444 361.038 34.8099 360.166 35.7957 359.079L35.8002 359.074ZM25.2229 359.558H23.2602V343.385H24.5847C26.0437 343.385 27.3654 343.501 28.5523 343.729L28.563 343.731C29.7214 343.931 30.6895 344.317 31.4829 344.875L31.4918 344.881C32.2636 345.402 32.8702 346.149 33.3044 347.148L33.311 347.162C33.7585 348.121 34.0009 349.422 34.0009 351.099C34.0009 352.571 33.8396 353.838 33.5278 354.907L33.5256 354.915C33.2418 355.941 32.7671 356.786 32.1085 357.466L32.102 357.473C31.475 358.142 30.6113 358.663 29.4807 359.017L29.4775 359.018C28.3718 359.372 26.9591 359.558 25.2229 359.558Z" fill="#F3E8E1"/>
<path fill-rule="evenodd" clip-rule="evenodd" d="M68.7318 544.885C69.7063 543.785 70.4199 542.534 70.8702 541.135C71.3384 539.754 71.5733 538.344 71.5733 536.91C71.5733 535.255 71.2647 533.752 70.6339 532.412C70.0338 531.064 69.193 529.92 68.1114 528.989C67.0331 528.037 65.7598 527.315 64.3001 526.82C62.8629 526.325 61.3212 526.08 59.6793 526.08H55.4725C55.4725 526.08 56.1826 524.409 56.1826 522.825V516.323L52.0028 516.815V526.076H42.2476V516.323L41.5965 516.4C41.2328 516.442 40.9639 516.477 40.7995 516.502C40.6571 516.505 40.4739 516.519 40.2592 516.54L35.7275 517.022V519.228H36.3105C36.5879 519.228 36.8512 519.249 37.1011 519.291L37.1247 519.295L37.1485 519.297C37.3261 519.312 37.4653 519.368 37.5837 519.46L37.6114 519.481L37.6416 519.5C37.7449 519.561 37.8646 519.686 37.9729 519.939L37.9796 519.953C38.071 520.151 38.1387 520.481 38.1387 520.985V541.172L42.2831 540.679V529.192L50.4789 529.192C50.7135 529.192 50.9497 529.221 51.1885 529.281C51.3666 529.325 51.522 529.413 51.6623 529.553L51.6732 529.564L51.6846 529.574C51.8426 529.716 51.9853 529.92 52.1006 530.208C52.1941 530.442 52.258 530.773 52.2697 531.222L52.2717 548.481L59.5374 548.485C61.604 548.485 63.4114 548.169 64.9429 547.516L64.9471 547.514C66.476 546.849 67.7416 545.976 68.7274 544.89L68.7318 544.885ZM58.1546 545.369H56.1919V529.196H57.5163C58.9754 529.196 60.297 529.312 61.4839 529.54L61.4946 529.542C62.6531 529.742 63.6212 530.128 64.4146 530.685L64.4234 530.691C65.1952 531.213 65.8019 531.96 66.2361 532.958L66.2426 532.972C66.6902 533.931 66.9326 535.233 66.9326 536.91C66.9326 538.382 66.7713 539.649 66.4594 540.718L66.4572 540.726C66.1734 541.752 65.6988 542.597 65.0402 543.277L65.0336 543.284C64.4066 543.952 63.543 544.473 62.4123 544.828L62.4092 544.829C61.3035 545.183 59.8908 545.369 58.1546 545.369Z" fill="#F3E8E1"/>
<path fill-rule="evenodd" clip-rule="evenodd" d="M110.378 465.925C111.353 464.825 112.066 463.574 112.517 462.175C112.985 460.794 113.22 459.385 113.22 457.95C113.22 456.295 112.911 454.792 112.28 453.452C111.68 452.104 110.839 450.961 109.758 450.029C108.68 449.077 107.406 448.355 105.947 447.86C104.509 447.365 102.968 447.12 101.326 447.12H97.119C97.119 447.12 97.8291 445.449 97.8291 443.865V437.363L93.6493 437.855V447.116H83.8941V437.363L83.243 437.44C82.8792 437.483 82.6104 437.517 82.446 437.543C82.3036 437.545 82.1204 437.559 81.9057 437.581L77.374 438.062V440.268H77.957C78.2343 440.268 78.4977 440.29 78.7476 440.331L78.7712 440.335L78.795 440.337C78.9726 440.352 79.1118 440.408 79.2301 440.5L79.2579 440.522L79.2881 440.54C79.3914 440.602 79.5111 440.726 79.6194 440.979L79.6261 440.993C79.7175 441.192 79.7852 441.521 79.7852 442.026V462.212L83.9295 461.719V450.232L92.1254 450.232C92.36 450.232 92.5962 450.261 92.835 450.321C93.0131 450.366 93.1685 450.453 93.3088 450.593L93.3196 450.604L93.331 450.614C93.489 450.756 93.6318 450.96 93.7471 451.248C93.8406 451.482 93.9045 451.813 93.9162 452.262L93.9182 469.521L101.184 469.525C103.251 469.525 105.058 469.209 106.589 468.557L106.594 468.555C108.122 467.889 109.388 467.017 110.374 465.93L110.378 465.925ZM99.8011 466.409H97.8384V450.236H99.1628C100.622 450.236 101.944 450.352 103.13 450.58L103.141 450.582C104.3 450.783 105.268 451.168 106.061 451.726L106.07 451.732C106.842 452.253 107.448 453 107.883 453.999L107.889 454.013C108.337 454.972 108.579 456.273 108.579 457.95C108.579 459.422 108.418 460.689 108.106 461.758L108.104 461.766C107.82 462.792 107.345 463.637 106.687 464.317L106.68 464.324C106.053 464.993 105.189 465.514 104.059 465.868L104.056 465.869C102.95 466.223 101.537 466.409 99.8011 466.409Z" fill="#F3E8E1"/>
<path fill-rule="evenodd" clip-rule="evenodd" d="M32.8969 447.328C33.8713 446.228 34.585 444.977 35.0352 443.578C35.5035 442.197 35.7384 440.788 35.7384 439.353C35.7384 437.698 35.4297 436.195 34.799 434.855C34.1988 433.507 33.358 432.363 32.2765 431.432C31.1981 430.48 29.9249 429.758 28.4651 429.263C27.028 428.768 25.4863 428.523 23.8443 428.523H19.6376C19.6376 428.523 20.3476 426.852 20.3476 425.268V418.766L16.1678 419.258V428.519H6.41264V418.766L5.76158 418.843C5.3978 418.886 5.12894 418.92 4.96455 418.946C4.82214 418.948 4.63898 418.962 4.42428 418.983L-0.107422 419.465V421.671H0.475525C0.752894 421.671 1.01622 421.692 1.26614 421.734L1.28973 421.738L1.31357 421.74C1.49118 421.755 1.63034 421.811 1.7487 421.903L1.77648 421.925L1.80667 421.943C1.90993 422.005 2.02963 422.129 2.13791 422.382L2.14463 422.396C2.23607 422.594 2.30372 422.924 2.30372 423.428V443.615L6.4481 443.122V431.635L14.644 431.635C14.8785 431.635 15.1147 431.664 15.3536 431.724C15.5317 431.768 15.687 431.856 15.8274 431.996L15.8382 432.007L15.8496 432.017C16.0076 432.159 16.1504 432.363 16.2656 432.651C16.3591 432.885 16.423 433.216 16.4347 433.665L16.4368 450.924L23.7025 450.928C25.7691 450.928 27.5764 450.612 29.1079 449.959L29.1121 449.958C30.641 449.292 31.9066 448.42 32.8924 447.333L32.8969 447.328ZM22.3196 447.812H20.3569V431.639H21.6814C23.1404 431.639 24.4621 431.755 25.6489 431.983L25.6596 431.985C26.8181 432.185 27.7862 432.571 28.5796 433.128L28.5884 433.134C29.3603 433.656 29.9669 434.403 30.4011 435.401L30.4077 435.415C30.8552 436.375 31.0976 437.676 31.0976 439.353C31.0976 440.825 30.9363 442.092 30.6244 443.161L30.6223 443.169C30.3385 444.195 29.8638 445.04 29.2052 445.72L29.1987 445.727C28.5717 446.396 27.708 446.917 26.5774 447.271L26.5742 447.272C25.4685 447.626 24.0558 447.812 22.3196 447.812Z" fill="#F3E8E1"/>
<path fill-rule="evenodd" clip-rule="evenodd" d="M71.6371 456.944C72.6116 455.845 73.3252 454.593 73.7755 453.195C74.2437 451.813 74.4786 450.404 74.4786 448.969C74.4786 447.314 74.1699 445.811 73.5392 444.472C72.9391 443.124 72.0982 441.98 71.0167 441.048C69.9384 440.096 68.6651 439.375 67.2053 438.88C65.7682 438.384 64.2265 438.139 62.5846 438.139H58.3778C58.3778 438.139 59.0879 436.469 59.0879 434.884V428.383L54.9081 428.874V438.135H45.1529V428.383L44.5018 428.459C44.138 428.502 43.8692 428.536 43.7048 428.562C43.5624 428.565 43.3792 428.578 43.1645 428.6L38.6328 429.081V431.288H39.2158C39.4931 431.288 39.7565 431.309 40.0064 431.351L40.03 431.355L40.0538 431.356C40.2314 431.371 40.3706 431.427 40.4889 431.519L40.5167 431.541L40.5469 431.559C40.6502 431.621 40.7699 431.745 40.8781 431.998L40.8849 432.013C40.9763 432.211 41.044 432.54 41.044 433.045V453.232L45.1883 452.738V441.251L53.3842 441.251C53.6187 441.251 53.8549 441.281 54.0938 441.34C54.2719 441.385 54.4273 441.472 54.5676 441.612L54.5784 441.623L54.5898 441.634C54.7478 441.776 54.8906 441.98 55.0059 442.268C55.0994 442.501 55.1633 442.832 55.175 443.282L55.177 460.54L62.4427 460.544C64.5093 460.544 66.3167 460.229 67.8482 459.576L67.8523 459.574C69.3813 458.908 70.6469 458.036 71.6327 456.949L71.6371 456.944ZM61.0599 457.428H59.0972V441.255H60.4216C61.8806 441.255 63.2023 441.371 64.3892 441.599L64.3999 441.601C65.5584 441.802 66.5265 442.187 67.3198 442.745L67.3287 442.751C68.1005 443.272 68.7072 444.019 69.1414 445.018L69.1479 445.032C69.5954 445.991 69.8378 447.292 69.8378 448.969C69.8378 450.442 69.6765 451.708 69.3647 452.778L69.3625 452.785C69.0787 453.811 68.6041 454.656 67.9455 455.336L67.9389 455.343C67.3119 456.012 66.4482 456.533 65.3176 456.888L65.3144 456.889C64.2088 457.243 62.796 457.428 61.0599 457.428Z" fill="#F3E8E1"/>
<path fill-rule="evenodd" clip-rule="evenodd" d="M60.6605 394.687C61.635 393.588 62.3486 392.336 62.7989 390.938C63.2671 389.556 63.502 388.147 63.502 386.712C63.502 385.057 63.1934 383.554 62.5627 382.215C61.9625 380.867 61.1217 379.723 60.0401 378.791C58.9618 377.839 57.6885 377.118 56.2288 376.623C54.7916 376.127 53.2499 375.882 51.608 375.882H47.4012C47.4012 375.882 48.1113 374.212 48.1113 372.627V366.125L43.9315 366.617V375.878H34.1763V366.125L33.5253 366.202C33.1615 366.245 32.8926 366.279 32.7282 366.305C32.5858 366.308 32.4027 366.321 32.188 366.343L27.6562 366.824V369.031H28.2392C28.5166 369.031 28.7799 369.052 29.0298 369.094L29.0534 369.097L29.0772 369.099C29.2549 369.114 29.394 369.17 29.5124 369.262L29.5402 369.284L29.5703 369.302C29.6736 369.364 29.7933 369.488 29.9016 369.741L29.9083 369.756C29.9997 369.954 30.0674 370.283 30.0674 370.788V390.975L34.2118 390.481V378.994L42.4076 378.994C42.6422 378.994 42.8784 379.023 43.1172 379.083C43.2953 379.128 43.4507 379.215 43.591 379.355L43.6019 379.366L43.6133 379.376C43.7713 379.519 43.9141 379.722 44.0293 380.011C44.1228 380.244 44.1867 380.575 44.1984 381.025L44.2004 398.283L51.4662 398.287C53.5328 398.287 55.3401 397.972 56.8716 397.319L56.8758 397.317C58.4047 396.651 59.6703 395.779 60.6561 394.692L60.6605 394.687ZM50.0833 395.171H48.1206V378.998H49.445C50.9041 378.998 52.2257 379.114 53.4126 379.342L53.4233 379.344C54.5818 379.545 55.5499 379.93 56.3433 380.488L56.3521 380.494C57.1239 381.015 57.7306 381.762 58.1648 382.761L58.1713 382.775C58.6189 383.734 58.8613 385.035 58.8613 386.712C58.8613 388.185 58.7 389.451 58.3881 390.52L58.3859 390.528C58.1021 391.554 57.6275 392.399 56.9689 393.079L56.9624 393.086C56.3354 393.755 55.4717 394.276 54.341 394.631L54.3379 394.632C53.2322 394.985 51.8195 395.171 50.0833 395.171Z" fill="#F3E8E1"/>
<path fill-rule="evenodd" clip-rule="evenodd" d="M21.9203 385.389C22.8948 384.289 23.6084 383.038 24.0587 381.639C24.5269 380.258 24.7618 378.849 24.7618 377.414C24.7618 375.759 24.4531 374.256 23.8224 372.916C23.2223 371.568 22.3814 370.424 21.2999 369.493C20.2216 368.541 18.9483 367.819 17.4885 367.324C16.0514 366.829 14.5097 366.584 12.8678 366.584H8.661C8.661 366.584 9.37108 364.913 9.37108 363.329V356.827L5.19125 357.319V366.58H-4.56392V356.827L-5.21498 356.904C-5.57876 356.947 -5.84763 356.981 -6.01201 357.007C-6.15442 357.009 -6.33758 357.023 -6.55228 357.044L-11.084 357.526V359.732H-10.501C-10.2237 359.732 -9.96034 359.754 -9.71042 359.795L-9.68683 359.799L-9.663 359.801C-9.48538 359.816 -9.34622 359.872 -9.22786 359.964L-9.20008 359.986L-9.16989 360.004C-9.06663 360.066 -8.94693 360.19 -8.83866 360.443L-8.83193 360.457C-8.74049 360.655 -8.67284 360.985 -8.67284 361.489V381.676L-4.52847 381.183V369.696L3.66739 369.696C3.90195 369.696 4.13815 369.725 4.377 369.785C4.55509 369.829 4.71049 369.917 4.8508 370.057L4.86164 370.068L4.87303 370.078C5.03103 370.22 5.17382 370.424 5.28908 370.712C5.38258 370.946 5.44647 371.277 5.45819 371.726L5.4602 388.985L12.7259 388.989C14.7925 388.989 16.5999 388.673 18.1314 388.02L18.1355 388.019C19.6645 387.353 20.9301 386.481 21.9159 385.394L21.9203 385.389ZM11.3431 385.873H9.38036V369.7H10.7048C12.1638 369.7 13.4855 369.816 14.6724 370.044L14.6831 370.046C15.8416 370.246 16.8097 370.632 17.603 371.19L17.6119 371.196C18.3837 371.717 18.9904 372.464 19.4246 373.463L19.4311 373.477C19.8786 374.436 20.121 375.737 20.121 377.414C20.121 378.886 19.9597 380.153 19.6479 381.222L19.6457 381.23C19.3619 382.256 18.8873 383.101 18.2287 383.781L18.2221 383.788C17.5951 384.457 16.7314 384.978 15.6008 385.332L15.5976 385.333C14.492 385.687 13.0792 385.873 11.3431 385.873Z" fill="#F3E8E1"/>
<path fill-rule="evenodd" clip-rule="evenodd" d="M96.4975 492.239C97.4719 491.14 98.1855 489.889 98.6358 488.49C99.104 487.108 99.339 485.699 99.339 484.265C99.339 482.61 99.0303 481.106 98.3996 479.767C97.7994 478.419 96.9586 477.275 95.877 476.344C94.7987 475.391 93.5255 474.67 92.0657 474.175C90.6286 473.679 89.0869 473.434 87.4449 473.434H83.2381C83.2381 473.434 83.9482 471.764 83.9482 470.18V463.678L79.7684 464.169V473.43H70.0132V463.678L69.3622 463.754C68.9984 463.797 68.7295 463.832 68.5651 463.857C68.4227 463.86 68.2396 463.874 68.0249 463.895L63.4932 464.376V466.583H64.0761C64.3535 466.583 64.6168 466.604 64.8667 466.646L64.8903 466.65L64.9142 466.652C65.0918 466.666 65.2309 466.722 65.3493 466.815L65.3771 466.836L65.4073 466.854C65.5105 466.916 65.6302 467.041 65.7385 467.293L65.7452 467.308C65.8367 467.506 65.9043 467.835 65.9043 468.34V488.527L70.0487 488.033V476.546L78.2445 476.546C78.4791 476.546 78.7153 476.576 78.9541 476.635C79.1322 476.68 79.2876 476.767 79.4279 476.908L79.4388 476.918L79.4502 476.929C79.6082 477.071 79.751 477.275 79.8662 477.563C79.9597 477.797 80.0236 478.128 80.0353 478.577L80.0373 495.835L87.3031 495.84C89.3697 495.84 91.177 495.524 92.7085 494.871L92.7127 494.869C94.2416 494.203 95.5072 493.331 96.493 492.244L96.4975 492.239ZM85.9202 492.723H83.9575V476.55H85.282C86.741 476.55 88.0627 476.666 89.2495 476.895L89.2602 476.896C90.4187 477.097 91.3868 477.483 92.1802 478.04L92.189 478.046C92.9608 478.568 93.5675 479.314 94.0017 480.313L94.0083 480.327C94.4558 481.286 94.6982 482.587 94.6982 484.265C94.6982 485.737 94.5369 487.003 94.225 488.073L94.2229 488.081C93.9391 489.107 93.4644 489.952 92.8058 490.631L92.7993 490.638C92.1723 491.307 91.3086 491.828 90.178 492.183L90.1748 492.184C89.0691 492.538 87.6564 492.723 85.9202 492.723Z" fill="#F3E8E1"/>
<path fill-rule="evenodd" clip-rule="evenodd" d="M19.016 473.643C19.9905 472.543 20.7041 471.292 21.1544 469.893C21.6226 468.512 21.8575 467.102 21.8575 465.668C21.8575 464.013 21.5488 462.51 20.9181 461.17C20.318 459.822 19.4771 458.678 18.3956 457.747C17.3173 456.795 16.044 456.073 14.5842 455.578C13.1471 455.083 11.6054 454.838 9.96346 454.838H5.7567C5.7567 454.838 6.46679 453.167 6.46679 451.583V445.081L2.28696 445.573V454.834H-7.46822V445.081L-8.11928 445.158C-8.48306 445.2 -8.75192 445.235 -8.91631 445.261C-9.05872 445.263 -9.24188 445.277 -9.45658 445.298L-13.9883 445.78V447.986H-13.4053C-13.128 447.986 -12.8646 448.007 -12.6147 448.049L-12.5911 448.053L-12.5673 448.055C-12.3897 448.07 -12.2505 448.126 -12.1322 448.218L-12.1044 448.239L-12.0742 448.258C-11.9709 448.32 -11.8512 448.444 -11.743 448.697L-11.7362 448.711C-11.6448 448.909 -11.5771 449.239 -11.5771 449.743V469.93L-7.43276 469.437V457.95L0.763098 457.95C0.997649 457.95 1.23385 457.979 1.4727 458.039C1.65079 458.083 1.80619 458.171 1.9465 458.311L1.95734 458.322L1.96874 458.332C2.12673 458.474 2.26953 458.678 2.38478 458.966C2.47828 459.2 2.54217 459.531 2.55389 459.98L2.5559 477.239L9.82162 477.243C11.8882 477.243 13.6956 476.927 15.2271 476.274L15.2313 476.273C16.7602 475.607 18.0258 474.735 19.0116 473.648L19.016 473.643ZM8.43876 474.127H6.47606V457.954H7.80052C9.25953 457.954 10.5812 458.07 11.7681 458.298L11.7788 458.3C12.9373 458.5 13.9054 458.886 14.6987 459.443L14.7076 459.449C15.4794 459.971 16.0861 460.718 16.5203 461.716L16.5268 461.73C16.9743 462.689 17.2167 463.991 17.2167 465.668C17.2167 467.14 17.0554 468.407 16.7436 469.476L16.7414 469.484C16.4576 470.51 15.983 471.355 15.3244 472.035L15.3178 472.042C14.6908 472.711 13.8271 473.232 12.6965 473.586L12.6933 473.587C11.5877 473.941 10.1749 474.127 8.43876 474.127Z" fill="#F3E8E1"/>
<path fill-rule="evenodd" clip-rule="evenodd" d="M135.238 501.856C136.212 500.757 136.926 499.505 137.376 498.106C137.844 496.725 138.079 495.316 138.079 493.881C138.079 492.226 137.771 490.723 137.14 489.384C136.54 488.035 135.699 486.892 134.617 485.96C133.539 485.008 132.266 484.287 130.806 483.792C129.369 483.296 127.827 483.051 126.185 483.051H121.978C121.978 483.051 122.688 481.38 122.688 479.796V473.294L118.509 473.786V483.047H108.753V473.294L108.102 473.371C107.739 473.414 107.47 473.448 107.305 473.474C107.163 473.477 106.98 473.49 106.765 473.512L102.233 473.993V476.199H102.816C103.094 476.199 103.357 476.221 103.607 476.262L103.631 476.266L103.654 476.268C103.832 476.283 103.971 476.339 104.09 476.431L104.117 476.453L104.147 476.471C104.251 476.533 104.37 476.657 104.479 476.91L104.485 476.925C104.577 477.123 104.645 477.452 104.645 477.957V498.144L108.789 497.65V486.163L116.985 486.163C117.219 486.163 117.456 486.192 117.694 486.252C117.872 486.297 118.028 486.384 118.168 486.524L118.179 486.535L118.19 486.545C118.348 486.688 118.491 486.891 118.606 487.18C118.7 487.413 118.764 487.744 118.776 488.194L118.778 505.452L126.043 505.456C128.11 505.456 129.917 505.14 131.449 504.488L131.453 504.486C132.982 503.82 134.247 502.948 135.233 501.861L135.238 501.856ZM124.66 502.34H122.698V486.167H124.022C125.481 486.167 126.803 486.283 127.99 486.511L128 486.513C129.159 486.714 130.127 487.099 130.92 487.657L130.929 487.663C131.701 488.184 132.308 488.931 132.742 489.93L132.748 489.944C133.196 490.903 133.438 492.204 133.438 493.881C133.438 495.354 133.277 496.62 132.965 497.689L132.963 497.697C132.679 498.723 132.205 499.568 131.546 500.248L131.54 500.255C130.913 500.924 130.049 501.445 128.918 501.8L128.915 501.801C127.809 502.154 126.397 502.34 124.66 502.34Z" fill="#F3E8E1"/>
<path fill-rule="evenodd" clip-rule="evenodd" d="M57.7572 483.259C58.7317 482.16 59.4453 480.908 59.8956 479.51C60.3638 478.128 60.5987 476.719 60.5987 475.284C60.5987 473.629 60.29 472.126 59.6593 470.787C59.0592 469.439 58.2183 468.295 57.1368 467.363C56.0585 466.411 54.7852 465.69 53.3255 465.195C51.8883 464.699 50.3466 464.454 48.7047 464.454H44.4979C44.4979 464.454 45.208 462.784 45.208 461.199V454.698L41.0282 455.189V464.45H31.273V454.698L30.6219 454.774C30.2582 454.817 29.9893 454.851 29.8249 454.877C29.6825 454.88 29.4993 454.893 29.2846 454.915L24.7529 455.396V457.603H25.3359C25.6132 457.603 25.8766 457.624 26.1265 457.666L26.1501 457.669L26.1739 457.671C26.3515 457.686 26.4907 457.742 26.6091 457.834L26.6368 457.856L26.667 457.874C26.7703 457.936 26.89 458.06 26.9983 458.313L27.005 458.328C27.0964 458.526 27.1641 458.855 27.1641 459.36V479.547L31.3084 479.053V467.566L39.5043 467.566C39.7389 467.566 39.9751 467.595 40.2139 467.655C40.392 467.7 40.5474 467.787 40.6877 467.927L40.6986 467.938L40.7099 467.948C40.8679 468.091 41.0107 468.295 41.126 468.583C41.2195 468.816 41.2834 469.147 41.2951 469.597L41.2971 486.855L48.5628 486.859C50.6294 486.859 52.4368 486.544 53.9683 485.891L53.9725 485.889C55.5014 485.223 56.767 484.351 57.7528 483.264L57.7572 483.259ZM47.18 483.743H45.2173V467.57H46.5417C48.0007 467.57 49.3224 467.686 50.5093 467.914L50.52 467.916C51.6785 468.117 52.6466 468.502 53.4399 469.06L53.4488 469.066C54.2206 469.587 54.8273 470.334 55.2615 471.333L55.268 471.347C55.7156 472.306 55.9579 473.607 55.9579 475.284C55.9579 476.757 55.7967 478.023 55.4848 479.092L55.4826 479.1C55.1988 480.126 54.7242 480.971 54.0656 481.651L54.059 481.658C53.432 482.327 52.5683 482.848 51.4377 483.203L51.4346 483.204C50.3289 483.557 48.9162 483.743 47.18 483.743Z" fill="#F3E8E1"/>
<path fill-rule="evenodd" clip-rule="evenodd" d="M690.111 73.0098C691.085 71.9105 691.799 70.6591 692.249 69.2603C692.717 67.8788 692.952 66.4696 692.952 65.0351C692.952 63.3801 692.644 61.877 692.013 60.5374C691.413 59.1893 690.572 58.0455 689.49 57.1142C688.412 56.162 687.139 55.4403 685.679 54.9453C684.242 54.45 682.7 54.2048 681.058 54.2048H676.851C676.851 54.2048 677.562 52.5343 677.562 50.9501V44.4482L673.382 44.94V54.2009H663.627V44.4482L662.975 44.5248C662.612 44.5676 662.343 44.6021 662.178 44.6277C662.036 44.6304 661.853 44.6441 661.638 44.6656L657.106 45.1468V47.3533H657.689C657.967 47.3533 658.23 47.3746 658.48 47.4163L658.504 47.4202L658.527 47.4222C658.705 47.437 658.844 47.493 658.963 47.5851L658.99 47.6067L659.021 47.6248C659.124 47.6867 659.244 47.8111 659.352 48.0638L659.358 48.0784C659.45 48.2765 659.518 48.6059 659.518 49.1106V69.2974L663.662 68.804V57.3168L671.858 57.317C672.092 57.317 672.329 57.3462 672.567 57.4059C672.746 57.4505 672.901 57.5378 673.041 57.6781L673.052 57.6889L673.063 57.6992C673.221 57.8414 673.364 58.0453 673.48 58.3334C673.573 58.5671 673.637 58.898 673.649 59.3473L673.651 76.6058L680.916 76.6101C682.983 76.6101 684.79 76.2943 686.322 75.6415L686.326 75.6397C687.855 74.9739 689.12 74.1017 690.106 73.0148L690.111 73.0098ZM679.533 73.494H677.571V57.3209H678.895C680.354 57.3209 681.676 57.4369 682.863 57.6651L682.874 57.667C684.032 57.8675 685 58.2531 685.793 58.8106L685.802 58.8166C686.574 59.3381 687.181 60.085 687.615 61.0836L687.622 61.0976C688.069 62.0566 688.311 63.3579 688.311 65.0351C688.311 66.5074 688.15 67.774 687.838 68.8432L687.836 68.851C687.552 69.8771 687.078 70.7221 686.419 71.402L686.413 71.4089C685.786 72.0777 684.922 72.5987 683.791 72.9534L683.788 72.9544C682.682 73.3082 681.27 73.494 679.533 73.494Z" fill="#F3E8E1"/>
<path fill-rule="evenodd" clip-rule="evenodd" d="M728.851 82.6265C729.825 81.5272 730.539 80.2758 730.989 78.877C731.458 77.4955 731.692 76.0863 731.692 74.6518C731.692 72.9968 731.384 71.4937 730.753 70.1541C730.153 68.806 729.312 67.6622 728.231 66.7309C727.152 65.7786 725.879 65.057 724.419 64.562C722.982 64.0667 721.44 63.8215 719.798 63.8215H715.592C715.592 63.8215 716.302 62.151 716.302 60.5668V54.0649L712.122 54.5567V63.8176H702.367V54.0649L701.716 54.1415C701.352 54.1843 701.083 54.2188 700.919 54.2444C700.776 54.2471 700.593 54.2608 700.378 54.2823L695.847 54.7635V56.97H696.43C696.707 56.97 696.97 56.9913 697.22 57.033L697.244 57.0369L697.268 57.0389C697.445 57.0537 697.584 57.1097 697.703 57.2018L697.731 57.2234L697.761 57.2415C697.864 57.3034 697.984 57.4278 698.092 57.6805L698.099 57.6951C698.19 57.8932 698.258 58.2226 698.258 58.7272V78.9141L702.402 78.4207V66.9335L710.598 66.9337C710.833 66.9337 711.069 66.9629 711.308 67.0226C711.486 67.0672 711.641 67.1545 711.781 67.2948L711.792 67.3056L711.804 67.3159C711.962 67.4581 712.104 67.662 712.22 67.9501C712.313 68.1838 712.377 68.5147 712.389 68.964L712.391 86.2225L719.657 86.2268C721.723 86.2268 723.531 85.911 725.062 85.2582L725.066 85.2564C726.595 84.5906 727.861 83.7184 728.847 82.6315L728.851 82.6265ZM718.274 83.1107H716.311V66.9376H717.635C719.094 66.9376 720.416 67.0536 721.603 67.2818L721.614 67.2837C722.772 67.4842 723.74 67.8698 724.534 68.4273L724.543 68.4333C725.314 68.9548 725.921 69.7017 726.355 70.7003L726.362 70.7143C726.809 71.6733 727.052 72.9746 727.052 74.6518C727.052 76.1241 726.89 77.3907 726.579 78.4599L726.576 78.4677C726.293 79.4938 725.818 80.3388 725.159 81.0187L725.153 81.0256C724.526 81.6944 723.662 82.2154 722.531 82.5701L722.528 82.5711C721.423 82.9249 720.01 83.1107 718.274 83.1107Z" fill="#F3E8E1"/>
<path fill-rule="evenodd" clip-rule="evenodd" d="M651.37 64.0296C652.344 62.9302 653.058 61.6789 653.508 60.2801C653.976 58.8986 654.211 57.4894 654.211 56.0549C654.211 54.3999 653.902 52.8967 653.272 51.5572C652.672 50.2091 651.831 49.0653 650.749 48.1339C649.671 47.1817 648.398 46.4601 646.938 45.9651C645.501 45.4697 643.959 45.2246 642.317 45.2246H638.11C638.11 45.2246 638.82 43.5541 638.82 41.9699V35.468L634.64 35.9598V45.2207H624.885V35.468L624.234 35.5446C623.87 35.5874 623.602 35.6218 623.437 35.6475C623.295 35.6502 623.112 35.6639 622.897 35.6853L618.365 36.1666V38.373H618.948C619.226 38.373 619.489 38.3944 619.739 38.436L619.762 38.44L619.786 38.4419C619.964 38.4567 620.103 38.5128 620.221 38.6048L620.249 38.6264L620.279 38.6445C620.383 38.7065 620.502 38.8309 620.611 39.0836L620.617 39.0981C620.709 39.2963 620.776 39.6257 620.776 40.1303V60.3171L624.921 59.8238V48.3366L633.117 48.3368C633.351 48.3368 633.587 48.366 633.826 48.4257C634.004 48.4702 634.16 48.5576 634.3 48.6979L634.311 48.7087L634.322 48.719C634.48 48.8612 634.623 49.065 634.738 49.3532C634.832 49.5869 634.896 49.9178 634.907 50.3671L634.909 67.6256L642.175 67.6299C644.242 67.6299 646.049 67.3141 647.581 66.6613L647.585 66.6595C649.114 65.9936 650.379 65.1215 651.365 64.0346L651.37 64.0296ZM640.792 64.5138H638.83V48.3407H640.154C641.613 48.3407 642.935 48.4566 644.122 48.6849L644.132 48.6867C645.291 48.8872 646.259 49.2729 647.052 49.8304L647.061 49.8364C647.833 50.3579 648.44 51.1047 648.874 52.1034L648.88 52.1174C649.328 53.0764 649.57 54.3777 649.57 56.0549C649.57 57.5272 649.409 58.7938 649.097 59.863L649.095 59.8708C648.811 60.8969 648.336 61.7419 647.678 62.4217L647.671 62.4287C647.044 63.0975 646.181 63.6185 645.05 63.9732L645.047 63.9742C643.941 64.328 642.528 64.5138 640.792 64.5138Z" fill="#F3E8E1"/>
<path fill-rule="evenodd" clip-rule="evenodd" d="M717.866 20.3531C718.84 19.2537 719.554 18.0024 720.004 16.6036C720.472 15.2221 720.707 13.8129 720.707 12.3784C720.707 10.7234 720.398 9.22021 719.768 7.88064C719.168 6.53256 718.327 5.38881 717.245 4.45741C716.167 3.50521 714.894 2.7836 713.434 2.28858C711.997 1.79322 710.455 1.54809 708.813 1.54809H704.606C704.606 1.54809 705.316 -0.122436 705.316 -1.70662V-8.2085L701.137 -7.71675V1.54415H691.381V-8.2085L690.73 -8.1319C690.367 -8.0891 690.098 -8.05468 689.933 -8.02903C689.791 -8.02634 689.608 -8.01265 689.393 -7.99118L684.861 -7.50994V-5.30347H685.444C685.722 -5.30347 685.985 -5.28214 686.235 -5.24048L686.258 -5.23655L686.282 -5.23457C686.46 -5.21976 686.599 -5.16374 686.717 -5.07169L686.745 -5.05007L686.775 -5.03196C686.879 -4.97 686.998 -4.84559 687.107 -4.59295L687.113 -4.57839C687.205 -4.38026 687.272 -4.05086 687.272 -3.54619V16.6406L691.417 16.1472V4.66011L699.613 4.66024C699.847 4.66024 700.083 4.68949 700.322 4.74921C700.5 4.79373 700.656 4.88105 700.796 5.02137L700.807 5.03221L700.818 5.04246C700.976 5.18466 701.119 5.38852 701.234 5.67665C701.328 5.91041 701.392 6.2413 701.403 6.69058L701.406 23.9491L708.671 23.9533C710.738 23.9533 712.545 23.6375 714.077 22.9848L714.081 22.983C715.61 22.3171 716.875 21.445 717.861 20.3581L717.866 20.3531ZM707.288 20.8373H705.326V4.66418H706.65C708.109 4.66418 709.431 4.78013 710.618 5.00837L710.628 5.01022C711.787 5.21073 712.755 5.59638 713.548 6.15389L713.557 6.15987C714.329 6.68136 714.936 7.42822 715.37 8.42688L715.376 8.44088C715.824 9.3999 716.066 10.7012 716.066 12.3784C716.066 13.8507 715.905 15.1173 715.593 16.1865L715.591 16.1943C715.307 17.2204 714.833 18.0654 714.174 18.7452L714.167 18.7522C713.54 19.421 712.677 19.942 711.546 20.2967L711.543 20.2977C710.437 20.6515 709.025 20.8373 707.288 20.8373Z" fill="#F3E8E1"/>
<path fill-rule="evenodd" clip-rule="evenodd" d="M640.384 1.75594C641.359 0.656546 642.072 -0.594807 642.523 -1.99361C642.991 -3.3751 643.226 -4.78427 643.226 -6.21876C643.226 -7.87379 642.917 -9.37696 642.286 -10.7165C641.686 -12.0646 640.845 -13.2084 639.764 -14.1398C638.685 -15.092 637.412 -15.8136 635.952 -16.3086C634.515 -16.804 632.974 -17.0491 631.332 -17.0491H627.125C627.125 -17.0491 627.835 -18.7196 627.835 -20.3038V-26.8057L623.655 -26.3139V-17.053H613.9V-26.8057L613.249 -26.7291C612.885 -26.6863 612.616 -26.6519 612.452 -26.6262C612.309 -26.6235 612.126 -26.6098 611.912 -26.5883L607.38 -26.1071V-23.9006H607.963C608.24 -23.9006 608.504 -23.8793 608.753 -23.8377L608.777 -23.8337L608.801 -23.8317C608.978 -23.8169 609.118 -23.7609 609.236 -23.6689L609.264 -23.6472L609.294 -23.6291C609.397 -23.5672 609.517 -23.4428 609.625 -23.1901L609.632 -23.1756C609.723 -22.9774 609.791 -22.648 609.791 -22.1434V-1.95655L613.935 -2.44992V-13.9371L622.131 -13.9369C622.366 -13.9369 622.602 -13.9077 622.841 -13.848C623.019 -13.8034 623.174 -13.7161 623.315 -13.5758L623.326 -13.565L623.337 -13.5547C623.495 -13.4125 623.638 -13.2087 623.753 -12.9205C623.846 -12.6868 623.91 -12.3559 623.922 -11.9066L623.924 5.35189L631.19 5.35618C633.256 5.35618 635.064 5.04037 636.595 4.38761L636.599 4.38579C638.128 3.71996 639.394 2.84781 640.38 1.7609L640.384 1.75594ZM629.807 2.24009H627.844V-13.933H629.169C630.628 -13.933 631.949 -13.817 633.136 -13.5888L633.147 -13.5869C634.305 -13.3864 635.274 -13.0008 636.067 -12.4433L636.076 -12.4373C636.848 -11.9158 637.454 -11.169 637.888 -10.1703L637.895 -10.1563C638.343 -9.19727 638.585 -7.89597 638.585 -6.21876C638.585 -4.7465 638.424 -3.47992 638.112 -2.4107L638.11 -2.40286C637.826 -1.37681 637.351 -0.531792 636.693 0.14806L636.686 0.155025C636.059 0.823828 635.195 1.34479 634.065 1.69949L634.062 1.7005C632.956 2.05432 631.543 2.24009 629.807 2.24009Z" fill="#F3E8E1"/>
<path fill-rule="evenodd" clip-rule="evenodd" d="M679.125 11.3726C680.1 10.2732 680.813 9.02189 681.264 7.62309C681.732 6.24159 681.967 4.83243 681.967 3.39794C681.967 1.74291 681.658 0.239744 681.028 -1.09983C680.427 -2.44791 679.587 -3.59166 678.505 -4.52305C677.427 -5.47526 676.153 -6.19687 674.694 -6.69189C673.256 -7.18725 671.715 -7.43238 670.073 -7.43238H665.866C665.866 -7.43238 666.576 -9.1029 666.576 -10.6871V-17.189L662.396 -16.6972V-7.43632H652.641V-17.189L651.99 -17.1124C651.626 -17.0696 651.357 -17.0352 651.193 -17.0095C651.051 -17.0068 650.867 -16.9931 650.653 -16.9716L646.121 -16.4904V-14.2839H646.704C646.981 -14.2839 647.245 -14.2626 647.495 -14.221L647.518 -14.217L647.542 -14.215C647.72 -14.2002 647.859 -14.1442 647.977 -14.0522L648.005 -14.0305L648.035 -14.0124C648.138 -13.9505 648.258 -13.8261 648.366 -13.5734L648.373 -13.5589C648.465 -13.3607 648.532 -13.0313 648.532 -12.5267V7.66015L652.677 7.16677V-4.32036L660.872 -4.32023C661.107 -4.32023 661.343 -4.29097 661.582 -4.23126C661.76 -4.18674 661.916 -4.09942 662.056 -3.9591L662.067 -3.94826L662.078 -3.93801C662.236 -3.79581 662.379 -3.59195 662.494 -3.30382C662.588 -3.07006 662.652 -2.73917 662.663 -2.28989L662.665 14.9686L669.931 14.9729C671.998 14.9729 673.805 14.6571 675.336 14.0043L675.341 14.0025C676.87 13.3367 678.135 12.4645 679.121 11.3776L679.125 11.3726ZM668.548 11.8568H666.585V-4.31629H667.91C669.369 -4.31629 670.691 -4.20034 671.877 -3.9721L671.888 -3.97025C673.047 -3.76974 674.015 -3.38409 674.808 -2.82658L674.817 -2.8206C675.589 -2.29911 676.195 -1.55225 676.63 -0.553587L676.636 -0.539585C677.084 0.41943 677.326 1.72073 677.326 3.39794C677.326 4.8702 677.165 6.13678 676.853 7.206L676.851 7.21384C676.567 8.23989 676.092 9.08491 675.434 9.76476L675.427 9.77172C674.8 10.4405 673.937 10.9615 672.806 11.3162L672.803 11.3172C671.697 11.671 670.284 11.8568 668.548 11.8568Z" fill="#F3E8E1"/>
<path fill-rule="evenodd" clip-rule="evenodd" d="M676.221 99.3087C677.196 98.2093 677.909 96.9579 678.359 95.5591C678.828 94.1776 679.063 92.7685 679.063 91.334C679.063 89.6789 678.754 88.1758 678.123 86.8362C677.523 85.4881 676.682 84.3444 675.601 83.413C674.522 82.4608 673.249 81.7392 671.789 81.2441C670.352 80.7488 668.81 80.5037 667.169 80.5037H662.962C662.962 80.5037 663.672 78.8331 663.672 77.2489V70.7471L659.492 71.2388V80.4997H649.737V70.7471L649.086 70.8237C648.722 70.8665 648.453 70.9009 648.289 70.9265C648.146 70.9292 647.963 70.9429 647.748 70.9644L643.217 71.4456V73.6521H643.8C644.077 73.6521 644.34 73.6734 644.59 73.7151L644.614 73.719L644.638 73.721C644.815 73.7358 644.955 73.7918 645.073 73.8839L645.101 73.9055L645.131 73.9236C645.234 73.9856 645.354 74.11 645.462 74.3626L645.469 74.3772C645.56 74.5753 645.628 74.9047 645.628 75.4094V95.5962L649.772 95.1028V83.6157L657.968 83.6158C658.203 83.6158 658.439 83.6451 658.678 83.7048C658.856 83.7493 659.011 83.8366 659.152 83.9769L659.162 83.9878L659.174 83.998C659.332 84.1402 659.475 84.3441 659.59 84.6322C659.683 84.866 659.747 85.1969 659.759 85.6461L659.761 102.905L667.027 102.909C669.093 102.909 670.901 102.593 672.432 101.94L672.436 101.939C673.965 101.273 675.231 100.401 676.217 99.3136L676.221 99.3087ZM665.644 99.7928H663.681V83.6197H665.006C666.465 83.6197 667.786 83.7357 668.973 83.9639L668.984 83.9658C670.142 84.1663 671.11 84.5519 671.904 85.1095L671.913 85.1154C672.684 85.6369 673.291 86.3838 673.725 87.3824L673.732 87.3965C674.179 88.3555 674.422 89.6568 674.422 91.334C674.422 92.8062 674.261 94.0728 673.949 95.142L673.946 95.1499C673.663 96.1759 673.188 97.0209 672.529 97.7008L672.523 97.7078C671.896 98.3766 671.032 98.8975 669.902 99.2522L669.898 99.2532C668.793 99.6071 667.38 99.7928 665.644 99.7928Z" fill="#F3E8E1"/>
<path fill-rule="evenodd" clip-rule="evenodd" d="M714.962 108.925C715.937 107.826 716.65 106.574 717.101 105.176C717.569 103.794 717.804 102.385 717.804 100.95C717.804 99.2954 717.495 97.7922 716.864 96.4527C716.264 95.1046 715.423 93.9608 714.342 93.0294C713.264 92.0772 711.99 91.3556 710.531 90.8606C709.093 90.3652 707.552 90.1201 705.91 90.1201H701.703C701.703 90.1201 702.413 88.4496 702.413 86.8654V80.3635L698.233 80.8553V90.1162H688.478V80.3635L687.827 80.4401C687.463 80.4829 687.194 80.5173 687.03 80.543C686.888 80.5457 686.704 80.5594 686.49 80.5808L681.958 81.0621V83.2686H682.541C682.818 83.2686 683.082 83.2899 683.332 83.3315L683.355 83.3355L683.379 83.3375C683.557 83.3523 683.696 83.4083 683.814 83.5003L683.842 83.5219L683.872 83.5401C683.975 83.602 684.095 83.7264 684.203 83.9791L684.21 83.9936C684.302 84.1918 684.369 84.5212 684.369 85.0258V105.213L688.514 104.719V93.2321L696.709 93.2323C696.944 93.2323 697.18 93.2615 697.419 93.3212C697.597 93.3658 697.752 93.4531 697.893 93.5934L697.904 93.6042L697.915 93.6145C698.073 93.7567 698.216 93.9605 698.331 94.2487C698.425 94.4824 698.488 94.8133 698.5 95.2626L698.502 112.521L705.768 112.525C707.835 112.525 709.642 112.21 711.173 111.557L711.178 111.555C712.706 110.889 713.972 110.017 714.958 108.93L714.962 108.925ZM704.385 109.409H702.422V93.2362H703.747C705.206 93.2362 706.528 93.3521 707.714 93.5804L707.725 93.5822C708.884 93.7827 709.852 94.1684 710.645 94.7259L710.654 94.7319C711.426 95.2534 712.032 96.0002 712.467 96.9989L712.473 97.0129C712.921 97.9719 713.163 99.2732 713.163 100.95C713.163 102.423 713.002 103.689 712.69 104.758L712.688 104.766C712.404 105.792 711.929 106.637 711.271 107.317L711.264 107.324C710.637 107.993 709.773 108.514 708.643 108.869L708.64 108.87C707.534 109.224 706.121 109.409 704.385 109.409Z" fill="#F3E8E1"/>
<path fill-rule="evenodd" clip-rule="evenodd" d="M703.986 46.6683C704.96 45.5689 705.674 44.3175 706.124 42.9187C706.592 41.5372 706.827 40.1281 706.827 38.6936C706.827 37.0386 706.519 35.5354 705.888 34.1958C705.288 32.8477 704.447 31.704 703.365 30.7726C702.287 29.8204 701.014 29.0988 699.554 28.6038C698.117 28.1084 696.575 27.8633 694.933 27.8633H690.726C690.726 27.8633 691.437 26.1927 691.437 24.6086V18.1067L687.257 18.5984V27.8593H677.502V18.1067L676.85 18.1833C676.487 18.2261 676.218 18.2605 676.053 18.2862C675.911 18.2888 675.728 18.3025 675.513 18.324L670.981 18.8052V21.0117H671.564C671.842 21.0117 672.105 21.033 672.355 21.0747L672.379 21.0786L672.402 21.0806C672.58 21.0954 672.719 21.1514 672.838 21.2435L672.865 21.2651L672.896 21.2832C672.999 21.3452 673.119 21.4696 673.227 21.7222L673.233 21.7368C673.325 21.9349 673.393 22.2643 673.393 22.769V42.9558L677.537 42.4624V30.9753L685.733 30.9754C685.967 30.9754 686.204 31.0047 686.442 31.0644C686.621 31.1089 686.776 31.1962 686.916 31.3366L686.927 31.3474L686.938 31.3576C687.096 31.4998 687.239 31.7037 687.355 31.9918C687.448 32.2256 687.512 32.5565 687.524 33.0058L687.526 50.2642L694.791 50.2685C696.858 50.2685 698.665 49.9527 700.197 49.3L700.201 49.2981C701.73 48.6323 702.995 47.7602 703.981 46.6733L703.986 46.6683ZM693.408 47.1524H691.446V30.9794H692.77C694.229 30.9794 695.551 31.0953 696.738 31.3236L696.749 31.3254C697.907 31.5259 698.875 31.9116 699.668 32.4691L699.677 32.4751C700.449 32.9965 701.056 33.7434 701.49 34.7421L701.497 34.7561C701.944 35.7151 702.186 37.0164 702.186 38.6936C702.186 40.1659 702.025 41.4324 701.713 42.5017L701.711 42.5095C701.427 43.5355 700.953 44.3806 700.294 45.0604L700.288 45.0674C699.661 45.7362 698.797 46.2571 697.666 46.6118L697.663 46.6129C696.557 46.9667 695.145 47.1524 693.408 47.1524Z" fill="#F3E8E1"/>
<path fill-rule="evenodd" clip-rule="evenodd" d="M626.504 28.0711C627.479 26.9717 628.192 25.7204 628.643 24.3216C629.111 22.9401 629.346 21.5309 629.346 20.0964C629.346 18.4414 629.037 16.9382 628.406 15.5987C627.806 14.2506 626.965 13.1068 625.884 12.1754C624.806 11.2232 623.532 10.5016 622.073 10.0066C620.635 9.51123 619.094 9.26611 617.452 9.26611H613.245C613.245 9.26611 613.955 7.59558 613.955 6.0114V-0.490479L609.775 0.00126579V9.26217H600.02V-0.490479L599.369 -0.413883C599.005 -0.371086 598.736 -0.336667 598.572 -0.311012C598.43 -0.308318 598.246 -0.294631 598.032 -0.273161L593.5 0.208082V2.41455H594.083C594.36 2.41455 594.624 2.43588 594.874 2.47753L594.897 2.48147L594.921 2.48345C595.099 2.49825 595.238 2.55427 595.356 2.64633L595.384 2.66794L595.414 2.68605C595.517 2.74801 595.637 2.87242 595.745 3.12506L595.752 3.13963C595.843 3.33776 595.911 3.66716 595.911 4.17183V24.3586L600.056 23.8653V12.3781L608.251 12.3783C608.486 12.3783 608.722 12.4075 608.961 12.4672C609.139 12.5117 609.294 12.5991 609.435 12.7394L609.446 12.7502L609.457 12.7605C609.615 12.9027 609.758 13.1065 609.873 13.3947C609.967 13.6284 610.03 13.9593 610.042 14.4086L610.044 31.6671L617.31 31.6714C619.377 31.6714 621.184 31.3556 622.715 30.7028L622.72 30.701C624.248 30.0352 625.514 29.163 626.5 28.0761L626.504 28.0711ZM615.927 28.5553H613.964V12.3822H615.289C616.748 12.3822 618.069 12.4981 619.256 12.7264L619.267 12.7282C620.426 12.9287 621.394 13.3144 622.187 13.8719L622.196 13.8779C622.968 14.3994 623.574 15.1462 624.009 16.1449L624.015 16.1589C624.463 17.1179 624.705 18.4192 624.705 20.0964C624.705 21.5687 624.544 22.8353 624.232 23.9045L624.23 23.9123C623.946 24.9384 623.471 25.7834 622.813 26.4632L622.806 26.4702C622.179 27.139 621.315 27.66 620.185 28.0147L620.182 28.0157C619.076 28.3695 617.663 28.5553 615.927 28.5553Z" fill="#F3E8E1"/>
<path fill-rule="evenodd" clip-rule="evenodd" d="M665.245 37.6876C666.219 36.5882 666.933 35.3368 667.383 33.938C667.851 32.5565 668.086 31.1474 668.086 29.7129C668.086 28.0579 667.777 26.5547 667.147 25.2151C666.547 23.867 665.706 22.7233 664.624 21.7919C663.546 20.8397 662.273 20.1181 660.813 19.6231C659.376 19.1277 657.834 18.8826 656.192 18.8826H651.985C651.985 18.8826 652.695 17.212 652.695 15.6279V9.12598L648.515 9.61772V18.8786H638.76V9.12598L638.109 9.20257C637.745 9.24537 637.477 9.27979 637.312 9.30544C637.17 9.30814 636.987 9.32182 636.772 9.34329L632.24 9.82454V12.031H632.823C633.101 12.031 633.364 12.0523 633.614 12.094L633.637 12.0979L633.661 12.0999C633.839 12.1147 633.978 12.1707 634.096 12.2628L634.124 12.2844L634.154 12.3025C634.258 12.3645 634.377 12.4889 634.486 12.7415L634.492 12.7561C634.584 12.9542 634.651 13.2836 634.651 13.7883V33.9751L638.796 33.4817V21.9946L646.992 21.9947C647.226 21.9947 647.462 22.024 647.701 22.0837C647.879 22.1282 648.035 22.2155 648.175 22.3558L648.186 22.3667L648.197 22.3769C648.355 22.5191 648.498 22.723 648.613 23.0111C648.707 23.2449 648.771 23.5758 648.782 24.0251L648.784 41.2835L656.05 41.2878C658.117 41.2878 659.924 40.972 661.456 40.3192L661.46 40.3174C662.989 39.6516 664.254 38.7794 665.24 37.6925L665.245 37.6876ZM654.667 38.1717H652.705V21.9987H654.029C655.488 21.9987 656.81 22.1146 657.997 22.3428L658.007 22.3447C659.166 22.5452 660.134 22.9308 660.927 23.4884L660.936 23.4943C661.708 24.0158 662.315 24.7627 662.749 25.7614L662.755 25.7754C663.203 26.7344 663.445 28.0357 663.445 29.7129C663.445 31.1851 663.284 32.4517 662.972 33.5209L662.97 33.5288C662.686 34.5548 662.211 35.3998 661.553 36.0797L661.546 36.0867C660.919 36.7555 660.056 37.2764 658.925 37.6311L658.922 37.6321C657.816 37.986 656.403 38.1717 654.667 38.1717Z" fill="#F3E8E1"/>
<path fill-rule="evenodd" clip-rule="evenodd" d="M701.081 135.24C702.056 134.14 702.77 132.889 703.22 131.49C703.688 130.109 703.923 128.7 703.923 127.265C703.923 125.61 703.614 124.107 702.984 122.767C702.383 121.419 701.543 120.276 700.461 119.344C699.383 118.392 698.109 117.67 696.65 117.175C695.213 116.68 693.671 116.435 692.029 116.435H687.822C687.822 116.435 688.532 114.764 688.532 113.18V106.678L684.352 107.17V116.431H674.597V106.678L673.946 106.755C673.582 106.798 673.314 106.832 673.149 106.858C673.007 106.86 672.824 106.874 672.609 106.896L668.077 107.377V109.583H668.66C668.937 109.583 669.201 109.605 669.451 109.646L669.474 109.65L669.498 109.652C669.676 109.667 669.815 109.723 669.933 109.815L669.961 109.837L669.991 109.855C670.095 109.917 670.214 110.041 670.322 110.294L670.329 110.308C670.421 110.506 670.488 110.836 670.488 111.341V131.527L674.633 131.034V119.547L682.829 119.547C683.063 119.547 683.299 119.576 683.538 119.636C683.716 119.68 683.872 119.768 684.012 119.908L684.023 119.919L684.034 119.929C684.192 120.071 684.335 120.275 684.45 120.563C684.544 120.797 684.608 121.128 684.619 121.577L684.621 138.836L691.887 138.84C693.954 138.84 695.761 138.524 697.293 137.871L697.297 137.87C698.826 137.204 700.091 136.332 701.077 135.245L701.081 135.24ZM690.504 135.724H688.541V119.551H689.866C691.325 119.551 692.647 119.667 693.834 119.895L693.844 119.897C695.003 120.097 695.971 120.483 696.764 121.041L696.773 121.047C697.545 121.568 698.151 122.315 698.586 123.314L698.592 123.328C699.04 124.287 699.282 125.588 699.282 127.265C699.282 128.737 699.121 130.004 698.809 131.073L698.807 131.081C698.523 132.107 698.048 132.952 697.39 133.632L697.383 133.639C696.756 134.308 695.893 134.829 694.762 135.183L694.759 135.184C693.653 135.538 692.24 135.724 690.504 135.724Z" fill="#F3E8E1"/>
</g>
<defs>
<clipPath id="clip0_10208_2932">
<rect width="699" height="522.937" fill="white"/>
</clipPath>
</defs>
</svg>
