<svg width="104" height="83" viewBox="0 0 104 83" fill="none" xmlns="http://www.w3.org/2000/svg">
<path fill-rule="evenodd" clip-rule="evenodd" d="M52.3101 2.59375C57.9883 2.59375 63.2457 4.39505 67.5422 7.45739C67.4469 7.49122 67.3499 7.52485 67.2511 7.55827C63.8298 8.71556 58.7337 9.4747 52.3101 9.4747C45.8865 9.4747 40.7904 8.71556 37.3692 7.55827C37.2704 7.52485 37.1733 7.49122 37.078 7.45739C41.3745 4.39505 46.632 2.59375 52.3101 2.59375ZM55.987 38.5061H54.5156V26.3814H55.5085C56.6023 26.3814 57.5931 26.4683 58.4829 26.6394L58.4909 26.6408C59.3594 26.7911 60.0852 27.0802 60.68 27.4982L60.6866 27.5027C61.2652 27.8936 61.72 28.4535 62.0455 29.2022L62.0505 29.2127C62.386 29.9317 62.5677 30.9072 62.5677 32.1646C62.5677 33.2684 62.4468 34.2179 62.213 35.0195L62.2113 35.0253C61.9986 35.7946 61.6427 36.4281 61.149 36.9377L61.1441 36.943C60.674 37.4443 60.0266 37.8349 59.1789 38.1008L59.1766 38.1016C58.3476 38.3668 57.2886 38.5061 55.987 38.5061ZM69.269 8.79952C65.6018 10.3562 59.7486 11.3513 52.3101 11.3513C44.8716 11.3513 39.0184 10.3562 35.3513 8.79952C29.6545 13.6188 26.0374 20.8202 26.0374 28.8665C26.0374 36.9127 29.6545 44.1141 35.3513 48.9334C39.0184 47.3767 44.8716 46.3816 52.3101 46.3816C59.7486 46.3816 65.6018 47.3767 69.269 48.9334C74.9658 44.1141 78.5828 36.9127 78.5828 28.8665C78.5828 20.8202 74.9658 13.6188 69.269 8.79952ZM65.5197 35.3322C65.1821 36.3808 64.6471 37.3189 63.9166 38.1431L63.9132 38.1469C63.1742 38.9617 62.2254 39.6155 61.0792 40.1147L61.0761 40.1161C59.9279 40.6054 58.573 40.8422 57.0237 40.8422L51.5767 40.839L51.5752 27.9006C51.5664 27.5637 51.5185 27.3157 51.4484 27.1404C51.362 26.9244 51.2549 26.7716 51.1365 26.665L51.1279 26.6573L51.1198 26.6492C51.0146 26.544 50.8981 26.4785 50.7646 26.4451C50.5856 26.4004 50.4085 26.3784 50.2326 26.3784L44.0883 26.3783V34.9901L40.9814 35.3599V20.2262C40.9814 19.8479 40.9307 19.6009 40.8621 19.4524L40.8571 19.4415C40.7759 19.2521 40.6861 19.1588 40.6087 19.1123L40.5861 19.0988L40.5653 19.0826C40.4765 19.0135 40.3722 18.9716 40.2391 18.9605L40.2212 18.959L40.2035 18.956C40.0161 18.9248 39.8187 18.9088 39.6108 18.9088H39.1738V17.2546L42.5711 16.8939C42.7321 16.8778 42.8694 16.8675 42.9761 16.8655C43.0994 16.8463 43.3009 16.8205 43.5737 16.7884L44.0618 16.731V24.0424H51.375V17.0996L54.5086 16.731V21.6053C54.5086 22.7929 53.9763 24.0453 53.9763 24.0453H57.13C58.361 24.0453 59.5168 24.2291 60.5941 24.6004C61.6885 24.9715 62.6431 25.5125 63.4514 26.2264C64.2623 26.9246 64.8926 27.7821 65.3426 28.7927C65.8154 29.797 66.0468 30.9239 66.0468 32.1646C66.0468 33.24 65.8707 34.2965 65.5197 35.3322ZM67.5422 50.2755C63.2457 53.3378 57.9883 55.1392 52.3101 55.1392C46.632 55.1392 41.3745 53.3378 37.078 50.2755C37.1733 50.2417 37.2704 50.208 37.3692 50.1746C40.7904 49.0173 45.8865 48.2582 52.3101 48.2582C58.7337 48.2582 63.8298 49.0173 67.2511 50.1746C67.3499 50.208 67.4469 50.2417 67.5422 50.2755ZM12.8435 67.5929V73.067H6.66203V67.3554L6.52512 67.3715C6.29767 67.3982 6.13826 67.4189 6.04926 67.4333C5.9739 67.4339 5.86738 67.4414 5.73359 67.4548L3.26611 67.7168V68.5965H3.3887C3.56324 68.5965 3.7303 68.6103 3.89012 68.637L3.90017 68.6378C4.04479 68.6499 4.16737 68.6981 4.27272 68.78L4.28546 68.7877C4.39657 68.8543 4.49326 68.9699 4.56966 69.1482L4.57108 69.1513C4.64394 69.3091 4.68499 69.5393 4.68499 69.8511V80.3386L6.68289 80.1007V74.4598H12.8644V80.3386L14.8623 80.1007V67.3554L12.8435 67.5929ZM21.9135 67.1219C21.5848 67.1767 21.3541 67.2185 21.2242 67.2471C21.1112 67.2614 20.9786 67.2824 20.8267 67.31C20.6799 67.3367 20.4411 67.3642 20.1077 67.392C19.7859 67.4199 19.2628 67.4758 18.5394 67.5592L18.4308 67.5717V68.4504H18.5534C18.7138 68.4504 18.896 68.4638 19.1006 68.4911C19.2974 68.5173 19.4632 68.5693 19.6006 68.6442L19.6045 68.6461C19.7493 68.7185 19.8455 68.8175 19.9021 68.9421L19.9064 68.9499C19.9664 69.06 19.9763 69.2285 19.8979 69.478L15.9664 80.3797L17.5164 80.1002L19.1594 75.8161H23.1424L24.8363 80.3331L26.9241 80.0959L22.0128 67.1054L21.9135 67.1219ZM29.4006 78.5365C30.0099 79.1175 30.7181 79.5777 31.5242 79.917L31.5266 79.918C32.3486 80.244 33.2265 80.4066 34.1591 80.4066C34.9765 80.4066 35.7597 80.3008 36.5083 80.089C37.2802 79.8745 38.0535 79.4402 38.8282 78.7922L38.8938 78.7374L38.865 78.6569C38.7965 78.465 38.7348 78.2868 38.6799 78.1224C38.6362 77.9347 38.5712 77.7478 38.4853 77.5618L38.4201 77.4203L38.2979 77.517C37.6398 78.038 36.9563 78.4204 36.2473 78.6658C35.5356 78.9122 34.8397 79.0346 34.1591 79.0346C33.632 79.0346 33.1039 78.9401 32.5743 78.7502C32.0497 78.5482 31.5781 78.2386 31.1591 77.82C30.7551 77.3887 30.4225 76.8402 30.1631 76.1715C29.9054 75.4933 29.7747 74.6811 29.7747 73.7321C29.7747 72.8947 29.8917 72.1646 30.1221 71.5411C30.3536 70.9011 30.6721 70.3741 31.0756 69.9572L31.0769 69.9558C31.4827 69.5229 31.9482 69.1994 32.4738 68.9838L32.4752 68.9832C33.0159 68.7534 33.5908 68.6382 34.2009 68.6382C34.9408 68.6382 35.6014 68.741 36.1844 68.9444L36.1869 68.9452C36.7755 69.1368 37.3725 69.4111 37.9778 69.7688L38.1133 69.8489L38.1578 69.6978C38.2271 69.4623 38.2892 69.262 38.3443 69.0969L38.3451 69.0942C38.4007 68.9136 38.4632 68.712 38.5328 68.4896L38.5634 68.3917L38.4724 68.3443C37.7986 67.9934 37.1307 67.7191 36.4688 67.5219C35.8148 67.3229 35.0583 67.2246 34.2009 67.2246C33.2402 67.2246 32.3478 67.3942 31.5249 67.7347C30.7043 68.0742 29.9885 68.5417 29.3786 69.1374L29.3776 69.1384C28.7814 69.7346 28.3136 70.4439 27.9739 71.2647C27.6333 72.0739 27.4638 72.9595 27.4638 73.9199C27.4638 74.8396 27.6336 75.6977 27.9745 76.493L27.9756 76.4954C28.3294 77.2739 28.8041 77.9542 29.3995 78.5355L29.4006 78.5365ZM50.2943 80.0929L44.3885 73.3403L50.3137 67.2863L48.0876 67.5645L42.7374 72.8743V67.3536L42.599 67.3717C42.279 67.4134 42.0575 67.4411 41.9336 67.4548C41.8089 67.4687 41.6771 67.4826 41.5384 67.4964L39.3624 67.7162V68.5965H39.485C39.6595 68.5965 39.8266 68.6103 39.9864 68.637L39.9964 68.6378C40.141 68.6499 40.2636 68.6981 40.369 68.78L40.3817 68.7877C40.4905 68.8529 40.5792 68.9658 40.6419 69.1413L40.6465 69.1513C40.7193 69.3091 40.7604 69.5393 40.7604 69.8511V80.3386L42.7583 80.1007V74.4165L47.8421 80.3072L50.2943 80.0929ZM57.8964 69.8719V80.2188H62.0879C63.2823 80.2188 64.3159 80.0358 65.1832 79.6661C66.059 79.2847 66.7766 78.7884 67.3325 78.1754L67.3335 78.1744C67.887 77.5498 68.2919 76.8397 68.5475 76.045C68.8158 75.2538 68.9501 74.4479 68.9501 73.6278C68.9501 72.6808 68.7735 71.8283 68.4173 71.0728C68.0766 70.3066 67.6003 69.6593 66.9885 69.1327C66.3773 68.5927 65.6535 68.1817 64.819 67.8988C63.9983 67.6159 63.1155 67.475 62.1713 67.475H56.4984V68.367H56.621C56.7776 68.367 56.9346 68.3865 57.0921 68.4259C57.2368 68.4621 57.3632 68.5342 57.4732 68.6442L57.478 68.6485C57.6006 68.7589 57.7021 68.909 57.78 69.1037C57.8556 69.2926 57.8964 69.5468 57.8964 69.8719ZM65.483 77.5293C65.083 77.956 64.5393 78.2801 63.8456 78.4977C63.1661 78.7152 62.3097 78.826 61.2741 78.826H59.8735V68.8678H60.8985C61.7685 68.8678 62.5605 68.9368 63.2749 69.0742L63.2772 69.0746C63.9857 69.1972 64.5871 69.4348 65.0847 69.7844L65.0865 69.7857C65.5796 70.1189 65.9619 70.5933 66.232 71.2145L66.2334 71.2174C66.5153 71.8214 66.6601 72.6225 66.6601 73.6278C66.6601 74.5095 66.5636 75.2765 66.3729 75.9304L66.3724 75.9321C66.1965 76.568 65.9 77.0988 65.4844 77.5278L65.483 77.5293ZM75.2681 67.1219C74.9393 67.1767 74.7087 67.2185 74.5788 67.2471C74.4658 67.2614 74.3332 67.2824 74.1813 67.31C74.0345 67.3367 73.7957 67.3642 73.4623 67.392C73.1405 67.4199 72.6174 67.4758 71.894 67.5592L71.7854 67.5717V68.4504H71.908C72.0683 68.4504 72.2506 68.4638 72.4552 68.4911C72.652 68.5173 72.8178 68.5693 72.9552 68.6442L72.9591 68.6461C73.1038 68.7185 73.2001 68.8175 73.2567 68.9421L73.261 68.9499C73.321 69.06 73.3308 69.2285 73.2524 69.478L69.321 80.3797L70.871 80.1002L72.5139 75.8161H76.497L78.1909 80.3331L80.2787 80.0959L75.3674 67.1054L75.2681 67.1219ZM85.4715 80.3386L87.4694 80.1007V73.5632L91.993 67.3162L89.9704 67.5659L86.7818 71.9809L83.3331 67.3622L83.2617 67.3717C83.0539 67.3994 82.8663 67.4272 82.6989 67.455C82.5456 67.469 82.3725 67.4898 82.1799 67.5173C81.9851 67.5313 81.7567 67.5521 81.4947 67.5796C81.2301 67.5936 80.8897 67.6144 80.4738 67.6422L80.3593 67.6498V68.4956L80.4633 68.5116C80.6484 68.5401 80.8539 68.5615 81.0794 68.5756H81.087C81.3072 68.5756 81.4769 68.6215 81.6051 68.7031L81.6164 68.7087C81.7345 68.7678 81.8746 68.8862 82.037 69.0756L82.0436 69.0822C82.2184 69.257 82.4583 69.5444 82.7635 69.9467L85.4715 73.4609V80.3386ZM94.149 79.898C94.4871 80.0247 94.8254 80.1305 95.1639 80.2151L95.1696 80.2164C95.5213 80.2867 95.8597 80.3361 96.1846 80.3644C96.5071 80.3924 96.7959 80.4066 97.0507 80.4066C97.6048 80.4066 98.1188 80.3284 98.5918 80.1708L98.5938 80.17C99.0796 79.9986 99.497 79.7617 99.844 79.4582L99.8461 79.4562C100.192 79.1392 100.466 78.7643 100.667 78.3327C100.87 77.8973 100.971 77.4133 100.971 76.8828C100.971 76.2277 100.843 75.6697 100.579 75.2153C100.321 74.7574 99.9918 74.3634 99.5907 74.0338C99.1941 73.708 98.7486 73.4183 98.2549 73.1643C97.7835 72.9147 97.3179 72.6576 96.8604 72.3942C96.6422 72.2714 96.4307 72.135 96.226 71.9848C96.0233 71.8362 95.8415 71.6745 95.6802 71.4998C95.5224 71.3288 95.3978 71.1386 95.3059 70.9287C95.2166 70.7244 95.1702 70.4843 95.1702 70.2058C95.1702 69.712 95.3502 69.3474 95.7037 69.0948C96.0818 68.821 96.5628 68.68 97.155 68.68C97.504 68.68 97.8608 68.7337 98.2261 68.8419L98.2301 68.843C98.6002 68.9389 98.9418 69.0551 99.2553 69.1914L99.3711 69.2418L99.418 69.1245C99.4496 69.0455 99.4788 68.9343 99.5067 68.7958L99.6292 68.3874C99.6863 68.23 99.736 68.0593 99.7784 67.8755L99.803 67.7688L99.6997 67.7323C99.463 67.6488 99.2462 67.5788 99.0496 67.5225C98.8517 67.452 98.6471 67.3956 98.4358 67.3531C98.2345 67.296 98.02 67.2604 97.7929 67.2459C97.5788 67.2176 97.3382 67.2037 97.0716 67.2037C96.5156 67.2037 95.9997 67.2964 95.5252 67.4831C95.0661 67.6554 94.6694 67.9003 94.3369 68.2184L94.3349 68.2203C94.0174 68.5378 93.7655 68.9125 93.5788 69.3432L93.5775 69.3465C93.4043 69.7794 93.3183 70.2471 93.3183 70.7483C93.3183 71.3514 93.4549 71.8759 93.7338 72.3162C94.0049 72.7442 94.3398 73.129 94.7382 73.4705L94.7419 73.4734C95.1507 73.7977 95.5944 74.0934 96.0728 74.3608L96.0752 74.3621C96.5464 74.6115 96.9897 74.8609 97.4049 75.11C97.6119 75.2342 97.8189 75.3653 98.026 75.5034C98.2267 75.6372 98.407 75.7909 98.5672 75.9645L98.5707 75.968C98.7413 76.1386 98.8711 76.3278 98.962 76.5357L98.9665 76.5441C99.0673 76.733 99.119 76.9492 99.119 77.1958C99.119 77.7136 98.9144 78.138 98.4976 78.4771C98.0783 78.8043 97.5434 78.972 96.8838 78.972C96.684 78.972 96.4553 78.9521 96.1972 78.9115C95.9516 78.8568 95.6851 78.7885 95.3977 78.7065C95.1265 78.6114 94.8549 78.496 94.583 78.3601C94.3126 78.2112 94.0554 78.0352 93.8115 77.832L93.6615 77.7069L93.6141 77.8964C93.5876 78.0023 93.5472 78.1301 93.4924 78.2806L93.4904 78.2874C93.4487 78.4266 93.4069 78.5725 93.3652 78.7253C93.3088 78.8951 93.2594 79.0716 93.2171 79.2548L93.1995 79.3311L93.2613 79.3792C93.5206 79.5808 93.8147 79.753 94.1431 79.8958L94.149 79.898ZM21.0832 70.2704L22.6529 74.3815H19.6443L21.0832 70.2704ZM76.0075 74.3815H72.9989L74.4378 70.2704L76.0075 74.3815Z" fill="#31423D"/>
</svg>
