<svg width="63" height="70" viewBox="0 0 63 70" fill="none" xmlns="http://www.w3.org/2000/svg">
<path d="M19.7906 62.9176L19.4097 68.7049H2.74561V67.7264C3.02974 67.7057 3.4056 67.6741 3.87796 67.6135C4.34852 67.5518 4.65566 67.4907 4.79668 67.4281C5.09815 67.2862 5.30818 67.1051 5.42919 66.8834C5.54451 66.6578 5.60218 66.3767 5.60218 66.0406V51.91C5.60218 51.6049 5.55437 51.336 5.4495 51.1032C5.34493 50.8648 5.12802 50.6761 4.79668 50.5234C4.54273 50.4075 4.20093 50.2946 3.771 50.2066C3.34315 50.1115 3.00016 50.0524 2.74561 50.0425V49.0581H18.2746V53.7903H17.2176C17.0282 53.0927 16.6212 52.3423 15.9935 51.5572C15.3655 50.7659 14.7712 50.3359 14.206 50.2645C13.9129 50.2273 13.5618 50.1949 13.1558 50.1732C12.7494 50.1633 12.2878 50.1522 11.7718 50.1522H8.6174V57.963H10.8782C11.6066 57.963 12.1322 57.8945 12.4719 57.7608C12.8056 57.6321 13.1002 57.4051 13.3544 57.0889C13.5618 56.8212 13.739 56.4652 13.8854 56.0168C14.033 55.568 14.1274 55.1427 14.1764 54.7496H15.2346V62.4495H14.1764C14.1357 62.0087 14.0377 61.5371 13.8719 61.0462C13.7058 60.5551 13.531 60.1941 13.3544 59.968C13.0625 59.6061 12.7276 59.3771 12.3589 59.2668C11.9855 59.1509 11.4931 59.0939 10.8782 59.0939H8.6174V64.9936C8.6174 65.5746 8.66072 66.0441 8.74378 66.3855C8.82982 66.7213 8.99325 66.9837 9.23765 67.1627C9.48444 67.3347 9.81966 67.4427 10.246 67.4965C10.6664 67.5518 11.2702 67.5767 12.0548 67.5767H13.286C13.7916 67.5767 14.2203 67.5556 14.5725 67.5187C14.9296 67.4816 15.2983 67.4126 15.6819 67.3157C16.0652 67.2245 16.3329 67.0849 16.4966 66.9226C16.9272 66.4762 17.3822 65.8051 17.8567 64.9041C18.3359 64.0034 18.6394 63.3435 18.7739 62.9176H19.7906Z" fill="#31423D"/>
<path d="M44.0651 50.042C43.8024 50.047 43.3934 50.1262 42.8473 50.264C42.3005 50.3989 41.91 50.5489 41.6758 50.6847C41.337 50.9216 41.1105 51.3698 40.9895 52.0259C40.8679 52.6777 40.8138 53.507 40.8138 54.5092V68.9051H39.5838L27.418 52.8242V62.9609C27.418 64.0971 27.4897 64.9654 27.6358 65.5741C27.784 66.1881 28.0072 66.6202 28.311 66.8826C28.525 67.0827 28.9725 67.2743 29.6519 67.4483C30.3302 67.6206 30.7783 67.7163 30.9961 67.726V68.7045H22.7655V67.726C23.018 67.7052 23.4464 67.6174 24.0514 67.4562C24.6547 67.2907 25.0329 67.1456 25.1835 67.0204C25.5124 66.7621 25.741 66.3686 25.8614 65.8362C25.9851 65.3035 26.0469 64.392 26.0469 63.116V53.4268C26.0469 53.0076 25.9719 52.5817 25.8187 52.1555C25.669 51.7363 25.4646 51.4011 25.2095 51.1764C24.8683 50.8663 24.4144 50.613 23.8324 50.3945C23.2501 50.1724 22.784 50.0519 22.4243 50.042V49.0576H28.1584L39.4433 64.0375V54.6903C39.4433 53.5456 39.363 52.6665 39.2124 52.0552C39.0624 51.4376 38.8482 51.0313 38.5631 50.8268C38.2951 50.6548 37.8676 50.4884 37.2692 50.3146C36.6767 50.1517 36.219 50.0519 35.9077 50.042V49.0576H44.0651V50.042Z" fill="#31423D"/>
<path d="M59.82 59.6958C60.2511 60.153 60.5639 60.6605 60.7641 61.2093C60.9712 61.7636 61.0715 62.4011 61.0715 63.1254C61.0715 64.8642 60.4202 66.2917 59.105 67.4285C57.7952 68.5459 56.1681 69.1126 54.2254 69.1126C53.3249 69.1126 52.4283 68.9721 51.5383 68.7027C50.6414 68.4321 49.8693 68.0966 49.221 67.7143L48.6118 68.7252H47.4735L47.2808 61.9909H48.426C48.6614 62.8261 48.936 63.5729 49.2506 64.2428C49.5646 64.9124 49.9844 65.5361 50.5048 66.12C50.9987 66.6609 51.5658 67.1023 52.2299 67.4285C52.8804 67.7421 53.6399 67.9079 54.5099 67.9079C55.1579 67.9079 55.7235 67.8237 56.2081 67.6563C56.7005 67.4925 57.0961 67.2535 57.3918 66.9487C57.6918 66.6436 57.9207 66.2879 58.062 65.8754C58.2102 65.4671 58.2786 64.9937 58.2786 64.4508C58.2786 63.668 58.0584 62.9367 57.6037 62.2563C57.1582 61.5802 56.4785 61.0668 55.5822 60.7088C54.9712 60.473 54.2661 60.2065 53.4719 59.9213C52.6781 59.6255 51.9993 59.355 51.4247 59.0923C50.293 58.5985 49.4113 57.9429 48.7866 57.1385C48.1571 56.3255 47.8445 55.2686 47.8445 53.971C47.8445 53.2303 47.9972 52.5244 48.3121 51.8849C48.6237 51.2376 49.0638 50.6578 49.6432 50.1526C50.1854 49.6746 50.8311 49.2928 51.5828 49.0222C52.3229 48.7525 53.1045 48.6162 53.909 48.6162C54.8317 48.6162 55.662 48.7543 56.3936 49.0278C57.1268 49.3107 57.7952 49.6313 58.3963 50.0031L58.9792 49.0585H60.1104L60.2188 55.5854H59.0724C58.8636 54.8351 58.6335 54.1172 58.3754 53.4277C58.1194 52.7508 57.7764 52.1307 57.3688 51.5801C56.9568 51.0439 56.4594 50.6168 55.8753 50.2927C55.2909 49.9812 54.5774 49.822 53.7358 49.822C52.8344 49.822 52.0716 50.1037 51.4385 50.6648C50.812 51.2276 50.4857 51.9121 50.4857 52.7271C50.4857 53.5787 50.6922 54.2819 51.1 54.8383C51.5033 55.4023 52.0901 55.8578 52.8627 56.2205C53.5553 56.5461 54.2347 56.8211 54.8917 57.0598C55.5601 57.2885 56.2048 57.5471 56.8272 57.8142C57.3918 58.0517 57.9362 58.3267 58.4594 58.6254C58.9837 58.9302 59.4402 59.2915 59.82 59.6958Z" fill="#31423D"/>
<path d="M62.5338 35.3852C62.4877 34.6846 61.0503 34.0747 60.6234 33.7526C60.1973 33.4253 60.7241 30.2528 60.8194 30.0193C60.9114 29.7894 60.0005 28.8548 60.0005 28.8548H58.6186C59.1463 28.7117 59.298 27.0367 59.298 27.0367L60.0005 25.9143L58.8149 25.6835L57.2921 26.9399L56.7163 26.8003L54.9584 28.0559C54.9584 28.0559 54.6228 28.1088 54.1956 28.0559C53.7564 28.014 52.336 26.103 52.336 26.103C52.336 26.103 52.336 25.4962 52.4753 25.2154C52.6264 24.9314 51.6151 23.7654 51.6151 23.7654C51.6151 23.7654 51.382 23.0653 51.5219 23.0653C51.6707 23.0653 51.809 22.6473 51.809 22.6473L52.005 22.1816H52.4292L52.4753 21.2958C52.4753 21.2958 52.7196 21.1077 52.7196 20.9231V19.4263C52.097 18.4463 50.529 18.073 49.9993 18.1248C49.4723 18.1701 48.1893 18.6777 47.6626 19.1902C47.1421 19.7042 45.9922 22.6473 45.9922 22.6473C45.9922 22.6473 45.521 23.4646 45.181 23.5041C44.9533 23.543 44.4469 24.4926 44.0176 25.2379V43.8533H59.6587V43.0913C59.6587 43.0913 60.2245 42.9971 60.4866 42.9573C60.7059 42.9292 61.3981 42.9371 61.483 42.711C61.5813 42.4676 61.5347 40.8441 61.5347 40.8441C61.5347 40.8441 62.6757 40.522 62.5338 40.1011C62.3883 39.6822 62.5831 36.0829 62.5338 35.3852Z" fill="#31423D" fill-opacity="0.37"/>
<path d="M19.267 24.6037C18.9828 24.2354 17.6557 23.4889 17.702 23.4464C17.7519 23.4014 17.5179 22.8427 17.2305 22.6598C16.9837 22.4987 16.7375 21.39 16.6814 21.098C16.6963 21.0869 16.7127 21.0641 16.7166 21.019C16.7692 20.5993 16.7609 20.2655 16.7166 19.994C16.7035 19.8963 16.685 19.7992 16.6685 19.6907C16.5687 19.2639 16.3169 19.0582 16.1018 18.9544C15.9234 18.8534 15.7671 18.8496 15.7671 18.8496L15.7498 18.8599H15.7151C15.7151 18.8599 15.7023 18.8807 15.6868 18.9008L15.6252 18.945C15.6252 18.945 15.6252 18.9471 15.6306 18.9544H15.6252C15.5935 18.8929 15.5804 18.8599 15.5804 18.8599C15.5804 18.8599 15.5138 18.7961 15.3964 18.7054C15.3892 18.7037 15.3892 18.7037 15.3862 18.6952C15.1089 18.4957 14.5628 18.1575 13.9129 18.125C13.8926 18.125 13.8723 18.1169 13.8514 18.1169H13.8281C13.6632 18.1139 13.5006 18.1517 13.3396 18.2072C12.5762 18.4524 12.0071 19.0755 11.6521 19.4599C11.2279 19.9221 11.8389 21.2282 11.8389 21.2282L11.9339 22.4747L12.4564 22.331C12.4564 22.331 12.9712 23.213 13.2604 23.3558C13.5455 23.4889 14.1544 23.1188 14.1544 23.1188L14.3034 23.9051C14.3034 23.9051 13.6826 24.1412 13.3037 24.2354C12.9246 24.327 11.4609 26.1324 11.4609 26.1324L11.6984 26.4083L11.5072 27.1054C11.5072 27.1054 11.3202 27.0138 11.0322 26.8281C10.7516 26.6376 10.0447 26.0418 10.0447 26.0418L9.47437 25.3885C9.47437 25.3885 8.66679 24.6037 8.48304 24.5586C8.28734 24.513 8.1036 24.1871 7.86249 24.0938C7.62974 24.0017 7.62974 24.327 7.62974 24.327L7.95929 24.7892L7.39252 24.6473C7.39252 24.6473 7.2013 24.327 7.05819 24.327C6.92255 24.327 6.82515 24.6926 6.82515 24.6926C6.82515 24.6926 7.24761 25.3458 7.39252 25.5304C7.53354 25.7162 7.81917 25.4336 7.95929 25.7162C8.1036 25.9929 9.09553 26.317 9.09553 26.317C9.09553 26.317 9.1021 26.3314 9.11315 26.3586L10.3247 28.6336L8.62048 28.492L8.19682 28.2167L6.67994 28.1664C6.67994 28.1664 5.99904 28.1714 5.58763 28.2583C5.51622 28.2735 5.45378 28.2916 5.40717 28.308C5.07463 28.4458 4.27123 29.0051 4.07882 29.1873C3.89239 29.3754 4.17802 30.0655 4.07882 30.2077C3.98322 30.3452 4.27123 30.8521 4.03281 30.9952C3.79917 31.1324 3.17862 33.8725 3.13261 34.2349C3.08809 34.6061 2.99577 35.9968 2.99577 36.4622C2.99577 36.9221 2.57062 37.9454 2.57062 37.9454L1.95186 38.5927L2.23778 38.7323C2.23778 38.7323 1.86163 39.7321 1.76064 40.1212C1.69521 40.3745 0.923479 40.6925 0.676394 40.8107C0.427814 40.9414 -0.0777112 41.6169 0.0101281 41.7889C0.121272 42.0027 0.813232 41.8325 0.813232 41.8325C0.813232 41.8325 2.66503 40.9865 2.61663 41.3238C2.49951 42.0689 4.39224 43.3583 4.39224 43.3583V43.8536H20.1964V26.262C19.86 25.6202 19.4295 24.8199 19.267 24.6037Z" fill="#31423D" fill-opacity="0.37"/>
<path d="M43.6657 10.7739H44.8408V43.543H43.6657V10.7739Z" fill="#959F9C"/>
<path d="M18.7888 10.7739H20.0146V43.543H18.7888V10.7739Z" fill="#959F9C"/>
<path d="M31.8369 0.807617C25.8381 0.807617 18.3825 4.06727 16.9102 8.27033L18.3816 9.96758H45.1003L46.6984 8.11617C45.1439 4.00204 37.7122 0.807617 31.8369 0.807617Z" fill="#959F9C"/>
<path d="M44.899 8.43376C44.1847 5.14691 37.0004 1.91797 31.8845 1.91797C26.6613 1.91797 19.6133 4.70899 18.8681 8.44108L18.7749 8.90415H45.0009L44.899 8.43376Z" fill="#31423D"/>
<path d="M44.8414 43.4137H43.6663V10.7733H44.8414V43.4137ZM42.8366 43.4137H20.8478L20.8511 10.8172H42.8372L42.8366 43.4137ZM20.0223 43.4137H18.7964V10.7733H20.0223V43.4137ZM16.9174 8.27039C18.3907 4.06733 25.8466 0.809142 31.8441 0.809142C37.7201 0.809142 45.1512 4.00092 46.7051 8.11564L45.1076 9.96764H18.388L16.9174 8.27039ZM60.2757 43.4137H45.669V18.58L46.6077 17.7197C46.6077 17.7197 46.8898 17.2841 46.4837 17.1484C46.0974 17.0229 46.8178 17.2753 46.9878 16.582C47.1437 15.8908 46.3436 15.7129 46.1297 16.1356C46.0741 16.2301 45.8267 16.159 46.2011 15.2343C46.8178 13.7331 48.7236 11.5207 46.9878 10.5211C46.6935 10.3535 46.0687 10.3155 45.669 10.5796V10.5624L47.6388 8.28736L47.5578 8.07264C46.0224 3.54633 38.1527 0 31.8441 0C25.4074 0 17.5138 3.62356 16.0626 8.23938L15.9948 8.45322L17.8529 10.5931C17.4582 10.3342 16.9174 10.3751 16.6653 10.5211C14.9237 11.5207 16.8332 13.7331 17.4406 15.2343C17.8167 16.159 17.5738 16.2301 17.523 16.1356C17.3067 15.7129 16.4979 15.8908 16.6653 16.582C16.8332 17.2753 17.5496 17.0229 17.1642 17.1484C16.7606 17.2841 17.0399 17.7197 17.0399 17.7197L17.9724 18.5762V43.4137H3.39793C2.95724 43.4137 2.59961 43.8624 2.59961 44.2936H61.0743C61.0743 43.8624 60.7158 43.4137 60.2757 43.4137Z" fill="#31423D"/>
<path d="M43.1036 8.12012H20.6313C21.5835 5.21764 27.1577 2.40088 31.8754 2.40088C36.5213 2.40088 42.0836 5.35806 43.1036 8.12012Z" fill="#31423D" fill-opacity="0.37"/>
<path d="M24.3298 12.7693H39.3384V41.4091H24.3298V12.7693ZM20.8467 43.4138H42.8358V10.8179H20.8467V43.4138Z" fill="#31423D" fill-opacity="0.37"/>
<path d="M40.6319 12.7695H23.0449V41.4093H40.6319V12.7695Z" fill="#31423D"/>
<path d="M23.8939 14.0391L28.4575 16.117L28.4728 23.2784L23.9108 21.901L23.8939 14.0391Z" fill="white"/>
<path d="M23.8985 22.6624L28.4639 24.0332L28.4771 30.6585L23.9173 32.0146L23.8985 22.6624Z" fill="white"/>
<path d="M23.9066 32.7819L28.47 31.408L28.4568 38.0592L23.8921 40.0205L23.9066 32.7819Z" fill="white"/>
<path d="M35.1951 16.1148L39.7593 14.037L39.7427 21.9198L35.1798 23.2946L35.1951 16.1148Z" fill="white"/>
<path d="M35.1922 24.0526L39.7585 22.6805L39.74 32.0576L35.1791 30.706L35.1922 24.0526Z" fill="white"/>
<path d="M35.1825 31.4577L39.747 32.8262L39.7615 40.0207L35.1959 38.0592L35.1825 31.4577Z" fill="white"/>
<path d="M27.9526 4.42039C27.9526 5.2968 27.9535 5.73414 27.9535 6.61114C27.9526 6.65268 27.9526 6.67491 27.9487 6.71967C27.9615 6.77729 27.9657 6.80596 27.9747 6.86359C28.0246 6.99377 28.1653 7.06368 28.4007 7.07158C28.4656 7.07275 28.5035 7.09791 28.5035 7.13711C28.5035 7.19737 28.4321 7.22837 28.2845 7.22867C28.2531 7.22867 28.1444 7.22516 27.9639 7.20936C27.8653 7.20058 27.7336 7.19883 27.5651 7.19941C27.3963 7.20058 27.2493 7.21492 27.1298 7.22779C27.082 7.23569 27.0488 7.23803 27.0264 7.23803C26.9822 7.23803 26.9627 7.21609 26.9627 7.17192C26.9627 7.13915 26.9822 7.11721 27.0273 7.11107C27.1997 7.08123 27.3147 7.04028 27.3655 6.98616C27.4172 6.93555 27.4393 6.83697 27.4393 6.69129C27.4387 6.65209 27.4387 6.63366 27.4387 6.59417C27.4387 5.83125 27.4387 5.44599 27.4378 4.68279C27.4378 4.50815 27.37 4.4277 27.2313 4.44145C27.1799 4.45052 27.1298 4.46719 27.0891 4.48738C27.067 4.50054 27.0512 4.50932 27.0273 4.52511C27.0088 4.53535 26.9911 4.53769 26.9783 4.53886C26.9367 4.54559 26.9102 4.52804 26.9102 4.48796C26.9102 4.44935 26.9332 4.41571 26.9783 4.38792C27.0162 4.3613 27.1002 4.32356 27.2298 4.28056C27.4695 4.19543 27.6448 4.10504 27.7455 3.99329C27.7897 3.94795 27.816 3.92192 27.8635 3.87189C27.8794 3.85317 27.9048 3.84118 27.9332 3.8365C27.9657 3.83474 27.9825 3.86487 27.9825 3.93099C27.9825 3.94971 27.9786 3.98042 27.9765 4.02928C27.9663 4.12405 27.9657 4.16764 27.9574 4.26447C27.9535 4.30981 27.9526 4.3613 27.9526 4.42039Z" fill="#31423D"/>
<path d="M30.5671 4.24158C30.3009 4.25211 30.1695 4.25474 29.9021 4.26732C29.813 4.27142 29.7694 4.272 29.6804 4.27288C29.5785 4.30038 29.5235 4.31237 29.4237 4.34046C29.3138 4.39984 29.2459 4.50778 29.2259 4.65639C29.2149 4.73508 29.1934 4.78042 29.1575 4.78305C29.1112 4.78949 29.0825 4.7459 29.0825 4.6558C29.0825 4.50603 29.1073 4.3428 29.1557 4.17371C29.1841 4.08742 29.1972 4.04851 29.2241 3.96251C29.2313 3.92214 29.2334 3.90078 29.2424 3.86305C29.2459 3.81712 29.2767 3.79401 29.3311 3.78904C29.3457 3.78845 29.381 3.78553 29.433 3.78699C29.4832 3.78845 29.5833 3.78407 29.7404 3.77558C30.1494 3.74838 30.3553 3.73785 30.7649 3.72527C30.8683 3.72059 30.934 3.73053 30.9591 3.74984C30.9857 3.76915 30.9986 3.82326 30.9986 3.90459C30.9986 4.12545 30.9182 4.43641 30.7667 4.83132C30.6708 5.06768 30.6263 5.18704 30.5358 5.41843C30.3009 6.01753 30.1862 6.46597 30.1862 6.76816C30.1874 6.93636 30.1981 7.07005 30.2226 7.16951C30.2373 7.21836 30.2397 7.24527 30.2519 7.29529C30.2564 7.30348 30.2573 7.31548 30.2573 7.3263C30.2573 7.35614 30.2295 7.37545 30.1793 7.38685C30.1695 7.38802 30.1563 7.39505 30.1366 7.40236C30.0006 7.44536 29.9 7.47198 29.8298 7.47198C29.7303 7.47198 29.6687 7.44536 29.6344 7.40236C29.6012 7.35468 29.5833 7.2637 29.5833 7.12797C29.5833 6.71111 29.7186 6.29104 29.9899 5.85283C30.0915 5.68638 30.1485 5.60038 30.2519 5.42749C30.3711 5.23559 30.4793 5.02468 30.5809 4.78949C30.6848 4.55693 30.7359 4.40042 30.7359 4.32261C30.7359 4.26528 30.6789 4.23632 30.5671 4.24158Z" fill="#31423D"/>
<path d="M32.7145 3.81885C32.5582 3.81592 32.436 3.8832 32.3392 4.02333C32.2469 4.16579 32.197 4.35067 32.197 4.57474C32.197 4.89594 32.2606 5.15337 32.3894 5.35667C32.5149 5.55881 32.6774 5.65973 32.8785 5.66441C33.0428 5.66558 33.1776 5.60064 33.2866 5.46374C33.3978 5.33005 33.456 5.16185 33.456 4.95883C33.456 4.66133 33.3819 4.39864 33.234 4.16784C33.0844 3.94171 32.9084 3.82441 32.7145 3.81885ZM32.8504 3.65152C33.185 3.66147 33.4524 3.80802 33.6628 4.08563C33.8752 4.36149 33.9816 4.70258 33.9816 5.11914C33.9816 5.63136 33.8155 6.08683 33.4844 6.48935C33.1564 6.89508 32.7452 7.14988 32.2478 7.24612C32.1665 7.26601 32.1295 7.27098 32.0488 7.28795C32.0279 7.29439 32.0082 7.29497 31.9896 7.29497C31.9472 7.29497 31.9278 7.26689 31.929 7.2154C31.929 7.18732 31.938 7.16889 31.9502 7.16012C31.9607 7.1528 32.0028 7.14052 32.0823 7.12267C32.3201 7.06417 32.5549 6.92755 32.7775 6.72103C33.0031 6.50807 33.1546 6.29043 33.2275 6.05787C33.2466 5.99614 33.257 5.96396 33.2765 5.90429C33.295 5.85456 33.3043 5.8139 33.3043 5.7823C33.3043 5.72848 33.2821 5.7004 33.246 5.7042C33.2314 5.70478 33.2063 5.71619 33.1832 5.73462C33.0942 5.80103 32.9834 5.85982 32.854 5.90429C32.7243 5.95168 32.6174 5.97801 32.5298 5.97742C32.2971 5.97742 32.1005 5.87445 31.9406 5.67524C31.7829 5.47339 31.7031 5.22767 31.7031 4.93455C31.7031 4.55602 31.8107 4.24331 32.0279 4.00051C32.2412 3.76005 32.5164 3.64099 32.8504 3.65152Z" fill="#31423D"/>
<path d="M35.7443 5.75703V5.3156C35.7434 5.19946 35.7434 5.14154 35.7359 5.02482C35.7434 4.92332 35.7434 4.86832 35.7452 4.76711C35.7443 4.73902 35.7443 4.72352 35.7434 4.69924C35.7434 4.66969 35.7342 4.65331 35.7144 4.65185C35.7076 4.65185 35.6834 4.67203 35.6472 4.71796C35.612 4.7595 35.5925 4.78173 35.5638 4.82649C35.4503 4.96164 35.3938 5.03038 35.2914 5.16875C35.1775 5.30419 35.0529 5.48351 34.9116 5.70642C34.8886 5.74474 34.8593 5.77341 34.8534 5.79213C34.8328 5.81465 34.8262 5.84127 34.8262 5.85853C34.8274 5.88398 34.857 5.90066 34.9266 5.90241C34.9538 5.903 34.9726 5.90446 35.0072 5.90914C35.2672 5.91967 35.393 5.92786 35.6529 5.9381C35.7129 5.94161 35.7452 5.90241 35.7452 5.8205C35.7452 5.7933 35.7452 5.78452 35.7443 5.75703ZM36.2609 6.56265C36.26 6.87741 36.26 7.0386 36.26 7.35453C36.2519 7.41128 36.2083 7.44053 36.1345 7.44053C36.0637 7.45135 36.0287 7.4572 35.9639 7.46861C35.9098 7.473 35.8641 7.48265 35.8292 7.4967C35.8044 7.50196 35.7861 7.51015 35.7667 7.51015C35.7285 7.51308 35.7064 7.4964 35.7064 7.4496C35.7064 7.43117 35.7082 7.40864 35.712 7.37325C35.7321 7.29719 35.7434 7.20855 35.7434 7.10909V6.54451C35.7443 6.51585 35.7452 6.50268 35.7452 6.47372C35.733 6.44681 35.7294 6.43365 35.7129 6.40615C35.7025 6.3886 35.649 6.37894 35.5677 6.37719C35.1728 6.36139 34.9726 6.35261 34.5731 6.34823C34.4987 6.34676 34.4512 6.33711 34.4288 6.32131C34.4103 6.30903 34.3936 6.27919 34.3936 6.23209C34.3936 6.14638 34.5943 5.80646 34.9947 5.25592C35.2929 4.83936 35.5647 4.49886 35.8035 4.23002C36.0407 3.9606 36.1826 3.83511 36.2265 3.84154C36.2459 3.84564 36.2633 3.86641 36.2633 3.91087C36.2627 3.99775 36.2627 4.03929 36.2627 4.1253C36.2621 4.21393 36.2621 4.26162 36.2609 4.34967V5.84303C36.2627 5.8717 36.2633 5.88398 36.2675 5.91207C36.2842 5.9381 36.3236 5.95741 36.4013 5.95946C36.5259 5.96706 36.6096 5.9185 36.6466 5.81319C36.6517 5.78452 36.6711 5.77224 36.7001 5.77224C36.7404 5.7737 36.7628 5.7933 36.7628 5.83221C36.7628 5.84917 36.7619 5.86292 36.7601 5.88018C36.7497 5.91207 36.7404 5.97905 36.7306 6.08758C36.7243 6.23326 36.7019 6.32687 36.6678 6.36578C36.6403 6.40585 36.5632 6.4196 36.4494 6.41814C36.4219 6.41609 36.4052 6.41609 36.372 6.40966C36.3221 6.40907 36.2875 6.41843 36.2713 6.43482C36.2633 6.44798 36.2609 6.49361 36.2609 6.56265Z" fill="#31423D"/>
<path d="M24.9209 13.6069L29.254 15.6151V38.701L24.9209 40.5825H38.7239L34.3989 38.7001V15.6146L38.7239 13.6069H24.9209Z" fill="#E4E7E6"/>
<path d="M18.0551 10.7754H20.751V12.7713H18.0551V10.7754Z" fill="#D5DCDA"/>
<path d="M42.9043 10.7754H45.6001V12.7713H42.9043V10.7754Z" fill="#D5DCDA"/>
<path d="M18.0551 41.8574H20.751V43.8539H18.0551V41.8574Z" fill="#31423D" fill-opacity="0.37"/>
<path d="M42.9043 41.8574H45.6001V43.8539H42.9043V41.8574Z" fill="#31423D" fill-opacity="0.37"/>
<path d="M18.5197 12.7695H20.2891V18.6561H18.5197V12.7695Z" fill="#31423D" fill-opacity="0.37"/>
<path d="M43.3608 12.7695H45.1289V18.6561H43.3608V12.7695Z" fill="#31423D" fill-opacity="0.37"/>
<path d="M18.4164 12.4222H20.403V11.1216H18.4164V12.4222ZM21.1123 13.1172H17.7065V10.4263H21.1123V13.1172Z" fill="#31423D"/>
<path d="M43.2604 12.4222H45.2463V11.1216H43.2604V12.4222ZM45.9565 13.1172H42.5508V10.4263H45.9565V13.1172Z" fill="#31423D"/>
<path d="M18.4164 43.5056H20.403V42.2041H18.4164V43.5056ZM21.1123 44.2006H17.7065V41.5088H21.1123V44.2006Z" fill="#31423D"/>
<path d="M43.2604 43.5061H45.2463V42.2046H43.2604V43.5061ZM45.9565 44.2011H42.5508V41.5093H45.9565V44.2011Z" fill="#31423D"/>
<path d="M18.8756 18.3084H19.9348V13.1169H18.8756V18.3084ZM20.6449 19.0038H18.166V12.4219H20.6449V19.0038Z" fill="#31423D"/>
<path d="M43.7216 18.3084H44.7799V13.1169H43.7216V18.3084ZM45.4897 19.0038H43.0117V12.4219H45.4897V19.0038Z" fill="#31423D"/>
</svg>
