<svg width="334" height="54" viewBox="0 0 334 54" fill="none" xmlns="http://www.w3.org/2000/svg">
<path fill-rule="evenodd" clip-rule="evenodd" d="M47.7961 12.2755C47.3817 10.6341 46.5849 9.22377 45.4057 8.04453C44.2105 6.86529 42.7843 6.06851 41.127 5.65418C39.4856 5.22392 37.4777 5.00879 35.1033 5.00879H18.323C15.9486 5.00879 13.9328 5.22392 12.2755 5.65418C10.6341 6.06851 9.22377 6.86529 8.04453 8.04453C6.84936 9.23971 6.04461 10.658 5.63028 12.2994C5.21595 13.9248 5.00879 15.9247 5.00879 18.2991V35.1033C5.00879 37.4937 5.21595 39.5095 5.63028 41.1509C6.04461 42.7923 6.84936 44.1946 8.04453 45.3579C9.22377 46.5531 10.6341 47.3578 12.2755 47.7722C13.9328 48.2024 15.9566 48.4175 18.3469 48.4175H35.1033C37.4777 48.4175 39.4936 48.2024 41.1509 47.7722C42.8082 47.3578 44.2265 46.5531 45.4057 45.3579C46.5849 44.1787 47.3817 42.7763 47.7961 41.1509C48.2104 39.5095 48.4175 37.4937 48.4175 35.1033V18.323C48.4175 15.9327 48.2104 13.9168 47.7961 12.2755ZM24.296 31.5941C24.4112 31.631 24.5501 31.631 24.8277 31.631H26.4106C26.6888 31.631 26.8279 31.631 26.9433 31.594C27.1573 31.5254 27.331 31.3674 27.4194 31.1608C27.4671 31.0494 27.4802 30.9109 27.5064 30.6339L27.5994 29.6505C27.6221 29.411 27.6334 29.2912 27.6692 29.1952C27.7386 29.0092 27.8568 28.8745 28.0322 28.7814C28.1227 28.7334 28.2509 28.7041 28.5073 28.6454C32.7975 27.6638 35.799 24.885 35.799 20.6898C35.799 15.8483 31.758 12.7604 27.2596 12.7604C23.6006 12.7604 20.8793 14.2294 18.8126 17.0259C18.6514 17.244 18.5708 17.3531 18.5321 17.4837C18.4634 17.7149 18.5183 17.998 18.6685 18.1868C18.7532 18.2934 18.8802 18.3714 19.1341 18.5275L21.4418 19.946C21.6928 20.1003 21.8183 20.1774 21.9349 20.2064C22.1611 20.2627 22.3714 20.2242 22.5631 20.0915C22.6618 20.0232 22.7604 19.8956 22.9576 19.6404C24.1391 18.1114 25.3077 17.335 27.0309 17.335C29.0132 17.335 30.5381 18.7075 30.5381 20.6898C30.5381 23.6565 28.1096 24.706 24.3057 25.2132C23.993 25.2549 23.8366 25.2757 23.7234 25.3311C23.5091 25.4359 23.3619 25.6215 23.3085 25.854C23.2803 25.9768 23.2949 26.1276 23.3242 26.4293L23.7321 30.6365C23.7589 30.9128 23.7723 31.051 23.8201 31.1621C23.9088 31.3682 24.0824 31.5258 24.296 31.5941ZM22.3037 37.3493C22.3037 39.1411 23.8286 40.666 25.6585 40.666C27.4121 40.666 28.9751 39.1411 28.9751 37.3493C28.9751 35.5576 27.4121 34.0327 25.6585 34.0327C23.8286 34.0327 22.3037 35.5576 22.3037 37.3493Z" fill="#31423D"/>
<path d="M63.8877 39.2129V13.5015H70.389L76.6699 24.3003L82.9509 13.5015H89.4522V39.2129H84.2364V20.7742L78.5065 30.3976H74.8334L69.1035 20.7742V39.2129H63.8877ZM104.054 43.4369C102.768 46.4855 100.674 48.3955 97.1483 48.3955C95.7158 48.3955 94.7241 48.1751 93.8426 47.8078V43.694C94.4303 43.9511 95.3118 44.1348 96.1199 44.1348C97.9564 44.1348 99.0951 43.5104 99.8664 41.6371L100.895 39.1762L93.108 20.7007H98.287L103.356 33.1524L108.461 20.7007H113.383L104.054 43.4369ZM114.116 36.5316L117.201 33.74C118.34 35.1725 119.699 36.201 121.462 36.201C122.968 36.201 123.739 35.3195 123.739 34.2175C123.739 30.9853 114.887 32.1974 114.887 25.6961C114.887 22.4271 117.642 19.9661 121.499 19.9661C124.327 19.9661 126.898 21.3251 128.22 23.1249L125.135 25.843C124.18 24.6676 122.968 23.7126 121.535 23.7126C120.066 23.7126 119.368 24.5207 119.368 25.4757C119.368 28.6345 128.22 27.5326 128.22 33.9237C128.147 37.8171 125.025 39.9475 121.535 39.9475C118.23 39.9475 115.879 38.6252 114.116 36.5316ZM133.981 32.4545V24.888H130.529V20.7007H133.981V16.0727H138.683V20.7007H144.339V24.888H138.683V32.4545C138.683 34.5114 139.785 35.3195 141.621 35.3195C142.907 35.3195 143.752 35.1725 144.376 34.9154V38.9925C143.458 39.3965 142.356 39.5802 140.813 39.5802C136.185 39.5802 133.981 36.9723 133.981 32.4545ZM165.201 36.201C163.475 38.515 160.61 39.9475 157.12 39.9475C150.546 39.9475 146.836 35.3562 146.836 29.9568C146.836 24.484 150.288 19.9661 156.349 19.9661C161.491 19.9661 164.87 23.4555 164.87 28.3039C164.87 29.3324 164.724 30.2874 164.577 30.9118H151.611C152.052 34.3645 154.182 35.7602 157.084 35.7602C159.104 35.7602 160.867 34.8787 161.859 33.5564L165.201 36.201ZM156.239 23.7861C153.851 23.7861 152.272 25.1084 151.758 27.5326H160.279C160.206 25.6593 158.847 23.7861 156.239 23.7861ZM169.429 39.2129V20.7007H174.094V22.5372C175.306 21.2884 176.885 20.3334 178.979 20.3334C179.603 20.3334 180.154 20.4436 180.595 20.5905V25.1818C180.007 25.0349 179.383 24.9247 178.538 24.9247C176.261 24.9247 174.791 26.1736 174.094 27.3489V39.2129H169.429ZM186.701 17.4684C185.048 17.4684 183.653 16.0727 183.653 14.4198C183.653 12.7669 185.048 11.3712 186.701 11.3712C188.354 11.3712 189.713 12.7669 189.713 14.4198C189.713 16.0727 188.354 17.4684 186.701 17.4684ZM184.351 39.2129V20.7007H189.015V39.2129H184.351ZM203.425 19.9661C209.448 19.9661 213.562 24.4105 213.562 29.9568C213.562 35.5031 209.448 39.9475 203.425 39.9475C197.401 39.9475 193.287 35.5031 193.287 29.9568C193.287 24.4105 197.401 19.9661 203.425 19.9661ZM203.498 35.5398C206.473 35.5398 208.714 33.1524 208.714 29.9568C208.714 26.7245 206.473 24.3738 203.498 24.3738C200.413 24.3738 198.135 26.7245 198.135 29.9568C198.135 33.1891 200.413 35.5398 203.498 35.5398ZM230.011 31.2056V20.7007H234.713V30.9853C234.713 36.5316 231.481 39.9475 226.045 39.9475C220.608 39.9475 217.413 36.5316 217.413 30.9853V20.7007H222.114V31.2056C222.114 33.887 223.51 35.5398 226.081 35.5398C228.616 35.5398 230.011 33.887 230.011 31.2056ZM238.117 36.5316L241.202 33.74C242.341 35.1725 243.7 36.201 245.463 36.201C246.969 36.201 247.74 35.3195 247.74 34.2175C247.74 30.9853 238.888 32.1974 238.888 25.6961C238.888 22.4271 241.643 19.9661 245.5 19.9661C248.328 19.9661 250.899 21.3251 252.222 23.1249L249.136 25.843C248.181 24.6676 246.969 23.7126 245.537 23.7126C244.067 23.7126 243.37 24.5207 243.37 25.4757C243.37 28.6345 252.222 27.5326 252.222 33.9237C252.148 37.8171 249.026 39.9475 245.537 39.9475C242.231 39.9475 239.88 38.6252 238.117 36.5316ZM271.636 39.7638C267.926 39.7638 265.392 37.6335 265.392 34.2175C265.392 31.426 267.559 29.3324 271.526 28.6712L277.182 27.7162V27.2388C277.182 25.292 275.713 24.0432 273.583 24.0432C271.783 24.0432 270.387 24.888 269.395 26.247L265.979 23.6392C267.632 21.3619 270.35 19.9661 273.73 19.9661C279.092 19.9661 281.847 23.1617 281.847 27.2388V39.2129H277.182V37.4131C276.007 38.8456 273.803 39.7638 271.636 39.7638ZM270.02 33.9972C270.02 35.246 271.012 36.0541 272.591 36.0541C274.721 36.0541 276.264 35.0623 277.182 33.5931V30.9853L272.775 31.7199C270.828 32.0504 270.02 32.8585 270.02 33.9972ZM287.189 48.2486V20.7007H291.853V22.2067C293.286 20.7742 295.086 19.9661 297.62 19.9661C303.497 19.9661 307.023 24.5574 307.023 29.9568C307.023 35.3562 303.497 39.9475 297.62 39.9475C295.086 39.9475 293.286 39.1394 291.853 37.7069V48.2486H287.189ZM296.959 24.3738C294.792 24.3738 293.029 25.3288 291.853 27.0551V32.8585C293.102 34.6216 294.829 35.5398 296.959 35.5398C300.118 35.5398 302.175 33.1891 302.175 29.9568C302.175 26.7245 300.118 24.3738 296.959 24.3738ZM311.293 48.2486V20.7007H315.958V22.2067C317.39 20.7742 319.19 19.9661 321.725 19.9661C327.601 19.9661 331.128 24.5574 331.128 29.9568C331.128 35.3562 327.601 39.9475 321.725 39.9475C319.19 39.9475 317.39 39.1394 315.958 37.7069V48.2486H311.293ZM321.063 24.3738C318.896 24.3738 317.133 25.3288 315.958 27.0551V32.8585C317.207 34.6216 318.933 35.5398 321.063 35.5398C324.222 35.5398 326.279 33.1891 326.279 29.9568C326.279 26.7245 324.222 24.3738 321.063 24.3738Z" fill="#31423D"/>
</svg>
