<svg width="116" height="34" viewBox="0 0 116 34" fill="none" xmlns="http://www.w3.org/2000/svg">
<g clip-path="url(#clip0_10241_782)">
<path d="M23.4686 4.57336C25.159 3.54472 26.7148 2.30958 28.1001 0.896449C29.2327 -0.252333 24.2492 0.261383 23.0479 1.30095C21.6733 2.44411 20.3924 3.6953 19.2172 5.04258C18.5094 5.85563 21.9153 5.49967 23.4686 4.57336ZM114.619 30.4331C115.505 30.967 115.468 28.1962 113.684 27.0838C107.297 23.1076 89.8188 30.0407 83.2052 30.8295C81.9634 30.9792 81.5104 30.6637 81.8057 29.8223C82.3679 28.2043 84.5805 25.211 85.0417 24.1836C85.5028 23.1561 85.4057 19.823 80.4101 19.823C76.3287 19.823 72.5871 21.7202 69.9538 24.1067C67.4459 26.2425 62.5878 30.4735 59.5986 30.4735C56.5001 30.4735 65.569 21.1215 66.0706 20.6482C67.4176 19.3821 63.1663 19.6976 61.3824 21.0527C60.6705 21.5948 57.8188 24.6447 56.0349 27.5975C50.8816 31.1612 45.7485 31.9864 48.1876 29.0254C49.486 27.4438 51.6865 25.3283 53.1953 23.6537C55.3068 21.3157 54.9225 19.7745 50.2667 19.7745C44.0334 19.7745 43.37 20.3165 39.8549 24.4384C39.2036 25.2029 39.5394 27.1243 40.2149 26.4609C44.4338 22.2865 44.3368 22.6262 49.9229 22.6262C49.0249 23.5809 47.4231 24.5314 44.7089 27.9778C42.2819 31.052 43.8716 33.5356 47.3098 33.5356C49.2069 33.5356 52.0465 32.6457 54.6394 30.8174C54.3279 32.4354 54.9711 33.568 57.4183 33.568C60.2498 33.568 63.4858 31.8812 66.1717 30.0043C65.836 32.0268 66.8836 33.568 69.881 33.568C72.1907 33.568 74.8806 32.6579 77.6555 30.2551C77.6555 32.0916 78.9377 33.5518 81.3526 33.5518C87.2219 33.5518 107.548 26.1697 114.619 30.4331ZM71.4464 30.9185C67.5875 30.9185 75.3175 22.1004 80.3454 22.1004C83.363 22.0842 75.1678 30.9185 71.4464 30.9185ZM68.3884 17.2787C70.5216 15.9063 72.5182 14.3324 74.3507 12.5784C75.4833 11.4256 70.4999 11.9393 69.2985 12.9627C67.6511 14.3615 66.0972 15.8667 64.6467 17.4688C63.9389 18.2981 66.831 18.2131 68.3884 17.2787ZM37.9214 26.6712C36.4126 28.1517 33.1038 30.6192 30.2116 30.6192C28.0718 30.6192 32.3312 26.7845 34.4427 23.6982C36.4652 20.7453 34.8108 19.8635 33.1483 19.8635C29.0304 19.8635 25.0057 22.7516 22.2793 24.7863C23.1045 23.7022 24.3908 22.2662 25.754 20.4662C26.5104 19.463 21.9719 19.823 20.811 21.3521C20.4388 21.8375 20.0303 22.3795 19.5975 22.9701C15.6576 27.6946 9.70339 30.8902 6.7829 30.8902C5.16489 30.8902 4.56219 29.7657 5.56939 27.6542C7.9964 22.5413 16.4262 12.8333 21.0011 8.58197C23.0802 6.63632 16.8388 7.42914 15.4069 8.86512C9.07642 15.24 2.69744 22.3593 0.897409 27.8969C-0.0976631 30.9832 0.820554 33.7136 4.62691 33.7136C7.74965 33.7136 11.2122 32.1644 14.1529 30.3279C13.4288 31.3149 12.7695 32.1967 12.2558 32.9289C11.4266 34.0534 15.6334 33.6448 16.5192 32.5244C19.8483 28.269 27.8453 23.0348 30.0619 23.0348C32.0844 23.0348 25.1149 28.2609 25.1796 31.4605C25.2605 35.6633 34.9928 33.0785 38.2935 28.7625C38.791 28.0789 38.3906 26.2182 37.9214 26.6712Z" fill="#31423D"/>
</g>
<defs>
<clipPath id="clip0_10241_782">
<rect width="114.66" height="33.4724" fill="white" transform="translate(0.525391 0.241211)"/>
</clipPath>
</defs>
</svg>
