<svg width="151" height="54" viewBox="0 0 151 54" fill="none" xmlns="http://www.w3.org/2000/svg">
<path d="M36.1138 48.1358C38.0635 47.5891 39.9306 46.5915 41.1558 44.8285C42.3653 43.1022 42.7058 40.9123 42.7058 38.8051V7.93223C42.7058 7.3856 42.6762 6.83796 42.6102 6.29688C43.5786 6.67775 44.3249 7.30713 44.8492 8.18499C45.4678 9.18316 45.7771 10.4976 45.7771 12.1285V43.4863C45.7771 45.6935 45.2358 47.3454 44.1533 48.442C43.0708 49.5386 41.44 50.0869 39.2609 50.0869H27.416C27.6966 50.0378 27.9778 49.9872 28.2597 49.9352C30.7314 49.4935 33.3437 48.8941 36.0938 48.1414L36.1138 48.1358Z" fill="#31423D"/>
<path fill-rule="evenodd" clip-rule="evenodd" d="M7.6499 42.8327V11.4326C7.6499 9.52062 8.16304 8.07258 9.18933 7.08847C10.2297 6.10436 11.6074 5.5631 13.3226 5.46469C15.8531 5.31005 18.2501 5.09917 20.5136 4.83205C22.777 4.55088 24.9421 4.22753 27.0087 3.862C29.0894 3.49648 31.1138 3.08878 33.082 2.6389C35.1065 2.1609 36.66 2.3999 37.7425 3.35589C38.825 4.31188 39.3663 5.83725 39.3663 7.93199V38.8048C39.3663 40.6465 39.05 42.0173 38.4173 42.917C37.7847 43.8308 36.7162 44.4986 35.2119 44.9204C32.5408 45.6514 30.0243 46.2278 27.6624 46.6496C25.3006 47.0854 22.9949 47.4158 20.7456 47.6407C18.4962 47.8657 16.1905 48.0414 13.8287 48.1679C11.8745 48.2804 10.3562 47.8727 9.27368 46.9448C8.19116 46.031 7.6499 44.6603 7.6499 42.8327ZM15.3744 17.1337C18.4711 16.9366 21.3088 16.6339 23.8873 16.2253C24.5129 16.1233 25.1376 16.0171 25.7599 15.9068C26.4111 15.7915 26.882 15.224 26.882 14.5642C26.882 13.7096 26.1086 13.0661 25.2688 13.2093C24.7863 13.2916 24.3014 13.3716 23.8138 13.4493C21.2612 13.856 18.4406 14.1578 15.3519 14.3543C14.8894 14.3842 14.5214 14.5283 14.2849 14.8155C14.0611 15.0871 13.9515 15.4138 13.9515 15.7862C13.9515 16.1649 14.0793 16.4944 14.3343 16.7653L14.3379 16.7689C14.6142 17.0453 14.9654 17.1649 15.3744 17.1337ZM15.3733 24.1352C18.4705 23.9381 21.3086 23.6353 23.8873 23.2267C26.4772 22.8044 29.0397 22.3117 31.5734 21.7486C32.0876 21.6344 32.4727 21.4544 32.6653 21.175C32.8547 20.9063 32.9483 20.5984 32.9483 20.2571C32.9483 19.8721 32.8017 19.5405 32.5164 19.2711C32.2093 18.981 31.7798 18.9134 31.2716 19.018L31.2683 19.0188C28.8539 19.5662 26.3691 20.0436 23.8138 20.4507C21.2612 20.8574 18.4406 21.1592 15.3519 21.3558C14.8894 21.3856 14.5214 21.5297 14.2849 21.8169C14.0623 22.0872 13.9515 22.4064 13.9515 22.7666C13.9515 23.1573 14.0778 23.4946 14.3341 23.7669L14.3415 23.7738C14.6169 24.0331 14.9645 24.151 15.3691 24.1355L15.3733 24.1352ZM15.374 31.1364C18.471 30.9252 21.3087 30.6154 23.8872 30.2069C26.4773 29.7986 29.0394 29.3129 31.5734 28.7498C32.0888 28.6353 32.4743 28.4479 32.6666 28.1533C32.8541 27.8865 32.9483 27.5866 32.9483 27.2583C32.9483 26.8734 32.8017 26.5417 32.5164 26.2723C32.2093 25.9822 31.7798 25.9147 31.2716 26.0193L31.2692 26.0198C28.8545 26.5533 26.3694 27.0236 23.8138 27.4308C21.261 27.8376 18.4403 28.1464 15.3515 28.357C14.8892 28.3869 14.5213 28.531 14.2849 28.8181C14.0623 29.0884 13.9515 29.4076 13.9515 29.7678C13.9515 30.1585 14.0778 30.4958 14.3341 30.7681L14.3415 30.7751C14.6169 31.0343 14.9645 31.1523 15.3691 31.1367L15.374 31.1364ZM23.8873 37.1595C21.3089 37.5681 18.4711 37.8709 15.3744 38.068C14.9654 38.0992 14.6142 37.9795 14.3379 37.7032L14.3343 37.6995C14.0793 37.4286 13.9515 37.0991 13.9515 36.7205C13.9515 36.3481 14.0611 36.0214 14.2849 35.7497C14.5214 35.4625 14.8896 35.3184 15.3521 35.2886C18.4407 35.092 21.2612 34.7903 23.8138 34.3835C24.3014 34.3059 24.7863 34.2259 25.2688 34.1436C26.1086 34.0003 26.882 34.6439 26.882 35.4984C26.882 36.1583 26.4111 36.7258 25.7599 36.8411C25.1376 36.9513 24.5129 37.0575 23.8873 37.1595Z" fill="#31423D"/>
<path d="M63.8877 39.2129V13.5015H73.9886C82.1428 13.5015 87.6524 19.4152 87.6524 26.3572C87.6524 33.2993 82.1428 39.2129 73.9886 39.2129H63.8877ZM74.0621 18.2398H69.1035V34.4747H74.0621C78.837 34.4747 82.2897 30.9118 82.2897 26.3572C82.2897 21.7659 78.837 18.2398 74.0621 18.2398ZM100.981 19.9661C107.005 19.9661 111.119 24.4105 111.119 29.9568C111.119 35.5031 107.005 39.9475 100.981 39.9475C94.9571 39.9475 90.8433 35.5031 90.8433 29.9568C90.8433 24.4105 94.9571 19.9661 100.981 19.9661ZM101.054 35.5398C104.03 35.5398 106.27 33.1524 106.27 29.9568C106.27 26.7245 104.03 24.3738 101.054 24.3738C97.969 24.3738 95.6917 26.7245 95.6917 29.9568C95.6917 33.1891 97.969 35.5398 101.054 35.5398ZM124.441 35.5398C126.278 35.5398 127.747 34.695 128.629 33.4095L132.265 36.201C130.539 38.4783 127.821 39.9475 124.441 39.9475C118.05 39.9475 114.23 35.3562 114.23 29.9568C114.23 24.5574 118.05 19.9661 124.441 19.9661C127.821 19.9661 130.539 21.4353 132.265 23.7126L128.629 26.5041C127.747 25.2186 126.278 24.3738 124.368 24.3738C121.319 24.3738 119.079 26.7245 119.079 29.9568C119.079 33.2258 121.319 35.5398 124.441 35.5398ZM133.88 36.5316L136.965 33.74C138.104 35.1725 139.463 36.201 141.226 36.201C142.732 36.201 143.503 35.3195 143.503 34.2175C143.503 30.9853 134.651 32.1974 134.651 25.6961C134.651 22.4271 137.406 19.9661 141.263 19.9661C144.091 19.9661 146.662 21.3251 147.984 23.1249L144.899 25.843C143.944 24.6676 142.732 23.7126 141.3 23.7126C139.83 23.7126 139.132 24.5207 139.132 25.4757C139.132 28.6345 147.984 27.5326 147.984 33.9237C147.911 37.8171 144.789 39.9475 141.3 39.9475C137.994 39.9475 135.643 38.6252 133.88 36.5316Z" fill="#31423D"/>
</svg>
