<svg width="88" height="54" viewBox="0 0 88 54" fill="none" xmlns="http://www.w3.org/2000/svg">
<g clip-path="url(#clip0_10241_786)">
<path d="M13.1353 27.3271C6.55725 27.3271 1.20166 21.9715 1.20166 15.3352V1.18945H6.49904V15.3352C6.49904 19.0026 9.4679 21.9715 13.1353 21.9715C16.8027 21.9715 19.7716 19.0026 19.7716 15.3352V1.18945H25.069V15.3352C25.069 21.9715 19.7134 27.3271 13.1353 27.3271Z" fill="#31423D"/>
<path d="M71.8716 11.8424L80.6036 26.9196H86.7742L71.8716 1.18945L57.0273 26.9196H63.1979L71.8716 11.8424Z" fill="#31423D"/>
<path d="M42.9398 27.3268C40.4367 27.3268 37.9335 26.6282 35.7214 25.1729C29.5509 21.1562 27.8045 12.89 31.8212 6.7776C35.8379 0.607027 44.0459 -1.13936 50.2165 2.87733L47.3058 7.35973C43.6384 4.973 38.6903 6.02083 36.3036 9.68824C33.9168 13.3557 34.9647 18.3038 38.6321 20.6905C42.2995 23.0772 47.2476 22.0294 49.6343 18.362L54.1167 21.2726C51.4971 25.1729 47.2476 27.3268 42.9398 27.3268Z" fill="#31423D"/>
<path d="M54.5829 11.3765H42.7656V16.6738H54.5829V11.3765Z" fill="#31423D"/>
<path d="M71.872 23.3101L65.585 34.2541H78.2172L71.872 23.3101Z" fill="#A2A9A7"/>
<path d="M2.07485 39.435C1.49272 38.8529 1.20166 38.1544 1.20166 37.2812V32.5659H2.83162V37.223C2.83162 37.6887 2.94805 38.0379 3.23911 38.329C3.53018 38.6201 3.87946 38.7365 4.28695 38.7365C4.69444 38.7365 5.10193 38.6201 5.39299 38.329C5.68406 38.0379 5.80048 37.6887 5.80048 37.223V32.5659H7.43044V37.2812C7.43044 38.1544 7.13938 38.9111 6.55725 39.435C5.97512 40.0172 5.21835 40.3082 4.28695 40.3082C3.41375 40.25 2.65698 40.0172 2.07485 39.435Z" fill="#31423D"/>
<path d="M14.0085 34.7781C14.416 35.2438 14.5907 35.826 14.5907 36.5827V40.1337H13.0189V36.8156C13.0189 35.9424 12.6696 35.4767 12.0293 35.4767C11.7382 35.4767 11.5054 35.5349 11.3307 35.6513C11.1561 35.7678 10.9815 35.9424 10.865 36.1753C10.7486 36.4081 10.6904 36.6992 10.6904 36.9902V40.0755H9.11865V34.2542H10.2247L10.5158 34.9528C10.6322 34.8364 10.7486 34.7199 10.865 34.6035C10.9815 34.4871 11.1561 34.4289 11.3307 34.3124C11.5054 34.2542 11.68 34.196 11.8547 34.1378C12.0293 34.0796 12.2039 34.0796 12.4368 34.0796C13.0771 34.1378 13.601 34.3707 14.0085 34.7781Z" fill="#31423D"/>
<path d="M16.2783 31.9839H17.8501V33.4392H16.2783V31.9839ZM16.2783 34.2542H17.8501V40.0755H16.2783V34.2542Z" fill="#31423D"/>
<path d="M25.0685 34.2539L22.74 40.0752H21.2847L18.8979 34.2539H20.5861L22.0414 38.1542L23.4386 34.2539H25.0685Z" fill="#31423D"/>
<path d="M31.5307 37.63H27.1065C27.1647 38.0375 27.3394 38.3285 27.5722 38.5614C27.8051 38.7942 28.1544 38.8525 28.5036 38.8525C28.7947 38.8525 29.0276 38.7942 29.2022 38.6778C29.435 38.5614 29.6097 38.3868 29.7261 38.2121H31.4143C31.1814 38.8525 30.8322 39.3764 30.3082 39.7257C29.7843 40.0749 29.2022 40.3078 28.5036 40.3078C27.6304 40.3078 26.9319 40.0167 26.3498 39.4346C25.7676 38.8525 25.4766 38.0957 25.4766 37.2225C25.4766 36.8732 25.5348 36.5239 25.6512 36.2329C25.7676 35.9418 25.8841 35.6507 26.0587 35.3597C26.2333 35.1268 26.4662 34.894 26.699 34.7193C26.9319 34.5447 27.223 34.3701 27.514 34.3118C27.8051 34.1954 28.1544 34.1372 28.5036 34.1372C29.0858 34.1372 29.6097 34.2536 30.0754 34.5447C30.5411 34.8358 30.8904 35.185 31.1232 35.6507C31.3561 36.1164 31.4725 36.6404 31.4725 37.1643C31.5889 37.3389 31.5307 37.4553 31.5307 37.63ZM27.6304 35.709C27.3976 35.8836 27.223 36.1747 27.1647 36.5239H30.0172C29.959 36.2911 29.8425 36.0582 29.7261 35.9418C29.6097 35.7672 29.435 35.6507 29.2604 35.5925C29.0858 35.5343 28.8529 35.4761 28.6201 35.4761C28.2126 35.4179 27.8633 35.5343 27.6304 35.709Z" fill="#31423D"/>
<path d="M36.4205 34.254V35.7093H35.722C35.2563 35.7093 34.9652 35.8258 34.7905 36.0004C34.6159 36.2333 34.4995 36.5243 34.4995 37.0482V40.0753H32.9277V34.254H33.9174L34.2084 34.9526C34.6159 34.4287 35.1398 34.1958 35.8966 34.1958H36.4205V34.254Z" fill="#31423D"/>
<path d="M38.2834 40.0167C37.9341 39.8421 37.6431 39.6092 37.4102 39.2599C37.1774 38.9689 37.1191 38.5614 37.1191 38.1539H38.6327C38.6327 38.3285 38.6909 38.445 38.7491 38.6196C38.8073 38.736 38.9237 38.8525 39.0984 38.8525C39.2148 38.9107 39.3894 38.9107 39.6223 38.9107C39.7969 38.9107 39.9134 38.9107 40.0298 38.8525C40.1462 38.7942 40.2626 38.736 40.3209 38.6778C40.3791 38.5614 40.4373 38.5032 40.4373 38.3868C40.4373 38.2121 40.3209 38.0957 40.1462 37.9793C39.9716 37.921 39.6805 37.8046 39.273 37.7464C39.0402 37.6882 38.8655 37.6882 38.6909 37.63C38.5162 37.5718 38.3416 37.5136 38.167 37.4553C37.9341 37.3389 37.7595 37.2807 37.6431 37.1643C37.5266 37.0479 37.4102 36.8732 37.2938 36.6986C37.1774 36.5239 37.1774 36.2329 37.1774 36C37.1774 35.4761 37.4102 35.0104 37.8177 34.6611C38.2252 34.3118 38.8073 34.1372 39.5059 34.1372C40.2044 34.1372 40.7866 34.3118 41.194 34.6611C41.6015 35.0104 41.8344 35.4761 41.8344 36.0582H40.3209C40.3209 35.5925 40.0298 35.3597 39.4477 35.3597C39.2148 35.3597 38.982 35.4179 38.8655 35.5343C38.7491 35.6507 38.6327 35.7672 38.6327 35.9418C38.6327 36 38.6327 36.0582 38.6909 36.1164C38.7491 36.1747 38.7491 36.2329 38.8073 36.2911C38.8655 36.3493 38.9237 36.3493 39.0402 36.4075C39.1566 36.4657 39.273 36.4657 39.3312 36.4657L39.6805 36.5239C39.7969 36.5239 39.9134 36.5822 39.9716 36.5822C40.0298 36.5822 40.1462 36.6404 40.2626 36.6404C40.3791 36.6404 40.4955 36.6986 40.5537 36.6986C40.6119 36.6986 40.7283 36.7568 40.8448 36.815C40.9612 36.8732 41.0776 36.9314 41.1358 36.9314C41.194 36.9896 41.2523 37.0479 41.3687 37.1061C41.4851 37.1643 41.5433 37.2225 41.6015 37.3389C41.6597 37.3971 41.718 37.5136 41.7762 37.5718C41.8344 37.6882 41.8344 37.7464 41.8926 37.9211C41.8926 38.0375 41.8926 38.1539 41.8926 38.3285C41.8926 38.9107 41.6597 39.4346 41.194 39.7839C40.7283 40.1331 40.1462 40.3078 39.3894 40.3078C39.0984 40.2496 38.6327 40.1914 38.2834 40.0167Z" fill="#31423D"/>
<path d="M43.4058 31.9839H44.9775V33.4392H43.4058V31.9839ZM43.4058 34.2542H44.9775V40.0755H43.4058V34.2542Z" fill="#31423D"/>
<path d="M50.2748 38.678V40.0751H49.1688C48.7613 40.0751 48.3538 40.0168 48.0627 39.8422C47.7717 39.6676 47.4806 39.4347 47.3642 39.1437C47.1895 38.8526 47.1313 38.4451 47.1313 38.0376V35.5345H46.0835V35.1852L48.412 32.7402H48.7031V34.2538H50.2166V35.5345H48.6449V37.8048C48.6449 38.0958 48.7031 38.3287 48.8777 38.4451C49.0524 38.5615 49.227 38.678 49.5181 38.678H50.2748Z" fill="#31423D"/>
<path d="M57.144 37.6305H52.7198C52.778 38.038 52.9527 38.3291 53.1855 38.562C53.4184 38.7948 53.7676 38.853 54.1169 38.853C54.408 38.853 54.6408 38.7948 54.8155 38.6784C55.0483 38.5619 55.223 38.3873 55.3394 38.2127H57.0276C56.7947 38.853 56.4454 39.3769 55.9215 39.7262C55.3976 40.0755 54.8155 40.3083 54.1169 40.3083C53.2437 40.3083 52.5452 40.0173 51.963 39.4351C51.3809 38.853 51.0898 38.0962 51.0898 37.2231C51.0898 36.8738 51.1481 36.5245 51.2645 36.2334C51.3809 35.9424 51.4973 35.6513 51.672 35.3602C51.8466 35.1274 52.0795 34.8945 52.3123 34.7199C52.5452 34.5453 52.8362 34.3706 53.1273 34.3124C53.4184 34.196 53.7676 34.1378 54.1169 34.1378C54.699 34.1378 55.223 34.2542 55.6887 34.5453C56.1544 34.8363 56.5036 35.1856 56.7365 35.6513C56.9693 36.117 57.0858 36.6409 57.0858 37.1648C57.2022 37.3395 57.2022 37.4559 57.144 37.6305ZM53.3019 35.7095C53.0691 35.8842 52.8944 36.1752 52.8362 36.5245H55.6887C55.6305 36.2916 55.514 36.0588 55.3976 35.9424C55.2812 35.7677 55.1065 35.6513 54.9319 35.5931C54.7573 35.5349 54.5244 35.4767 54.2916 35.4767C53.8259 35.4185 53.5348 35.5349 53.3019 35.7095ZM54.6408 33.6139H53.4766L54.0587 31.9839H55.7469L54.6408 33.6139Z" fill="#31423D"/>
<path d="M8.65258 47.1192C8.65258 48.3417 8.30331 49.3313 7.54654 50.088C6.84798 50.8448 5.91658 51.2523 4.75232 51.2523C3.64627 51.2523 2.71486 50.903 1.9581 50.1463C1.20133 49.3895 0.852051 48.4581 0.852051 47.352C0.852051 46.1878 1.20133 45.2564 1.9581 44.4996C2.71486 43.7428 3.64627 43.3936 4.75232 43.3936C5.68372 43.3936 6.49871 43.6846 7.25547 44.2085C7.95403 44.7325 8.41973 45.431 8.59437 46.3042H6.9062C6.78977 46.0131 6.61513 45.7803 6.44049 45.6056C6.26585 45.431 5.97479 45.2564 5.74194 45.1399C5.45087 45.0235 5.15981 44.9653 4.86874 44.9653C4.17019 44.9653 3.64627 45.1982 3.23878 45.6639C2.83129 46.1296 2.59844 46.7117 2.59844 47.4102C2.59844 47.876 2.71486 48.2834 2.8895 48.6327C3.06414 48.982 3.35521 49.2731 3.70448 49.5059C4.05376 49.6806 4.46125 49.797 4.86874 49.797C5.21802 49.797 5.50909 49.7388 5.80015 49.6223C6.09122 49.5059 6.32407 49.3895 6.55692 49.1566C6.78977 48.982 6.9062 48.7491 7.02262 48.4581H4.57768V47.1774H8.65258V47.1192Z" fill="#31423D"/>
<path d="M13.4845 45.1982V46.7118H12.7859C12.3202 46.7118 12.0292 46.8282 11.8545 47.0028C11.6799 47.2357 11.5634 47.5268 11.5634 48.0507V51.0777H9.9917V45.2565H10.9813L11.2724 45.955C11.6799 45.4311 12.2038 45.1982 12.9606 45.1982H13.4845Z" fill="#31423D"/>
<path d="M20.1206 48.5743H15.6964C15.7546 48.9818 15.9292 49.2729 16.1621 49.5057C16.3949 49.7386 16.7442 49.7968 17.0935 49.7968C17.3845 49.7968 17.6174 49.7386 17.792 49.6222C18.0249 49.5057 18.1995 49.3311 18.316 49.1564H20.0041C19.7713 49.7968 19.422 50.3207 18.8981 50.67C18.3742 51.0193 17.792 51.2521 17.0935 51.2521C16.2203 51.2521 15.5217 50.961 14.9396 50.3789C14.3575 49.7968 14.0664 49.04 14.0664 48.1668C14.0664 47.8176 14.1246 47.4683 14.241 47.1772C14.3575 46.8861 14.4739 46.5951 14.6485 46.304C14.8232 46.0712 15.056 45.8383 15.2889 45.6637C15.5217 45.489 15.8128 45.3144 16.1039 45.2562C16.3949 45.1398 16.7442 45.0815 17.0935 45.0815C17.6756 45.0815 18.1995 45.198 18.6652 45.489C19.1309 45.7801 19.4802 46.1294 19.7131 46.5951C19.9459 47.0608 20.0623 47.5847 20.0623 48.1086C20.1206 48.2833 20.1206 48.3997 20.1206 48.5743ZM16.2203 46.7115C15.9874 46.8861 15.8128 47.1772 15.7546 47.5265H18.607C18.5488 47.2936 18.4324 47.0608 18.316 46.9444C18.1995 46.7697 18.0249 46.6533 17.8502 46.5951C17.6756 46.5369 17.4428 46.4787 17.2099 46.4787C16.7442 46.4204 16.4531 46.4787 16.2203 46.7115Z" fill="#31423D"/>
<path d="M26.408 45.722C26.8154 46.1877 26.9901 46.7698 26.9901 47.5266V51.0776H25.4183V47.7594C25.4183 46.8862 25.0691 46.4205 24.4287 46.4205C24.1376 46.4205 23.9048 46.4788 23.7302 46.5952C23.5555 46.7116 23.3809 46.8863 23.2645 47.1191C23.148 47.352 23.0898 47.643 23.0898 47.9341V51.0194H21.5181V45.1981H22.6241L22.9152 45.8966C23.0316 45.7802 23.148 45.6638 23.2645 45.5474C23.3809 45.4309 23.5555 45.3727 23.7302 45.2563C23.9048 45.1981 24.0794 45.1399 24.2541 45.0816C24.4287 45.0234 24.6034 45.0234 24.8362 45.0234C25.4765 45.0817 26.0005 45.3145 26.408 45.722Z" fill="#31423D"/>
<path d="M29.784 50.8446C29.3183 50.5536 28.9109 50.2043 28.678 49.7386C28.3869 49.2729 28.2705 48.749 28.2705 48.1668C28.2705 47.2936 28.5616 46.5369 29.1437 45.9547C29.7258 45.3726 30.4826 45.0815 31.414 45.0815C32.3454 45.0815 33.044 45.3726 33.6843 45.9547C34.2664 46.5369 34.5575 47.2936 34.5575 48.1668C34.5575 49.04 34.2664 49.7968 33.6261 50.3789C33.044 50.961 32.2872 51.2521 31.3558 51.2521C30.8319 51.2521 30.2497 51.0775 29.784 50.8446ZM32.5201 49.2729C32.8111 48.9818 32.9275 48.5743 32.9275 48.1086C32.9275 47.6429 32.8111 47.2354 32.5201 46.9444C32.229 46.6533 31.8797 46.4787 31.414 46.4787C30.9483 46.4787 30.599 46.6533 30.308 46.9444C30.0169 47.2354 29.9005 47.6429 29.9005 48.1086C29.9005 48.3415 29.9587 48.5743 30.0169 48.749C30.0751 48.9236 30.1915 49.0982 30.308 49.2729C30.4244 49.3893 30.599 49.5057 30.7737 49.6222C30.9483 49.7386 31.1812 49.7386 31.414 49.7386C31.8797 49.7386 32.229 49.5639 32.5201 49.2729Z" fill="#31423D"/>
<path d="M41.3102 45.955C41.8923 46.5371 42.1834 47.2939 42.1834 48.1671C42.1834 49.0403 41.8923 49.797 41.3102 50.3792C40.728 50.9613 39.9713 51.2523 39.0981 51.2523C38.3995 51.2523 37.7592 51.0195 37.2935 50.612L37.1188 51.0777H35.9546V43.1025H37.5263V45.5475C37.992 45.2564 38.516 45.0818 39.1563 45.0818C39.9713 45.0236 40.728 45.3728 41.3102 45.955ZM40.0877 49.2731C40.3788 48.982 40.5534 48.5746 40.5534 48.1089C40.5534 47.8178 40.4952 47.5267 40.3788 47.2939C40.2623 47.061 40.0295 46.8282 39.7966 46.7117C39.5638 46.5953 39.2727 46.4789 38.9817 46.4789C38.6906 46.4789 38.3995 46.5371 38.1667 46.7117C37.9338 46.8282 37.701 47.061 37.5846 47.2939C37.4681 47.5267 37.3517 47.8178 37.3517 48.1089C37.3517 48.5746 37.5263 48.9238 37.8174 49.2731C38.1085 49.5642 38.516 49.7388 38.9817 49.7388C39.4474 49.7388 39.7966 49.5642 40.0877 49.2731Z" fill="#31423D"/>
<path d="M43.522 43.1025H45.0937V51.0777H43.522V43.1025Z" fill="#31423D"/>
<path d="M52.4873 48.5743H48.0631C48.1213 48.9818 48.2959 49.2729 48.5288 49.5057C48.7616 49.7386 49.1109 49.7968 49.4602 49.7968C49.7512 49.7968 49.9841 49.7386 50.1587 49.6222C50.3916 49.5057 50.5662 49.3311 50.6827 49.1564H52.3708C52.138 49.7968 51.7887 50.3207 51.2648 50.67C50.7409 51.0193 50.1587 51.2521 49.4602 51.2521C48.587 51.2521 47.8884 50.961 47.3063 50.3789C46.7242 49.7968 46.4331 49.04 46.4331 48.1668C46.4331 47.8176 46.4913 47.4683 46.6077 47.1772C46.7242 46.8861 46.8406 46.5951 47.0152 46.304C47.1899 46.0129 47.4227 45.8383 47.6556 45.6637C47.8884 45.489 48.1795 45.3144 48.4706 45.2562C48.7616 45.198 49.1109 45.0815 49.4602 45.0815C50.0423 45.0815 50.5662 45.198 51.0319 45.489C51.4976 45.7801 51.8469 46.1294 52.0798 46.5951C52.3126 47.0608 52.429 47.5847 52.429 48.1086C52.4873 48.2833 52.4873 48.3997 52.4873 48.5743ZM48.587 46.7115C48.3541 46.8861 48.1795 47.1772 48.1213 47.5265H50.9737C50.9155 47.2936 50.7991 47.0608 50.6827 46.9444C50.5662 46.7697 50.3916 46.6533 50.2169 46.5951C50.0423 46.5369 49.8095 46.4787 49.5766 46.4787C49.1109 46.4204 48.8198 46.4787 48.587 46.7115Z" fill="#31423D"/>
<path d="M60.9859 49.6221H57.9588L57.4349 51.0774H55.6885L58.6573 43.5098H60.2291L63.3144 51.0774H61.5098L60.9859 49.6221ZM58.4827 48.1668H60.4619L59.4723 45.4308L58.4827 48.1668Z" fill="#31423D"/>
<path d="M64.3623 43.1025H65.9341V51.0777H64.3623V43.1025Z" fill="#31423D"/>
<path d="M73.0945 45.9548C73.6766 46.537 73.9677 47.2937 73.9677 48.1669C73.9677 49.0401 73.6766 49.7969 73.0945 50.379C72.5123 50.9612 71.7556 51.2522 70.8824 51.2522C70.3002 51.2522 69.7181 51.0776 69.2524 50.7865V53.1732H67.6807V45.1981H68.7285L69.0196 45.722C69.5435 45.2563 70.1838 45.0234 70.8824 45.0234C71.7556 45.0234 72.5123 45.3727 73.0945 45.9548ZM71.872 49.273C72.1631 48.9819 72.3377 48.5744 72.3377 48.1087C72.3377 47.8177 72.2795 47.5266 72.1048 47.2937C71.9884 47.0609 71.7556 46.828 71.5227 46.7116C71.2899 46.5952 70.9988 46.4788 70.7077 46.4788C70.4167 46.4788 70.1256 46.537 69.8928 46.7116C69.6599 46.828 69.4853 47.0609 69.3106 47.2937C69.1942 47.5266 69.136 47.8177 69.136 48.1087C69.136 48.5744 69.3106 48.9819 69.6017 49.273C69.8928 49.564 70.3002 49.7387 70.766 49.7387C71.1734 49.7387 71.5809 49.564 71.872 49.273Z" fill="#31423D"/>
<path d="M80.9531 48.5743H76.5289C76.5871 48.9818 76.7617 49.2729 76.9946 49.5057C77.2274 49.7386 77.5767 49.7968 77.926 49.7968C78.2171 49.7968 78.4499 49.7386 78.6246 49.6222C78.8574 49.5057 79.032 49.3311 79.1485 49.1564H80.8367C80.6038 49.7968 80.2545 50.3207 79.7306 50.67C79.2067 51.0193 78.6246 51.2521 77.926 51.2521C77.0528 51.2521 76.3542 50.961 75.7721 50.3789C75.19 49.7968 74.8989 49.04 74.8989 48.1668C74.8989 47.8176 74.9571 47.4683 75.0736 47.1772C75.19 46.8861 75.3064 46.5951 75.4811 46.304C75.6557 46.0712 75.8885 45.8383 76.1214 45.6637C76.3543 45.489 76.6453 45.3144 76.9364 45.2562C77.2274 45.1398 77.5767 45.0815 77.926 45.0815C78.5081 45.0815 79.032 45.198 79.4978 45.489C79.9635 45.7801 80.3127 46.1294 80.5456 46.5951C80.7784 47.0608 80.8949 47.5847 80.8949 48.1086C80.9531 48.2833 80.9531 48.3997 80.9531 48.5743ZM77.0528 46.7115C76.82 46.8861 76.6453 47.1772 76.5871 47.5265H79.4395C79.3813 47.2936 79.2649 47.0608 79.1485 46.9444C79.032 46.7697 78.8574 46.6533 78.6828 46.5951C78.5081 46.5369 78.2753 46.4787 78.0424 46.4787C77.5767 46.4204 77.2857 46.4787 77.0528 46.7115Z" fill="#31423D"/>
<path d="M83.1071 50.961C82.7579 50.7864 82.4668 50.5536 82.2339 50.2043C82.0011 49.9132 81.9429 49.5057 81.9429 49.0982H83.4564C83.4564 49.2729 83.5146 49.3893 83.5728 49.5639C83.631 49.6804 83.7475 49.7968 83.9221 49.7968C84.0385 49.855 84.2132 49.855 84.446 49.855C84.6207 49.855 84.7371 49.855 84.8535 49.7968C84.9699 49.7386 85.0864 49.6804 85.1446 49.6222C85.2028 49.5057 85.261 49.4475 85.261 49.3311C85.261 49.1565 85.1446 49.04 84.9699 48.9236C84.7953 48.8654 84.5042 48.749 84.0967 48.6907C83.8639 48.6325 83.6893 48.6325 83.5146 48.5743C83.34 48.5161 83.1653 48.4579 82.9907 48.3997C82.7579 48.2833 82.5832 48.225 82.4668 48.1086C82.3504 47.9922 82.2339 47.8176 82.1175 47.6429C82.0011 47.4683 82.0011 47.1772 82.0011 46.9444C82.0011 46.4204 82.2339 45.9547 82.6414 45.6055C83.0489 45.2562 83.631 45.0815 84.3296 45.0815C85.0282 45.0815 85.6103 45.2562 86.0178 45.6055C86.4253 45.9547 86.6581 46.4204 86.6581 47.0026H85.1446C85.1446 46.5369 84.8535 46.304 84.2714 46.304C84.0385 46.304 83.8057 46.3622 83.6893 46.4787C83.5728 46.5951 83.4564 46.7115 83.4564 46.8861C83.4564 46.9444 83.4564 47.0026 83.5146 47.0608C83.5728 47.119 83.5728 47.1772 83.631 47.2354C83.6893 47.2936 83.7475 47.2936 83.8639 47.3518C83.9803 47.4101 84.0968 47.4101 84.155 47.4101L84.5042 47.4683C84.6207 47.4683 84.7371 47.5265 84.7953 47.5265C84.8535 47.5265 84.9699 47.5847 85.0864 47.5847C85.2028 47.5847 85.3192 47.6429 85.3774 47.6429C85.4356 47.6429 85.5521 47.7011 85.6685 47.7593C85.7849 47.8176 85.9013 47.8758 85.9596 47.8758C86.0178 47.934 86.076 47.9922 86.1924 48.0504C86.3088 48.1086 86.3671 48.1668 86.4253 48.2833C86.4835 48.3415 86.5417 48.4579 86.5999 48.5161C86.6581 48.6325 86.6581 48.6907 86.7163 48.8654C86.7163 48.9818 86.7163 49.0982 86.7163 49.2729C86.7163 49.855 86.4835 50.3789 86.0178 50.7282C85.5521 51.0775 84.9699 51.2521 84.2132 51.2521C83.9221 51.2521 83.4564 51.1357 83.1071 50.961Z" fill="#31423D"/>
</g>
<defs>
<clipPath id="clip0_10241_786">
<rect width="87.3194" height="53.5559" fill="white" transform="translate(0.153809 0.199707)"/>
</clipPath>
</defs>
</svg>
