<svg width="24" height="25" viewBox="0 0 24 25" fill="none" xmlns="http://www.w3.org/2000/svg">
<path d="M16.2229 22.5282C17.0987 22.2826 17.9375 21.8345 18.4879 21.0425C19.0312 20.267 19.1841 19.2833 19.1841 18.3367V4.46803C19.1841 4.22247 19.1708 3.97646 19.1412 3.7334C19.5762 3.9045 19.9115 4.18722 20.147 4.58157C20.4249 5.02997 20.5638 5.62046 20.5638 6.35305V20.4396C20.5638 21.4311 20.3207 22.1732 19.8344 22.6658C19.3481 23.1584 18.6155 23.4047 17.6366 23.4047H12.3157C12.4417 23.3826 12.568 23.3599 12.6947 23.3365C13.805 23.1381 14.9785 22.8688 16.2139 22.5307L16.2229 22.5282Z" fill="#F7F5F1"/>
<path fill-rule="evenodd" clip-rule="evenodd" d="M3.43652 20.146V6.04056C3.43652 5.18167 3.66704 4.53118 4.12806 4.0891C4.5954 3.64702 5.21431 3.40388 5.98479 3.35967C7.12157 3.2902 8.19834 3.19547 9.21512 3.07548C10.2319 2.94917 11.2045 2.80391 12.1328 2.63971C13.0675 2.47551 13.9769 2.29237 14.8611 2.09027C15.7705 1.87555 16.4684 1.98291 16.9547 2.41236C17.4409 2.84181 17.6841 3.52703 17.6841 4.46802V18.3367C17.6841 19.164 17.542 19.7797 17.2578 20.1839C16.9736 20.5944 16.4936 20.8944 15.8179 21.0839C14.618 21.4123 13.4875 21.6712 12.4265 21.8607C11.3655 22.0564 10.3298 22.2049 9.31933 22.3059C8.30886 22.407 7.27314 22.4859 6.21215 22.5427C5.3343 22.5933 4.65224 22.4101 4.16595 21.9933C3.67967 21.5828 3.43652 20.967 3.43652 20.146ZM6.90649 8.60161C8.29761 8.51307 9.57237 8.37707 10.7307 8.19352C11.0117 8.1477 11.2923 8.09998 11.5718 8.05047C11.8644 7.99867 12.0759 7.74373 12.0759 7.44731C12.0759 7.06344 11.7285 6.77435 11.3512 6.8387C11.1345 6.87567 10.9167 6.9116 10.6976 6.9465C9.55097 7.12921 8.28389 7.26477 6.89642 7.35306C6.68864 7.36647 6.52332 7.4312 6.41706 7.56022C6.31657 7.68225 6.26733 7.829 6.26733 7.99629C6.26733 8.16637 6.32472 8.31442 6.43926 8.43612L6.44087 8.43772C6.56502 8.56188 6.72277 8.61562 6.90649 8.60161ZM6.90601 11.7468C8.29731 11.6583 9.57224 11.5223 10.7307 11.3387C11.8941 11.149 13.0452 10.9276 14.1834 10.6747C14.4144 10.6234 14.5874 10.5425 14.6739 10.417C14.759 10.2963 14.801 10.158 14.801 10.0047C14.801 9.83175 14.7352 9.68278 14.607 9.56176C14.469 9.43144 14.2761 9.40107 14.0478 9.44808L14.0463 9.44841C12.9617 9.69434 11.8455 9.90876 10.6976 10.0917C9.55097 10.2744 8.28389 10.4099 6.89642 10.4982C6.68864 10.5116 6.52332 10.5764 6.41706 10.7054C6.31707 10.8268 6.26733 10.9702 6.26733 11.132C6.26733 11.3075 6.32406 11.459 6.43919 11.5813L6.4425 11.5845C6.56625 11.7009 6.72237 11.7539 6.90413 11.7469L6.90601 11.7468ZM6.90635 14.8919C8.29753 14.797 9.57232 14.6578 10.7306 14.4743C11.8942 14.2909 13.0451 14.0727 14.1834 13.8198C14.4149 13.7683 14.5881 13.6841 14.6745 13.5518C14.7587 13.4319 14.801 13.2972 14.801 13.1498C14.801 12.9768 14.7352 12.8279 14.607 12.7068C14.469 12.5765 14.2761 12.5462 14.0478 12.5932L14.0467 12.5934C12.962 12.833 11.8456 13.0443 10.6976 13.2273C9.55085 13.41 8.28375 13.5487 6.89621 13.6433C6.68853 13.6567 6.52328 13.7215 6.41706 13.8505C6.31707 13.9719 6.26733 14.1152 6.26733 14.2771C6.26733 14.4526 6.32406 14.6041 6.43919 14.7264L6.4425 14.7295C6.56625 14.846 6.72237 14.899 6.90413 14.892L6.90635 14.8919ZM10.7307 17.5976C9.57237 17.7811 8.29762 17.9171 6.90651 18.0056C6.72278 18.0197 6.56503 17.9659 6.44087 17.8418L6.43929 17.8401C6.32475 17.7184 6.26733 17.5704 6.26733 17.4003C6.26733 17.233 6.31657 17.0863 6.41706 16.9643C6.52332 16.8352 6.68871 16.7705 6.89649 16.7571C8.28396 16.6688 9.55097 16.5333 10.6976 16.3505C10.9167 16.3156 11.1345 16.2797 11.3512 16.2427C11.7285 16.1784 12.0759 16.4675 12.0759 16.8514C12.0759 17.1478 11.8644 17.4027 11.5718 17.4545C11.2923 17.504 11.0117 17.5517 10.7307 17.5976Z" fill="#F7F5F1"/>
</svg>
