<svg width="192" height="73" viewBox="0 0 192 73" fill="none" xmlns="http://www.w3.org/2000/svg">
<path d="M133.133 27.836L135.511 25.9815C133.798 23.1746 130.624 21.145 126.869 21.145C122.401 21.145 118.562 24.0398 118.562 28.5712C118.562 32.5858 121.567 34.6148 124.781 36.2125L127.869 37.7238C130.583 39.0618 132.465 40.0971 132.465 42.7316C132.465 45.6243 130.166 47.4796 126.911 47.4796C123.363 47.4796 120.9 45.2355 119.232 42.6013L116.808 44.4584C118.938 48.2151 122.571 50.5893 126.952 50.5893C132.046 50.5893 135.841 47.4366 135.841 42.6464C135.841 38.8027 133.424 36.6868 129.414 34.7023L126.368 33.1901L126.343 33.1771C123.848 31.9319 121.942 30.9803 121.942 28.3978C121.942 25.5909 124.281 24.2544 126.827 24.2544C129.33 24.2544 131.67 25.5485 133.133 27.836Z" fill="#31423D"/>
<path d="M168.869 47.0315L168.84 47.0119C168.922 46.7606 169.016 46.5148 169.115 46.2774L168.869 47.0315Z" fill="#31423D"/>
<path fill-rule="evenodd" clip-rule="evenodd" d="M162.891 50.1156H191.119V21.6034H162.891V50.1156ZM175.205 21.8475H163.195L167.143 25.8366C169.317 23.657 172.154 22.2493 175.205 21.8475ZM176.957 21.9761C173.317 21.9911 169.857 23.466 167.317 26.0116L172.766 31.5181H173.933L176.957 21.9761ZM172.665 31.5181L167.266 26.0629C166.726 26.6092 166.229 27.204 165.781 27.8438C164.122 30.2143 163.258 32.9838 163.261 35.8285H169.794L163.959 31.5181H172.665ZM169.875 35.8881H163.261C163.265 36.6559 163.332 37.4291 163.463 38.2012C163.948 41.0576 165.272 43.6308 167.26 45.6402L170.362 42.5065L172.025 37.4762L169.875 35.8881ZM170.311 42.6597L169.115 46.2774C170.42 43.2068 173.44 41.0529 176.959 41.0529C178.001 41.0529 179.001 41.2431 179.924 41.5889C178.145 40.3168 176.979 38.2216 176.979 35.8568C176.979 33.6223 178.019 31.6294 179.636 30.3417L177.022 21.976C179.866 21.9778 182.599 22.8571 184.929 24.5192C185.563 24.972 186.152 25.4718 186.693 26.0131L183.9 28.8328C182.29 28.8402 180.811 29.4059 179.636 30.3417L179.683 30.4885C180.804 29.5796 182.214 29.0202 183.754 28.9801L181.24 31.5183L180.001 31.5183L179.683 30.4885C178.123 31.751 177.122 33.6875 177.122 35.8555C177.122 39.5476 180.018 42.5666 183.631 42.728L183.567 42.5335L183.764 42.7325L183.708 42.7307L183.631 42.728L183.639 42.7499C183.644 42.7706 183.651 42.7915 183.658 42.8125L183.665 42.8352L183.646 42.7721L183.679 42.8736C182.986 42.8468 182.321 42.7189 181.694 42.5025C183.065 43.4307 184.157 44.7491 184.811 46.3002L183.679 42.8736C183.755 42.8761 183.833 42.8783 183.909 42.8787L186.688 45.6863C186.19 46.1871 185.655 46.6465 185.091 47.0616C185.011 46.8023 184.915 46.5495 184.811 46.3002L185.067 47.0793C185.034 47.1031 185.002 47.1267 184.969 47.1502C183.91 43.7011 180.721 41.1961 176.96 41.1961C173.213 41.1961 170.038 43.6773 168.96 47.1015L168.908 47.0638L168.869 47.0315L168.868 47.0339C168.312 46.6217 167.791 46.1726 167.31 45.6906L170.311 42.6597ZM181.342 31.5183L189.215 31.5183L189.396 31.5182L190.053 31.5183C189.387 29.456 188.258 27.5962 186.743 26.0642L184.001 28.833C186.189 28.8547 188.134 29.902 189.396 31.5182L189.215 31.5183C187.964 29.9696 186.061 28.9777 183.932 28.9777L183.89 28.9779L183.858 28.9781L181.342 31.5183ZM186.916 25.8902C188.938 27.935 190.286 30.5537 190.778 33.4601C190.817 33.6859 190.85 33.9118 190.878 34.1377V21.8896L186.916 25.8902ZM190.819 21.8475H178.828C181.066 22.1423 183.197 22.9824 185.07 24.32C185.715 24.7805 186.315 25.2887 186.865 25.8392L190.819 21.8475ZM177.024 41.2238L184.96 47.1567C182.67 48.7997 179.902 49.7208 177.024 49.728V41.2238ZM169.071 47.182C169.038 47.1579 169.004 47.1338 168.971 47.1095L176.951 41.2246V49.7279C174.118 49.7202 171.394 48.8407 169.071 47.182ZM189.217 31.521C189.288 31.6108 189.358 31.702 189.426 31.7956C189.359 31.7021 189.29 31.6105 189.217 31.521ZM184.222 35.8232L189.521 31.9321C190.233 32.9629 190.675 34.1979 190.737 35.5319C190.739 35.6313 190.741 35.7307 190.741 35.83L184.222 35.8232ZM181.911 37.5198L184.124 35.8948L190.741 35.9016C190.741 35.9769 190.741 36.0521 190.739 36.1272C190.598 39.7948 187.599 42.7355 183.932 42.7355C183.912 42.7355 183.891 42.7353 183.871 42.735L183.515 42.375L181.911 37.5198ZM189.635 31.8479C190.052 32.448 190.377 33.1172 190.591 33.8342C190.575 33.7234 190.557 33.6126 190.538 33.5019C190.424 32.8309 190.264 32.1754 190.06 31.5391L189.638 31.8479C189.601 31.7963 189.565 31.7454 189.528 31.695C189.564 31.7456 189.6 31.7968 189.635 31.8479ZM184.013 42.8783L186.741 45.6334C187.277 45.0894 187.771 44.4971 188.216 43.8604C189.492 42.0392 190.299 39.9829 190.604 37.8384C189.762 40.7239 187.131 42.8419 184.013 42.8783ZM167.093 25.8878L163.137 21.8912V33.9689C163.432 31.7358 164.259 29.5932 165.582 27.7012C166.037 27.0497 166.544 26.444 167.093 25.8878ZM163.137 37.6986V49.805L167.088 45.8135C165.066 43.7685 163.717 41.1499 163.219 38.2436C163.188 38.062 163.161 37.8803 163.137 37.6986ZM167.138 45.8638L163.172 49.8688H168.428C168.426 49.8029 168.425 49.7369 168.425 49.6714C168.425 48.8353 168.545 48.0271 168.764 47.262C168.183 46.8339 167.64 46.3664 167.138 45.8638ZM168.884 47.3493C168.678 48.0889 168.569 48.8679 168.569 49.6714C168.569 49.7369 168.57 49.8029 168.571 49.8688H175.278C173.001 49.5865 170.833 48.7407 168.933 47.3842L168.884 47.3493ZM178.693 49.8688H185.346C185.348 49.8037 185.35 49.7381 185.35 49.6714C185.35 48.8856 185.242 48.1233 185.045 47.3983C183.173 48.7264 180.992 49.5835 178.693 49.8688ZM185.17 47.3085C185.377 48.0586 185.49 48.8525 185.49 49.6714C185.49 49.7381 185.489 49.8037 185.487 49.8688H190.829L186.862 45.8613C186.335 46.3901 185.769 46.8737 185.17 47.3085ZM186.914 45.8085L190.878 49.8121V37.6266C190.596 39.8979 189.764 42.0787 188.418 44.0019C187.964 44.6507 187.461 45.2541 186.914 45.8085Z" fill="#31423D"/>
<path fill-rule="evenodd" clip-rule="evenodd" d="M114.645 29.8643C114.645 34.702 111.266 38.199 105.839 38.199H99.4084V50.1141H96.1552V21.6211H105.839C111.266 21.6211 114.645 25.0739 114.645 29.8643ZM99.4084 24.6432V35.1757H105.756C109.388 35.1757 111.266 32.9752 111.266 29.9092C111.266 26.8871 109.388 24.6432 105.756 24.6432H99.4084Z" fill="#31423D"/>
<path d="M141.625 21.6213V50.1143H157.947V47.0916H144.88V21.6213H141.625Z" fill="#31423D"/>
<path d="M80.1659 21.6295H79.3633V50.0602H80.1659V21.6295Z" fill="#31423D"/>
<path d="M20.0473 64.8875L19.6636 70.8414H2.87842V69.8348C3.16462 69.8134 3.5432 69.7809 4.019 69.7186C4.49299 69.6551 4.80236 69.5922 4.9444 69.5278C5.24805 69.3818 5.45962 69.1956 5.5815 68.9674C5.69766 68.7354 5.75575 68.4462 5.75575 68.1004V53.5633C5.75575 53.2494 5.7076 52.9728 5.60196 52.7333C5.49663 52.488 5.27815 52.2939 4.9444 52.1368C4.6886 52.0177 4.34432 51.9015 3.91126 51.8109C3.48031 51.7131 3.13482 51.6523 2.87842 51.6421V50.6294H18.5203V55.4978H17.4556C17.2648 54.78 16.8549 54.0081 16.2226 53.2004C15.59 52.3863 14.9914 51.9439 14.422 51.8705C14.1268 51.8323 13.7732 51.7989 13.3642 51.7766C12.9549 51.7664 12.49 51.7549 11.9703 51.7549H8.79288V59.7904H11.0701C11.8038 59.7904 12.3332 59.72 12.6754 59.5825C13.0115 59.4501 13.3082 59.2165 13.5644 58.8912C13.7732 58.6159 13.9517 58.2496 14.0991 57.7883C14.2478 57.3266 14.3429 56.889 14.3923 56.4846H15.4582V64.406H14.3923C14.3513 63.9525 14.2526 63.4674 14.0856 62.9624C13.9183 62.4571 13.7422 62.0857 13.5644 61.8531C13.2703 61.4808 12.933 61.2452 12.5616 61.1318C12.1854 61.0126 11.6895 60.9539 11.0701 60.9539H8.79288V67.0233C8.79288 67.621 8.83652 68.104 8.92018 68.4552C9.00685 68.8007 9.17147 69.0707 9.41764 69.2548C9.66622 69.4318 10.0039 69.5428 10.4333 69.5982C10.8568 69.6551 11.465 69.6807 12.2552 69.6807H13.4954C14.0046 69.6807 14.4365 69.659 14.7913 69.6211C15.1509 69.5829 15.5223 69.5119 15.9087 69.4122C16.2948 69.3183 16.5645 69.1748 16.7294 69.0078C17.163 68.5485 17.6214 67.8582 18.0993 66.9313C18.582 66.0046 18.8878 65.3257 19.0232 64.8875H20.0473Z" fill="#31423D"/>
<path d="M44.507 51.6421C44.2425 51.6472 43.8305 51.7287 43.2803 51.8705C42.7296 52.0092 42.3363 52.1636 42.1003 52.3032C41.7591 52.547 41.531 53.0081 41.4091 53.6831C41.2866 54.3536 41.2321 55.2068 41.2321 56.2378V71.0479H39.9931L27.739 54.5044V64.9327C27.739 66.1016 27.8112 66.9948 27.9584 67.621C28.1076 68.2527 28.3324 68.6972 28.6385 68.9671C28.854 69.173 29.3048 69.3701 29.9891 69.5492C30.6723 69.7264 31.1237 69.8248 31.3431 69.8348V70.8414H23.0527V69.8348C23.307 69.8134 23.7385 69.7231 24.3479 69.5573C24.9555 69.387 25.3365 69.2377 25.4882 69.1089C25.8195 68.8432 26.0498 68.4384 26.171 67.8907C26.2956 67.3426 26.3579 66.4049 26.3579 65.0922V55.1243C26.3579 54.693 26.2824 54.2549 26.128 53.8164C25.9772 53.3851 25.7714 53.0403 25.5144 52.8091C25.1707 52.4901 24.7136 52.2295 24.1273 52.0047C23.5408 51.7763 23.0713 51.6523 22.709 51.6421V50.6294H28.4847L39.8517 66.0402V56.4241C39.8517 55.2465 39.7707 54.3421 39.6191 53.7132C39.468 53.0779 39.2522 52.6599 38.9651 52.4495C38.6952 52.2726 38.2645 52.1013 37.6617 51.9226C37.0649 51.7549 36.6039 51.6523 36.2903 51.6421V50.6294H44.507V51.6421Z" fill="#31423D"/>
<path d="M60.3711 61.5726C60.8053 62.043 61.1204 62.5651 61.322 63.1297C61.5306 63.7 61.6317 64.3557 61.6317 65.1009C61.6317 66.8897 60.9757 68.3583 59.6509 69.5278C58.3316 70.6774 56.6926 71.2603 54.7359 71.2603C53.8288 71.2603 52.9257 71.1158 52.0292 70.8387C51.1257 70.5603 50.3481 70.2151 49.6951 69.8218L49.0814 70.8618H47.9348L47.7407 63.9338H48.8942C49.1314 64.793 49.408 65.5613 49.7249 66.2505C50.0411 66.9393 50.464 67.5809 50.9882 68.1816C51.4857 68.7381 52.0569 69.1922 52.7259 69.5278C53.381 69.8504 54.146 70.021 55.0224 70.021C55.6751 70.021 56.2448 69.9343 56.7329 69.7622C57.2289 69.5937 57.6274 69.3478 57.9253 69.0342C58.2274 68.7203 58.458 68.3544 58.6003 67.93C58.7496 67.5099 58.8185 67.023 58.8185 66.4644C58.8185 65.6591 58.5967 64.9068 58.1387 64.2068C57.6899 63.5113 57.0053 62.9831 56.1025 62.6148C55.487 62.3722 54.7768 62.098 53.9769 61.8046C53.1773 61.5004 52.4935 61.222 51.9148 60.9517C50.7748 60.4437 49.8868 59.7693 49.2575 58.9417C48.6234 58.1054 48.3086 57.0181 48.3086 55.6831C48.3086 54.9211 48.4624 54.1949 48.7796 53.5371C49.0935 52.8711 49.5368 52.2746 50.1203 51.7549C50.6665 51.2631 51.3168 50.8704 52.074 50.592C52.8195 50.3146 53.6067 50.1743 54.4172 50.1743C55.3465 50.1743 56.1828 50.3164 56.9198 50.5977C57.6583 50.8888 58.3316 51.2186 58.9371 51.6011L59.5242 50.6293H60.6636L60.7728 57.344H59.6181C59.4077 56.5721 59.176 55.8336 58.916 55.1243C58.6581 54.4279 58.3126 53.7899 57.9021 53.2235C57.4871 52.6719 56.986 52.2325 56.3977 51.899C55.809 51.5785 55.0904 51.4148 54.2426 51.4148C53.3347 51.4148 52.5664 51.7046 51.9287 52.2818C51.2976 52.8608 50.969 53.5651 50.969 54.4035C50.969 55.2795 51.1769 56.003 51.5877 56.5754C51.994 57.1556 52.585 57.6242 53.3633 57.9974C54.0609 58.3323 54.7452 58.6152 55.407 58.8608C56.0802 59.0961 56.7296 59.3622 57.3565 59.6369C57.9253 59.8813 58.4736 60.1642 59.0006 60.4714C59.5287 60.785 59.9886 61.1567 60.3711 61.5726Z" fill="#31423D"/>
<path d="M63.1039 36.5645C63.0575 35.8437 61.6097 35.2163 61.1796 34.8849C60.7505 34.5482 61.281 31.2844 61.377 31.0443C61.4697 30.8077 60.5521 29.8462 60.5521 29.8462H59.1603C59.6917 29.699 59.8446 27.9758 59.8446 27.9758L60.5521 26.8211L59.358 26.5837L57.8241 27.8762L57.2442 27.7327L55.4734 29.0243C55.4734 29.0243 55.1354 29.0788 54.7051 29.0243C54.2627 28.9813 52.832 27.0152 52.832 27.0152C52.832 27.0152 52.832 26.3911 52.9723 26.1022C53.1245 25.8099 52.1058 24.6104 52.1058 24.6104C52.1058 24.6104 51.8711 23.8902 52.0119 23.8902C52.1618 23.8902 52.3012 23.4602 52.3012 23.4602L52.4986 22.9811H52.9259L52.9723 22.0698C52.9723 22.0698 53.2184 21.8763 53.2184 21.6864V20.1465C52.5913 19.1383 51.0119 18.7543 50.4783 18.8076C49.9475 18.8542 48.6552 19.3763 48.1246 19.9036C47.6004 20.4324 46.4421 23.4602 46.4421 23.4602C46.4421 23.4602 45.9675 24.301 45.625 24.3416C45.3957 24.3817 44.8856 25.3585 44.4531 26.1253V45.2762H60.2079V44.4923C60.2079 44.4923 60.7779 44.3954 61.0418 44.3544C61.2627 44.3255 61.96 44.3337 62.0454 44.101C62.1444 43.8507 62.0975 42.1804 62.0975 42.1804C62.0975 42.1804 63.2468 41.8491 63.1039 41.416C62.9573 40.9851 63.1535 37.2822 63.1039 36.5645Z" fill="#A2A9A7"/>
<path d="M19.5227 25.4724C19.2365 25.0935 17.8997 24.3255 17.9464 24.2819C17.9966 24.2356 17.761 23.6607 17.4715 23.4727C17.2229 23.3068 16.9749 22.1663 16.9183 21.8659C16.9334 21.8545 16.9499 21.831 16.9538 21.7847C17.0068 21.3528 16.9984 21.0094 16.9538 20.7302C16.9406 20.6296 16.9219 20.5297 16.9054 20.4181C16.8049 19.979 16.5512 19.7674 16.3345 19.6606C16.1548 19.5568 15.9974 19.5529 15.9974 19.5529L15.98 19.5634H15.9451C15.9451 19.5634 15.9321 19.5848 15.9165 19.6055L15.8545 19.651C15.8545 19.651 15.8545 19.6531 15.8599 19.6606H15.8545C15.8226 19.5974 15.8093 19.5634 15.8093 19.5634C15.8093 19.5634 15.7422 19.4978 15.624 19.4045C15.6167 19.4027 15.6167 19.4027 15.6137 19.394C15.3345 19.1887 14.7843 18.8408 14.1298 18.8074C14.1093 18.8074 14.0888 18.799 14.0678 18.799H14.0443C13.8782 18.796 13.7145 18.8348 13.5523 18.892C12.7833 19.1442 12.21 19.7852 11.8525 20.1806C11.4252 20.6561 12.0406 21.9998 12.0406 21.9998L12.1363 23.2822L12.6627 23.1344C12.6627 23.1344 13.1812 24.0417 13.4725 24.1886C13.7596 24.3255 14.3729 23.9448 14.3729 23.9448L14.5231 24.7538C14.5231 24.7538 13.8977 24.9966 13.5161 25.0935C13.1342 25.1877 11.6599 27.0452 11.6599 27.0452L11.8992 27.329L11.7066 28.0461C11.7066 28.0461 11.5182 27.9519 11.2281 27.7608C10.9455 27.5649 10.2334 26.9519 10.2334 26.9519L9.65894 26.2799C9.65894 26.2799 8.84549 25.4724 8.66041 25.4261C8.46329 25.3791 8.27821 25.0439 8.03535 24.9479C7.80091 24.8531 7.80091 25.1877 7.80091 25.1877L8.13285 25.6632L7.56196 25.5173C7.56196 25.5173 7.36936 25.1877 7.2252 25.1877C7.08858 25.1877 6.99047 25.5639 6.99047 25.5639C6.99047 25.5639 7.416 26.2359 7.56196 26.4258C7.70401 26.6169 7.99171 26.3262 8.13285 26.6169C8.27821 26.9016 9.27735 27.2351 9.27735 27.2351C9.27735 27.2351 9.28397 27.2498 9.2951 27.2778L10.5154 29.6182L8.79884 29.4726L8.3721 29.1894L6.84421 29.1376C6.84421 29.1376 6.15836 29.1428 5.74396 29.2321C5.67203 29.2478 5.60913 29.2664 5.56219 29.2833C5.22723 29.425 4.418 30.0004 4.22419 30.1879C4.0364 30.3814 4.3241 31.0914 4.22419 31.2376C4.12788 31.3791 4.418 31.9006 4.17784 32.0478C3.9425 32.1889 3.31744 35.0079 3.2711 35.3807C3.22626 35.7626 3.13326 37.1933 3.13326 37.6721C3.13326 38.1452 2.70502 39.1979 2.70502 39.1979L2.08176 39.8639L2.36977 40.0074C2.36977 40.0074 1.99088 41.0361 1.88916 41.4363C1.82325 41.697 1.04591 42.0241 0.797032 42.1457C0.546646 42.2802 0.0374467 42.9751 0.125924 43.152C0.237876 43.372 0.934864 43.1969 0.934864 43.1969C0.934864 43.1969 2.80012 42.3265 2.75136 42.6735C2.63339 43.44 4.53988 44.7666 4.53988 44.7666V45.2761H20.4589V27.1785C20.1201 26.5182 19.6864 25.6948 19.5227 25.4724Z" fill="#A2A9A7"/>
<path d="M44.0962 11.2441H45.2798V44.9559H44.0962V11.2441Z" fill="#A2A9A7"/>
<path d="M19.046 11.2441H20.2808V44.9559H19.046V11.2441Z" fill="#A2A9A7"/>
<path d="M32.188 0.991699C26.1457 0.991699 18.6359 4.34512 17.1528 8.66909L18.635 10.4152H45.5478L47.1576 8.51049C45.5918 4.27801 38.1061 0.991699 32.188 0.991699Z" fill="#A2A9A7"/>
<path d="M45.3394 8.83751C44.6198 5.4561 37.3833 2.13428 32.2302 2.13428C26.9691 2.13428 19.8698 5.00559 19.1193 8.84504L19.0254 9.32143H45.442L45.3394 8.83751Z" fill="#31423D"/>
<path d="M45.2797 44.8237H44.0961V11.2443H45.2797V44.8237ZM43.2603 44.8237H21.1117L21.115 11.2895H43.2609L43.2603 44.8237ZM20.2802 44.8237H19.0455V11.2443H20.2802V44.8237ZM17.1528 8.66943C18.6368 4.34546 26.1468 0.993552 32.188 0.993552C38.1067 0.993552 45.5918 4.27715 47.157 8.51024L45.5478 10.4155H18.6341L17.1528 8.66943ZM60.8262 44.8237H46.1133V19.2756L47.0589 18.3905C47.0589 18.3905 47.343 17.9424 46.934 17.8028C46.5449 17.6737 47.2704 17.9334 47.4417 17.2202C47.5988 16.509 46.7928 16.3261 46.5774 16.7609C46.5214 16.8581 46.2722 16.785 46.6493 15.8337C47.2704 14.2893 49.1901 12.0132 47.4417 10.9849C47.1452 10.8125 46.516 10.7733 46.1133 11.0451V11.0273L48.0974 8.68689L48.0159 8.466C46.4693 3.80948 38.5424 0.161133 32.188 0.161133C25.7045 0.161133 17.7535 3.88894 16.2918 8.63754L16.2235 8.85752L18.0951 11.0589C17.6975 10.7926 17.1528 10.8347 16.8988 10.9849C15.1446 12.0132 17.0679 14.2893 17.6798 15.8337C18.0587 16.785 17.814 16.8581 17.7628 16.7609C17.5449 16.3261 16.7303 16.509 16.8988 17.2202C17.0679 17.9334 17.7896 17.6737 17.4014 17.8028C16.9948 17.9424 17.2762 18.3905 17.2762 18.3905L18.2154 19.2717V44.8237H3.53508C3.09119 44.8237 2.73096 45.2853 2.73096 45.7289H61.6306C61.6306 45.2853 61.2695 44.8237 60.8262 44.8237Z" fill="#31423D"/>
<path d="M43.5374 8.51462H20.9019C21.861 5.52865 27.4757 2.63086 32.2276 2.63086C36.9073 2.63086 42.51 5.67311 43.5374 8.51462Z" fill="#A2A9A7"/>
<path d="M24.6202 13.2981H39.7379V42.7618H24.6202V13.2981ZM21.1118 44.8242H43.2607V11.2905H21.1118V44.8242Z" fill="#A2A9A7"/>
<path d="M41.0429 13.2979H23.3281V42.7615H41.0429V13.2979Z" fill="#31423D"/>
<path d="M24.1996 14.601L28.7889 16.7309L28.7889 24.1049L24.1996 22.6963L24.1996 14.601Z" fill="white"/>
<path d="M24.1997 23.4744L28.7889 24.8765L28.7888 31.6971L24.1997 33.1023L24.1997 23.4744Z" fill="white"/>
<path d="M24.1998 33.878L28.7888 32.4724L28.7888 39.3219L24.1997 41.3325L24.1998 33.878Z" fill="white"/>
<path d="M35.5649 16.7315L40.155 14.6017L40.1551 22.7186L35.5649 24.1246L35.5649 16.7315Z" fill="white"/>
<path d="M35.565 24.8972L40.155 23.4939L40.1552 33.1474L35.5652 31.7468L35.565 24.8972Z" fill="white"/>
<path d="M35.5654 32.5235L40.1554 33.9238L40.1555 41.3329L35.5655 39.3219L35.5654 32.5235Z" fill="white"/>
<path d="M28.2727 4.70867C28.2727 5.6103 28.2736 6.06021 28.2736 6.96244C28.2727 7.00518 28.2727 7.02805 28.2687 7.07409C28.2817 7.13338 28.2859 7.16287 28.2949 7.22216C28.3452 7.35608 28.4869 7.428 28.7241 7.43613C28.7894 7.43733 28.8276 7.46321 28.8276 7.50354C28.8276 7.56554 28.7557 7.59744 28.607 7.59774C28.5754 7.59774 28.4659 7.59412 28.2841 7.57787C28.1848 7.56885 28.0521 7.56704 27.8823 7.56764C27.7123 7.56885 27.5642 7.58359 27.4439 7.59683C27.3957 7.60496 27.3623 7.60737 27.3397 7.60737C27.2952 7.60737 27.2756 7.5848 27.2756 7.53935C27.2756 7.50565 27.2952 7.48308 27.3406 7.47676C27.5143 7.44606 27.6301 7.40393 27.6813 7.34825C27.7334 7.29619 27.7556 7.19477 27.7556 7.0449C27.755 7.00457 27.755 6.98562 27.755 6.94499C27.755 6.16012 27.755 5.76378 27.7541 4.97862C27.7541 4.79895 27.6858 4.71619 27.5462 4.73034C27.4944 4.73967 27.4439 4.75682 27.4029 4.77759C27.3807 4.79113 27.3647 4.80016 27.3406 4.81641C27.322 4.82694 27.3042 4.82935 27.2913 4.83055C27.2494 4.83747 27.2227 4.81942 27.2227 4.77819C27.2227 4.73846 27.2458 4.70385 27.2913 4.67526C27.3295 4.64788 27.4141 4.60906 27.5447 4.56482C27.786 4.47724 27.9627 4.38425 28.0641 4.26929C28.1086 4.22264 28.1351 4.19586 28.183 4.1444C28.1989 4.12514 28.2245 4.1128 28.2531 4.10798C28.2859 4.10618 28.3027 4.13718 28.3027 4.20519C28.3027 4.22445 28.2988 4.25605 28.2967 4.30631C28.2865 4.40381 28.2859 4.44865 28.2775 4.54827C28.2736 4.59491 28.2727 4.64788 28.2727 4.70867Z" fill="#31423D"/>
<path d="M30.9026 4.52356C30.6345 4.53439 30.5021 4.5371 30.2327 4.55004C30.143 4.55425 30.0991 4.55486 30.0094 4.55576C29.9068 4.58405 29.8514 4.59639 29.7509 4.62528C29.6402 4.68637 29.5718 4.79742 29.5517 4.9503C29.5405 5.03125 29.5189 5.0779 29.4828 5.08061C29.4361 5.08723 29.4072 5.04238 29.4072 4.94969C29.4072 4.79561 29.4322 4.62768 29.481 4.45374C29.5095 4.36496 29.5228 4.32493 29.5499 4.23646C29.5571 4.19493 29.5592 4.17296 29.5682 4.13413C29.5718 4.08689 29.6028 4.06311 29.6576 4.058C29.6724 4.05739 29.7079 4.05438 29.7602 4.05589C29.8108 4.05739 29.9116 4.05288 30.0699 4.04415C30.4819 4.01616 30.6892 4.00533 31.1018 3.99239C31.206 3.98757 31.2722 3.99781 31.2975 4.01767C31.3242 4.03753 31.3372 4.09321 31.3372 4.17687C31.3372 4.40408 31.2562 4.72399 31.1037 5.13026C31.007 5.37342 30.9622 5.49621 30.871 5.73426C30.6345 6.35059 30.5189 6.81194 30.5189 7.12281C30.5201 7.29586 30.531 7.43339 30.5556 7.53571C30.5704 7.58597 30.5728 7.61365 30.5851 7.66512C30.5896 7.67354 30.5905 7.68588 30.5905 7.69702C30.5905 7.72771 30.5626 7.74757 30.512 7.75931C30.5021 7.76052 30.4888 7.76774 30.469 7.77526C30.332 7.8195 30.2306 7.84689 30.1599 7.84689C30.0597 7.84689 29.9977 7.8195 29.9631 7.77526C29.9297 7.72621 29.9116 7.63261 29.9116 7.49298C29.9116 7.06413 30.0479 6.63197 30.3212 6.18116C30.4235 6.00992 30.481 5.92144 30.5851 5.74359C30.7052 5.54617 30.8141 5.32919 30.9165 5.08723C31.0212 4.84797 31.0727 4.68697 31.0727 4.60692C31.0727 4.54793 31.0152 4.51814 30.9026 4.52356Z" fill="#31423D"/>
<path d="M33.067 4.08931C32.9096 4.0863 32.7866 4.15551 32.6891 4.29967C32.5961 4.44623 32.5458 4.63642 32.5458 4.86695C32.5458 5.19738 32.6099 5.46221 32.7396 5.67137C32.866 5.87932 33.0297 5.98315 33.2323 5.98796C33.3978 5.98917 33.5335 5.92236 33.6433 5.78152C33.7553 5.64398 33.814 5.47094 33.814 5.26209C33.814 4.95603 33.7393 4.68578 33.5904 4.44833C33.4396 4.2157 33.2623 4.09502 33.067 4.08931ZM33.204 3.91716C33.541 3.9274 33.8104 4.07817 34.0222 4.36377C34.2362 4.64756 34.3433 4.99846 34.3433 5.427C34.3433 5.95396 34.176 6.42253 33.8426 6.83663C33.5121 7.25404 33.098 7.51616 32.597 7.61517C32.5151 7.63563 32.4778 7.64075 32.3965 7.6582C32.3755 7.66483 32.3556 7.66543 32.3369 7.66543C32.2942 7.66543 32.2747 7.63654 32.2759 7.58357C32.2759 7.55468 32.2849 7.53572 32.2972 7.52669C32.3078 7.51917 32.3502 7.50653 32.4302 7.48817C32.6698 7.42798 32.9063 7.28744 33.1305 7.07497C33.3577 6.85589 33.5103 6.63198 33.5838 6.39273C33.603 6.32923 33.6136 6.29613 33.6331 6.23474C33.6518 6.18358 33.6611 6.14175 33.6611 6.10924C33.6611 6.05387 33.6388 6.02498 33.6024 6.02889C33.5877 6.02949 33.5624 6.04123 33.5392 6.06019C33.4495 6.1285 33.3379 6.18899 33.2076 6.23474C33.077 6.28349 32.9692 6.31058 32.8811 6.30997C32.6466 6.30997 32.4486 6.20404 32.2876 5.9991C32.1287 5.79145 32.0483 5.53865 32.0483 5.23711C32.0483 4.84768 32.1567 4.52598 32.3755 4.27619C32.5903 4.02882 32.8675 3.90633 33.204 3.91716Z" fill="#31423D"/>
<path d="M36.1238 6.08508V5.63096C36.1229 5.51148 36.1229 5.4519 36.1153 5.33182C36.1229 5.22739 36.1229 5.17081 36.1247 5.06669C36.1238 5.0378 36.1238 5.02185 36.1229 4.99687C36.1229 4.96647 36.1135 4.94962 36.0937 4.94812C36.0867 4.94812 36.0624 4.96888 36.0259 5.01613C35.9904 5.05886 35.9709 5.08174 35.942 5.12778C35.8276 5.26682 35.7707 5.33754 35.6675 5.47988C35.5529 5.61922 35.4274 5.8037 35.285 6.03302C35.2618 6.07244 35.2324 6.10194 35.2263 6.1212C35.2056 6.14437 35.199 6.17176 35.199 6.18951C35.2002 6.21569 35.2299 6.23285 35.3001 6.23465C35.3275 6.23526 35.3464 6.23676 35.3813 6.24158C35.6431 6.25241 35.7698 6.26084 36.0317 6.27137C36.0922 6.27498 36.1247 6.23465 36.1247 6.15039C36.1247 6.1224 36.1247 6.11337 36.1238 6.08508ZM36.6441 6.91388C36.6432 7.2377 36.6432 7.40352 36.6432 7.72854C36.6351 7.78692 36.5911 7.81702 36.5168 7.81702C36.4455 7.82815 36.4103 7.83417 36.3449 7.84591C36.2905 7.85042 36.2444 7.86035 36.2092 7.8748C36.1842 7.88022 36.1659 7.88864 36.1463 7.88864C36.1078 7.89165 36.0855 7.8745 36.0855 7.82635C36.0855 7.80739 36.0873 7.78422 36.0913 7.7478C36.1114 7.66956 36.1229 7.57837 36.1229 7.47605V6.89523C36.1238 6.86573 36.1247 6.85219 36.1247 6.8224C36.1123 6.79471 36.1087 6.78117 36.0922 6.75288C36.0816 6.73482 36.0278 6.72489 35.9459 6.72309C35.548 6.70684 35.3464 6.69781 34.9441 6.69329C34.8691 6.69179 34.8213 6.68186 34.7987 6.66561C34.78 6.65297 34.7632 6.62227 34.7632 6.57382C34.7632 6.48564 34.9654 6.13594 35.3687 5.56957C35.669 5.14102 35.9429 4.79072 36.1833 4.51415C36.4223 4.23698 36.5652 4.10788 36.6095 4.1145C36.629 4.11871 36.6465 4.14008 36.6465 4.18582C36.6459 4.2752 36.6459 4.31794 36.6459 4.40642C36.6453 4.4976 36.6453 4.54666 36.6441 4.63724V6.17356C36.6459 6.20305 36.6465 6.21569 36.6507 6.24458C36.6676 6.27137 36.7073 6.29123 36.7855 6.29334C36.911 6.30116 36.9953 6.25121 37.0326 6.14287C37.0377 6.11337 37.0573 6.10073 37.0865 6.10073C37.1271 6.10224 37.1497 6.1224 37.1497 6.16243C37.1497 6.17988 37.1488 6.19403 37.147 6.21178C37.1364 6.24458 37.1271 6.3135 37.1172 6.42515C37.1109 6.57502 37.0883 6.67132 37.054 6.71135C37.0263 6.75258 36.9486 6.76672 36.834 6.76522C36.8063 6.76311 36.7894 6.76311 36.756 6.75649C36.7058 6.75589 36.6709 6.76552 36.6546 6.78237C36.6465 6.79591 36.6441 6.84286 36.6441 6.91388Z" fill="#31423D"/>
<path d="M25.2148 14.1582L29.5794 16.2242V39.9741L25.2148 41.9098H39.1182L34.7617 39.9732V16.2236L39.1182 14.1582H25.2148Z" fill="#ECECEC"/>
<path d="M18.3041 11.2441H21.0195V13.2975H18.3041V11.2441Z" fill="#D5DCDA"/>
<path d="M43.3305 11.2441H46.0459V13.2975H43.3305V11.2441Z" fill="#D5DCDA"/>
<path d="M18.3041 43.2222H21.0195V45.2761H18.3041V43.2222Z" fill="#707D79"/>
<path d="M43.3305 43.2222H46.0459V45.2761H43.3305V43.2222Z" fill="#707D79"/>
<path d="M18.772 13.2979H20.5542V19.3538H18.772V13.2979Z" fill="#707D79"/>
<path d="M43.7981 13.2979H45.5791V19.3538H43.7981V13.2979Z" fill="#707D79"/>
<path d="M18.6623 12.9401H20.6633V11.6021H18.6623V12.9401ZM21.3777 13.6551H17.9473V10.8867H21.3777V13.6551Z" fill="#31423D"/>
<path d="M43.6879 12.9401H45.6883V11.6021H43.6879V12.9401ZM46.4036 13.6551H42.9731V10.8867H46.4036V13.6551Z" fill="#31423D"/>
<path d="M18.6618 44.919H20.6628V43.5801H18.6618V44.919ZM21.3772 45.634H17.9468V42.8647H21.3772V45.634Z" fill="#31423D"/>
<path d="M43.6879 44.919H45.6883V43.5801H43.6879V44.919ZM46.4036 45.634H42.9731V42.8647H46.4036V45.634Z" fill="#31423D"/>
<path d="M19.1293 18.9954H20.1961V13.6545H19.1293V18.9954ZM20.9115 19.7107H18.4146V12.9395H20.9115V19.7107Z" fill="#31423D"/>
<path d="M44.1555 18.9954H45.2214V13.6545H44.1555V18.9954ZM45.9365 19.7107H43.4404V12.9395H45.9365V19.7107Z" fill="#31423D"/>
</svg>
