<svg width="148" height="54" viewBox="0 0 148 54" fill="none" xmlns="http://www.w3.org/2000/svg">
<path fill-rule="evenodd" clip-rule="evenodd" d="M6.48267 22.0286C6.48267 21.5799 6.84636 21.2162 7.295 21.2162H12.8187C15.7423 21.2162 18.1159 23.8273 18.1159 27.0431V32.0371C18.1159 32.4858 17.7522 32.8495 17.3036 32.8495H11.7301C8.83371 32.8495 6.48267 30.2631 6.48267 27.0772V22.0286Z" fill="#31423D"/>
<path fill-rule="evenodd" clip-rule="evenodd" d="M6.48267 36.2468C6.48267 35.7981 6.84636 35.4344 7.295 35.4344H12.8187C15.7423 35.4344 18.1159 38.0455 18.1159 41.2613V46.2553C18.1159 46.704 17.7522 47.0677 17.3036 47.0677H11.7301C8.83371 47.0677 6.48267 44.4813 6.48267 41.2957V36.2468Z" fill="#31423D"/>
<path fill-rule="evenodd" clip-rule="evenodd" d="M47.8456 7.81038C47.8456 7.36174 47.4819 6.99805 47.0333 6.99805H41.5096C38.586 6.99805 36.2124 9.60874 36.2124 12.8249V17.8189C36.2124 18.2676 36.5761 18.6313 37.0247 18.6313H42.5985C45.4946 18.6313 47.8456 16.0446 47.8456 12.859V7.81038Z" fill="#31423D"/>
<path fill-rule="evenodd" clip-rule="evenodd" d="M21.9939 7.81038C21.9939 7.36174 22.3576 6.99805 22.8062 6.99805H28.3299C31.2535 6.99805 33.6271 9.60874 33.6271 12.8249V17.8189C33.6271 18.2676 33.2634 18.6313 32.8148 18.6313H27.2413C24.3449 18.6313 21.9939 16.0446 21.9939 12.859V7.81038Z" fill="#31423D"/>
<path fill-rule="evenodd" clip-rule="evenodd" d="M21.9939 22.0286C21.9939 21.5799 22.3576 21.2162 22.8062 21.2162H28.3299C31.2535 21.2162 33.6271 23.8273 33.6271 27.0431V32.0371C33.6271 32.4858 33.2634 32.8495 32.8148 32.8495H27.2413C24.3449 32.8495 21.9939 30.2631 21.9939 27.0772V22.0286Z" fill="#31423D"/>
<path fill-rule="evenodd" clip-rule="evenodd" d="M47.8456 22.0286C47.8456 21.5799 47.4819 21.2162 47.0333 21.2162H41.5096C38.586 21.2162 36.2124 23.8273 36.2124 27.0431V32.0371C36.2124 32.4858 36.5761 32.8495 37.0247 32.8495H42.5985C45.4946 32.8495 47.8456 30.2631 47.8456 27.0772V22.0286Z" fill="#31423D"/>
<path fill-rule="evenodd" clip-rule="evenodd" d="M21.9939 36.2468C21.9939 35.7981 22.3576 35.4344 22.8062 35.4344H28.3299C31.2535 35.4344 33.6271 38.0455 33.6271 41.2613V46.2553C33.6271 46.704 33.2634 47.0677 32.8148 47.0677H27.2413C24.3449 47.0677 21.9939 44.4813 21.9939 41.2957V36.2468Z" fill="#31423D"/>
<path fill-rule="evenodd" clip-rule="evenodd" d="M47.8456 36.2468C47.8456 35.7981 47.4819 35.4344 47.0333 35.4344H41.5096C38.586 35.4344 36.2124 38.0455 36.2124 41.2613V46.2553C36.2124 46.704 36.5761 47.0677 37.0247 47.0677H42.5985C45.4946 47.0677 47.8456 44.4813 47.8456 41.2957V36.2468Z" fill="#31423D"/>
<path d="M75.7149 35.4671C78.1392 35.4671 80.2328 34.6223 81.702 33.2266V28.7455H75.164V24.3011H86.9177V35.0998C84.5303 38.2954 80.5266 40.3523 75.7149 40.3523C67.3771 40.3523 61.6839 34.1081 61.6839 26.762C61.6839 19.4159 67.2302 13.1717 75.3476 13.1717C80.0124 13.1717 83.8324 15.2654 86.1831 18.3875L82.0693 21.583C80.6001 19.4894 78.2861 18.0569 75.3476 18.0569C70.4992 18.0569 67.0466 21.8401 67.0466 26.762C67.0466 31.6839 70.6829 35.4671 75.7149 35.4671ZM92.0939 39.6177V21.1055H96.7586V22.942C97.9708 21.6932 99.5502 20.7382 101.644 20.7382C102.268 20.7382 102.819 20.8484 103.26 20.9953V25.5866C102.672 25.4397 102.048 25.3295 101.203 25.3295C98.9257 25.3295 97.4565 26.5784 96.7586 27.7537V39.6177H92.0939ZM109.366 17.8732C107.714 17.8732 106.318 16.4775 106.318 14.8246C106.318 13.1717 107.714 11.776 109.366 11.776C111.019 11.776 112.378 13.1717 112.378 14.8246C112.378 16.4775 111.019 17.8732 109.366 17.8732ZM107.016 39.6177V21.1055H111.68V39.6177H107.016ZM115.407 36.9363L118.492 34.1448C119.631 35.5773 120.99 36.6058 122.753 36.6058C124.259 36.6058 125.031 35.7242 125.031 34.6223C125.031 31.39 116.178 32.6022 116.178 26.1009C116.178 22.8318 118.933 20.3709 122.79 20.3709C125.618 20.3709 128.189 21.7299 129.512 23.5297L126.426 26.2478C125.471 25.0724 124.259 24.1174 122.827 24.1174C121.357 24.1174 120.66 24.9255 120.66 25.8805C120.66 29.0393 129.512 27.9374 129.512 34.3285C129.438 38.2219 126.316 40.3523 122.827 40.3523C119.521 40.3523 117.17 39.03 115.407 36.9363ZM135.273 32.8593V25.2928H131.82V21.1055H135.273V16.4775H139.974V21.1055H145.631V25.2928H139.974V32.8593C139.974 34.9162 141.076 35.7242 142.913 35.7242C144.198 35.7242 145.043 35.5773 145.667 35.3202V39.3973C144.749 39.8013 143.647 39.985 142.104 39.985C137.476 39.985 135.273 37.3771 135.273 32.8593Z" fill="#31423D"/>
</svg>
