<svg width="54" height="54" viewBox="0 0 54 54" fill="none" xmlns="http://www.w3.org/2000/svg">
<g clip-path="url(#clip0_10241_780)">
<path fill-rule="evenodd" clip-rule="evenodd" d="M25.665 0.296553C25.1807 0.199707 24.6965 0.199707 24.2123 0.199707C17.6267 0.199707 11.6223 3.00824 6.39258 8.62532C1.55027 13.6613 0.000732422 17.8257 0.000732422 22.7649C0.000732422 25.3797 0.484963 28.2851 1.16289 31.6747C2.42189 38.0665 6.29573 44.2647 11.6223 48.7196C15.6898 52.1092 20.2416 53.7556 25.0839 53.8525C27.6019 53.8525 30.1199 53.4651 32.7347 52.4966C41.0635 49.5912 49.1017 41.3593 52.2008 32.4495C53.1693 29.6409 53.6535 26.8324 53.6535 24.2175C53.6535 17.8257 50.7481 12.2086 45.131 8.23794C38.2549 3.29878 31.7663 0.587092 25.665 0.296553ZM16.0772 27.026H14.2371V27.1229C14.2371 27.5103 14.0435 30.6094 11.2349 30.6094C8.71692 30.6094 7.45792 28.3819 7.45792 23.927C7.45792 19.4721 8.71692 17.2446 11.2349 17.2446C14.0435 17.2446 14.2371 20.5374 14.2371 20.7311V20.8279H16.0772C16.2709 20.8279 16.4646 20.7311 16.5615 20.6342C16.6583 20.5374 16.7551 20.3437 16.7551 20.2468C16.7551 19.3752 16.2709 15.0171 11.2349 15.0171C7.16738 15.0171 5.03676 18.1162 5.03676 23.927C5.03676 29.7377 7.16738 32.8368 11.2349 32.8368C16.0772 32.8368 16.6583 28.8661 16.7551 27.704C16.7551 27.5622 16.7032 27.4723 16.6374 27.3583C16.6134 27.3166 16.5874 27.2716 16.5615 27.2197C16.4646 27.1229 16.2709 27.026 16.0772 27.026ZM41.0636 19.6658C41.0636 20.8279 41.5478 21.5058 43.0973 22.1838L44.6469 22.8617C46.9712 23.8302 48.5207 25.0892 48.5207 27.8008C48.5207 31.0936 45.7122 32.74 43.0005 32.74C41.7415 32.74 39.9983 32.4495 38.7393 30.8999C38.255 30.4157 38.255 30.0283 38.7393 29.6409L39.514 28.7693L39.6109 28.8661C40.9667 30.4157 42.032 30.6094 43.0005 30.6094C44.1626 30.6094 46.0996 30.0283 46.0996 27.8977C46.0996 26.3482 45.3248 25.6702 43.6784 24.9923L42.032 24.3144C40.192 23.4428 38.5456 22.3775 38.5456 19.6658C38.5456 16.9541 40.773 14.9203 43.7753 14.9203C45.4216 14.9203 46.7775 15.5014 47.5523 16.4698C47.8428 16.7604 47.9396 17.1478 47.4554 17.632L46.6806 18.4068L46.5838 18.3099C45.6153 17.3415 44.8406 17.1478 43.8721 17.1478C42.1289 17.1478 41.0636 18.1162 41.0636 19.6658ZM29.0546 20.15C29.0546 17.4383 26.8271 15.114 24.0186 15.114C22.7596 15.114 21.5006 15.5982 20.6289 16.373V15.4046H18.9826C18.4983 15.4046 18.3046 15.6951 18.3046 16.0825V32.1589C18.3046 32.6432 18.5952 32.8368 18.9826 32.8368H20.6289V20.2469C20.6289 18.6005 21.9848 17.2446 23.6312 17.2446C25.2776 17.2446 26.6334 18.6005 26.6334 20.2469V32.9337H28.2798C28.764 32.9337 28.9577 32.6432 28.9577 32.2558C29.0546 32.1589 29.0546 20.15 29.0546 20.15ZM38.6424 15.7919C38.6424 15.9856 38.6424 16.0824 38.5456 16.1793L37.5771 17.4383C37.1897 17.2446 36.7055 17.1477 36.3181 17.1477C34.6717 17.1477 33.3159 18.5036 33.3159 20.15V32.8368H31.6695C31.2821 32.8368 30.9916 32.6431 30.9916 32.1589V15.9856C30.9916 15.5982 31.1853 15.3077 31.6695 15.3077H33.3159V16.2761C34.1875 15.5014 35.4465 15.0171 36.7055 15.0171C37.2866 15.0171 37.7708 15.0171 38.255 15.2108C38.4487 15.3077 38.6424 15.5014 38.6424 15.7919Z" fill="#31423D"/>
</g>
<defs>
<clipPath id="clip0_10241_780">
<rect width="53.5559" height="53.5559" fill="white" transform="translate(0.000732422 0.199707)"/>
</clipPath>
</defs>
</svg>
