<svg width="153" height="45" viewBox="0 0 153 45" fill="none" xmlns="http://www.w3.org/2000/svg">
<g clip-path="url(#clip0_9762_10123)">
<path d="M75.4986 0L78.5531 0.762248C78.5766 0.767829 78.5976 0.781192 78.6125 0.800171C78.6275 0.819151 78.6357 0.842635 78.6356 0.866817V2.95543C78.6353 2.96178 78.6335 2.96795 78.6302 2.97341C78.627 2.97887 78.6224 2.98343 78.617 2.9867C78.6115 2.98997 78.6053 2.99184 78.599 2.99215C78.5926 2.99245 78.5863 2.99118 78.5806 2.98845C75.5894 1.43644 72.3725 1.27133 70.6444 4.70282C68.9071 8.14808 68.9043 11.7208 70.6361 15.4211C70.7737 15.7146 71.1012 16.1476 71.6185 16.7199C73.5063 18.814 76.4067 18.3187 78.6109 17.0391C78.6153 17.0368 78.6203 17.0357 78.6253 17.0358C78.6303 17.0359 78.6352 17.0372 78.6395 17.0397C78.6439 17.0421 78.6476 17.0456 78.6503 17.0499C78.6529 17.0541 78.6545 17.0589 78.6549 17.0639V19.1663C78.6548 19.1889 78.6479 19.2109 78.6352 19.2296C78.6224 19.2482 78.6044 19.2626 78.5833 19.2708C73.875 21.1861 69.2657 19.491 67.5514 14.5735C65.6361 9.07268 67.1579 0.877824 74.1392 0H75.4986Z" fill="#31423D"/>
<path d="M88.3241 0C93.3544 0.533849 94.5129 5.92187 94.4689 10.1844C94.4414 13.049 93.8938 16.2631 92.0336 18.2885C89.8211 20.6963 85.5833 20.7348 83.4094 18.0105C82.4646 16.8272 81.8363 15.3624 81.5244 13.6159C80.7182 9.10845 81.0869 0.553111 87.3115 0H88.3241ZM83.6818 10.0248C83.6818 10.7971 83.7341 11.6988 83.8387 12.7298C84.0726 15.0083 85.2751 18.1371 87.8398 18.1371C90.4045 18.1344 91.6043 15.0083 91.8354 12.7271C91.9418 11.6961 91.995 10.7944 91.995 10.022C91.9932 9.24971 91.94 8.34804 91.8354 7.31703C91.6015 5.03579 90.399 1.90975 87.8343 1.90975C85.2696 1.90975 84.0699 5.03854 83.8387 7.31978C83.7323 8.35079 83.68 9.25246 83.6818 10.0248Z" fill="#31423D"/>
<path d="M97.166 0.803578C97.1657 0.766849 97.1726 0.730412 97.1864 0.696373C97.2002 0.662335 97.2206 0.63137 97.2465 0.60527C97.2723 0.579169 97.3031 0.55845 97.337 0.544311C97.3709 0.530172 97.4072 0.522893 97.444 0.522895L102.532 0.506384C104.308 0.500073 106.015 1.31494 107.276 2.77176C108.537 4.22858 109.25 6.20803 109.257 8.27471L109.268 11.6759C109.272 12.6994 109.103 13.7135 108.769 14.6604C108.436 15.6072 107.946 16.4681 107.326 17.1941C106.707 17.9201 105.971 18.4968 105.159 18.8914C104.348 19.286 103.478 19.4907 102.598 19.4938L97.51 19.5103C97.4368 19.5103 97.3665 19.4814 97.3144 19.4299C97.2624 19.3783 97.2328 19.3084 97.2321 19.2351L97.166 0.803578ZM99.6867 2.62252L99.6592 17.2181C99.6592 17.2633 99.6771 17.3067 99.7091 17.3387C99.7411 17.3707 99.7845 17.3887 99.8298 17.3887L102.213 17.3914C102.816 17.3927 103.413 17.2534 103.97 16.9815C104.528 16.7096 105.035 16.3105 105.462 15.8068C105.889 15.3031 106.229 14.7049 106.461 14.0461C106.693 13.3874 106.813 12.6811 106.814 11.9676L106.819 7.89496C106.822 6.45456 106.341 5.07227 105.482 4.05205C104.624 3.03184 103.457 2.45726 102.24 2.45466L99.8573 2.45191C99.812 2.45191 99.7686 2.46988 99.7366 2.50188C99.7046 2.53387 99.6867 2.57727 99.6867 2.62252Z" fill="#31423D"/>
<path d="M122.689 2.48734H115.4C115.383 2.48734 115.366 2.49069 115.35 2.49718C115.334 2.50368 115.32 2.51321 115.308 2.52522C115.296 2.53723 115.287 2.55149 115.28 2.56718C115.274 2.58287 115.27 2.59969 115.27 2.61667V8.7752C115.27 8.8095 115.284 8.8424 115.308 8.86665C115.332 8.89091 115.365 8.90453 115.4 8.90453H121.927C121.961 8.90453 121.994 8.91816 122.018 8.94242C122.043 8.96667 122.056 8.99957 122.056 9.03387V10.6382C122.056 10.6725 122.043 10.7054 122.018 10.7296C121.994 10.7539 121.961 10.7675 121.927 10.7675H115.4C115.365 10.7675 115.332 10.7811 115.308 10.8054C115.284 10.8296 115.27 10.8625 115.27 10.8968V17.259C115.27 17.2933 115.284 17.3262 115.308 17.3504C115.332 17.3747 115.365 17.3883 115.4 17.3883H122.904C122.921 17.3883 122.938 17.3917 122.953 17.3982C122.969 17.4047 122.983 17.4142 122.995 17.4262C123.007 17.4382 123.017 17.4525 123.023 17.4682C123.03 17.4839 123.033 17.5007 123.033 17.5177V19.3586C123.033 19.3756 123.03 19.3924 123.023 19.4081C123.017 19.4238 123.007 19.4381 122.995 19.4501C122.983 19.4621 122.969 19.4716 122.953 19.4781C122.938 19.4846 122.921 19.488 122.904 19.488H112.917C112.883 19.488 112.85 19.4743 112.826 19.4501C112.802 19.4258 112.788 19.3929 112.788 19.3586V0.69867C112.788 0.664369 112.802 0.631472 112.826 0.607217C112.85 0.582962 112.883 0.569336 112.917 0.569336H122.689C122.723 0.569336 122.756 0.582962 122.781 0.607217C122.805 0.631472 122.818 0.664369 122.818 0.69867V2.35801C122.818 2.39231 122.805 2.4252 122.781 2.44946C122.756 2.47371 122.723 2.48734 122.689 2.48734Z" fill="#31423D"/>
<path d="M0 35.9852V35.7926L13.1563 22.6665C13.1728 22.6496 13.182 22.6269 13.182 22.6032C13.182 22.5796 13.1728 22.5569 13.1563 22.5399L0 9.40836V9.21298L5.70998 3.51125C5.72074 3.50027 5.73359 3.49154 5.74776 3.48559C5.76194 3.47963 5.77716 3.47656 5.79254 3.47656C5.80791 3.47656 5.82313 3.47963 5.83731 3.48559C5.85148 3.49154 5.86433 3.50027 5.87509 3.51125L24.8542 22.4904C24.8821 22.5192 24.8978 22.5577 24.8978 22.5977C24.8978 22.6378 24.8821 22.6763 24.8542 22.705L5.90811 41.6484C5.88051 41.6765 5.8427 41.6922 5.80297 41.6922C5.76325 41.6922 5.72485 41.6765 5.69622 41.6484L0 35.9852Z" fill="#31423D"/>
<path d="M138.814 7.79004C142.048 7.78729 142.796 11.2876 142.799 13.8027C142.799 16.3206 142.053 19.8209 138.82 19.8209C135.589 19.8237 134.838 16.3234 134.838 13.8082C134.838 11.2903 135.584 7.79004 138.814 7.79004ZM136.321 13.8C136.321 15.6107 136.734 18.6762 138.822 18.6762C140.908 18.6762 141.321 15.6079 141.321 13.8C141.321 11.9893 140.908 8.92378 138.82 8.92378C136.731 8.92653 136.321 11.992 136.321 13.8Z" fill="#31423D"/>
<path d="M128.465 14.4085V19.3425C128.465 19.3819 128.449 19.4197 128.421 19.4476C128.393 19.4754 128.356 19.4911 128.316 19.4911H127.133C127.094 19.4911 127.056 19.4754 127.028 19.4476C127 19.4197 126.984 19.3819 126.984 19.3425V8.2775C126.984 8.23809 127 8.2003 127.028 8.17243C127.056 8.14456 127.094 8.12891 127.133 8.12891H133.082C133.122 8.12891 133.16 8.14456 133.187 8.17243C133.215 8.2003 133.231 8.23809 133.231 8.2775V9.11405C133.231 9.15346 133.215 9.19126 133.187 9.21912C133.16 9.24699 133.122 9.26265 133.082 9.26265H128.605C128.586 9.26265 128.566 9.26649 128.548 9.27396C128.53 9.28143 128.514 9.29237 128.5 9.30617C128.486 9.31997 128.475 9.33635 128.468 9.35438C128.46 9.37241 128.457 9.39173 128.457 9.41124V12.9666C128.457 12.9861 128.46 13.0054 128.468 13.0234C128.475 13.0415 128.486 13.0578 128.5 13.0716C128.514 13.0854 128.53 13.0964 128.548 13.1039C128.566 13.1113 128.586 13.1152 128.605 13.1152H132.617C132.637 13.1152 132.656 13.119 132.674 13.1265C132.692 13.1339 132.709 13.1449 132.722 13.1587C132.736 13.1725 132.747 13.1889 132.755 13.2069C132.762 13.2249 132.766 13.2442 132.766 13.2638V14.1113C132.766 14.1507 132.75 14.1885 132.722 14.2164C132.695 14.2443 132.657 14.2599 132.617 14.2599H128.613C128.574 14.2599 128.536 14.2756 128.508 14.3034C128.481 14.3313 128.465 14.3691 128.465 14.4085Z" fill="#31423D"/>
<path d="M152.015 19.2792C152.028 19.3004 152.036 19.3248 152.036 19.3497C152.037 19.3747 152.031 19.3994 152.019 19.4213C152.007 19.4432 151.989 19.4614 151.968 19.4742C151.946 19.487 151.922 19.4938 151.897 19.4939H150.664C150.579 19.4939 150.495 19.4721 150.421 19.4307C150.347 19.3892 150.285 19.3295 150.24 19.2572L147.508 14.8516C147.471 14.7936 147.421 14.7457 147.361 14.7124C147.301 14.6792 147.233 14.6618 147.164 14.6617H146.088C146.037 14.6617 145.988 14.682 145.951 14.7181C145.915 14.7543 145.895 14.8033 145.895 14.8544V19.337C145.895 19.3786 145.878 19.4185 145.849 19.4479C145.82 19.4774 145.78 19.4939 145.738 19.4939H144.563C144.522 19.4939 144.482 19.4774 144.452 19.4479C144.423 19.4185 144.406 19.3786 144.406 19.337V8.30232C144.406 8.25707 144.424 8.21368 144.456 8.18168C144.488 8.14968 144.532 8.13171 144.577 8.13171C145.391 8.12254 146.549 8.12437 148.05 8.13721C152.175 8.17299 151.756 12.5924 148.988 14.0894C148.97 14.0995 148.953 14.1132 148.94 14.1296C148.927 14.1461 148.918 14.1649 148.913 14.185C148.907 14.2051 148.906 14.2261 148.909 14.2465C148.912 14.267 148.919 14.2865 148.93 14.304L152.015 19.2792ZM145.895 9.46908V13.3656C145.895 13.4058 145.911 13.4443 145.939 13.4727C145.968 13.501 146.006 13.517 146.046 13.517H147.813C147.898 13.517 147.981 13.4962 148.055 13.4564C149.016 12.9556 149.55 12.2328 149.657 11.288C149.891 9.16639 147.587 9.17189 146.074 9.27646C146.025 9.27994 145.98 9.30177 145.946 9.33752C145.913 9.37327 145.895 9.42029 145.895 9.46908Z" fill="#31423D"/>
<path d="M135.414 44.0286H134.112C131.081 43.6525 128.988 42.1326 127.832 39.4688C125.317 33.6763 126.949 23.6157 135.301 23.9927C136.132 24.0312 137.205 24.2844 138.52 24.7522C138.533 24.7563 138.544 24.7644 138.552 24.7753C138.56 24.7862 138.564 24.7993 138.564 24.8128V26.9757C138.564 26.9817 138.563 26.9876 138.56 26.9928C138.556 26.998 138.552 27.0023 138.546 27.0054C138.541 27.0084 138.535 27.01 138.528 27.0101C138.522 27.0102 138.515 27.0088 138.509 27.0059C136.966 26.074 135.409 25.7319 133.837 25.9795C131.283 26.3813 129.838 29.5403 129.464 31.9152C128.999 34.8733 129.475 38.3736 131.456 40.6163C132.328 41.6033 133.377 42.1032 134.605 42.1161C135.946 42.1307 137.249 41.7638 138.515 41.0153C138.52 41.0119 138.525 41.01 138.531 41.0098C138.537 41.0095 138.543 41.0111 138.549 41.0142C138.554 41.0173 138.559 41.0218 138.562 41.0274C138.565 41.0329 138.567 41.0392 138.567 41.0456V43.1755C138.567 43.1983 138.56 43.2204 138.546 43.2383C138.532 43.2563 138.512 43.269 138.49 43.2746L135.414 44.0286Z" fill="#31423D"/>
<path d="M95.0142 43.4174C95.0177 43.4223 95.0196 43.4281 95.0198 43.4341C95.02 43.44 95.0185 43.446 95.0154 43.4514C95.0123 43.4567 95.0077 43.4613 95.0022 43.4645C94.9967 43.4677 94.9904 43.4695 94.9839 43.4697H92.1991C92.1679 43.4697 92.1373 43.4619 92.1099 43.447C92.0825 43.4321 92.0592 43.4106 92.0423 43.3844L87.2101 35.5913C87.178 35.54 87.1337 35.4977 87.0812 35.4683C87.0287 35.439 86.9699 35.4235 86.9102 35.4235H84.761C84.7451 35.4235 84.7294 35.4267 84.7147 35.4329C84.7 35.4391 84.6866 35.4482 84.6754 35.4597C84.6641 35.4712 84.6552 35.4849 84.6491 35.4999C84.6431 35.5149 84.6399 35.531 84.6399 35.5473V43.2964C84.6399 43.3416 84.6217 43.385 84.5892 43.417C84.5566 43.449 84.5125 43.467 84.4666 43.467H82.3394C82.2956 43.467 82.2536 43.4499 82.2227 43.4194C82.1917 43.389 82.1743 43.3477 82.1743 43.3046V24.6915C82.1743 24.6491 82.1911 24.6085 82.2211 24.5786C82.251 24.5487 82.2916 24.5319 82.3339 24.5319C85.094 24.5208 87.5761 24.353 89.8573 24.7547C93.4209 25.3877 94.0318 29.0063 92.5266 31.7911C91.8845 32.9799 90.9269 33.899 89.6537 34.5484C89.6401 34.555 89.628 34.5644 89.6182 34.5759C89.6085 34.5875 89.6013 34.601 89.5971 34.6156C89.593 34.6301 89.592 34.6454 89.5941 34.6604C89.5963 34.6754 89.6016 34.6897 89.6097 34.7025L95.0142 43.4174ZM84.8188 33.5247H87.766C87.9806 33.5247 88.1912 33.4687 88.3769 33.3624C89.794 32.5533 90.815 31.2572 90.936 29.6337C91.1975 26.0866 87.0973 26.4306 84.7555 26.4526C84.7239 26.4533 84.6938 26.4664 84.6717 26.489C84.6495 26.5117 84.6372 26.542 84.6372 26.5737V33.3431C84.6372 33.367 84.6419 33.3906 84.651 33.4126C84.6601 33.4346 84.6735 33.4547 84.6904 33.4715C84.7072 33.4884 84.7273 33.5018 84.7493 33.5109C84.7713 33.52 84.7949 33.5247 84.8188 33.5247Z" fill="#31423D"/>
<path d="M105.953 39.3039H99.4528C99.4305 39.3041 99.4089 39.3114 99.3911 39.3248C99.3732 39.3382 99.3601 39.3569 99.3537 39.3782L98.1126 43.4041C98.1062 43.4254 98.0931 43.4441 98.0753 43.4574C98.0575 43.4708 98.0358 43.4781 98.0136 43.4784H95.8589C95.8427 43.4782 95.8267 43.4743 95.8123 43.4669C95.7978 43.4595 95.7853 43.4488 95.7757 43.4357C95.7661 43.4226 95.7596 43.4075 95.7569 43.3915C95.7541 43.3755 95.7551 43.3591 95.7599 43.3435L101.536 24.6065C101.542 24.5852 101.555 24.5665 101.573 24.5531C101.591 24.5398 101.613 24.5324 101.635 24.5322H103.974C103.996 24.5324 104.018 24.5398 104.036 24.5531C104.054 24.5665 104.067 24.5852 104.073 24.6065L109.888 43.338C109.892 43.3538 109.893 43.3704 109.89 43.3867C109.888 43.4029 109.881 43.4182 109.871 43.4313C109.861 43.4445 109.848 43.4551 109.833 43.4623C109.819 43.4695 109.802 43.4731 109.786 43.4729H107.4C107.378 43.4726 107.356 43.4653 107.338 43.4519C107.32 43.4386 107.307 43.4199 107.301 43.3986L106.052 39.3782C106.045 39.3569 106.032 39.3382 106.014 39.3248C105.996 39.3114 105.975 39.3041 105.953 39.3039ZM102.722 37.3996C103.933 37.3941 104.805 37.3932 105.339 37.3969C105.357 37.3969 105.376 37.3926 105.392 37.3842C105.409 37.3759 105.423 37.3638 105.434 37.3489C105.445 37.3341 105.452 37.3169 105.454 37.2989C105.457 37.2809 105.455 37.2626 105.449 37.2455C104.394 34.1195 103.477 31.1925 102.697 28.4645C102.695 28.4535 102.689 28.448 102.678 28.448C102.665 28.448 102.658 28.4535 102.656 28.4645C101.904 31.1998 101.017 34.136 99.9949 37.2731C99.9886 37.2903 99.9867 37.3089 99.9894 37.3271C99.9922 37.3454 99.9994 37.3627 100.011 37.3776C100.022 37.3925 100.036 37.4046 100.053 37.4127C100.07 37.4209 100.089 37.4249 100.108 37.4244C100.64 37.4134 101.511 37.4051 102.722 37.3996Z" fill="#31423D"/>
<path d="M118.833 33.4782C119.791 35.2394 120.768 36.9455 121.426 38.7755C121.427 38.7816 121.429 38.7875 121.432 38.7927C121.436 38.798 121.44 38.8025 121.445 38.8061C121.45 38.8097 121.456 38.8122 121.462 38.8136C121.468 38.8149 121.475 38.8151 121.481 38.814C121.487 38.8129 121.493 38.8106 121.498 38.8073C121.503 38.8039 121.508 38.7995 121.511 38.7944C121.515 38.7893 121.517 38.7836 121.519 38.7775C121.52 38.7714 121.52 38.7651 121.519 38.7589V24.6532C121.519 24.6248 121.531 24.5975 121.551 24.5773C121.571 24.5572 121.598 24.5459 121.627 24.5459H123.674C123.702 24.5459 123.73 24.5575 123.75 24.5781C123.77 24.5988 123.781 24.6268 123.781 24.656V43.3352C123.781 43.3753 123.765 43.4138 123.737 43.4422C123.708 43.4706 123.67 43.4865 123.63 43.4865H121.772C121.702 43.4866 121.632 43.4673 121.572 43.4309C121.512 43.3945 121.463 43.3423 121.431 43.2801C119.428 39.4313 117.89 36.5226 116.816 34.5542C115.859 32.793 114.882 31.0869 114.224 29.257C114.222 29.2446 114.215 29.2335 114.205 29.2263C114.194 29.2191 114.182 29.2163 114.169 29.2185C114.157 29.2206 114.146 29.2277 114.138 29.238C114.131 29.2483 114.128 29.2611 114.131 29.2735V43.3792C114.131 43.3933 114.128 43.4073 114.122 43.4203C114.117 43.4333 114.109 43.4451 114.099 43.4551C114.089 43.4651 114.077 43.473 114.064 43.4784C114.051 43.4838 114.037 43.4865 114.023 43.4865H111.976C111.948 43.4865 111.92 43.4749 111.9 43.4543C111.88 43.4337 111.869 43.4057 111.869 43.3765V24.6973C111.869 24.6571 111.885 24.6186 111.913 24.5902C111.941 24.5618 111.98 24.5459 112.02 24.5459H113.877C113.948 24.5456 114.017 24.5644 114.077 24.6004C114.137 24.6363 114.186 24.6879 114.219 24.7495C116.222 28.5984 117.76 31.508 118.833 33.4782Z" fill="#31423D"/>
<path d="M153 41.3868V43.4397L142.846 43.4507C142.827 43.4507 142.809 43.4434 142.795 43.4305C142.782 43.4176 142.774 43.4001 142.774 43.3819V24.6999C142.774 24.6547 142.792 24.6113 142.824 24.5793C142.856 24.5473 142.9 24.5293 142.945 24.5293H152.607C152.661 24.5293 152.714 24.551 152.753 24.5897C152.791 24.6285 152.813 24.6809 152.813 24.7357V26.2739C152.813 26.3199 152.795 26.364 152.762 26.3965C152.73 26.429 152.686 26.4473 152.64 26.4473H145.361C145.33 26.4473 145.301 26.4595 145.279 26.4812C145.258 26.5028 145.246 26.5322 145.246 26.5629V32.7186C145.246 32.7603 145.262 32.8001 145.291 32.8296C145.321 32.859 145.361 32.8755 145.402 32.8755H151.792C151.858 32.8755 151.922 32.9022 151.969 32.9497C152.016 32.9971 152.042 33.0615 152.042 33.1287V34.5101C152.042 34.5736 152.018 34.6345 151.973 34.6794C151.929 34.7243 151.869 34.7495 151.806 34.7495H145.397C145.357 34.7495 145.318 34.7654 145.29 34.7938C145.261 34.8222 145.246 34.8607 145.246 34.9008V41.1639C145.246 41.2223 145.269 41.2783 145.31 41.3196C145.351 41.3609 145.407 41.3841 145.466 41.3841L153 41.3868Z" fill="#31423D"/>
<path d="M77.6256 34.7495H70.7682C70.7468 34.7495 70.7257 34.7537 70.706 34.7619C70.6863 34.77 70.6684 34.782 70.6533 34.7971C70.6383 34.8122 70.6263 34.8301 70.6182 34.8497C70.61 34.8694 70.6058 34.8906 70.6058 34.9119V43.3049C70.6058 43.3479 70.5887 43.3892 70.5582 43.4197C70.5278 43.4501 70.4865 43.4672 70.4434 43.4672H68.3108C68.2677 43.4672 68.2264 43.4501 68.196 43.4197C68.1655 43.3892 68.1484 43.3479 68.1484 43.3049V24.7C68.1484 24.6786 68.1526 24.6575 68.1608 24.6378C68.169 24.6181 68.1809 24.6002 68.196 24.5852C68.2111 24.5701 68.229 24.5581 68.2487 24.55C68.2684 24.5418 68.2895 24.5376 68.3108 24.5376H78.3796C78.4009 24.5376 78.4221 24.5418 78.4418 24.55C78.4615 24.5581 78.4794 24.5701 78.4944 24.5852C78.5095 24.6002 78.5215 24.6181 78.5296 24.6378C78.5378 24.6575 78.542 24.6786 78.542 24.7V26.2877C78.542 26.3308 78.5249 26.3721 78.4944 26.4025C78.464 26.433 78.4227 26.4501 78.3796 26.4501H70.7682C70.7468 26.4501 70.7257 26.4543 70.706 26.4625C70.6863 26.4706 70.6684 26.4826 70.6533 26.4977C70.6383 26.5127 70.6263 26.5306 70.6182 26.5503C70.61 26.57 70.6058 26.5911 70.6058 26.6125V32.7325C70.6058 32.7538 70.61 32.7749 70.6182 32.7946C70.6263 32.8143 70.6383 32.8322 70.6533 32.8473C70.6684 32.8623 70.6863 32.8743 70.706 32.8825C70.7257 32.8906 70.7468 32.8948 70.7682 32.8948H77.6256C77.6687 32.8948 77.71 32.9119 77.7404 32.9424C77.7709 32.9728 77.788 33.0141 77.788 33.0572V34.5872C77.788 34.6302 77.7709 34.6715 77.7404 34.702C77.71 34.7324 77.6687 34.7495 77.6256 34.7495Z" fill="#31423D"/>
<path d="M57.1739 35.165H27.3775C27.2817 35.165 27.2041 35.2427 27.2041 35.3384V41.5575C27.2041 41.6532 27.2817 41.7308 27.3775 41.7308H57.1739C57.2697 41.7308 57.3473 41.6532 57.3473 41.5575V35.3384C57.3473 35.2427 57.2697 35.165 57.1739 35.165Z" fill="#31423D"/>
</g>
<defs>
<clipPath id="clip0_9762_10123">
<rect width="153" height="44.0288" fill="white"/>
</clipPath>
</defs>
</svg>
