<svg width="153" height="54" viewBox="0 0 153 54" fill="none" xmlns="http://www.w3.org/2000/svg">
<g clip-path="url(#clip0_10241_819)">
<path d="M148.664 0.199707C146.255 0.199707 144.328 2.12676 144.328 4.53557C144.328 6.94438 146.255 8.87143 148.664 8.87143C151.073 8.87143 153 6.94438 153 4.53557C153 2.12676 151.073 0.199707 148.664 0.199707Z" fill="#31423D"/>
<path d="M139.43 15.2945C140.875 15.2945 142.08 14.0901 142.08 12.6448C142.08 11.1995 140.875 9.99512 139.43 9.99512C137.985 9.99512 136.78 11.1995 136.78 12.6448C136.7 14.0901 137.904 15.2945 139.43 15.2945Z" fill="#31423D"/>
<path d="M42.1948 19.791H39.3042V35.9301H42.1948V19.791Z" fill="#31423D"/>
<path d="M66.925 26.7765C67.3264 23.9662 69.2535 22.0391 71.6623 22.0391C74.7135 22.0391 76.0785 24.4479 76.3193 26.7765H66.925ZM71.7426 19.4697C67.3264 19.4697 63.9541 23.0829 63.9541 27.9006C63.9541 32.7182 67.487 36.3314 72.0638 36.3314C74.7938 36.3314 76.8011 35.3679 78.6479 33.2802L78.8084 33.0394L76.9617 31.3532L76.8011 31.5138C75.4361 32.9591 73.9105 33.6014 72.0638 33.6014C69.3338 33.6014 67.2461 31.7547 66.8447 28.8641H79.1296V28.6232C79.1296 28.302 79.1296 28.0612 79.1296 27.9006C79.2902 22.9224 76.3193 19.4697 71.7426 19.4697Z" fill="#31423D"/>
<path d="M11.7633 35.9301H14.5736V19.791H11.7633V29.0248C11.7633 31.7548 9.91655 33.6015 7.34715 33.6015C4.77776 33.6015 3.33247 31.9154 3.33247 29.1854V19.791H0.441895V29.7474C0.441895 33.6818 2.931 36.2512 6.7048 36.2512C8.79244 36.2512 10.4786 35.4483 11.7633 33.7621V35.9301Z" fill="#31423D"/>
<path d="M31.194 26.5356V35.9299H34.0845V25.9735C34.0845 22.0391 31.5954 19.4697 27.8216 19.4697C25.734 19.4697 23.9675 20.2727 22.7631 21.8785V19.7909H19.8726V35.9299H22.7631V26.7765C22.7631 24.0465 24.6099 22.1997 27.1793 22.1997C29.6684 22.1194 31.194 23.8056 31.194 26.5356Z" fill="#31423D"/>
<path d="M55.2821 36.0906L62.3479 19.791H59.2164L54.1579 32.3168L49.0994 19.791H45.8877L52.8733 36.0906H55.2821Z" fill="#31423D"/>
<path d="M86.3562 29.4268C86.3562 25.2515 88.6847 22.5215 92.2979 22.5215H92.7797V19.4703H92.5388C90.0497 19.3901 87.8015 20.6748 86.4365 23.0033V19.7915H83.5459V35.9306H86.4365L86.3562 29.4268Z" fill="#31423D"/>
<path d="M126.101 36.2518C127.225 36.2518 128.109 36.0109 129.072 35.5291L129.233 35.4488V32.8794L128.831 33.04C128.028 33.4415 127.466 33.5218 126.663 33.5218C125.057 33.5218 124.335 32.7992 124.335 31.1933V22.361H129.313V19.7916H124.335V14.4922L121.444 16.0981V19.8719H118.393V22.4413H121.444V31.5145C121.444 34.5656 123.13 36.2518 126.101 36.2518Z" fill="#31423D"/>
<path d="M139.51 21.959C142.562 21.959 143.927 24.3679 144.167 26.6964H134.773C135.175 23.9664 137.102 21.959 139.51 21.959ZM139.912 36.3316C142.642 36.3316 144.649 35.3681 146.496 33.2805L146.657 33.0396L144.81 31.3534L144.649 31.514C143.284 32.9593 141.759 33.6016 139.912 33.6016C137.182 33.6016 135.094 31.6746 134.693 28.8643H146.978V28.6234C146.978 28.3023 146.978 28.0614 146.978 27.9008C146.978 22.762 143.927 19.3896 139.43 19.3896C135.014 19.3896 131.642 23.0029 131.642 27.8205C131.802 32.7184 135.255 36.3316 139.912 36.3316Z" fill="#31423D"/>
<path d="M102.335 26.5356C100.327 25.8932 98.4806 25.4115 98.4806 24.0465C98.4806 22.8421 99.6047 22.0391 101.211 22.0391C102.656 22.0391 104.181 22.5209 105.707 23.4844L105.948 23.645L107.313 21.3968L107.072 21.2362C105.386 20.1121 103.218 19.4697 101.291 19.4697C97.9989 19.4697 95.6703 21.3968 95.6703 24.2071V24.2873C95.6703 27.4188 98.8018 28.302 101.05 28.9444C103.138 29.5064 104.744 30.0685 104.744 31.5138C104.744 32.7985 103.539 33.6817 101.773 33.6817C100.006 33.6817 98.2397 33.0394 96.5536 31.7547L96.3127 31.5941L94.7871 33.6817L94.9477 33.8423C96.7142 35.2876 99.2836 36.1708 101.612 36.1708C105.065 36.1708 107.393 34.1635 107.393 31.1926V31.1123C107.554 28.0612 104.422 27.0976 102.335 26.5356Z" fill="#31423D"/>
<path d="M115.021 19.791H112.13V35.9301H115.021V19.791Z" fill="#31423D"/>
<path d="M16.0991 48.3758L17.705 44.3612L19.3108 48.3758C19.3911 48.3758 16.0991 48.3758 16.0991 48.3758ZM16.5006 41.1494L11.2012 53.5146H13.9312L15.0553 50.7847H20.2744L21.3985 53.5146H24.2088L18.9897 41.1494H16.5006Z" fill="#31423D"/>
<path d="M126.824 48.3758L128.43 44.3612L130.036 48.3758C130.116 48.3758 126.824 48.3758 126.824 48.3758ZM127.226 41.1494L121.926 53.5146H124.656L125.78 50.7847H130.999L132.124 53.5146H134.934L129.715 41.1494H127.226Z" fill="#31423D"/>
<path d="M141.116 46.2077L138.145 41.2295H135.014L139.751 48.6968V53.5144H142.481V48.6165L147.138 41.2295H144.087L141.116 46.2077Z" fill="#31423D"/>
<path d="M7.50753 45.5658C7.50753 46.6097 6.70459 47.4126 5.3396 47.4126H3.25196V43.6388H5.3396C6.6243 43.7191 7.50753 44.3614 7.50753 45.5658ZM5.50018 41.23H0.521973V53.5149H3.25196V49.8214H5.2593C7.98929 49.8214 10.2375 48.3761 10.2375 45.4855C10.2375 42.9964 8.47105 41.23 5.50018 41.23Z" fill="#31423D"/>
<path d="M102.415 51.2664C100.327 51.2664 98.8818 49.4999 98.8818 47.4123C98.8818 45.3246 100.407 43.5582 102.415 43.5582C103.619 43.5582 104.583 44.1202 105.546 44.9232L107.232 42.9158C106.108 41.7917 104.743 40.9888 102.415 40.9888C98.6409 40.9888 95.9912 43.8793 95.9912 47.332C95.9912 50.8649 98.6409 53.6752 102.334 53.6752C104.743 53.6752 106.108 52.7919 107.393 51.5072L105.707 49.7408C104.663 50.7043 103.78 51.2664 102.415 51.2664Z" fill="#31423D"/>
<path d="M74.7938 46.2079C72.6259 45.6459 72.1442 45.405 72.1442 44.602C72.1442 44.04 72.7062 43.5582 73.75 43.5582C74.7938 43.5582 75.8377 44.04 76.9618 44.7626L78.4071 42.7553C77.2027 41.7918 75.5968 41.1494 73.8303 41.1494C71.3412 41.1494 69.4945 42.5947 69.4945 44.8429C69.4945 47.2517 71.1003 47.9744 73.5894 48.6167C75.6771 49.1788 76.0785 49.5 76.0785 50.1423C76.0785 50.865 75.4362 51.2664 74.3121 51.2664C72.8668 51.2664 71.7427 50.7044 70.6186 49.7408L69.0127 51.6679C70.458 52.9526 72.385 53.5949 74.2318 53.5949C76.8815 53.5949 78.7282 52.2299 78.7282 49.8211V49.7408C78.7282 47.7335 77.2829 46.8503 74.7938 46.2079Z" fill="#31423D"/>
<path d="M113.495 41.2295H110.846V53.5144H119.678V51.1056H113.495V41.2295Z" fill="#31423D"/>
<path d="M85.9546 48.3758L87.5604 44.3612L89.1663 48.3758H85.9546ZM86.356 41.1494L81.0566 53.5146H83.7866L84.9107 50.7847H90.1298L91.2539 53.5146H94.0642L88.8451 41.1494H86.356Z" fill="#31423D"/>
<path d="M66.1219 46.8501H60.7422V49.4195H66.1219V46.8501Z" fill="#31423D"/>
<path d="M35.0486 45.4851C35.0486 46.5289 34.3259 47.2515 32.9609 47.2515H30.231V43.7186H32.8807C34.2456 43.7186 35.0486 44.2807 35.0486 45.4851ZM37.7786 45.3245C37.7786 42.7551 36.0121 41.2295 33.1215 41.2295H27.501V53.5144H30.231V49.58H32.3989L35.0486 53.5144H38.18L35.1289 49.1786C36.7348 48.5362 37.7786 47.3318 37.7786 45.3245Z" fill="#31423D"/>
<path d="M44.4429 41.2295H41.7129V53.5144H44.4429V41.2295Z" fill="#31423D"/>
<path d="M53.7567 46.2079C51.5888 45.6459 51.107 45.405 51.107 44.602C51.107 44.04 51.6691 43.5582 52.7129 43.5582C53.7567 43.5582 54.8005 44.04 55.9247 44.7626L57.37 42.7553C56.1655 41.7918 54.5597 41.1494 52.7932 41.1494C50.3041 41.1494 48.4573 42.5947 48.4573 44.8429C48.4573 47.2517 50.0632 47.9744 52.5523 48.6167C54.64 49.1788 55.0414 49.5 55.0414 50.1423C55.0414 50.865 54.3991 51.2664 53.275 51.2664C51.8297 51.2664 50.7056 50.7044 49.5815 49.7408L47.9756 51.6679C49.4209 52.9526 51.3479 53.5949 53.1947 53.5949C55.8444 53.5949 57.6911 52.2299 57.6911 49.8211V49.7408C57.6911 47.7335 56.2458 46.8503 53.7567 46.2079Z" fill="#31423D"/>
</g>
<defs>
<clipPath id="clip0_10241_819">
<rect width="152.558" height="53.5559" fill="white" transform="translate(0.441895 0.199707)"/>
</clipPath>
</defs>
</svg>
