<svg width="291" height="54" viewBox="0 0 291 54" fill="none" xmlns="http://www.w3.org/2000/svg">
<path fill-rule="evenodd" clip-rule="evenodd" d="M47.7961 12.6802C47.3817 11.0389 46.5849 9.62856 45.4057 8.44932C44.2105 7.27008 42.7843 6.4733 41.127 6.05897C39.4856 5.62871 37.4777 5.41357 35.1033 5.41357H18.323C15.9486 5.41357 13.9328 5.62871 12.2755 6.05897C10.6341 6.4733 9.22377 7.27008 8.04453 8.44932C6.84936 9.64449 6.04461 11.0628 5.63028 12.7041C5.21595 14.3296 5.00879 16.3295 5.00879 18.7039V35.5081C5.00879 37.8984 5.21595 39.9143 5.63028 41.5557C6.04461 43.197 6.84936 44.5994 8.04453 45.7627C9.22377 46.9579 10.6341 47.7626 12.2755 48.1769C13.9328 48.6072 15.9566 48.8223 18.3469 48.8223H35.1033C37.4777 48.8223 39.4936 48.6072 41.1509 48.1769C42.8082 47.7626 44.2265 46.9579 45.4057 45.7627C46.5849 44.5835 47.3817 43.1811 47.7961 41.5557C48.2104 39.9143 48.4175 37.8984 48.4175 35.5081V18.7278C48.4175 16.3375 48.2104 14.3216 47.7961 12.6802ZM24.296 31.9989C24.4112 32.0358 24.5501 32.0358 24.8277 32.0358H26.4106C26.6888 32.0358 26.8279 32.0358 26.9433 31.9988C27.1573 31.9302 27.331 31.7722 27.4194 31.5656C27.4671 31.4542 27.4802 31.3157 27.5064 31.0387L27.5994 30.0553C27.6221 29.8158 27.6334 29.696 27.6692 29.6C27.7386 29.414 27.8568 29.2793 28.0322 29.1862C28.1227 29.1382 28.2509 29.1089 28.5073 29.0502C32.7975 28.0686 35.799 25.2898 35.799 21.0946C35.799 16.2531 31.758 13.1651 27.2596 13.1651C23.6006 13.1651 20.8793 14.6342 18.8126 17.4307C18.6514 17.6488 18.5708 17.7579 18.5321 17.8884C18.4634 18.1197 18.5183 18.4028 18.6685 18.5916C18.7532 18.6982 18.8802 18.7762 19.1341 18.9323L21.4418 20.3508C21.6928 20.5051 21.8183 20.5822 21.9349 20.6112C22.1611 20.6675 22.3714 20.629 22.5631 20.4963C22.6618 20.428 22.7604 20.3004 22.9576 20.0452C24.1391 18.5162 25.3077 17.7398 27.0309 17.7398C29.0132 17.7398 30.5381 19.1122 30.5381 21.0946C30.5381 24.0613 28.1096 25.1108 24.3057 25.6179C23.993 25.6596 23.8366 25.6805 23.7234 25.7359C23.5091 25.8407 23.3619 26.0262 23.3085 26.2587C23.2803 26.3816 23.2949 26.5324 23.3242 26.8341L23.7321 31.0413C23.7589 31.3176 23.7723 31.4558 23.8201 31.5669C23.9088 31.773 24.0824 31.9306 24.296 31.9989ZM22.3037 37.7541C22.3037 39.5459 23.8286 41.0708 25.6585 41.0708C27.4121 41.0708 28.9751 39.5459 28.9751 37.7541C28.9751 35.9624 27.4121 34.4375 25.6585 34.4375C23.8286 34.4375 22.3037 35.9624 22.3037 37.7541Z" fill="#31423D"/>
<path d="M60.6554 39.6177L70.389 13.9063H77.2209L86.9545 39.6177H81.4082L78.9472 32.9327H68.6627L66.2018 39.6177H60.6554ZM70.2788 28.4883H77.3311L73.805 18.8282L70.2788 28.4883ZM91.4124 48.6534V21.1055H96.0771V22.6115C97.5096 21.179 99.3094 20.3709 101.844 20.3709C107.721 20.3709 111.247 24.9622 111.247 30.3616C111.247 35.761 107.721 40.3523 101.844 40.3523C99.3094 40.3523 97.5096 39.5442 96.0771 38.1117V48.6534H91.4124ZM101.183 24.7786C99.0156 24.7786 97.2525 25.7336 96.0771 27.4599V33.2633C97.326 35.0264 99.0523 35.9446 101.183 35.9446C104.341 35.9446 106.398 33.5939 106.398 30.3616C106.398 27.1293 104.341 24.7786 101.183 24.7786ZM115.517 48.6534V21.1055H120.182V22.6115C121.614 21.179 123.414 20.3709 125.948 20.3709C131.825 20.3709 135.351 24.9622 135.351 30.3616C135.351 35.761 131.825 40.3523 125.948 40.3523C123.414 40.3523 121.614 39.5442 120.182 38.1117V48.6534H115.517ZM125.287 24.7786C123.12 24.7786 121.357 25.7336 120.182 27.4599V33.2633C121.43 35.0264 123.157 35.9446 125.287 35.9446C128.446 35.9446 130.503 33.5939 130.503 30.3616C130.503 27.1293 128.446 24.7786 125.287 24.7786ZM149.521 39.6177V21.1055H154.186V22.5013C155.435 21.2892 157.014 20.3709 159.291 20.3709C161.642 20.3709 163.699 21.3994 164.911 23.3828C166.234 21.7667 167.997 20.3709 171.119 20.3709C174.939 20.3709 177.951 23.0155 177.951 28.2312V39.6177H173.249V28.4149C173.249 26.1743 172.037 24.7786 169.943 24.7786C167.923 24.7786 166.821 26.1743 166.087 27.4232C166.123 27.6803 166.123 27.9374 166.123 28.2312V39.6177H161.422V28.4149C161.422 26.1743 160.21 24.7786 158.116 24.7786C155.986 24.7786 154.884 26.358 154.186 27.5333V39.6177H149.521ZM191.396 43.8417C190.111 46.8903 188.017 48.8003 184.491 48.8003C183.058 48.8003 182.067 48.5799 181.185 48.2126V44.0988C181.773 44.3559 182.654 44.5396 183.462 44.5396C185.299 44.5396 186.438 43.9151 187.209 42.0419L188.237 39.5809L180.451 21.1055H185.63L190.698 33.5571L195.804 21.1055H200.726L191.396 43.8417ZM201.458 36.9363L204.544 34.1448C205.682 35.5773 207.041 36.6058 208.804 36.6058C210.31 36.6058 211.082 35.7242 211.082 34.6223C211.082 31.39 202.23 32.6022 202.23 26.1009C202.23 22.8318 204.984 20.3709 208.841 20.3709C211.669 20.3709 214.241 21.7299 215.563 23.5297L212.477 26.2478C211.522 25.0724 210.31 24.1174 208.878 24.1174C207.409 24.1174 206.711 24.9255 206.711 25.8805C206.711 29.0393 215.563 27.9374 215.563 34.3285C215.489 38.2219 212.367 40.3523 208.878 40.3523C205.572 40.3523 203.221 39.03 201.458 36.9363ZM221.324 32.8593V25.2928H217.871V21.1055H221.324V16.4775H226.025V21.1055H231.682V25.2928H226.025V32.8593C226.025 34.9162 227.127 35.7242 228.964 35.7242C230.249 35.7242 231.094 35.5773 231.719 35.3202V39.3973C230.8 39.8013 229.698 39.985 228.156 39.985C223.528 39.985 221.324 37.3771 221.324 32.8593ZM241.414 18.1671L237.007 12.0698H242.075L245.859 18.1671H241.414ZM252.544 36.6058C250.817 38.9198 247.952 40.3523 244.463 40.3523C237.888 40.3523 234.178 35.761 234.178 30.3616C234.178 24.8887 237.631 20.3709 243.692 20.3709C248.834 20.3709 252.213 23.8603 252.213 28.7087C252.213 29.7372 252.066 30.6922 251.919 31.3166H238.953C239.394 34.7693 241.524 36.165 244.426 36.165C246.446 36.165 248.209 35.2835 249.201 33.9612L252.544 36.6058ZM243.581 24.1909C241.194 24.1909 239.614 25.5132 239.1 27.9374H247.622C247.548 26.0641 246.189 24.1909 243.581 24.1909ZM256.771 39.6177V21.1055H261.436V22.942C262.648 21.6932 264.228 20.7382 266.321 20.7382C266.946 20.7382 267.497 20.8484 267.937 20.9953V25.5866C267.35 25.4397 266.725 25.3295 265.88 25.3295C263.603 25.3295 262.134 26.5784 261.436 27.7537V39.6177H256.771ZM287.947 36.6058C286.221 38.9198 283.356 40.3523 279.866 40.3523C273.291 40.3523 269.582 35.761 269.582 30.3616C269.582 24.8887 273.034 20.3709 279.095 20.3709C284.237 20.3709 287.616 23.8603 287.616 28.7087C287.616 29.7372 287.469 30.6922 287.322 31.3166H274.357C274.797 34.7693 276.928 36.165 279.829 36.165C281.85 36.165 283.613 35.2835 284.604 33.9612L287.947 36.6058ZM278.985 24.1909C276.597 24.1909 275.018 25.5132 274.504 27.9374H283.025C282.952 26.0641 281.593 24.1909 278.985 24.1909Z" fill="#31423D"/>
</svg>
