<svg width="121" height="64" viewBox="0 0 121 64" fill="none" xmlns="http://www.w3.org/2000/svg">
<g clip-path="url(#clip0_9760_9970)">
<path d="M108.828 33.6551C108.944 33.859 109.046 34.0674 109.136 34.2801C109.234 34.4929 109.327 34.7101 109.416 34.9318C109.506 34.7013 109.595 34.4796 109.684 34.2668C109.782 34.0541 109.885 33.8501 109.992 33.6551L116.198 22.9494C116.305 22.7632 116.421 22.6524 116.546 22.6169C116.671 22.5726 116.84 22.5504 117.054 22.5504H118.846V40.0253H116.693V27.2716C116.693 27.0943 116.697 26.8992 116.706 26.6864C116.724 26.4648 116.742 26.2431 116.76 26.0215L110.487 36.9798C110.281 37.3433 109.987 37.5251 109.604 37.5251H109.256C108.873 37.5251 108.578 37.3433 108.373 36.9798L101.953 26.0348C102.006 26.4781 102.033 26.8903 102.033 27.2716V40.0253H99.893V22.5504H101.685C101.899 22.5504 102.064 22.5726 102.18 22.6169C102.305 22.6524 102.425 22.7677 102.541 22.9627L108.828 33.6551ZM88.8713 38.1103C89.5758 38.1103 90.2044 37.9906 90.7573 37.7512C91.3191 37.5029 91.7917 37.1616 92.1751 36.7272C92.5586 36.2839 92.8484 35.7608 93.0445 35.1579C93.2496 34.555 93.3522 33.89 93.3522 33.163V22.5504H95.7865V33.163C95.7865 34.1738 95.626 35.1091 95.305 35.9691C94.984 36.8291 94.5248 37.5739 93.9273 38.2033C93.3388 38.8328 92.6165 39.3293 91.7604 39.6928C90.9044 40.0475 89.9413 40.2248 88.8713 40.2248C87.8012 40.2248 86.8382 40.0475 85.9821 39.6928C85.135 39.3293 84.4127 38.8328 83.8153 38.2033C83.2178 37.5739 82.7586 36.8291 82.4376 35.9691C82.1166 35.1091 81.956 34.1738 81.956 33.163V22.5504H84.3904V33.1497C84.3904 33.8767 84.4885 34.5461 84.6847 35.1579C84.8898 35.7608 85.184 36.2839 85.5675 36.7272C85.9509 37.1616 86.4191 37.5029 86.972 37.7512C87.5337 37.9906 88.1668 38.1103 88.8713 38.1103ZM65.5172 22.3643C65.6688 22.3643 65.7981 22.3731 65.9051 22.3909C66.0121 22.3997 66.1058 22.4263 66.186 22.4706C66.2752 22.5061 66.3554 22.5593 66.4268 22.6302C66.507 22.7012 66.5962 22.7943 66.6943 22.9095L75.442 34.3732C75.3885 33.7881 75.3618 33.234 75.3618 32.7109V22.3643H78.4516V40.0253H76.6458C76.3694 40.0253 76.1376 39.981 75.9503 39.8923C75.772 39.7948 75.5936 39.6396 75.4153 39.4269L66.6943 28.0296C66.7478 28.5793 66.7746 29.0891 66.7746 29.559V40.0253H63.6714V22.3643H65.5172Z" fill="#31423D"/>
<path d="M92.4508 54.7788C92.6442 54.7788 92.8234 54.8105 92.9883 54.8739C93.1532 54.9373 93.2961 55.0302 93.417 55.1526C93.538 55.275 93.6325 55.4247 93.7006 55.6018C93.7688 55.7788 93.8029 55.9821 93.8029 56.2117C93.8029 56.3013 93.793 56.3614 93.7732 56.392C93.7534 56.4204 93.7171 56.4346 93.6644 56.4346H91.5076C91.512 56.6357 91.5395 56.8117 91.59 56.9625C91.6406 57.1112 91.7099 57.2347 91.7978 57.333C91.8879 57.4314 91.9946 57.5057 92.1177 57.556C92.2408 57.6041 92.3782 57.6281 92.5299 57.6281C92.6706 57.6281 92.7926 57.6128 92.896 57.5822C92.9993 57.5494 93.0873 57.5134 93.1598 57.474C93.2346 57.4347 93.2972 57.3997 93.3478 57.3691C93.3983 57.3363 93.4423 57.3199 93.4797 57.3199C93.5039 57.3199 93.5248 57.3254 93.5423 57.3363C93.5599 57.3451 93.5753 57.3582 93.5885 57.3757L93.7534 57.5855C93.6809 57.6708 93.5951 57.7451 93.4962 57.8085C93.3994 57.8697 93.295 57.9211 93.1829 57.9626C93.0708 58.0019 92.9542 58.0314 92.8333 58.0511C92.7146 58.0708 92.597 58.0806 92.4805 58.0806C92.2562 58.0806 92.0495 58.0435 91.8605 57.9691C91.6714 57.8948 91.5076 57.7855 91.3691 57.6413C91.2328 57.4948 91.1262 57.3155 91.0492 57.1035C90.9723 56.8893 90.9338 56.6434 90.9338 56.3658C90.9338 56.1428 90.9679 55.9351 91.036 55.7428C91.1064 55.5482 91.2064 55.3799 91.3361 55.2378C91.468 55.0936 91.6274 54.981 91.8143 54.9001C92.0034 54.8192 92.2155 54.7788 92.4508 54.7788ZM92.4607 55.1985C92.1902 55.1985 91.9759 55.2772 91.8176 55.4346C91.6615 55.5919 91.5637 55.8073 91.5241 56.0805H93.2818C93.2818 55.9515 93.2631 55.8335 93.2258 55.7264C93.1884 55.6171 93.1345 55.5242 93.0642 55.4477C92.9938 55.369 92.907 55.3078 92.8036 55.2641C92.7025 55.2203 92.5882 55.1985 92.4607 55.1985ZM88.1306 54.828V56.8707C88.1306 57.1112 88.1845 57.2981 88.2922 57.4314C88.4022 57.5626 88.5681 57.6281 88.7902 57.6281C88.9551 57.6281 89.1079 57.5899 89.2486 57.5134C89.3915 57.4347 89.5234 57.3276 89.6443 57.192V54.828H90.2247V58.0347H89.8752C89.8356 58.0347 89.8026 58.026 89.7762 58.0085C89.7499 57.9888 89.7345 57.9582 89.7301 57.9167L89.6773 57.5757C89.5388 57.7287 89.3838 57.8522 89.2123 57.9462C89.043 58.038 88.8463 58.0839 88.622 58.0839C88.4461 58.0839 88.2911 58.0555 88.157 57.9987C88.0251 57.9396 87.9141 57.8577 87.8239 57.7527C87.7338 57.6456 87.6656 57.5177 87.6195 57.3691C87.5733 57.2183 87.5502 57.0521 87.5502 56.8707V54.828H88.1306ZM86.673 54.828V59.1168H86.0926V57.5658C85.9585 57.7232 85.8057 57.8489 85.6342 57.9429C85.4627 58.0347 85.267 58.0806 85.0472 58.0806C84.8625 58.0806 84.6954 58.0456 84.5459 57.9757C84.3964 57.9036 84.2689 57.7986 84.1634 57.6609C84.0578 57.5232 83.9765 57.3527 83.9193 57.1494C83.8622 56.9439 83.8336 56.7079 83.8336 56.4412C83.8336 56.2051 83.8655 55.9854 83.9292 55.7821C83.993 55.5766 84.0842 55.3996 84.2029 55.2509C84.3217 55.1023 84.4668 54.9854 84.6383 54.9001C84.8097 54.8149 85.0032 54.7722 85.2187 54.7722C85.4275 54.7722 85.6034 54.8094 85.7463 54.8837C85.8914 54.9558 86.02 55.0586 86.1322 55.1919L86.175 54.946C86.1904 54.8673 86.241 54.828 86.3267 54.828H86.673ZM85.2352 57.6183C85.4176 57.6183 85.577 57.5768 85.7133 57.4937C85.8497 57.4085 85.9761 57.2904 86.0926 57.1396V55.5887C85.9937 55.4553 85.8815 55.3602 85.7562 55.3034C85.6331 55.2444 85.4979 55.2149 85.3506 55.2149C85.056 55.2149 84.8284 55.3209 84.6679 55.5329C84.5096 55.745 84.4305 56.0477 84.4305 56.4412C84.4305 56.6488 84.4481 56.827 84.4833 56.9756C84.5206 57.1243 84.5734 57.2467 84.6416 57.3429C84.7119 57.4369 84.7966 57.5068 84.8955 57.5527C84.9966 57.5964 85.1098 57.6183 85.2352 57.6183ZM83.1048 54.828V58.0347H82.5244V54.828H83.1048ZM83.2169 53.8246C83.2169 53.8793 83.2059 53.9317 83.1839 53.982C83.1619 54.0301 83.1312 54.0727 83.0916 54.1099C83.0542 54.1449 83.0102 54.1733 82.9597 54.1951C82.9113 54.217 82.8596 54.2279 82.8047 54.2279C82.7497 54.2279 82.698 54.217 82.6497 54.1951C82.6013 54.1733 82.5584 54.1449 82.5211 54.1099C82.4859 54.0727 82.4573 54.0301 82.4353 53.982C82.4133 53.9317 82.4023 53.8793 82.4023 53.8246C82.4023 53.7678 82.4133 53.7153 82.4353 53.6672C82.4573 53.617 82.4859 53.5732 82.5211 53.5361C82.5584 53.4989 82.6013 53.4694 82.6497 53.4476C82.698 53.4257 82.7497 53.4148 82.8047 53.4148C82.8596 53.4148 82.9113 53.4257 82.9597 53.4476C83.0102 53.4694 83.0542 53.4989 83.0916 53.5361C83.1312 53.5732 83.1619 53.617 83.1839 53.6672C83.2059 53.7153 83.2169 53.7678 83.2169 53.8246ZM80.117 58.0347V54.828H80.45C80.5116 54.828 80.5545 54.84 80.5786 54.864C80.605 54.8881 80.6204 54.9285 80.6248 54.9854L80.6644 55.4575C80.7633 55.2455 80.8853 55.0783 81.0304 54.9558C81.1756 54.8334 81.3503 54.7722 81.5548 54.7722C81.623 54.7722 81.6867 54.7799 81.7461 54.7952C81.8054 54.8083 81.8593 54.8312 81.9077 54.864L81.8615 55.2903C81.8549 55.3449 81.8241 55.3723 81.7692 55.3723C81.7384 55.3723 81.6944 55.3668 81.6372 55.3559C81.5823 55.3428 81.5207 55.3362 81.4526 55.3362C81.3536 55.3362 81.2657 55.3515 81.1887 55.3821C81.114 55.4105 81.0458 55.4542 80.9843 55.5133C80.9249 55.5701 80.8722 55.64 80.826 55.7231C80.7798 55.8062 80.7369 55.9013 80.6974 56.0084V58.0347H80.117ZM78.0888 54.7788C78.2823 54.7788 78.4615 54.8105 78.6263 54.8739C78.7912 54.9373 78.9341 55.0302 79.0551 55.1526C79.176 55.275 79.2705 55.4247 79.3387 55.6018C79.4068 55.7788 79.4409 55.9821 79.4409 56.2117C79.4409 56.3013 79.431 56.3614 79.4112 56.392C79.3914 56.4204 79.3552 56.4346 79.3024 56.4346H77.1456C77.15 56.6357 77.1775 56.8117 77.2281 56.9625C77.2786 57.1112 77.3479 57.2347 77.4358 57.333C77.526 57.4314 77.6326 57.5057 77.7557 57.556C77.8788 57.6041 78.0162 57.6281 78.1679 57.6281C78.3087 57.6281 78.4307 57.6128 78.534 57.5822C78.6373 57.5494 78.7253 57.5134 78.7978 57.474C78.8726 57.4347 78.9352 57.3997 78.9858 57.3691C79.0364 57.3363 79.0803 57.3199 79.1177 57.3199C79.1419 57.3199 79.1628 57.3254 79.1804 57.3363C79.198 57.3451 79.2134 57.3582 79.2265 57.3757L79.3914 57.5855C79.3189 57.6708 79.2331 57.7451 79.1342 57.8085C79.0375 57.8697 78.933 57.9211 78.8209 57.9626C78.7088 58.0019 78.5923 58.0314 78.4713 58.0511C78.3526 58.0708 78.235 58.0806 78.1185 58.0806C77.8942 58.0806 77.6876 58.0435 77.4985 57.9691C77.3094 57.8948 77.1456 57.7855 77.0071 57.6413C76.8708 57.4948 76.7642 57.3155 76.6872 57.1035C76.6103 56.8893 76.5718 56.6434 76.5718 56.3658C76.5718 56.1428 76.6059 55.9351 76.674 55.7428C76.7444 55.5482 76.8444 55.3799 76.9741 55.2378C77.1061 55.0936 77.2654 54.981 77.4523 54.9001C77.6414 54.8192 77.8536 54.7788 78.0888 54.7788ZM78.0987 55.1985C77.8283 55.1985 77.6139 55.2772 77.4556 55.4346C77.2995 55.5919 77.2017 55.8073 77.1621 56.0805H78.9198C78.9198 55.9515 78.9012 55.8335 78.8638 55.7264C78.8264 55.6171 78.7725 55.5242 78.7022 55.4477C78.6318 55.369 78.545 55.3078 78.4417 55.2641C78.3405 55.2203 78.2262 55.1985 78.0987 55.1985ZM78.9133 53.4476L78.1679 54.264C78.1372 54.2968 78.1064 54.3197 78.0756 54.3329C78.047 54.346 78.0108 54.3525 77.9668 54.3525H77.6205L78.0921 53.5885C78.1207 53.5405 78.1526 53.5055 78.1877 53.4836C78.2229 53.4596 78.2757 53.4476 78.346 53.4476H78.9133ZM71.414 58.0347V54.828H71.757C71.801 54.828 71.835 54.8378 71.8592 54.8575C71.8856 54.875 71.901 54.9045 71.9054 54.946L71.9549 55.2739C72.0164 55.2018 72.0802 55.1362 72.1461 55.0772C72.2143 55.016 72.2868 54.9635 72.3638 54.9198C72.4407 54.8739 72.5232 54.8389 72.6111 54.8149C72.6991 54.7908 72.7925 54.7788 72.8914 54.7788C73.1135 54.7788 73.2938 54.8389 73.4323 54.9591C73.573 55.0793 73.673 55.2411 73.7324 55.4444C73.7786 55.3264 73.839 55.2258 73.9138 55.1427C73.9907 55.0597 74.0754 54.9908 74.1677 54.9362C74.26 54.8815 74.359 54.8422 74.4645 54.8181C74.57 54.7919 74.6778 54.7788 74.7877 54.7788C75.1395 54.7788 75.411 54.8837 75.6023 55.0936C75.7957 55.3034 75.8925 55.6029 75.8925 55.992V58.0347H75.312V55.992C75.312 55.7428 75.2549 55.5548 75.1406 55.428C75.0262 55.299 74.8624 55.2345 74.6492 55.2345C74.5524 55.2345 74.4612 55.2509 74.3755 55.2837C74.2897 55.3143 74.2139 55.3624 74.1479 55.428C74.0842 55.4914 74.0325 55.5701 73.9929 55.6641C73.9555 55.7581 73.9369 55.8674 73.9369 55.992V58.0347H73.3564V55.992C73.3564 55.7362 73.3026 55.546 73.1948 55.4214C73.0893 55.2968 72.9332 55.2345 72.7266 55.2345C72.5859 55.2345 72.4539 55.2717 72.3308 55.346C72.2077 55.4182 72.0956 55.5187 71.9944 55.6477V58.0347H71.414ZM68.3734 54.828V56.8707C68.3734 57.1112 68.4273 57.2981 68.535 57.4314C68.645 57.5626 68.811 57.6281 69.033 57.6281C69.1979 57.6281 69.3507 57.5899 69.4914 57.5134C69.6343 57.4347 69.7662 57.3276 69.8871 57.192V54.828H70.4676V58.0347H70.118C70.0784 58.0347 70.0454 58.026 70.0191 58.0085C69.9927 57.9888 69.9773 57.9582 69.9729 57.9167L69.9201 57.5757C69.7816 57.7287 69.6266 57.8522 69.4551 57.9462C69.2858 58.038 69.0891 58.0839 68.8648 58.0839C68.6889 58.0839 68.5339 58.0555 68.3998 57.9987C68.2679 57.9396 68.1569 57.8577 68.0667 57.7527C67.9766 57.6456 67.9085 57.5177 67.8623 57.3691C67.8161 57.2183 67.793 57.0521 67.793 56.8707V54.828H68.3734ZM63.8225 53.7263C63.873 53.7263 63.9115 53.7328 63.9379 53.7459C63.9643 53.7569 63.994 53.7842 64.0269 53.8279L66.3816 57.0511C66.3772 56.9986 66.3728 56.9472 66.3684 56.8969C66.3662 56.8445 66.3651 56.7964 66.3651 56.7527V53.7263H66.8927V58.0347H66.5893C66.5432 58.0347 66.5036 58.0271 66.4706 58.0118C66.4398 57.9965 66.409 57.9691 66.3783 57.9298L64.0236 54.7165C64.028 54.7668 64.0313 54.8149 64.0335 54.8608C64.0357 54.9067 64.0368 54.9504 64.0368 54.9919V58.0347H63.5092V53.7263H63.8225ZM117.369 46.3192C117.563 46.3192 117.742 46.3509 117.907 46.4143C118.071 46.4777 118.214 46.5706 118.335 46.693C118.456 46.8154 118.551 46.9652 118.619 47.1422C118.687 47.3193 118.721 47.5226 118.721 47.7521C118.721 47.8417 118.711 47.9018 118.691 47.9325C118.672 47.9609 118.635 47.9751 118.583 47.9751H116.426C116.43 48.1762 116.458 48.3521 116.508 48.503C116.559 48.6516 116.628 48.7751 116.716 48.8735C116.806 48.9719 116.913 49.0462 117.036 49.0965C117.159 49.1445 117.296 49.1686 117.448 49.1686C117.589 49.1686 117.711 49.1533 117.814 49.1227C117.918 49.0899 118.006 49.0538 118.078 49.0145C118.153 48.9751 118.215 48.9402 118.266 48.9096C118.317 48.8768 118.361 48.8604 118.398 48.8604C118.422 48.8604 118.443 48.8658 118.461 48.8768C118.478 48.8855 118.494 48.8986 118.507 48.9161L118.672 49.126C118.599 49.2112 118.513 49.2855 118.414 49.3489C118.318 49.4101 118.213 49.4615 118.101 49.503C117.989 49.5424 117.873 49.5719 117.752 49.5916C117.633 49.6112 117.515 49.6211 117.399 49.6211C117.174 49.6211 116.968 49.5839 116.779 49.5096C116.59 49.4353 116.426 49.326 116.287 49.1817C116.151 49.0353 116.044 48.856 115.967 48.644C115.891 48.4297 115.852 48.1838 115.852 47.9062C115.852 47.6833 115.886 47.4756 115.954 47.2832C116.025 47.0887 116.125 46.9204 116.254 46.7783C116.386 46.634 116.546 46.5214 116.733 46.4406C116.922 46.3597 117.134 46.3192 117.369 46.3192ZM117.379 46.7389C117.109 46.7389 116.894 46.8176 116.736 46.975C116.58 47.1324 116.482 47.3477 116.442 47.621H118.2C118.2 47.492 118.181 47.3739 118.144 47.2668C118.107 47.1575 118.053 47.0646 117.982 46.9881C117.912 46.9094 117.825 46.8482 117.722 46.8045C117.621 46.7608 117.506 46.7389 117.379 46.7389ZM115.12 44.9126V49.5752H114.54V44.9126H115.12ZM113.382 49.5752C113.325 49.5752 113.281 49.5664 113.25 49.5489C113.219 49.5315 113.198 49.4954 113.187 49.4407L113.115 49.1424C113.031 49.2189 112.949 49.2877 112.868 49.3489C112.788 49.408 112.705 49.4582 112.617 49.4998C112.529 49.5413 112.434 49.5719 112.333 49.5916C112.232 49.6134 112.121 49.6244 112 49.6244C111.875 49.6244 111.757 49.608 111.647 49.5752C111.54 49.5402 111.444 49.4877 111.36 49.4178C111.279 49.3457 111.214 49.2571 111.166 49.1522C111.12 49.0451 111.097 48.9194 111.097 48.7751C111.097 48.6483 111.131 48.527 111.199 48.4112C111.269 48.2931 111.382 48.1882 111.539 48.0964C111.695 48.0046 111.898 47.9303 112.149 47.8734C112.399 47.8144 112.707 47.7805 113.072 47.7718V47.5259C113.072 47.2767 113.018 47.0898 112.91 46.9652C112.805 46.8384 112.65 46.775 112.445 46.775C112.309 46.775 112.194 46.7925 112.099 46.8275C112.007 46.8624 111.927 46.9007 111.858 46.9422C111.79 46.9838 111.731 47.022 111.68 47.057C111.632 47.092 111.582 47.1095 111.532 47.1095C111.492 47.1095 111.458 47.0996 111.43 47.0799C111.401 47.0603 111.378 47.0351 111.36 47.0045L111.255 46.8209C111.433 46.6504 111.624 46.5236 111.829 46.4406C112.035 46.3553 112.264 46.3127 112.515 46.3127C112.695 46.3127 112.855 46.3422 112.996 46.4012C113.137 46.458 113.254 46.54 113.349 46.6471C113.444 46.7542 113.515 46.8821 113.563 47.0308C113.614 47.1794 113.639 47.3444 113.639 47.5259V49.5752H113.382ZM112.175 49.2211C112.272 49.2211 112.361 49.2112 112.442 49.1915C112.523 49.1719 112.6 49.1445 112.673 49.1096C112.746 49.0724 112.814 49.0276 112.877 48.9751C112.943 48.9205 113.008 48.8604 113.072 48.7948V48.1325C112.815 48.1434 112.596 48.1653 112.416 48.198C112.235 48.2286 112.088 48.2702 111.974 48.3226C111.862 48.3751 111.78 48.4374 111.73 48.5095C111.679 48.5795 111.654 48.6582 111.654 48.7456C111.654 48.8287 111.667 48.9008 111.694 48.962C111.722 49.021 111.759 49.0702 111.806 49.1096C111.852 49.1467 111.907 49.1752 111.971 49.1948C112.034 49.2123 112.102 49.2211 112.175 49.2211ZM109.035 49.5752V46.3684H109.369C109.43 46.3684 109.473 46.3804 109.497 46.4045C109.524 46.4285 109.539 46.469 109.543 46.5258L109.583 46.998C109.682 46.7859 109.804 46.6187 109.949 46.4963C110.094 46.3739 110.269 46.3127 110.473 46.3127C110.541 46.3127 110.605 46.3203 110.665 46.3356C110.724 46.3487 110.778 46.3717 110.826 46.4045L110.78 46.8307C110.773 46.8854 110.743 46.9127 110.688 46.9127C110.657 46.9127 110.613 46.9073 110.556 46.8963C110.501 46.8832 110.439 46.8767 110.371 46.8767C110.272 46.8767 110.184 46.892 110.107 46.9226C110.033 46.951 109.964 46.9947 109.903 47.0537C109.843 47.1105 109.791 47.1805 109.744 47.2636C109.698 47.3466 109.655 47.4417 109.616 47.5488V49.5752H109.035ZM107.007 46.3192C107.201 46.3192 107.38 46.3509 107.545 46.4143C107.71 46.4777 107.853 46.5706 107.974 46.693C108.094 46.8154 108.189 46.9652 108.257 47.1422C108.325 47.3193 108.359 47.5226 108.359 47.7521C108.359 47.8417 108.35 47.9018 108.33 47.9325C108.31 47.9609 108.274 47.9751 108.221 47.9751H106.064C106.069 48.1762 106.096 48.3521 106.147 48.503C106.197 48.6516 106.266 48.7751 106.354 48.8735C106.444 48.9719 106.551 49.0462 106.674 49.0965C106.797 49.1445 106.935 49.1686 107.086 49.1686C107.227 49.1686 107.349 49.1533 107.453 49.1227C107.556 49.0899 107.644 49.0538 107.716 49.0145C107.791 48.9751 107.854 48.9402 107.904 48.9096C107.955 48.8768 107.999 48.8604 108.036 48.8604C108.06 48.8604 108.081 48.8658 108.099 48.8768C108.116 48.8855 108.132 48.8986 108.145 48.9161L108.31 49.126C108.237 49.2112 108.152 49.2855 108.053 49.3489C107.956 49.4101 107.852 49.4615 107.739 49.503C107.627 49.5424 107.511 49.5719 107.39 49.5916C107.271 49.6112 107.154 49.6211 107.037 49.6211C106.813 49.6211 106.606 49.5839 106.417 49.5096C106.228 49.4353 106.064 49.326 105.926 49.1817C105.789 49.0353 105.683 48.856 105.606 48.644C105.529 48.4297 105.49 48.1838 105.49 47.9062C105.49 47.6833 105.524 47.4756 105.593 47.2832C105.663 47.0887 105.763 46.9204 105.893 46.7783C106.025 46.634 106.184 46.5214 106.371 46.4406C106.56 46.3597 106.772 46.3192 107.007 46.3192ZM107.017 46.7389C106.747 46.7389 106.532 46.8176 106.374 46.975C106.218 47.1324 106.12 47.3477 106.081 47.621H107.838C107.838 47.492 107.82 47.3739 107.782 47.2668C107.745 47.1575 107.691 47.0646 107.621 46.9881C107.55 46.9094 107.464 46.8482 107.36 46.8045C107.259 46.7608 107.145 46.7389 107.017 46.7389ZM107.832 44.988L107.086 45.8045C107.056 45.8372 107.025 45.8602 106.994 45.8733C106.966 45.8864 106.929 45.893 106.885 45.893H106.539L107.011 45.129C107.039 45.0809 107.071 45.0459 107.106 45.0241C107.141 45 107.194 44.988 107.265 44.988H107.832ZM102.156 49.5752V46.3684H102.503C102.544 46.3684 102.578 46.3783 102.605 46.3979C102.631 46.4154 102.647 46.4449 102.651 46.4865L102.7 46.8275C102.839 46.6745 102.994 46.552 103.165 46.4602C103.337 46.3662 103.535 46.3192 103.759 46.3192C103.935 46.3192 104.089 46.3488 104.221 46.4078C104.355 46.4646 104.467 46.5466 104.557 46.6537C104.647 46.7586 104.715 46.8865 104.762 47.0373C104.808 47.186 104.831 47.351 104.831 47.5324V49.5752H104.25V47.5324C104.25 47.2942 104.195 47.1084 104.085 46.975C103.978 46.8417 103.813 46.775 103.591 46.775C103.426 46.775 103.272 46.8144 103.129 46.893C102.986 46.9696 102.855 47.0767 102.737 47.2144V49.5752H102.156ZM100.098 46.3192C100.292 46.3192 100.471 46.3509 100.636 46.4143C100.801 46.4777 100.944 46.5706 101.065 46.693C101.186 46.8154 101.28 46.9652 101.348 47.1422C101.416 47.3193 101.451 47.5226 101.451 47.7521C101.451 47.8417 101.441 47.9018 101.421 47.9325C101.401 47.9609 101.365 47.9751 101.312 47.9751H99.1552C99.1596 48.1762 99.1871 48.3521 99.2377 48.503C99.2882 48.6516 99.3575 48.7751 99.4454 48.8735C99.5356 48.9719 99.6422 49.0462 99.7653 49.0965C99.8884 49.1445 100.026 49.1686 100.178 49.1686C100.318 49.1686 100.44 49.1533 100.544 49.1227C100.647 49.0899 100.735 49.0538 100.807 49.0145C100.882 48.9751 100.945 48.9402 100.995 48.9096C101.046 48.8768 101.09 48.8604 101.127 48.8604C101.151 48.8604 101.172 48.8658 101.19 48.8768C101.208 48.8855 101.223 48.8986 101.236 48.9161L101.401 49.126C101.328 49.2112 101.243 49.2855 101.144 49.3489C101.047 49.4101 100.943 49.4615 100.831 49.503C100.718 49.5424 100.602 49.5719 100.481 49.5916C100.362 49.6112 100.245 49.6211 100.128 49.6211C99.9038 49.6211 99.6972 49.5839 99.5081 49.5096C99.319 49.4353 99.1552 49.326 99.0167 49.1817C98.8804 49.0353 98.7738 48.856 98.6968 48.644C98.6199 48.4297 98.5814 48.1838 98.5814 47.9062C98.5814 47.6833 98.6155 47.4756 98.6836 47.2832C98.754 47.0887 98.854 46.9204 98.9837 46.7783C99.1156 46.634 99.275 46.5214 99.4619 46.4406C99.651 46.3597 99.8632 46.3192 100.098 46.3192ZM100.108 46.7389C99.8379 46.7389 99.6235 46.8176 99.4652 46.975C99.3091 47.1324 99.2113 47.3477 99.1717 47.621H100.929C100.929 47.492 100.911 47.3739 100.873 47.2668C100.836 47.1575 100.782 47.0646 100.712 46.9881C100.641 46.9094 100.555 46.8482 100.451 46.8045C100.35 46.7608 100.236 46.7389 100.108 46.7389ZM100.923 44.988L100.178 45.8045C100.147 45.8372 100.116 45.8602 100.085 45.8733C100.057 45.8864 100.02 45.893 99.9764 45.893H99.6301L100.102 45.129C100.13 45.0809 100.162 45.0459 100.197 45.0241C100.233 45 100.285 44.988 100.356 44.988H100.923ZM97.9812 49.1588C97.7701 49.314 97.5448 49.4298 97.3051 49.5063C97.0677 49.5828 96.8094 49.6211 96.5302 49.6211C96.1938 49.6211 95.8893 49.5675 95.6167 49.4604C95.3462 49.3533 95.1154 49.2036 94.9241 49.0112C94.7329 48.8167 94.5856 48.585 94.4822 48.3161C94.3789 48.045 94.3272 47.7466 94.3272 47.4209C94.3272 47.0931 94.3767 46.7947 94.4756 46.5258C94.5768 46.2548 94.7197 46.023 94.9043 45.8307C95.0912 45.6361 95.3166 45.4853 95.5804 45.3782C95.8442 45.2711 96.1399 45.2175 96.4675 45.2175C96.6346 45.2175 96.7885 45.2306 96.9292 45.2569C97.0721 45.2809 97.204 45.317 97.3249 45.3651C97.4459 45.411 97.5569 45.4678 97.658 45.5356C97.7613 45.6033 97.857 45.6788 97.9449 45.7618L97.7767 46.0307C97.7504 46.0744 97.7152 46.1017 97.6712 46.1127C97.6272 46.1236 97.58 46.1138 97.5294 46.0832C97.4788 46.0547 97.4228 46.0209 97.3612 45.9815C97.3019 45.94 97.2304 45.9017 97.1469 45.8668C97.0633 45.8296 96.9644 45.7979 96.8501 45.7717C96.7357 45.7454 96.6005 45.7323 96.4444 45.7323C96.2158 45.7323 96.008 45.7717 95.8211 45.8504C95.6365 45.9291 95.4782 46.0416 95.3462 46.1881C95.2165 46.3345 95.1165 46.5127 95.0462 46.7225C94.9758 46.9302 94.9406 47.163 94.9406 47.4209C94.9406 47.6898 94.9769 47.9314 95.0494 48.1456C95.1242 48.3576 95.2297 48.538 95.366 48.6866C95.5045 48.8331 95.6705 48.9456 95.864 49.0243C96.0575 49.1008 96.274 49.1391 96.5137 49.1391C96.6984 49.1391 96.8632 49.1183 97.0083 49.0768C97.1535 49.0331 97.2964 48.973 97.4371 48.8964V47.9521H96.8138C96.7742 47.9521 96.7423 47.9412 96.7181 47.9193C96.694 47.8975 96.6819 47.8702 96.6819 47.8374V47.4996H97.9812V49.1588ZM89.4597 49.5752V46.3684H89.8059C89.8477 46.3684 89.8818 46.3783 89.9082 46.3979C89.9345 46.4154 89.9499 46.4449 89.9543 46.4865L90.0038 46.8275C90.1423 46.6745 90.2973 46.552 90.4688 46.4602C90.6403 46.3662 90.8381 46.3192 91.0624 46.3192C91.2383 46.3192 91.3922 46.3488 91.5241 46.4078C91.6582 46.4646 91.7703 46.5466 91.8605 46.6537C91.9506 46.7586 92.0188 46.8865 92.0649 47.0373C92.1111 47.186 92.1342 47.351 92.1342 47.5324V49.5752H91.5538V47.5324C91.5538 47.2942 91.4988 47.1084 91.3889 46.975C91.2811 46.8417 91.1163 46.775 90.8942 46.775C90.7293 46.775 90.5754 46.8144 90.4325 46.893C90.2896 46.9696 90.1588 47.0767 90.0401 47.2144V49.5752H89.4597ZM87.2204 46.3192C87.4557 46.3192 87.6678 46.3586 87.8569 46.4373C88.046 46.5138 88.2065 46.6242 88.3384 46.7684C88.4703 46.9105 88.5714 47.0832 88.6418 47.2865C88.7143 47.4898 88.7506 47.7171 88.7506 47.9685C88.7506 48.2221 88.7143 48.4505 88.6418 48.6538C88.5714 48.8571 88.4703 49.0309 88.3384 49.1751C88.2065 49.3172 88.046 49.4276 87.8569 49.5063C87.6678 49.5828 87.4557 49.6211 87.2204 49.6211C86.9852 49.6211 86.7719 49.5828 86.5807 49.5063C86.3916 49.4276 86.23 49.3172 86.0959 49.1751C85.964 49.0309 85.8617 48.8571 85.7892 48.6538C85.7188 48.4505 85.6837 48.2221 85.6837 47.9685C85.6837 47.7171 85.7188 47.4898 85.7892 47.2865C85.8617 47.0832 85.964 46.9105 86.0959 46.7684C86.23 46.6242 86.3916 46.5138 86.5807 46.4373C86.7719 46.3586 86.9852 46.3192 87.2204 46.3192ZM87.2204 49.1719C87.3765 49.1719 87.5128 49.1456 87.6294 49.0932C87.7459 49.0385 87.8426 48.9598 87.9196 48.8571C87.9987 48.7544 88.057 48.6287 88.0944 48.48C88.1339 48.3314 88.1537 48.162 88.1537 47.9718C88.1537 47.7816 88.1339 47.6122 88.0944 47.4636C88.057 47.3149 87.9987 47.1892 87.9196 47.0865C87.8426 46.9838 87.7459 46.9051 87.6294 46.8504C87.5128 46.7958 87.3765 46.7684 87.2204 46.7684C87.0621 46.7684 86.9236 46.7958 86.8049 46.8504C86.6884 46.9051 86.5906 46.9838 86.5114 47.0865C86.4345 47.1892 86.3762 47.3149 86.3366 47.4636C86.2993 47.6122 86.2806 47.7816 86.2806 47.9718C86.2806 48.162 86.2993 48.3314 86.3366 48.48C86.3762 48.6287 86.4345 48.7544 86.5114 48.8571C86.5906 48.9598 86.6884 49.0385 86.8049 49.0932C86.9236 49.1456 87.0621 49.1719 87.2204 49.1719ZM84.9515 46.4274V49.5752H84.3711V46.8471H82.8377V48.762C82.8377 48.8932 82.8662 48.9915 82.9234 49.0571C82.9828 49.1227 83.0597 49.1555 83.1542 49.1555C83.2092 49.1555 83.2554 49.1478 83.2927 49.1325C83.3323 49.1172 83.3653 49.0997 83.3917 49.0801C83.4203 49.0604 83.4444 49.0429 83.4642 49.0276C83.484 49.0123 83.5027 49.0046 83.5203 49.0046C83.5401 49.0046 83.5555 49.009 83.5665 49.0178C83.5797 49.0265 83.5917 49.0407 83.6027 49.0604L83.7742 49.3358C83.6775 49.4276 83.5632 49.4987 83.4313 49.5489C83.2993 49.5992 83.1619 49.6244 83.019 49.6244C82.775 49.6244 82.587 49.5533 82.4551 49.4112C82.3232 49.2691 82.2572 49.0659 82.2572 48.8014V46.8471H81.9011C81.8659 46.8471 81.8362 46.8362 81.812 46.8144C81.79 46.7925 81.7791 46.7608 81.7791 46.7193V46.4897L82.277 46.4242L82.4089 45.4372C82.4155 45.4044 82.4298 45.3782 82.4518 45.3585C82.4738 45.3389 82.5035 45.329 82.5408 45.329H82.8377V46.4274H84.9515ZM85.0769 45.3421C85.0769 45.3968 85.0659 45.4492 85.0439 45.4995C85.0219 45.5476 84.9911 45.5902 84.9515 45.6274C84.9142 45.6624 84.8702 45.6908 84.8196 45.7126C84.7713 45.7345 84.7196 45.7454 84.6646 45.7454C84.6097 45.7454 84.558 45.7345 84.5096 45.7126C84.4613 45.6908 84.4184 45.6624 84.381 45.6274C84.3458 45.5902 84.3173 45.5476 84.2953 45.4995C84.2733 45.4492 84.2623 45.3968 84.2623 45.3421C84.2623 45.2853 84.2733 45.2328 84.2953 45.1847C84.3173 45.1345 84.3458 45.0908 84.381 45.0536C84.4184 45.0164 84.4613 44.9869 84.5096 44.9651C84.558 44.9432 84.6097 44.9323 84.6646 44.9323C84.7196 44.9323 84.7713 44.9432 84.8196 44.9651C84.8702 44.9869 84.9142 45.0164 84.9515 45.0536C84.9911 45.0908 85.0219 45.1345 85.0439 45.1847C85.0659 45.2328 85.0769 45.2853 85.0769 45.3421ZM81.0634 49.5752C81.0063 49.5752 80.9623 49.5664 80.9315 49.5489C80.9007 49.5315 80.8798 49.4954 80.8689 49.4407L80.7963 49.1424C80.7128 49.2189 80.6303 49.2877 80.549 49.3489C80.4698 49.408 80.3863 49.4582 80.2983 49.4998C80.2104 49.5413 80.1159 49.5719 80.0147 49.5916C79.9136 49.6134 79.8026 49.6244 79.6816 49.6244C79.5563 49.6244 79.4387 49.608 79.3288 49.5752C79.221 49.5402 79.1254 49.4877 79.0419 49.4178C78.9605 49.3457 78.8957 49.2571 78.8473 49.1522C78.8011 49.0451 78.778 48.9194 78.778 48.7751C78.778 48.6483 78.8121 48.527 78.8803 48.4112C78.9506 48.2931 79.0639 48.1882 79.22 48.0964C79.376 48.0046 79.5794 47.9303 79.83 47.8734C80.0807 47.8144 80.3885 47.7805 80.7534 47.7718V47.5259C80.7534 47.2767 80.6996 47.0898 80.5918 46.9652C80.4863 46.8384 80.3313 46.775 80.1268 46.775C79.9905 46.775 79.8751 46.7925 79.7806 46.8275C79.6882 46.8624 79.608 46.9007 79.5398 46.9422C79.4717 46.9838 79.4123 47.022 79.3618 47.057C79.3134 47.092 79.2639 47.1095 79.2134 47.1095C79.1738 47.1095 79.1397 47.0996 79.1111 47.0799C79.0825 47.0603 79.0595 47.0351 79.0419 47.0045L78.9363 46.8209C79.1144 46.6504 79.3057 46.5236 79.5102 46.4406C79.7168 46.3553 79.9455 46.3127 80.1961 46.3127C80.3764 46.3127 80.5369 46.3422 80.6776 46.4012C80.8183 46.458 80.9359 46.54 81.0304 46.6471C81.125 46.7542 81.1964 46.8821 81.2448 47.0308C81.2954 47.1794 81.3207 47.3444 81.3207 47.5259V49.5752H81.0634ZM79.8564 49.2211C79.9532 49.2211 80.0422 49.2112 80.1236 49.1915C80.2049 49.1719 80.2818 49.1445 80.3544 49.1096C80.4269 49.0724 80.4951 49.0276 80.5589 48.9751C80.6248 48.9205 80.6897 48.8604 80.7534 48.7948V48.1325C80.4962 48.1434 80.2774 48.1653 80.0972 48.198C79.9169 48.2286 79.7696 48.2702 79.6553 48.3226C79.5431 48.3751 79.4618 48.4374 79.4112 48.5095C79.3607 48.5795 79.3354 48.6582 79.3354 48.7456C79.3354 48.8287 79.3486 48.9008 79.3749 48.962C79.4035 49.021 79.4409 49.0702 79.4871 49.1096C79.5332 49.1467 79.5882 49.1752 79.652 49.1948C79.7157 49.2123 79.7839 49.2211 79.8564 49.2211ZM76.9708 46.316C77.105 46.316 77.2303 46.3313 77.3468 46.3619C77.4633 46.3925 77.5688 46.4362 77.6634 46.493H78.5076V46.7061C78.5076 46.7827 78.4636 46.8275 78.3757 46.8406L78.0327 46.8898C78.1009 47.0297 78.135 47.1827 78.135 47.3488C78.135 47.5062 78.1053 47.6483 78.0459 47.7751C77.9888 47.9018 77.9085 48.0101 77.8052 48.0997C77.7019 48.1893 77.5787 48.2592 77.4358 48.3095C77.2951 48.3576 77.1401 48.3817 76.9708 48.3817C76.8301 48.3817 76.7004 48.3653 76.5817 48.3325C76.5179 48.374 76.4707 48.4188 76.4399 48.4669C76.4091 48.5128 76.3937 48.5587 76.3937 48.6046C76.3937 48.6811 76.4234 48.738 76.4828 48.7751C76.5421 48.8123 76.6202 48.8396 76.7169 48.8571C76.8136 48.8746 76.9236 48.8855 77.0467 48.8899C77.1698 48.8943 77.2951 48.9019 77.4226 48.9128C77.5524 48.9216 77.6788 48.9369 77.8019 48.9587C77.925 48.9806 78.0349 49.0189 78.1317 49.0735C78.2284 49.126 78.3065 49.1992 78.3658 49.2932C78.4252 49.385 78.4549 49.5052 78.4549 49.6539C78.4549 49.7916 78.4219 49.9249 78.3559 50.0539C78.29 50.1829 78.1943 50.2976 78.069 50.3982C77.9459 50.4987 77.7942 50.5785 77.6139 50.6375C77.4358 50.6987 77.2336 50.7293 77.0071 50.7293C76.7807 50.7293 76.5828 50.7064 76.4135 50.6605C76.2442 50.6146 76.1035 50.5523 75.9914 50.4736C75.8793 50.3949 75.7957 50.3042 75.7408 50.2014C75.6858 50.0987 75.6583 49.9916 75.6583 49.8801C75.6583 49.7227 75.7045 49.5894 75.7968 49.4801C75.8914 49.3708 76.0211 49.2844 76.186 49.2211C76.0958 49.1795 76.0244 49.1227 75.9716 49.0506C75.9188 48.9784 75.8925 48.8822 75.8925 48.762C75.8925 48.6702 75.9254 48.5729 75.9914 48.4702C76.0573 48.3675 76.1563 48.2822 76.2882 48.2144C76.1365 48.1248 76.0167 48.0068 75.9287 47.8603C75.843 47.7139 75.8001 47.5434 75.8001 47.3488C75.8001 47.1914 75.8287 47.0493 75.8859 46.9226C75.9452 46.7958 76.0266 46.6876 76.1299 46.5979C76.2332 46.5061 76.3563 46.4362 76.4993 46.3881C76.6422 46.34 76.7994 46.316 76.9708 46.316ZM77.9206 49.749C77.9206 49.6724 77.8997 49.6101 77.858 49.5621C77.8184 49.514 77.7634 49.4768 77.6931 49.4506C77.6227 49.4222 77.5414 49.4025 77.449 49.3916C77.3567 49.3784 77.2589 49.3686 77.1555 49.362C77.0522 49.3555 76.9467 49.35 76.8389 49.3457C76.7334 49.3413 76.6312 49.3314 76.5322 49.3161C76.4245 49.373 76.3366 49.4418 76.2684 49.5227C76.2003 49.6014 76.1662 49.6965 76.1662 49.808C76.1662 49.8801 76.1827 49.9468 76.2156 50.008C76.2486 50.0692 76.2992 50.1217 76.3673 50.1654C76.4377 50.2113 76.5267 50.2473 76.6345 50.2736C76.7422 50.2998 76.8697 50.3129 77.017 50.3129C77.1621 50.3129 77.2907 50.2987 77.4029 50.2703C77.515 50.2419 77.6095 50.2025 77.6865 50.1523C77.7634 50.1042 77.8217 50.0451 77.8612 49.9752C77.9008 49.9074 77.9206 49.832 77.9206 49.749ZM76.9708 48.0013C77.1841 48.0013 77.3446 47.9423 77.4523 47.8242C77.5622 47.7062 77.6172 47.5521 77.6172 47.3619C77.6172 47.1674 77.5622 47.0133 77.4523 46.8996C77.3446 46.7837 77.1841 46.7258 76.9708 46.7258C76.762 46.7258 76.6026 46.7837 76.4927 46.8996C76.3849 47.0133 76.3311 47.1674 76.3311 47.3619C76.3311 47.4559 76.3443 47.5423 76.3706 47.621C76.3992 47.6975 76.4399 47.7641 76.4927 47.821C76.5476 47.8778 76.6147 47.9226 76.6938 47.9554C76.7752 47.986 76.8675 48.0013 76.9708 48.0013ZM73.8511 46.3192C74.0446 46.3192 74.2238 46.3509 74.3887 46.4143C74.5535 46.4777 74.6965 46.5706 74.8174 46.693C74.9383 46.8154 75.0328 46.9652 75.101 47.1422C75.1691 47.3193 75.2032 47.5226 75.2032 47.7521C75.2032 47.8417 75.1933 47.9018 75.1735 47.9325C75.1537 47.9609 75.1175 47.9751 75.0647 47.9751H72.9079C72.9123 48.1762 72.9398 48.3521 72.9904 48.503C73.0409 48.6516 73.1102 48.7751 73.1981 48.8735C73.2883 48.9719 73.3949 49.0462 73.518 49.0965C73.6412 49.1445 73.7786 49.1686 73.9303 49.1686C74.071 49.1686 74.193 49.1533 74.2963 49.1227C74.3996 49.0899 74.4876 49.0538 74.5601 49.0145C74.6349 48.9751 74.6975 48.9402 74.7481 48.9096C74.7987 48.8768 74.8427 48.8604 74.88 48.8604C74.9042 48.8604 74.9251 48.8658 74.9427 48.8768C74.9603 48.8855 74.9757 48.8986 74.9889 48.9161L75.1537 49.126C75.0812 49.2112 74.9955 49.2855 74.8965 49.3489C74.7998 49.4101 74.6954 49.4615 74.5832 49.503C74.4711 49.5424 74.3546 49.5719 74.2337 49.5916C74.1149 49.6112 73.9973 49.6211 73.8808 49.6211C73.6565 49.6211 73.4499 49.5839 73.2608 49.5096C73.0717 49.4353 72.9079 49.326 72.7694 49.1817C72.6331 49.0353 72.5265 48.856 72.4495 48.644C72.3726 48.4297 72.3341 48.1838 72.3341 47.9062C72.3341 47.6833 72.3682 47.4756 72.4363 47.2832C72.5067 47.0887 72.6067 46.9204 72.7365 46.7783C72.8684 46.634 73.0278 46.5214 73.2146 46.4406C73.4037 46.3597 73.6159 46.3192 73.8511 46.3192ZM73.861 46.7389C73.5906 46.7389 73.3762 46.8176 73.2179 46.975C73.0618 47.1324 72.964 47.3477 72.9244 47.621H74.6822C74.6822 47.492 74.6635 47.3739 74.6261 47.2668C74.5887 47.1575 74.5349 47.0646 74.4645 46.9881C74.3942 46.9094 74.3073 46.8482 74.204 46.8045C74.1028 46.7608 73.9885 46.7389 73.861 46.7389ZM74.6756 44.988L73.9303 45.8045C73.8995 45.8372 73.8687 45.8602 73.8379 45.8733C73.8093 45.8864 73.7731 45.893 73.7291 45.893H73.3828L73.8544 45.129C73.883 45.0809 73.9149 45.0459 73.95 45.0241C73.9852 45 74.038 44.988 74.1083 44.988H74.6756ZM71.602 44.9126V49.5752H71.0216V44.9126H71.602ZM68.9407 46.3192C69.1341 46.3192 69.3133 46.3509 69.4782 46.4143C69.6431 46.4777 69.786 46.5706 69.9069 46.693C70.0278 46.8154 70.1224 46.9652 70.1905 47.1422C70.2587 47.3193 70.2928 47.5226 70.2928 47.7521C70.2928 47.8417 70.2829 47.9018 70.2631 47.9325C70.2433 47.9609 70.207 47.9751 70.1543 47.9751H67.9975C68.0019 48.1762 68.0294 48.3521 68.0799 48.503C68.1305 48.6516 68.1998 48.7751 68.2877 48.8735C68.3778 48.9719 68.4845 49.0462 68.6076 49.0965C68.7307 49.1445 68.8681 49.1686 69.0198 49.1686C69.1605 49.1686 69.2825 49.1533 69.3859 49.1227C69.4892 49.0899 69.5771 49.0538 69.6497 49.0145C69.7244 48.9751 69.7871 48.9402 69.8377 48.9096C69.8882 48.8768 69.9322 48.8604 69.9696 48.8604C69.9938 48.8604 70.0147 48.8658 70.0322 48.8768C70.0498 48.8855 70.0652 48.8986 70.0784 48.9161L70.2433 49.126C70.1708 49.2112 70.085 49.2855 69.9861 49.3489C69.8893 49.4101 69.7849 49.4615 69.6728 49.503C69.5607 49.5424 69.4441 49.5719 69.3232 49.5916C69.2045 49.6112 69.0869 49.6211 68.9703 49.6211C68.7461 49.6211 68.5394 49.5839 68.3504 49.5096C68.1613 49.4353 67.9975 49.326 67.859 49.1817C67.7227 49.0353 67.616 48.856 67.5391 48.644C67.4622 48.4297 67.4237 48.1838 67.4237 47.9062C67.4237 47.6833 67.4578 47.4756 67.5259 47.2832C67.5963 47.0887 67.6963 46.9204 67.826 46.7783C67.9579 46.634 68.1173 46.5214 68.3042 46.4406C68.4933 46.3597 68.7054 46.3192 68.9407 46.3192ZM68.9506 46.7389C68.6801 46.7389 68.4658 46.8176 68.3075 46.975C68.1514 47.1324 68.0536 47.3477 68.014 47.621H69.7717C69.7717 47.492 69.753 47.3739 69.7157 47.2668C69.6783 47.1575 69.6244 47.0646 69.5541 46.9881C69.4837 46.9094 69.3969 46.8482 69.2935 46.8045C69.1924 46.7608 69.0781 46.7389 68.9506 46.7389ZM69.7651 44.988L69.0198 45.8045C68.989 45.8372 68.9583 45.8602 68.9275 45.8733C68.8989 45.8864 68.8626 45.893 68.8187 45.893H68.4724L68.944 45.129C68.9725 45.0809 69.0044 45.0459 69.0396 45.0241C69.0748 45 69.1275 44.988 69.1979 44.988H69.7651ZM66.9521 47.4209C66.9521 47.7445 66.9037 48.0385 66.807 48.303C66.7124 48.5675 66.5783 48.7948 66.4047 48.985C66.2332 49.173 66.0254 49.3183 65.7814 49.4211C65.5395 49.5238 65.2713 49.5752 64.9767 49.5752H63.4795V45.2667H64.9767C65.2713 45.2667 65.5395 45.3192 65.7814 45.4241C66.0254 45.5268 66.2332 45.6722 66.4047 45.8602C66.5783 46.0482 66.7124 46.2755 66.807 46.5422C66.9037 46.8067 66.9521 47.0996 66.9521 47.4209ZM66.3354 47.4209C66.3354 47.1586 66.3035 46.9247 66.2398 46.7193C66.176 46.5116 66.0848 46.3356 65.966 46.1914C65.8473 46.0471 65.7044 45.9378 65.5373 45.8635C65.3702 45.787 65.1834 45.7487 64.9767 45.7487H64.083V49.0932H64.9767C65.1834 49.0932 65.3702 49.056 65.5373 48.9817C65.7044 48.9052 65.8473 48.7959 65.966 48.6538C66.0848 48.5095 66.176 48.3336 66.2398 48.1259C66.3035 47.9182 66.3354 47.6833 66.3354 47.4209Z" fill="#31423D"/>
<path fill-rule="evenodd" clip-rule="evenodd" d="M15.2158 3.85006C19.0082 1.85912 23.1391 0.667287 27.352 0.300887L13.7907 15.5262L5.8414 11.3531C8.41909 8.31028 11.5916 5.75269 15.2158 3.85006ZM-0.00195312 21.8859C1.02193 18.68 2.55862 15.6916 4.52544 13.0188L2.17858 25.6191L-0.00195312 21.8859ZM10.1344 39.2398L2.90238 26.8583L3.01323 26.9203L13.0781 17.8229L10.8067 32.0448L10.8019 32.083L10.1344 39.2398ZM17.418 51.7097L11.0362 40.7837L19.119 38.5318L17.418 51.7097ZM22.9342 61.1537L18.3432 53.2938L31.5156 53.8528L22.9342 61.1537ZM38.2648 61.5377C34.1964 62.549 29.9369 62.7632 25.735 62.1418L38.2648 61.5377ZM46.8537 58.0157C45.0129 59.1076 43.0769 60.0041 41.0776 60.7004L41.19 60.4025L34.2357 53.6614L56.903 48.5136C54.3419 52.3432 50.923 55.6019 46.8537 58.0157ZM61.0863 39.2201C60.3885 41.8872 59.3392 44.4261 57.9809 46.7804L55.754 39.0857C55.9521 39.0404 56.1478 38.9896 56.3413 38.9334C57.3489 38.632 58.2987 38.1488 59.1904 37.4838V37.0307L61.5082 37.376C61.387 37.9931 61.2464 38.6081 61.0863 39.2201ZM59.1904 35.838L61.7132 36.2138C62.0678 33.9495 62.1643 31.6636 62.0087 29.3971L59.1904 31.9385V35.838ZM59.1904 30.35V30.2492H53.2515V32.2174C53.2515 32.3947 53.3139 32.5455 53.4388 32.6696C53.5725 32.7937 53.7464 32.8558 53.9604 32.8558H56.0069V33.2207L54.3279 34.7347L49.4359 25.2913C49.7387 25.0697 50.0698 24.8826 50.4292 24.7301C50.6871 24.6173 50.9575 24.5262 51.2405 24.4569L60.906 28.803L59.1904 30.35ZM53.9253 24.3707L61.8741 27.9448C61.3859 23.7625 60.0352 19.6771 57.8583 15.9501C56.0666 12.8826 53.7766 10.1631 51.1067 7.88293L47.6404 21.5447L48.8123 22.0716C48.8781 22.044 48.9445 22.0169 49.0114 21.9905C50.1439 21.5472 51.4057 21.3255 52.7968 21.3255C53.5191 21.3255 54.1923 21.3832 54.8165 21.4984C55.4407 21.6137 56.0203 21.7733 56.5553 21.9772C57.0904 22.1811 57.5763 22.4249 58.0133 22.7086C58.4591 22.9924 58.8604 23.3071 59.2171 23.6529L58.2139 25.2221C58.0623 25.4704 57.8572 25.6256 57.5986 25.6876C57.3489 25.7408 57.077 25.6787 56.7827 25.5014C56.5063 25.333 56.2299 25.1778 55.9534 25.036C55.677 24.8852 55.3783 24.7567 55.0572 24.6503C54.7451 24.535 54.3974 24.4464 54.0139 24.3843C53.9847 24.3796 53.9552 24.375 53.9253 24.3707ZM46.9789 23.1131L46.8651 22.8934L45.846 24.1446C45.9355 24.045 46.0276 23.9476 46.1223 23.8524C46.39 23.5862 46.6755 23.3398 46.9789 23.1131ZM45.3651 24.7351C44.9283 25.3275 44.5699 25.9863 44.2898 26.7116C43.8617 27.811 43.6478 29.0212 43.6478 30.3423C43.6478 31.4313 43.8013 32.4501 44.1084 33.3986L41.9626 33.0382C42.1854 32.1949 42.2968 31.2963 42.2968 30.3423C42.2968 29.7597 42.2547 29.198 42.1704 28.6573L45.3651 24.7351ZM41.8282 27.2095L45.7681 22.3723L36.1306 21.8188C36.5043 21.9147 36.8654 22.034 37.214 22.1767C38.2751 22.6111 39.1802 23.2184 39.9293 23.9986C40.6872 24.7788 41.2713 25.7098 41.6815 26.7914C41.7337 26.9291 41.7826 27.0685 41.8282 27.2095ZM38.703 31.0465C38.718 30.8181 38.7255 30.5833 38.7255 30.3423C38.7255 29.4025 38.6096 28.5602 38.3777 27.8155C38.1459 27.0707 37.8115 26.4368 37.3745 25.9137C36.9465 25.3906 36.4204 24.9916 35.7962 24.7168C35.172 24.4331 34.4675 24.2912 33.6828 24.2912H33.0941L37.9678 31.9492L38.703 31.0465ZM41.5822 34.1705L44.6482 34.6855C45.0665 35.4894 45.598 36.205 46.2427 36.8322C46.5023 37.082 46.7782 37.3149 47.0702 37.5309L32.3451 42.6666L34.6163 39.1466C35.5481 39.066 36.414 38.862 37.214 38.5344C38.2751 38.1 39.1802 37.4927 39.9293 36.7125C40.628 35.9932 41.179 35.1459 41.5822 34.1705ZM33.1869 39.1861L30.7209 43.0082L21.401 37.9174L27.209 36.3862V39.1861H33.1869ZM35.0889 36.2382C34.653 36.3505 34.1843 36.4066 33.6828 36.4066H30.7402V35.4553L36.5889 33.9134L35.0889 36.2382ZM30.7402 34.2353L36.9778 32.5909L31.6957 24.2912H30.7402V34.2353ZM27.209 35.1663V26.9081L21.0983 36.7772L27.209 35.1663ZM29.1545 21.525H27.209V24.6672L20.0285 36.2641L14.7708 17.1166L29.3214 21.2554L29.1545 21.525ZM48.3695 38.3271L33.3776 43.5559L56.8229 47.0226L54.5845 39.2879C54.112 39.3442 53.6276 39.3723 53.1311 39.3723C51.6955 39.3723 50.3935 39.1506 49.2254 38.7073C48.9293 38.5918 48.6441 38.4651 48.3695 38.3271ZM53.8018 36.5836C53.6325 36.6003 53.4569 36.6111 53.275 36.6162L53.7621 36.4463L53.8018 36.5836ZM56.0069 35.3638L55.4791 35.2851L56.0069 34.8091V35.3638ZM50.7574 36.2448C50.7237 36.2326 50.69 36.22 50.6566 36.2071C50.1836 36.019 49.7557 35.7763 49.3729 35.4791L51.7893 35.885L50.7574 36.2448ZM48.1563 34.0785L53.0886 34.907L48.5468 26.1396C48.1558 26.623 47.847 27.1949 47.6203 27.8553C47.3707 28.6001 47.2458 29.4291 47.2458 30.3423C47.2458 31.3352 47.3841 32.2218 47.6605 33.0021C47.7981 33.3906 47.9634 33.7494 48.1563 34.0785ZM39.0015 1.4099C42.5791 2.42506 45.9147 4.03675 48.8779 6.14424L30.1752 0.179199C33.1343 0.180913 36.1055 0.588158 39.0015 1.4099ZM12.9019 16.392L3.5172 24.8746L5.79229 12.6597L12.9019 16.392ZM14.0773 19.0464L12.0315 31.8559L18.8326 36.364L14.0773 19.0464ZM18.4159 37.5031L11.8849 33.174L11.2961 39.4867L18.4159 37.5031ZM32.039 20.4023L46.5025 21.2329L49.6744 8.73131L32.039 20.4023ZM49.3483 7.5325L28.9192 1.01682L30.7268 19.8561L49.3483 7.5325ZM29.5649 20.0982L27.7886 1.58435L14.9906 15.9527L29.5649 20.0982ZM54.4414 47.863L31.6814 44.4976L33.4906 52.6209L54.4414 47.863ZM32.3008 52.7054L30.5329 44.7674L19.7074 52.1709L32.3008 52.7054ZM18.638 51.4731L29.792 43.845L20.2924 38.656L18.638 51.4731ZM33.0177 54.1237L24.9362 60.9993L39.3919 60.3024L33.0177 54.1237Z" fill="#31423D"/>
</g>
<defs>
<clipPath id="clip0_9760_9970">
<rect width="120.326" height="63.7021" fill="white"/>
</clipPath>
</defs>
</svg>
