<svg width="124" height="28" viewBox="0 0 124 28" fill="none" xmlns="http://www.w3.org/2000/svg">
<path d="M22.1168 2.5917C19.8273 0.959864 17.0257 0 14 0C10.9743 0 8.17272 0.959864 5.88325 2.5917C5.93403 2.60973 5.98574 2.62765 6.03838 2.64546C7.86145 3.26215 10.577 3.66667 14 3.66667C17.423 3.66667 20.1386 3.26215 21.9616 2.64546C22.0143 2.62765 22.066 2.60973 22.1168 2.5917Z" fill="#31423D"/>
<path d="M15.1752 19.1367H15.9593C16.6529 19.1367 17.2172 19.0625 17.6589 18.9211L17.6602 18.9207C18.1119 18.779 18.4569 18.5709 18.7074 18.3037L18.71 18.301C18.9731 18.0294 19.1627 17.6918 19.2761 17.2819L19.277 17.2788C19.4015 16.8516 19.466 16.3457 19.466 15.7575C19.466 15.0875 19.3691 14.5676 19.1904 14.1845L19.1877 14.1789C19.0143 13.78 18.7719 13.4816 18.4636 13.2733L18.4601 13.2709C18.1431 13.0482 17.7564 12.8941 17.2936 12.814L17.2893 12.8133C16.8152 12.7221 16.2872 12.6758 15.7043 12.6758H15.1752V19.1367Z" fill="#31423D"/>
<path fill-rule="evenodd" clip-rule="evenodd" d="M23.0369 3.30688C21.0828 4.13641 17.9638 4.66667 14 4.66667C10.0362 4.66667 6.91724 4.13641 4.9631 3.30688C1.92743 5.87496 0 9.71239 0 14C0 18.2876 1.92743 22.125 4.9631 24.6931C6.91724 23.8636 10.0362 23.3333 14 23.3333C17.9638 23.3333 21.0828 23.8636 23.0369 24.6931C26.0726 22.125 28 18.2876 28 14C28 9.71239 26.0726 5.87496 23.0369 3.30688ZM21.039 17.4454C20.8591 18.0042 20.574 18.5041 20.1848 18.9433L20.183 18.9453C19.7892 19.3795 19.2836 19.7279 18.6728 19.9939L18.6711 19.9946C18.0593 20.2554 17.3373 20.3815 16.5117 20.3815L13.6092 20.3798L13.6084 13.4853C13.6037 13.3058 13.5782 13.1736 13.5408 13.0803C13.4948 12.9651 13.4377 12.8837 13.3746 12.8269L13.3701 12.8228L13.3657 12.8185C13.3097 12.7624 13.2476 12.7275 13.1765 12.7097C13.081 12.6859 12.9867 12.6742 12.893 12.6742L9.61884 12.6742V17.2631L7.96322 17.4602V9.39585C7.96322 9.19424 7.9362 9.06265 7.89967 8.98351L7.89698 8.97769C7.85373 8.87676 7.80591 8.82706 7.76465 8.80231L7.75259 8.79507L7.7415 8.78644C7.69421 8.74966 7.63862 8.72729 7.56767 8.72137L7.55815 8.72058L7.54872 8.719C7.44888 8.70237 7.34369 8.69384 7.23288 8.69384H7V7.81239L8.81035 7.62014C8.89612 7.61156 8.96929 7.60609 9.02618 7.60502C9.09185 7.59477 9.19926 7.58102 9.34458 7.56392L9.60468 7.53333V11.4294H13.5017V7.72977L15.1715 7.53333V10.1307C15.1715 10.7636 14.8878 11.4309 14.8878 11.4309H16.5684C17.2243 11.4309 17.8402 11.5289 18.4143 11.7268C18.9975 11.9245 19.5061 12.2128 19.9369 12.5932C20.369 12.9653 20.7049 13.4222 20.9446 13.9607C21.1966 14.4959 21.3199 15.0963 21.3199 15.7575C21.3199 16.3306 21.2261 16.8935 21.039 17.4454Z" fill="#31423D"/>
<path d="M14 28C17.0257 28 19.8273 27.0401 22.1168 25.4083C22.066 25.3903 22.0143 25.3724 21.9616 25.3545C20.1386 24.7379 17.423 24.3333 14 24.3333C10.577 24.3333 7.86145 24.7379 6.03838 25.3545C5.98574 25.3724 5.93403 25.3903 5.88325 25.4083C8.17272 27.0401 10.9743 28 14 28Z" fill="#31423D"/>
<path fill-rule="evenodd" clip-rule="evenodd" d="M44.6261 13.3795V8.44906L46.4444 8.23514V19.7145L44.6449 19.9288V14.6339H39.0774V19.7145L37.2779 19.9288V10.4829C37.2779 10.2022 37.241 9.99485 37.1753 9.85266L37.1741 9.8499C37.1053 9.68932 37.0182 9.58524 36.9181 9.5252L36.9066 9.51831C36.8117 9.44452 36.7013 9.40106 36.5711 9.39021L36.562 9.38945C36.4181 9.36546 36.2676 9.353 36.1104 9.353H36V8.56069L38.2224 8.32468C38.3429 8.31263 38.4388 8.30588 38.5067 8.30531C38.5869 8.29233 38.7304 8.27375 38.9353 8.24965L39.0586 8.23514V13.3795H44.6261ZM52.1744 8.13763C52.2914 8.11188 52.4991 8.07423 52.7952 8.02488L52.8846 8.00998L57.3081 19.7102L55.4277 19.9238L53.9021 15.8555H50.3146L48.8348 19.7141L47.4388 19.9658L50.9798 10.1469C51.0504 9.92225 51.0415 9.77044 50.9875 9.67133L50.9836 9.66427C50.9326 9.55203 50.8459 9.46291 50.7155 9.39772L50.712 9.39596C50.5883 9.32846 50.4389 9.2817 50.2617 9.25806C50.0774 9.23349 49.9133 9.22145 49.7689 9.22145H49.6585V8.43004L49.7562 8.41876C50.4078 8.34358 50.879 8.29331 51.1688 8.2681C51.469 8.24308 51.6842 8.21833 51.8164 8.19429C51.9532 8.16942 52.0726 8.15048 52.1744 8.13763ZM61.4513 19.5491C60.7253 19.2434 60.0874 18.829 59.5386 18.3057L59.5377 18.3048C59.0014 17.7813 58.5738 17.1685 58.2551 16.4673L58.2541 16.4651C57.9472 15.7489 57.7942 14.976 57.7942 14.1476C57.7942 13.2826 57.9469 12.485 58.2537 11.7562C58.5596 11.0169 58.9809 10.3781 59.5179 9.84108L59.5188 9.84016C60.0681 9.30368 60.7128 8.8826 61.4519 8.57677C62.193 8.27009 62.9968 8.11734 63.8621 8.11734C64.6343 8.11734 65.3158 8.20591 65.9048 8.38514C66.5009 8.56273 67.1024 8.80979 67.7093 9.12587L67.7913 9.16855L67.7637 9.25673C67.7011 9.45707 67.6448 9.63858 67.5947 9.80127L67.594 9.80373C67.5443 9.95243 67.4884 10.1328 67.426 10.345L67.386 10.481L67.2639 10.4089C66.7187 10.0867 66.181 9.83967 65.6508 9.66706L65.6486 9.66635C65.1235 9.48317 64.5285 9.39059 63.8621 9.39059C63.3126 9.39059 62.7948 9.4943 62.3078 9.70128L62.3066 9.70182C61.8332 9.89602 61.4139 10.1874 61.0485 10.5773L61.0473 10.5785C60.6838 10.9541 60.397 11.4287 60.1885 12.0052C59.9809 12.5667 59.8755 13.2242 59.8755 13.9785C59.8755 14.8332 59.9933 15.5647 60.2254 16.1756C60.459 16.7779 60.7586 17.2719 61.1224 17.6603C61.4998 18.0374 61.9246 18.3162 62.3971 18.4982C62.8741 18.6692 63.3497 18.7543 63.8245 18.7543C64.4375 18.7543 65.0642 18.644 65.7053 18.4221C66.3438 18.2011 66.9595 17.8567 67.5522 17.3875L67.6622 17.3004L67.721 17.4278C67.7983 17.5953 67.8569 17.7636 67.8963 17.9327C67.9457 18.0808 68.0012 18.2413 68.063 18.4142L68.0889 18.4866L68.0298 18.536C67.332 19.1196 66.6356 19.5108 65.9403 19.704C65.2661 19.8948 64.5607 19.99 63.8245 19.99C62.9845 19.99 62.1938 19.8436 61.4534 19.55L61.4513 19.5491ZM73.0378 13.6256L78.357 19.7075L76.1483 19.9005L71.5695 14.5949V19.7145L69.7701 19.9288V10.4829C69.7701 10.2022 69.7331 9.99485 69.6675 9.85266L69.6633 9.84367C69.6069 9.68559 69.5269 9.58396 69.429 9.5252L69.4175 9.51831C69.3227 9.44452 69.2122 9.40106 69.082 9.39021L69.0729 9.38945C68.929 9.36546 68.7785 9.353 68.6213 9.353H68.5109V8.56018L70.4708 8.36221C70.5957 8.34972 70.7144 8.33722 70.8267 8.32474C70.9383 8.31234 71.1378 8.28741 71.426 8.24982L71.5507 8.23356V13.2059L76.3695 8.42356L78.3745 8.17294L73.0378 13.6256ZM85.204 19.8209V10.5017C85.204 10.2089 85.1673 9.97998 85.0992 9.80981C85.029 9.63446 84.9376 9.49923 84.8271 9.39983L84.8228 9.39594C84.7238 9.2969 84.6099 9.23195 84.4796 9.19936C84.3377 9.16389 84.1964 9.14627 84.0553 9.14627H83.9449V8.34286H89.0543C89.9047 8.34286 90.6999 8.46978 91.439 8.72459C92.1906 8.97939 92.8425 9.34959 93.393 9.83596C93.944 10.3103 94.373 10.8932 94.6799 11.5833C95.0007 12.2638 95.1598 13.0316 95.1598 13.8845C95.1598 14.6232 95.0388 15.3491 94.7971 16.0616C94.5669 16.7774 94.2023 17.417 93.7037 17.9795L93.7029 17.9805C93.2021 18.5326 92.5558 18.9796 91.7671 19.3231C90.9858 19.656 90.055 19.8209 88.9791 19.8209H85.204ZM90.5623 18.2708C91.1871 18.0748 91.6768 17.7829 92.0371 17.3985L92.0383 17.3972C92.4127 17.0108 92.6797 16.5327 92.8381 15.9599L92.8385 15.9585C93.0103 15.3695 93.0972 14.6787 93.0972 13.8845C93.0972 12.9791 92.9668 12.2576 92.7129 11.7136L92.7117 11.711C92.4684 11.1514 92.124 10.7241 91.68 10.4241L91.6783 10.423C91.2301 10.108 90.6884 9.89407 90.0503 9.78363L90.0483 9.78328C89.4048 9.65951 88.6915 9.59731 87.9079 9.59731H86.9847V18.5664H88.2462C89.1789 18.5664 89.9503 18.4666 90.5623 18.2708ZM100.229 8.13763C100.346 8.11188 100.554 8.07423 100.85 8.02488L100.94 8.00998L105.363 19.7102L103.483 19.9238L101.957 15.8555H98.3696L96.8899 19.7141L95.4939 19.9658L99.0348 10.1469C99.1054 9.92227 99.0966 9.77044 99.0425 9.67133L99.0386 9.66427C98.9876 9.55204 98.9009 9.46291 98.7705 9.39772L98.767 9.39596C98.6433 9.32846 98.4939 9.2817 98.3167 9.25806C98.1324 9.23349 97.9683 9.22145 97.8239 9.22145H97.7135V8.43004L97.8112 8.41876C98.4628 8.34358 98.934 8.29331 99.2238 8.2681C99.524 8.24308 99.7392 8.21833 99.8714 8.19429C100.008 8.16942 100.128 8.15048 100.229 8.13763ZM111.84 19.7145L110.04 19.9288V13.7342L107.601 10.5691C107.326 10.2067 107.11 9.94786 106.953 9.7905L106.947 9.78449C106.801 9.61393 106.674 9.50725 106.568 9.4541L106.558 9.449C106.442 9.37552 106.289 9.33421 106.091 9.33421H106.084C105.881 9.32152 105.696 9.3022 105.529 9.27654L105.436 9.26214V8.50032L105.539 8.49345C105.913 8.46848 106.22 8.4497 106.458 8.43713C106.694 8.41232 106.9 8.3936 107.075 8.38101C107.249 8.35627 107.405 8.33754 107.543 8.3249C107.694 8.29983 107.863 8.27482 108.05 8.24986L108.114 8.24129L111.22 12.4013L114.092 8.42477L115.914 8.19986L111.84 13.8263V19.7145ZM118.77 19.8176C118.465 19.7413 118.16 19.6461 117.856 19.5319L117.85 19.5299C117.555 19.4013 117.29 19.2463 117.056 19.0647L117.001 19.0214L117.016 18.9527C117.055 18.7877 117.099 18.6287 117.15 18.4757C117.187 18.3382 117.225 18.2067 117.263 18.0813L117.264 18.0752C117.314 17.9396 117.35 17.8245 117.374 17.7292L117.417 17.5585L117.552 17.6711C117.771 17.8542 118.003 18.0127 118.247 18.1468C118.492 18.2692 118.736 18.3731 118.98 18.4588C119.239 18.5327 119.479 18.5942 119.7 18.6435C119.933 18.68 120.139 18.698 120.319 18.698C120.913 18.698 121.395 18.5469 121.772 18.2521C122.148 17.9467 122.332 17.5646 122.332 17.0982C122.332 16.8761 122.285 16.6813 122.195 16.5112L122.191 16.5036C122.109 16.3164 121.992 16.1459 121.838 15.9923L121.835 15.9892C121.691 15.8328 121.528 15.6944 121.348 15.5738C121.161 15.4495 120.975 15.3314 120.788 15.2196C120.414 14.9952 120.015 14.7706 119.591 14.5459L119.588 14.5447C119.158 14.3039 118.758 14.0376 118.39 13.7455L118.386 13.7429C118.028 13.4353 117.726 13.0887 117.482 12.7033C117.231 12.3067 117.108 11.8343 117.108 11.2911C117.108 10.8397 117.185 10.4184 117.341 10.0285L117.342 10.0256C117.51 9.63763 117.737 9.30013 118.023 9.01417L118.025 9.01246C118.324 8.72595 118.682 8.50539 119.095 8.35021C119.523 8.182 119.987 8.09855 120.488 8.09855C120.728 8.09855 120.945 8.11109 121.138 8.13659C121.342 8.14963 121.535 8.18166 121.717 8.23311C121.907 8.27138 122.091 8.32222 122.27 8.38568C122.447 8.43637 122.642 8.49941 122.855 8.57467L122.948 8.60751L122.926 8.70362C122.888 8.86914 122.843 9.02289 122.792 9.16465L122.681 9.53251C122.656 9.65726 122.63 9.75738 122.601 9.8286L122.559 9.9342L122.455 9.88885C122.173 9.7661 121.865 9.6614 121.532 9.57499L121.528 9.57403C121.199 9.47657 120.877 9.42817 120.563 9.42817C120.03 9.42817 119.597 9.55525 119.256 9.80185C118.938 10.0293 118.775 10.3577 118.775 10.8024C118.775 11.0533 118.817 11.2695 118.898 11.4535C118.98 11.6426 119.093 11.8139 119.235 11.9679C119.38 12.1253 119.544 12.271 119.726 12.4048C119.911 12.54 120.101 12.6629 120.298 12.7735C120.71 13.0107 121.129 13.2423 121.554 13.4671C121.999 13.6958 122.4 13.9568 122.757 14.2503C123.118 14.5471 123.415 14.902 123.647 15.3144C123.885 15.7236 124 16.2262 124 16.8163C124 17.2941 123.91 17.73 123.727 18.1221C123.545 18.5109 123.298 18.8485 122.987 19.1341L122.985 19.1358C122.673 19.4092 122.297 19.6226 121.859 19.777L121.857 19.7776C121.431 19.9196 120.968 19.99 120.469 19.99C120.24 19.99 119.98 19.9773 119.689 19.952C119.397 19.9266 119.092 19.8821 118.775 19.8187L118.77 19.8176ZM53.4612 14.5634L52.0474 10.8607L50.7514 14.5634H53.4612ZM98.8064 14.5634H101.516L100.102 10.8607L98.8064 14.5634Z" fill="#31423D"/>
</svg>
