<svg width="28" height="28" viewBox="0 0 28 28" fill="none" xmlns="http://www.w3.org/2000/svg">
<path d="M22.1168 2.5917C19.8273 0.959864 17.0257 0 14 0C10.9743 0 8.17272 0.959864 5.88325 2.5917C5.93403 2.60973 5.98574 2.62765 6.03838 2.64546C7.86145 3.26215 10.577 3.66667 14 3.66667C17.423 3.66667 20.1386 3.26215 21.9616 2.64546C22.0143 2.62765 22.066 2.60973 22.1168 2.5917Z" fill="#31423D"/>
<path d="M15.1752 19.1367H15.9593C16.6529 19.1367 17.2172 19.0625 17.6589 18.9211L17.6602 18.9207C18.1119 18.779 18.4569 18.5709 18.7074 18.3037L18.71 18.301C18.9731 18.0294 19.1627 17.6918 19.2761 17.2819L19.277 17.2788C19.4015 16.8516 19.466 16.3457 19.466 15.7575C19.466 15.0875 19.3691 14.5676 19.1904 14.1845L19.1877 14.1789C19.0143 13.78 18.7719 13.4816 18.4636 13.2733L18.4601 13.2709C18.1431 13.0482 17.7564 12.8941 17.2936 12.814L17.2893 12.8133C16.8152 12.7221 16.2872 12.6758 15.7043 12.6758H15.1752V19.1367Z" fill="#31423D"/>
<path fill-rule="evenodd" clip-rule="evenodd" d="M23.0369 3.30688C21.0828 4.13641 17.9638 4.66667 14 4.66667C10.0362 4.66667 6.91724 4.13641 4.9631 3.30688C1.92743 5.87496 0 9.71239 0 14C0 18.2876 1.92743 22.125 4.9631 24.6931C6.91724 23.8636 10.0362 23.3333 14 23.3333C17.9638 23.3333 21.0828 23.8636 23.0369 24.6931C26.0726 22.125 28 18.2876 28 14C28 9.71239 26.0726 5.87496 23.0369 3.30688ZM21.039 17.4454C20.8591 18.0042 20.574 18.5041 20.1848 18.9433L20.183 18.9453C19.7892 19.3795 19.2836 19.7279 18.6728 19.9939L18.6711 19.9946C18.0593 20.2554 17.3373 20.3815 16.5117 20.3815L13.6092 20.3798L13.6084 13.4853C13.6037 13.3058 13.5782 13.1736 13.5408 13.0803C13.4948 12.9651 13.4377 12.8837 13.3746 12.8269L13.3701 12.8228L13.3657 12.8185C13.3097 12.7624 13.2476 12.7275 13.1765 12.7097C13.081 12.6859 12.9867 12.6742 12.893 12.6742L9.61884 12.6742V17.2631L7.96322 17.4602V9.39585C7.96322 9.19424 7.9362 9.06265 7.89967 8.98351L7.89698 8.97769C7.85373 8.87676 7.80591 8.82706 7.76465 8.80231L7.75259 8.79507L7.7415 8.78644C7.69421 8.74966 7.63862 8.72729 7.56767 8.72137L7.55815 8.72058L7.54872 8.719C7.44888 8.70237 7.34369 8.69384 7.23288 8.69384H7V7.81239L8.81035 7.62014C8.89612 7.61156 8.96929 7.60609 9.02618 7.60502C9.09185 7.59477 9.19926 7.58102 9.34458 7.56392L9.60468 7.53333V11.4294H13.5017V7.72977L15.1715 7.53333V10.1307C15.1715 10.7636 14.8878 11.4309 14.8878 11.4309H16.5684C17.2243 11.4309 17.8402 11.5289 18.4143 11.7268C18.9975 11.9245 19.5061 12.2128 19.9369 12.5932C20.369 12.9653 20.7049 13.4222 20.9446 13.9607C21.1966 14.4959 21.3199 15.0963 21.3199 15.7575C21.3199 16.3306 21.2261 16.8935 21.039 17.4454Z" fill="#31423D"/>
<path d="M14 28C17.0257 28 19.8273 27.0401 22.1168 25.4083C22.066 25.3903 22.0143 25.3724 21.9616 25.3545C20.1386 24.7379 17.423 24.3333 14 24.3333C10.577 24.3333 7.86145 24.7379 6.03838 25.3545C5.98574 25.3724 5.93403 25.3903 5.88325 25.4083C8.17272 27.0401 10.9743 28 14 28Z" fill="#31423D"/>
</svg>
