<svg width="802" height="304" viewBox="0 0 802 304" fill="none" xmlns="http://www.w3.org/2000/svg">
<g opacity="0.15" filter="url(#filter0_f_9760_4551)">
<path fill-rule="evenodd" clip-rule="evenodd" d="M53.7253 146.148L8 151.535L53.7253 156.922V174.356L81.985 160.252L127.71 165.639L99.4505 151.535L127.71 137.431L81.985 142.818L53.7253 128.714V146.148ZM719.602 146.148L673.877 151.535L719.602 156.922V174.356L747.862 160.252L793.587 165.639L765.327 151.535L793.587 137.431L747.862 142.818L719.602 128.714V146.148ZM340.941 30.8212L386.666 25.4339V8.00005L414.926 22.1043L460.651 16.7169L432.392 30.8212L460.651 44.9254L414.926 39.5381L386.666 53.6424V36.2086L340.941 30.8212ZM386.666 267.535L340.941 272.922L386.666 278.309V295.743L414.926 281.639L460.651 287.026L432.392 272.922L460.651 258.818L414.926 264.205L386.666 250.101V267.535ZM172.597 257.336L218.323 251.949V234.515L246.582 248.619L292.308 243.232L264.048 257.336L292.308 271.44L246.582 266.053L218.323 280.157V262.723L172.597 257.336ZM218.323 41.0083L172.597 46.3957L218.323 51.783V69.2168L246.582 55.1126L292.308 60.4999L264.048 46.3956L292.308 32.2914L246.582 37.6787L218.323 23.5745V41.0083ZM51.0292 91.171L96.7544 85.7836V68.3498L125.014 82.454L170.739 77.0667L142.48 91.1709L170.739 105.275L125.014 99.8878L96.7544 113.992V96.5583L51.0292 91.171ZM96.7544 206.511L51.0292 211.899L96.7544 217.286V234.72L125.014 220.615L170.739 226.003L142.48 211.899L170.739 197.794L125.014 203.182L96.7544 189.077V206.511ZM630.857 211.897L676.583 206.51V189.076L704.842 203.18L750.568 197.793L722.308 211.897L750.568 226.001L704.842 220.614L676.583 234.718V217.284L630.857 211.897ZM676.583 85.7841L630.857 91.1714L676.583 96.5588V113.993L704.842 99.8883L750.568 105.276L722.308 91.1714L750.568 77.0672L704.842 82.4545L676.583 68.3503V85.7841ZM509.293 46.3961L555.018 41.0087V23.5749L583.278 37.6791L629.003 32.2918L600.743 46.396L629.003 60.5003L583.278 55.1129L555.018 69.2172V51.7834L509.293 46.3961ZM555.018 251.949L509.293 257.336L555.018 262.724V280.157L583.278 266.053L629.003 271.44L600.743 257.336L629.003 243.232L583.278 248.619L555.018 234.515V251.949Z" fill="black" fill-opacity="0.71"/>
<path fill-rule="evenodd" clip-rule="evenodd" d="M53.7253 146.148L8 151.535L53.7253 156.922V174.356L81.985 160.252L127.71 165.639L99.4505 151.535L127.71 137.431L81.985 142.818L53.7253 128.714V146.148ZM719.602 146.148L673.877 151.535L719.602 156.922V174.356L747.862 160.252L793.587 165.639L765.327 151.535L793.587 137.431L747.862 142.818L719.602 128.714V146.148ZM340.941 30.8212L386.666 25.4339V8.00005L414.926 22.1043L460.651 16.7169L432.392 30.8212L460.651 44.9254L414.926 39.5381L386.666 53.6424V36.2086L340.941 30.8212ZM386.666 267.535L340.941 272.922L386.666 278.309V295.743L414.926 281.639L460.651 287.026L432.392 272.922L460.651 258.818L414.926 264.205L386.666 250.101V267.535ZM172.597 257.336L218.323 251.949V234.515L246.582 248.619L292.308 243.232L264.048 257.336L292.308 271.44L246.582 266.053L218.323 280.157V262.723L172.597 257.336ZM218.323 41.0083L172.597 46.3957L218.323 51.783V69.2168L246.582 55.1126L292.308 60.4999L264.048 46.3956L292.308 32.2914L246.582 37.6787L218.323 23.5745V41.0083ZM51.0292 91.171L96.7544 85.7836V68.3498L125.014 82.454L170.739 77.0667L142.48 91.1709L170.739 105.275L125.014 99.8878L96.7544 113.992V96.5583L51.0292 91.171ZM96.7544 206.511L51.0292 211.899L96.7544 217.286V234.72L125.014 220.615L170.739 226.003L142.48 211.899L170.739 197.794L125.014 203.182L96.7544 189.077V206.511ZM630.857 211.897L676.583 206.51V189.076L704.842 203.18L750.568 197.793L722.308 211.897L750.568 226.001L704.842 220.614L676.583 234.718V217.284L630.857 211.897ZM676.583 85.7841L630.857 91.1714L676.583 96.5588V113.993L704.842 99.8883L750.568 105.276L722.308 91.1714L750.568 77.0672L704.842 82.4545L676.583 68.3503V85.7841ZM509.293 46.3961L555.018 41.0087V23.5749L583.278 37.6791L629.003 32.2918L600.743 46.396L629.003 60.5003L583.278 55.1129L555.018 69.2172V51.7834L509.293 46.3961ZM555.018 251.949L509.293 257.336L555.018 262.724V280.157L583.278 266.053L629.003 271.44L600.743 257.336L629.003 243.232L583.278 248.619L555.018 234.515V251.949Z" fill="url(#paint0_linear_9760_4551)" fill-opacity="0.8"/>
</g>
<defs>
<filter id="filter0_f_9760_4551" x="0" y="0" width="801.587" height="303.743" filterUnits="userSpaceOnUse" color-interpolation-filters="sRGB">
<feFlood flood-opacity="0" result="BackgroundImageFix"/>
<feBlend mode="normal" in="SourceGraphic" in2="BackgroundImageFix" result="shape"/>
<feGaussianBlur stdDeviation="4" result="effect1_foregroundBlur_9760_4551"/>
</filter>
<linearGradient id="paint0_linear_9760_4551" x1="633.768" y1="-135.257" x2="73.7678" y2="416.243" gradientUnits="userSpaceOnUse">
<stop stop-color="#F8F6F2" stop-opacity="0"/>
<stop offset="1" stop-color="#F8F6F2"/>
</linearGradient>
</defs>
</svg>
