<svg width="932" height="79" viewBox="0 0 932 79" fill="none" xmlns="http://www.w3.org/2000/svg">
<path d="M20.2033 40L20.2033 12.2155L25.7602 12.2155L25.7602 40L20.2033 40ZM2.69907 40L2.69906 12.2155L8.25596 12.2155L8.25596 40L2.69907 40ZM7.5415 28.0527L7.5415 23.5675L21.1162 23.5675L21.1162 28.0527L7.5415 28.0527ZM35.2782 40L45.3997 12.2155L51.7108 12.2155L61.8323 40L55.9578 40L48.5354 18.5266L41.0733 40L35.2782 40ZM39.7238 33.7683L41.1924 29.4419L55.4815 29.4419L56.9104 33.7683L39.7238 33.7683ZM82.3075 40.4763C79.5291 40.4763 77.1343 39.8809 75.1232 38.6902C73.1122 37.4729 71.5642 35.7926 70.4793 33.6493C69.3943 31.4794 68.8519 28.9788 68.8519 26.1474C68.8519 23.3161 69.3943 20.8155 70.4793 18.6456C71.5642 16.4758 73.1122 14.7823 75.1232 13.565C77.1343 12.3478 79.5291 11.7392 82.3075 11.7392C85.6681 11.7392 88.4333 12.586 90.6032 14.2795C92.773 15.973 94.1225 18.3546 94.6518 21.4241L88.5392 21.4241C88.2216 19.9422 87.5204 18.8044 86.4355 18.0106C85.377 17.1903 83.9746 16.7801 82.2281 16.7801C80.614 16.7801 79.2248 17.1638 78.0605 17.9312C76.9226 18.6721 76.0494 19.7438 75.4408 21.1462C74.8322 22.5487 74.5279 24.2158 74.5279 26.1474C74.5279 28.0791 74.8322 29.7462 75.4408 31.1487C76.0494 32.5246 76.9226 33.5963 78.0605 34.3637C79.2248 35.1046 80.614 35.4751 82.2281 35.4751C83.9746 35.4751 85.377 35.1046 86.4355 34.3637C87.494 33.5963 88.1952 32.5379 88.5392 31.1883L94.6518 31.1883C94.1225 34.0726 92.773 36.3483 90.6032 38.0154C88.4333 39.656 85.6681 40.4763 82.3075 40.4763ZM105.1 40L105.1 12.2155L110.657 12.2155L110.657 23.0515L120.58 12.2155L127.407 12.2155L117.206 23.2102L127.725 40L120.937 40L113.237 27.497L110.657 30.2754L110.657 40L105.1 40ZM135.431 40L145.553 12.2155L151.864 12.2155L161.985 40L156.111 40L148.688 18.5266L141.226 40L135.431 40ZM139.877 33.7683L141.345 29.4419L155.634 29.4419L157.063 33.7683L139.877 33.7683ZM175.07 40L175.07 16.7007L166.972 16.7007L166.972 12.2155L188.684 12.2155L188.684 16.7007L180.587 16.7007L180.587 40L175.07 40ZM215.896 40L215.896 12.2155L221.453 12.2155L221.453 40L215.896 40ZM198.392 40L198.392 12.2155L203.949 12.2155L203.949 40L198.392 40ZM203.235 28.0527L203.235 23.5675L216.809 23.5675L216.809 28.0527L203.235 28.0527ZM245.657 40.4763C242.958 40.4763 240.577 39.8677 238.513 38.6505C236.449 37.4332 234.821 35.7529 233.631 33.6096C232.466 31.4397 231.884 28.9391 231.884 26.1078C231.884 23.2764 232.466 20.789 233.631 18.6456C234.821 16.4758 236.449 14.7823 238.513 13.565C240.577 12.3478 242.958 11.7392 245.657 11.7392C248.383 11.7392 250.778 12.3478 252.842 13.565C254.932 14.7823 256.546 16.4758 257.684 18.6456C258.848 20.789 259.431 23.2764 259.431 26.1078C259.431 28.9391 258.848 31.4397 257.684 33.6096C256.546 35.7529 254.932 37.4332 252.842 38.6505C250.778 39.8677 248.383 40.4763 245.657 40.4763ZM245.657 35.4751C247.324 35.4751 248.767 35.0914 249.984 34.324C251.201 33.5566 252.14 32.485 252.802 31.109C253.463 29.7065 253.794 28.0394 253.794 26.1078C253.794 24.1761 253.463 22.5222 252.802 21.1462C252.14 19.7438 251.201 18.6589 249.984 17.8915C248.767 17.1241 247.324 16.7404 245.657 16.7404C244.017 16.7404 242.588 17.1241 241.371 17.8915C240.18 18.6589 239.24 19.7438 238.552 21.1462C237.891 22.5222 237.56 24.1761 237.56 26.1078C237.56 28.0394 237.891 29.7065 238.552 31.109C239.24 32.485 240.18 33.5566 241.371 34.324C242.588 35.0914 244.017 35.4751 245.657 35.4751ZM269.915 40L269.915 12.2155L275.472 12.2155L288.055 31.0693L288.055 12.2155L293.612 12.2155L293.612 40L288.055 40L275.472 21.1859L275.472 40L269.915 40Z" fill="#FCF3E7"/>
<path d="M327.573 40L337.774 12.2155L342.101 12.2155L352.301 40L348.054 40L339.918 16.9786L331.741 40L327.573 40ZM332.178 33.1333L333.289 29.9579L346.348 29.9579L347.459 33.1333L332.178 33.1333ZM362.214 40L362.214 12.2155L366.183 12.2155L366.183 40L362.214 40ZM415.003 40L399.92 24.7185C398.676 23.5013 397.789 22.3899 397.26 21.3844C396.757 20.3789 396.506 19.2939 396.506 18.1296C396.506 16.9124 396.797 15.8275 397.379 14.8749C397.988 13.8958 398.848 13.1284 399.959 12.5727C401.097 12.017 402.447 11.7392 404.008 11.7392C405.569 11.7392 406.892 12.0303 407.977 12.6124C409.089 13.1681 409.935 13.9355 410.517 14.9146C411.126 15.8936 411.417 17.005 411.391 18.2487L407.501 18.2487C407.501 17.1373 407.157 16.3038 406.469 15.7481C405.781 15.166 404.961 14.8749 404.008 14.8749C402.87 14.8749 401.97 15.1792 401.309 15.7878C400.674 16.37 400.356 17.1373 400.356 18.0899C400.356 18.8573 400.581 19.6379 401.031 20.4318C401.481 21.1992 402.156 22.0592 403.055 23.0118L419.885 40L415.003 40ZM402.381 40.4763C400.475 40.4763 398.795 40.1323 397.34 39.4443C395.884 38.7299 394.76 37.7375 393.966 36.4674C393.172 35.1708 392.775 33.6757 392.775 31.9822C392.775 30.6327 393.053 29.4022 393.609 28.2908C394.164 27.153 394.985 26.1607 396.069 25.3139C397.154 24.4407 398.491 23.7395 400.078 23.2102L401.587 22.6942L403.532 25.2345L401.904 25.7902C400.131 26.3988 398.821 27.2059 397.975 28.2114C397.128 29.217 396.705 30.4077 396.705 31.7837C396.705 32.7893 396.943 33.7022 397.419 34.5225C397.922 35.3428 398.61 35.9779 399.483 36.4277C400.356 36.8776 401.375 37.1025 402.539 37.1025C404.048 37.1025 405.397 36.7849 406.588 36.1499C407.779 35.4883 408.956 34.4166 410.121 32.9348C410.65 32.2468 411.192 31.4662 411.748 30.593C412.304 29.7197 412.886 28.7274 413.494 27.6161L414.606 25.5918L418.734 25.5918L417.067 28.6481C416.379 29.9976 415.677 31.228 414.963 32.3394C414.275 33.4243 413.574 34.3902 412.859 35.2369C411.351 37.0892 409.75 38.4255 408.057 39.2458C406.389 40.0662 404.497 40.4763 402.381 40.4763ZM445.8 40L445.8 12.2155L454.334 12.2155C457.562 12.2155 460.235 12.7844 462.352 13.9223C464.469 15.0601 466.03 16.6743 467.035 18.7647C468.067 20.8287 468.583 23.2896 468.583 26.1474C468.583 29.0053 468.067 31.4662 467.035 33.5302C466.03 35.5942 464.469 37.1951 462.352 38.3329C460.261 39.4443 457.589 40 454.334 40L445.8 40ZM449.769 36.6659L454.175 36.6659C456.742 36.6659 458.779 36.2425 460.288 35.3957C461.796 34.5489 462.868 33.345 463.503 31.7837C464.164 30.196 464.495 28.3173 464.495 26.1474C464.495 23.9511 464.164 22.0592 463.503 20.4715C462.868 18.8838 461.796 17.6666 460.288 16.8198C458.779 15.973 456.742 15.5496 454.175 15.5496L449.769 15.5496L449.769 36.6659ZM479.314 40L479.314 12.2155L483.283 12.2155L483.283 40L479.314 40ZM507.062 40.4763C504.442 40.4763 502.153 39.8809 500.195 38.6902C498.237 37.4994 496.716 35.8323 495.631 33.689C494.546 31.5456 494.003 29.045 494.003 26.1871C494.003 23.3558 494.546 20.8552 495.631 18.6853C496.742 16.5155 498.317 14.822 500.354 13.6047C502.418 12.361 504.852 11.7392 507.657 11.7392C510.806 11.7392 513.439 12.5066 515.556 14.0413C517.673 15.5496 519.036 17.6533 519.644 20.3524L515.12 20.3524C514.723 18.8176 513.889 17.6136 512.619 16.7404C511.349 15.8407 509.682 15.3909 507.618 15.3909C505.66 15.3909 503.953 15.8275 502.497 16.7007C501.069 17.5739 499.97 18.8176 499.203 20.4318C498.436 22.0459 498.052 23.9644 498.052 26.1871C498.052 28.4364 498.436 30.368 499.203 31.9822C499.97 33.5963 501.055 34.8268 502.458 35.6736C503.86 36.5203 505.474 36.9437 507.3 36.9437C510.105 36.9437 512.209 36.1366 513.611 34.5225C515.04 32.9083 515.874 30.7517 516.112 28.0527L508.451 28.0527L508.451 24.9964L520.121 24.9964L520.121 40L516.509 40L516.152 35.7529C515.516 36.7849 514.776 37.6582 513.929 38.3726C513.108 39.0606 512.143 39.5898 511.031 39.9603C509.92 40.3043 508.597 40.4763 507.062 40.4763ZM531.301 40L531.301 12.2155L535.27 12.2155L535.27 40L531.301 40ZM553.492 40L553.492 15.4703L545.276 15.4703L545.276 12.2155L565.718 12.2155L565.718 15.4703L557.462 15.4703L557.462 40L553.492 40ZM570.843 40L581.043 12.2155L585.37 12.2155L595.571 40L591.324 40L583.187 16.9786L575.01 40L570.843 40ZM575.447 33.1333L576.558 29.9579L589.617 29.9579L590.728 33.1333L575.447 33.1333ZM605.483 40L605.483 12.2155L609.453 12.2155L609.453 36.8643L622.154 36.8643L622.154 40L605.483 40ZM654.542 40L647 12.2155L651.247 12.2155L656.883 35.356L663.353 12.2155L667.759 12.2155L674.03 35.4354L679.746 12.2155L683.993 12.2155L676.333 40L671.689 40L665.457 17.8915L659.066 40L654.542 40ZM705.309 40.4763C702.636 40.4763 700.281 39.8809 698.244 38.6902C696.233 37.4729 694.645 35.7926 693.481 33.6493C692.343 31.4794 691.774 28.9656 691.774 26.1078C691.774 23.2764 692.343 20.789 693.481 18.6456C694.645 16.4758 696.233 14.7823 698.244 13.565C700.281 12.3478 702.636 11.7392 705.309 11.7392C708.034 11.7392 710.416 12.3478 712.454 13.565C714.491 14.7823 716.066 16.4758 717.177 18.6456C718.315 20.789 718.884 23.2764 718.884 26.1078C718.884 28.9656 718.315 31.4794 717.177 33.6493C716.066 35.7926 714.491 37.4729 712.454 38.6902C710.416 39.8809 708.034 40.4763 705.309 40.4763ZM705.349 36.9437C707.254 36.9437 708.921 36.5071 710.35 35.6339C711.779 34.7606 712.877 33.517 713.644 31.9028C714.438 30.2887 714.835 28.357 714.835 26.1078C714.835 23.8585 714.438 21.9268 713.644 20.3127C712.877 18.6986 711.779 17.4681 710.35 16.6213C708.921 15.7481 707.254 15.3115 705.349 15.3115C703.443 15.3115 701.776 15.7481 700.347 16.6213C698.919 17.4681 697.807 18.6986 697.013 20.3127C696.219 21.9268 695.823 23.8585 695.823 26.1078C695.823 28.357 696.219 30.2887 697.013 31.9028C697.807 33.517 698.919 34.7606 700.347 35.6339C701.776 36.5071 703.443 36.9437 705.349 36.9437ZM729.614 40L729.614 12.2155L739.021 12.2155C741.218 12.2155 743.017 12.586 744.419 13.3269C745.822 14.0678 746.854 15.0601 747.515 16.3038C748.203 17.521 748.547 18.9102 748.547 20.4715C748.547 21.9533 748.203 23.3293 747.515 24.5995C746.854 25.8431 745.809 26.8487 744.38 27.6161C742.951 28.357 741.125 28.7274 738.902 28.7274L733.583 28.7274L733.583 40L729.614 40ZM744.221 40L738.227 27.6557L742.594 27.6557L748.825 40L744.221 40ZM733.583 25.7108L738.743 25.7108C740.702 25.7108 742.144 25.2345 743.07 24.2819C743.996 23.3028 744.459 22.0592 744.459 20.5509C744.459 19.0161 744.009 17.7989 743.11 16.8992C742.21 15.9995 740.754 15.5496 738.743 15.5496L733.583 15.5496L733.583 25.7108ZM759.639 40L759.639 12.2155L763.608 12.2155L763.608 24.2819L774.722 12.2155L779.684 12.2155L769.364 23.2499L779.882 40L775.04 40L766.546 26.3459L763.608 29.4816L763.608 40L759.639 40ZM798.754 40.4763C796.716 40.4763 794.93 40.1191 793.395 39.4046C791.86 38.6637 790.67 37.6317 789.823 36.3086C788.976 34.9856 788.553 33.4376 788.553 31.6647L792.72 31.6647C792.747 32.6702 792.985 33.5963 793.435 34.4431C793.911 35.2634 794.586 35.9249 795.459 36.4277C796.359 36.904 797.457 37.1422 798.754 37.1422C799.865 37.1422 800.818 36.9569 801.611 36.5865C802.432 36.216 803.054 35.7132 803.477 35.0782C803.9 34.4166 804.112 33.6625 804.112 32.8157C804.112 31.8367 803.887 31.0296 803.437 30.3945C802.987 29.7594 802.379 29.2434 801.611 28.8465C800.87 28.4231 799.997 28.0527 798.992 27.7351C798.013 27.4176 796.981 27.0736 795.896 26.7031C793.699 25.9887 792.059 25.0625 790.974 23.9247C789.915 22.7868 789.386 21.305 789.386 19.4792C789.386 17.9179 789.757 16.5684 790.498 15.4306C791.238 14.2663 792.27 13.3666 793.594 12.7315C794.943 12.07 796.531 11.7392 798.357 11.7392C800.156 11.7392 801.73 12.07 803.08 12.7315C804.43 13.393 805.488 14.306 806.255 15.4703C807.023 16.6346 807.406 17.9973 807.406 19.5586L803.199 19.5586C803.199 18.8441 803.014 18.1429 802.643 17.4549C802.273 16.7669 801.717 16.2112 800.976 15.7878C800.235 15.338 799.322 15.113 798.238 15.113C797.338 15.0866 796.531 15.2321 795.816 15.5496C795.102 15.8672 794.546 16.3303 794.149 16.9389C793.752 17.5475 793.554 18.2752 793.554 19.1219C793.554 19.9687 793.726 20.6567 794.07 21.1859C794.44 21.6887 794.97 22.1253 795.658 22.4958C796.346 22.8662 797.139 23.2102 798.039 23.5278C798.965 23.8188 799.984 24.1496 801.095 24.5201C802.471 24.9699 803.689 25.5256 804.747 26.1871C805.832 26.8222 806.679 27.6557 807.287 28.6877C807.922 29.6933 808.24 30.9899 808.24 32.5776C808.24 33.9536 807.883 35.2369 807.168 36.4277C806.454 37.6185 805.395 38.5975 803.993 39.3649C802.59 40.1058 800.844 40.4763 798.754 40.4763ZM818.914 40L818.914 12.2155L828.4 12.2155C830.623 12.2155 832.449 12.586 833.878 13.3269C835.307 14.0678 836.365 15.0601 837.053 16.3038C837.741 17.5475 838.085 18.9632 838.085 20.5509C838.085 22.0592 837.741 23.4484 837.053 24.7185C836.391 25.9622 835.346 26.9677 833.917 27.7351C832.488 28.476 830.649 28.8465 828.4 28.8465L822.883 28.8465L822.883 40L818.914 40ZM822.883 25.5521L828.241 25.5521C830.332 25.5521 831.814 25.1022 832.687 24.2025C833.587 23.2764 834.036 22.0592 834.036 20.5509C834.036 18.9367 833.587 17.693 832.687 16.8198C831.814 15.9466 830.332 15.51 828.241 15.51L822.883 15.51L822.883 25.5521ZM843.238 40L853.438 12.2155L857.765 12.2155L867.966 40L863.719 40L855.582 16.9786L847.405 40L843.238 40ZM847.842 33.1333L848.953 29.9579L862.012 29.9579L863.123 33.1333L847.842 33.1333ZM888.475 40.4763C885.749 40.4763 883.394 39.8809 881.409 38.6902C879.451 37.4729 877.93 35.7926 876.845 33.6493C875.786 31.4794 875.257 28.9656 875.257 26.1078C875.257 23.2764 875.786 20.7758 876.845 18.6059C877.93 16.4361 879.451 14.7558 881.409 13.565C883.394 12.3478 885.749 11.7392 888.475 11.7392C891.729 11.7392 894.362 12.5198 896.373 14.081C898.411 15.6423 899.707 17.8386 900.263 20.6699L895.897 20.6699C895.5 19.0293 894.68 17.7195 893.436 16.7404C892.219 15.7613 890.565 15.2718 888.475 15.2718C886.596 15.2718 884.968 15.7084 883.592 16.5816C882.216 17.4549 881.158 18.6986 880.417 20.3127C879.676 21.9268 879.306 23.8585 879.306 26.1078C879.306 28.357 879.676 30.3019 880.417 31.9425C881.158 33.5566 882.216 34.8003 883.592 35.6736C884.968 36.5203 886.596 36.9437 888.475 36.9437C890.565 36.9437 892.219 36.4806 893.436 35.5545C894.68 34.6019 895.5 33.3185 895.897 31.7043L900.263 31.7043C899.707 34.4563 898.411 36.6129 896.373 38.1742C894.362 39.7089 891.729 40.4763 888.475 40.4763ZM910.965 40L910.965 12.2155L928.509 12.2155L928.509 15.4703L914.935 15.4703L914.935 24.3613L927.319 24.3613L927.319 27.5367L914.935 27.5367L914.935 36.7452L928.509 36.7452L928.509 40L910.965 40Z" fill="#FCF3E7"/>
<path d="M1.12885 73V71.6224C2.02173 70.9336 2.86997 70.2385 3.67356 69.5369C4.47715 68.8354 5.19145 68.1402 5.81646 67.4514C6.45423 66.7499 6.95169 66.0674 7.30885 65.4042C7.666 64.7281 7.84457 64.084 7.84457 63.4717C7.84457 63.038 7.76804 62.6362 7.61498 62.2663C7.46191 61.8964 7.21956 61.5967 6.88792 61.3671C6.55628 61.1247 6.10346 61.0035 5.52947 61.0035C4.98098 61.0035 4.52179 61.1247 4.15188 61.3671C3.79473 61.6094 3.52049 61.9347 3.32916 62.3429C3.15058 62.7383 3.0613 63.1783 3.0613 63.663H1.20539C1.21814 62.7447 1.41585 61.9666 1.79851 61.3288C2.18117 60.691 2.69777 60.2063 3.34829 59.8747C4.01157 59.5431 4.75139 59.3772 5.56773 59.3772C6.42234 59.3772 7.16216 59.5367 7.78717 59.8556C8.41219 60.1617 8.89689 60.6145 9.24129 61.214C9.58569 61.8008 9.75788 62.5214 9.75788 63.376C9.75788 63.9883 9.63671 64.6006 9.39435 65.2128C9.152 65.8123 8.82036 66.3991 8.39943 66.9731C7.99126 67.5471 7.53206 68.1019 7.02185 68.6377C6.51163 69.1606 5.98228 69.6581 5.4338 70.13C4.89807 70.602 4.38148 71.0293 3.88402 71.412H10.1788V73H1.12885ZM16.9739 75.3534L18.0645 70.9336H19.9969L18.2558 75.3534H16.9739ZM42.6698 73.2296C41.8152 73.2296 41.0307 73.0765 40.3164 72.7704C39.6149 72.4515 39.0537 71.9796 38.6327 71.3546C38.2246 70.7168 38.0077 69.9196 37.9822 68.9629H39.8955C39.9083 69.4476 40.0231 69.8877 40.2399 70.2831C40.4567 70.6785 40.7693 70.9974 41.1774 71.2398C41.5984 71.4694 42.0958 71.5842 42.6698 71.5842C43.2438 71.5842 43.7221 71.4757 44.1048 71.2589C44.5002 71.042 44.7936 70.7487 44.9849 70.3788C45.189 70.0089 45.291 69.5943 45.291 69.1351C45.291 68.5611 45.1507 68.0955 44.8701 67.7384C44.6023 67.3812 44.2323 67.1134 43.7604 66.9348C43.3012 66.7562 42.7846 66.6669 42.2106 66.6669H41.2157V65.0598H42.2106C43.0142 65.0598 43.652 64.8748 44.1239 64.5049C44.6086 64.135 44.851 63.612 44.851 62.936C44.851 62.3747 44.666 61.9156 44.2961 61.5584C43.9262 61.2013 43.3841 61.0227 42.6698 61.0227C41.9555 61.0227 41.3879 61.2268 40.967 61.6349C40.5588 62.0431 40.3292 62.5597 40.2782 63.1847H38.384C38.4223 62.4321 38.62 61.7689 38.9771 61.1949C39.347 60.6081 39.8445 60.1617 40.4695 59.8556C41.1073 59.5367 41.8407 59.3772 42.6698 59.3772C43.5627 59.3772 44.3089 59.5367 44.9084 59.8556C45.5206 60.1617 45.9798 60.5762 46.286 61.0992C46.6049 61.6222 46.7643 62.1962 46.7643 62.8212C46.7643 63.2931 46.675 63.7332 46.4964 64.1414C46.3179 64.5368 46.0627 64.8812 45.7311 65.1746C45.3995 65.4679 44.9977 65.6784 44.5257 65.806C45.0359 65.908 45.4951 66.1057 45.9033 66.3991C46.3115 66.6925 46.6304 67.0751 46.86 67.5471C47.0896 68.0063 47.2044 68.542 47.2044 69.1542C47.2044 69.8813 47.0322 70.5573 46.6878 71.1824C46.3434 71.7946 45.8331 72.2921 45.1571 72.6747C44.4938 73.0446 43.6647 73.2296 42.6698 73.2296ZM76.2601 73L68.9895 65.6338C68.39 65.047 67.9627 64.5113 67.7076 64.0266C67.4652 63.5419 67.344 63.0189 67.344 62.4577C67.344 61.8709 67.4843 61.3479 67.765 60.8887C68.0583 60.4168 68.4729 60.0469 69.0086 59.779C69.5571 59.5112 70.2076 59.3772 70.9602 59.3772C71.7128 59.3772 72.3505 59.5175 72.8735 59.7982C73.4092 60.066 73.8174 60.4359 74.098 60.9079C74.3914 61.3798 74.5317 61.9156 74.5189 62.5151H72.6439C72.6439 61.9793 72.4781 61.5775 72.1464 61.3097C71.8148 61.0291 71.4194 60.8887 70.9602 60.8887C70.4117 60.8887 69.978 61.0354 69.6591 61.3288C69.353 61.6094 69.1999 61.9793 69.1999 62.4385C69.1999 62.8084 69.3084 63.1847 69.5252 63.5674C69.742 63.9373 70.0673 64.3518 70.501 64.811L78.6134 73H76.2601ZM70.1757 73.2296C69.2573 73.2296 68.4474 73.0638 67.7458 72.7321C67.0443 72.3877 66.5022 71.9094 66.1195 71.2972C65.7369 70.6721 65.5455 69.9515 65.5455 69.1351C65.5455 68.4846 65.6795 67.8915 65.9473 67.3557C66.2152 66.8073 66.6106 66.3289 67.1336 65.9208C67.6565 65.4998 68.3007 65.1618 69.066 64.9067L69.7931 64.658L70.7306 65.8825L69.9461 66.1503C69.0915 66.4437 68.4601 66.8328 68.052 67.3175C67.6438 67.8022 67.4397 68.3762 67.4397 69.0394C67.4397 69.5242 67.5545 69.9642 67.7841 70.3596C68.0264 70.755 68.3581 71.0612 68.779 71.278C69.1999 71.4949 69.691 71.6033 70.2523 71.6033C70.9793 71.6033 71.6298 71.4502 72.2038 71.1441C72.7778 70.8252 73.3454 70.3086 73.9067 69.5943C74.1618 69.2627 74.4233 68.8864 74.6911 68.4655C74.959 68.0445 75.2396 67.5662 75.533 67.0305L76.0687 66.0547H78.0586L77.255 67.5279C76.9233 68.1785 76.5853 68.7716 76.2409 69.3073C75.9093 69.8303 75.5713 70.2959 75.2269 70.704C74.4998 71.5969 73.7281 72.2411 72.9118 72.6365C72.1082 73.0319 71.1962 73.2296 70.1757 73.2296ZM102.93 73V70.264H96.2141V68.7716L102.624 59.6068H104.824V68.5994H106.737V70.264H104.824V73H102.93ZM98.2996 68.5994H103.045V61.7115L98.2996 68.5994ZM128.28 73.2296C127.451 73.2296 126.737 73.0765 126.137 72.7704C125.538 72.4515 125.072 71.9923 124.741 71.3928C124.409 70.7933 124.243 70.079 124.243 69.2499H126.176C126.176 69.6836 126.246 70.0726 126.386 70.417C126.526 70.7614 126.743 71.0357 127.037 71.2398C127.343 71.4311 127.745 71.5268 128.242 71.5268C128.739 71.5268 129.129 71.4311 129.409 71.2398C129.703 71.0484 129.913 70.7933 130.041 70.4744C130.168 70.1428 130.232 69.7665 130.232 69.3456V59.6068H132.145V69.3456C132.145 70.5829 131.801 71.5395 131.112 72.2155C130.423 72.8916 129.479 73.2296 128.28 73.2296ZM145.609 73.2296C144.665 73.2296 143.81 73.0446 143.045 72.6747C142.279 72.2921 141.667 71.7181 141.208 70.9528C140.762 70.1747 140.538 69.1861 140.538 67.9871V59.6068H142.452V68.0063C142.452 68.8099 142.586 69.4731 142.853 69.9961C143.121 70.5063 143.491 70.889 143.963 71.1441C144.448 71.3864 145.009 71.5076 145.647 71.5076C146.297 71.5076 146.859 71.3864 147.331 71.1441C147.803 70.889 148.166 70.5063 148.421 69.9961C148.689 69.4731 148.823 68.8099 148.823 68.0063V59.6068H150.736V67.9871C150.736 69.1861 150.507 70.1747 150.047 70.9528C149.588 71.7181 148.97 72.2921 148.192 72.6747C147.413 73.0446 146.552 73.2296 145.609 73.2296ZM159.136 73V59.6068H161.05V73H159.136ZM169.585 73V59.6068H171.498L178.329 69.8813V59.6068H180.242V73H178.329L171.498 62.7447V73H169.585ZM199.145 73V71.6224C200.038 70.9336 200.886 70.2385 201.69 69.5369C202.494 68.8354 203.208 68.1402 203.833 67.4514C204.471 66.7499 204.968 66.0674 205.325 65.4042C205.682 64.7281 205.861 64.084 205.861 63.4717C205.861 63.038 205.784 62.6362 205.631 62.2663C205.478 61.8964 205.236 61.5967 204.904 61.3671C204.573 61.1247 204.12 61.0035 203.546 61.0035C202.997 61.0035 202.538 61.1247 202.168 61.3671C201.811 61.6094 201.537 61.9347 201.346 62.3429C201.167 62.7383 201.078 63.1783 201.078 63.663H199.222C199.235 62.7447 199.432 61.9666 199.815 61.3288C200.198 60.691 200.714 60.2063 201.365 59.8747C202.028 59.5431 202.768 59.3772 203.584 59.3772C204.439 59.3772 205.179 59.5367 205.804 59.8556C206.429 60.1617 206.913 60.6145 207.258 61.214C207.602 61.8008 207.774 62.5214 207.774 63.376C207.774 63.9883 207.653 64.6006 207.411 65.2128C207.168 65.8123 206.837 66.3991 206.416 66.9731C206.008 67.5471 205.548 68.1019 205.038 68.6377C204.528 69.1606 203.999 69.6581 203.45 70.13C202.914 70.602 202.398 71.0293 201.9 71.412H208.195V73H199.145ZM221.27 73.2296C220.083 73.2296 219.063 72.9426 218.208 72.3686C217.354 71.7819 216.697 70.9719 216.238 69.9387C215.778 68.8928 215.549 67.681 215.549 66.3034C215.549 64.9258 215.778 63.7204 216.238 62.6873C216.697 61.6413 217.354 60.8313 218.208 60.2574C219.063 59.6706 220.083 59.3772 221.27 59.3772C222.456 59.3772 223.47 59.6706 224.312 60.2574C225.166 60.8313 225.817 61.6413 226.263 62.6873C226.722 63.7204 226.952 64.9258 226.952 66.3034C226.952 67.681 226.722 68.8928 226.263 69.9387C225.817 70.9719 225.166 71.7819 224.312 72.3686C223.47 72.9426 222.456 73.2296 221.27 73.2296ZM221.27 71.5268C221.984 71.5268 222.622 71.3163 223.183 70.8954C223.757 70.4744 224.203 69.8749 224.522 69.0968C224.841 68.3188 225 67.3876 225 66.3034C225 65.2192 224.841 64.2881 224.522 63.51C224.203 62.7319 223.757 62.1388 223.183 61.7306C222.622 61.3097 221.984 61.0992 221.27 61.0992C220.542 61.0992 219.892 61.3097 219.318 61.7306C218.744 62.1388 218.298 62.7319 217.979 63.51C217.66 64.2881 217.5 65.2192 217.5 66.3034C217.5 67.3876 217.66 68.3188 217.979 69.0968C218.298 69.8749 218.744 70.4744 219.318 70.8954C219.892 71.3163 220.542 71.5268 221.27 71.5268ZM234.579 73V71.6224C235.472 70.9336 236.32 70.2385 237.124 69.5369C237.927 68.8354 238.641 68.1402 239.266 67.4514C239.904 66.7499 240.402 66.0674 240.759 65.4042C241.116 64.7281 241.295 64.084 241.295 63.4717C241.295 63.038 241.218 62.6362 241.065 62.2663C240.912 61.8964 240.67 61.5967 240.338 61.3671C240.006 61.1247 239.553 61.0035 238.979 61.0035C238.431 61.0035 237.972 61.1247 237.602 61.3671C237.245 61.6094 236.971 61.9347 236.779 62.3429C236.601 62.7383 236.511 63.1783 236.511 63.663H234.655C234.668 62.7447 234.866 61.9666 235.249 61.3288C235.631 60.691 236.148 60.2063 236.798 59.8747C237.462 59.5431 238.201 59.3772 239.018 59.3772C239.872 59.3772 240.612 59.5367 241.237 59.8556C241.862 60.1617 242.347 60.6145 242.691 61.214C243.036 61.8008 243.208 62.5214 243.208 63.376C243.208 63.9883 243.087 64.6006 242.844 65.2128C242.602 65.8123 242.27 66.3991 241.849 66.9731C241.441 67.5471 240.982 68.1019 240.472 68.6377C239.962 69.1606 239.432 69.6581 238.884 70.13C238.348 70.602 237.831 71.0293 237.334 71.412H243.629V73H234.579ZM256.24 73.2296C255.296 73.2296 254.487 73.0638 253.81 72.7321C253.134 72.3877 252.599 71.9285 252.203 71.3546C251.808 70.7678 251.566 70.1109 251.476 69.3838H253.351C253.479 70.0344 253.798 70.5701 254.308 70.991C254.818 71.3992 255.462 71.6033 256.24 71.6033C256.827 71.6033 257.331 71.463 257.752 71.1824C258.173 70.9017 258.498 70.5255 258.728 70.0535C258.957 69.5816 259.072 69.0586 259.072 68.4846C259.072 67.8723 258.951 67.343 258.709 66.8965C258.479 66.4373 258.154 66.0802 257.733 65.8251C257.325 65.57 256.846 65.4424 256.298 65.4424C255.634 65.4424 255.06 65.5955 254.576 65.9016C254.104 66.195 253.759 66.5713 253.543 67.0305H251.687L252.796 59.6068H260.01V61.2714H254.27L253.562 65.0215C253.868 64.6771 254.276 64.3965 254.786 64.1796C255.309 63.9628 255.902 63.8544 256.566 63.8544C257.242 63.8544 257.848 63.9756 258.383 64.2179C258.919 64.4475 259.372 64.7728 259.742 65.1937C260.124 65.6146 260.411 66.1057 260.603 66.6669C260.807 67.2282 260.909 67.8213 260.909 68.4463C260.909 69.1224 260.8 69.7474 260.584 70.3214C260.367 70.8954 260.054 71.4056 259.646 71.852C259.251 72.2857 258.76 72.6237 258.173 72.8661C257.599 73.1084 256.955 73.2296 256.24 73.2296ZM281.862 69.0394C281.428 69.0394 281.026 68.931 280.656 68.7142C280.299 68.4973 280.012 68.2103 279.795 67.8532C279.591 67.4833 279.489 67.0751 279.489 66.6287C279.489 66.1695 279.591 65.7613 279.795 65.4042C280.012 65.0343 280.299 64.7409 280.656 64.524C281.026 64.3072 281.428 64.1988 281.862 64.1988C282.321 64.1988 282.729 64.3072 283.086 64.524C283.456 64.7409 283.75 65.0343 283.966 65.4042C284.183 65.7613 284.292 66.1695 284.292 66.6287C284.292 67.0751 284.183 67.4833 283.966 67.8532C283.75 68.2103 283.456 68.4973 283.086 68.7142C282.729 68.931 282.321 69.0394 281.862 69.0394ZM303.195 73V59.6068H311.652V61.1757H305.109V65.4616H311.078V66.9922H305.109V71.4311H311.652V73H303.195ZM319.866 73V59.6068H321.779L328.61 69.8813V59.6068H330.523V73H328.61L321.779 62.7447V73H319.866ZM343.44 73.2296C342.458 73.2296 341.597 73.0574 340.857 72.713C340.117 72.3559 339.543 71.8584 339.135 71.2206C338.727 70.5829 338.523 69.8367 338.523 68.982H340.532C340.545 69.4668 340.659 69.9132 340.876 70.3214C341.106 70.7168 341.431 71.0357 341.852 71.278C342.286 71.5076 342.815 71.6224 343.44 71.6224C343.976 71.6224 344.435 71.5331 344.818 71.3546C345.213 71.176 345.513 70.9336 345.717 70.6275C345.921 70.3086 346.023 69.9451 346.023 69.5369C346.023 69.065 345.915 68.6759 345.698 68.3698C345.481 68.0637 345.188 67.8149 344.818 67.6236C344.461 67.4195 344.04 67.2409 343.555 67.0879C343.083 66.9348 342.585 66.769 342.063 66.5904C341.004 66.246 340.213 65.7996 339.69 65.2511C339.18 64.7026 338.925 63.9883 338.925 63.1082C338.925 62.3556 339.103 61.7051 339.46 61.1566C339.818 60.5954 340.315 60.1617 340.953 59.8556C341.603 59.5367 342.369 59.3772 343.249 59.3772C344.116 59.3772 344.875 59.5367 345.526 59.8556C346.176 60.1744 346.686 60.6145 347.056 61.1757C347.426 61.737 347.611 62.3939 347.611 63.1465H345.583C345.583 62.8021 345.494 62.464 345.315 62.1324C345.137 61.8008 344.869 61.5329 344.512 61.3288C344.154 61.112 343.714 61.0035 343.191 61.0035C342.758 60.9908 342.369 61.0609 342.024 61.214C341.68 61.3671 341.412 61.5903 341.221 61.8837C341.029 62.177 340.934 62.5278 340.934 62.936C340.934 63.3442 341.017 63.6758 341.182 63.9309C341.361 64.1733 341.616 64.3837 341.948 64.5623C342.279 64.7409 342.662 64.9067 343.096 65.0598C343.542 65.2001 344.033 65.3595 344.569 65.5381C345.232 65.7549 345.819 66.0228 346.329 66.3417C346.852 66.6478 347.26 67.0496 347.554 67.5471C347.86 68.0318 348.013 68.6568 348.013 69.4221C348.013 70.0854 347.841 70.704 347.496 71.278C347.152 71.852 346.642 72.324 345.966 72.6939C345.29 73.051 344.448 73.2296 343.44 73.2296ZM368.768 69.0394C368.334 69.0394 367.933 68.931 367.563 68.7142C367.205 68.4973 366.918 68.2103 366.702 67.8532C366.498 67.4833 366.395 67.0751 366.395 66.6287C366.395 66.1695 366.498 65.7613 366.702 65.4042C366.918 65.0343 367.205 64.7409 367.563 64.524C367.933 64.3072 368.334 64.1988 368.768 64.1988C369.227 64.1988 369.635 64.3072 369.993 64.524C370.362 64.7409 370.656 65.0343 370.873 65.4042C371.089 65.7613 371.198 66.1695 371.198 66.6287C371.198 67.0751 371.089 67.4833 370.873 67.8532C370.656 68.2103 370.362 68.4973 369.993 68.7142C369.635 68.931 369.227 69.0394 368.768 69.0394ZM396.186 73V70.264H389.47V68.7716L395.88 59.6068H398.08V68.5994H399.993V70.264H398.08V73H396.186ZM391.556 68.5994H396.301V61.7115L391.556 68.5994ZM412.221 73.2296C411.341 73.2296 410.544 73.0702 409.829 72.7513C409.128 72.4196 408.567 71.9604 408.146 71.3737C407.738 70.7869 407.533 70.1045 407.533 69.3264C407.533 68.778 407.635 68.2741 407.84 67.8149C408.044 67.343 408.331 66.9348 408.701 66.5904C409.07 66.246 409.504 65.9973 410.002 65.8442C409.338 65.5764 408.815 65.1809 408.433 64.658C408.05 64.135 407.859 63.561 407.859 62.936C407.859 62.2855 408.031 61.6923 408.375 61.1566C408.72 60.6209 409.217 60.1936 409.868 59.8747C410.518 59.5431 411.303 59.3772 412.221 59.3772C413.139 59.3772 413.924 59.5431 414.574 59.8747C415.225 60.1936 415.716 60.6209 416.048 61.1566C416.392 61.6923 416.564 62.2855 416.564 62.936C416.564 63.561 416.373 64.1414 415.99 64.6771C415.62 65.2001 415.104 65.5891 414.44 65.8442C414.938 65.9973 415.372 66.246 415.742 66.5904C416.111 66.9348 416.398 67.343 416.603 67.8149C416.807 68.2741 416.909 68.778 416.909 69.3264C416.909 70.1045 416.698 70.7869 416.277 71.3737C415.869 71.9604 415.308 72.4196 414.594 72.7513C413.892 73.0702 413.101 73.2296 412.221 73.2296ZM412.221 71.5842C413.152 71.5842 413.847 71.3673 414.307 70.9336C414.779 70.4872 415.014 69.9068 415.014 69.1925C415.014 68.3889 414.759 67.7767 414.249 67.3557C413.752 66.9348 413.076 66.7243 412.221 66.7243C411.366 66.7243 410.684 66.9348 410.174 67.3557C409.676 67.7767 409.428 68.3889 409.428 69.1925C409.428 69.9068 409.657 70.4872 410.116 70.9336C410.588 71.3673 411.29 71.5842 412.221 71.5842ZM412.221 65.2128C412.974 65.2128 413.567 65.0151 414 64.6197C414.447 64.2243 414.67 63.7204 414.67 63.1082C414.67 62.4066 414.453 61.8773 414.02 61.5201C413.586 61.163 412.986 60.9844 412.221 60.9844C411.468 60.9844 410.875 61.163 410.442 61.5201C410.008 61.8773 409.791 62.4066 409.791 63.1082C409.791 63.7204 410.008 64.2243 410.442 64.6197C410.875 65.0151 411.468 65.2128 412.221 65.2128ZM435.89 73V59.6068H440.846C441.777 59.6068 442.555 59.7599 443.18 60.066C443.805 60.3594 444.27 60.7676 444.576 61.2905C444.895 61.8008 445.055 62.3811 445.055 63.0317C445.055 63.7077 444.908 64.2753 444.615 64.7345C444.321 65.1937 443.932 65.5508 443.448 65.806C442.976 66.0483 442.465 66.1886 441.917 66.2269L442.185 66.0356C442.772 66.0483 443.307 66.2077 443.792 66.5139C444.277 66.8073 444.659 67.2027 444.94 67.7001C445.221 68.1976 445.361 68.7461 445.361 69.3456C445.361 70.0344 445.195 70.6594 444.863 71.2206C444.532 71.7691 444.041 72.2028 443.39 72.5217C442.74 72.8406 441.942 73 440.999 73H435.89ZM437.803 71.412H440.75C441.592 71.412 442.242 71.2206 442.701 70.838C443.173 70.4425 443.409 69.8877 443.409 69.1734C443.409 68.4718 443.167 67.9106 442.682 67.4897C442.21 67.0687 441.553 66.8583 440.712 66.8583H437.803V71.412ZM437.803 65.385H440.635C441.439 65.385 442.051 65.2001 442.472 64.8302C442.893 64.4475 443.103 63.9245 443.103 63.2613C443.103 62.6235 442.893 62.1196 442.472 61.7497C442.051 61.3671 441.419 61.1757 440.578 61.1757H437.803V65.385ZM459.41 73.2296C458.121 73.2296 456.986 72.9426 456.004 72.3686C455.034 71.7819 454.269 70.9719 453.708 69.9387C453.159 68.8928 452.885 67.681 452.885 66.3034C452.885 64.9386 453.159 63.7396 453.708 62.7064C454.269 61.6604 455.034 60.8441 456.004 60.2574C456.986 59.6706 458.121 59.3772 459.41 59.3772C460.723 59.3772 461.871 59.6706 462.854 60.2574C463.836 60.8441 464.595 61.6604 465.13 62.7064C465.679 63.7396 465.953 64.9386 465.953 66.3034C465.953 67.681 465.679 68.8928 465.13 69.9387C464.595 70.9719 463.836 71.7819 462.854 72.3686C461.871 72.9426 460.723 73.2296 459.41 73.2296ZM459.429 71.5268C460.347 71.5268 461.151 71.3163 461.839 70.8954C462.528 70.4744 463.058 69.8749 463.427 69.0968C463.81 68.3188 464.001 67.3876 464.001 66.3034C464.001 65.2192 463.81 64.2881 463.427 63.51C463.058 62.7319 462.528 62.1388 461.839 61.7306C461.151 61.3097 460.347 61.0992 459.429 61.0992C458.51 61.0992 457.707 61.3097 457.018 61.7306C456.329 62.1388 455.793 62.7319 455.411 63.51C455.028 64.2881 454.837 65.2192 454.837 66.3034C454.837 67.3876 455.028 68.3188 455.411 69.0968C455.793 69.8749 456.329 70.4744 457.018 70.8954C457.707 71.3163 458.51 71.5268 459.429 71.5268ZM478.932 73.2296C477.988 73.2296 477.133 73.0446 476.368 72.6747C475.603 72.2921 474.99 71.7181 474.531 70.9528C474.085 70.1747 473.862 69.1861 473.862 67.9871V59.6068H475.775V68.0063C475.775 68.8099 475.909 69.4731 476.177 69.9961C476.445 70.5063 476.815 70.889 477.286 71.1441C477.771 71.3864 478.332 71.5076 478.97 71.5076C479.621 71.5076 480.182 71.3864 480.654 71.1441C481.126 70.889 481.489 70.5063 481.744 69.9961C482.012 69.4731 482.146 68.8099 482.146 68.0063V59.6068H484.06V67.9871C484.06 69.1861 483.83 70.1747 483.371 70.9528C482.912 71.7181 482.293 72.2921 481.515 72.6747C480.737 73.0446 479.876 73.2296 478.932 73.2296ZM492.46 73V59.6068H494.373V71.4885H500.496V73H492.46ZM508.476 73V59.6068H516.933V61.1757H510.39V65.4616H516.359V66.9922H510.39V71.4311H516.933V73H508.476ZM529.107 73L524.133 59.6068H526.199L530.255 71.0102L534.35 59.6068H536.378L531.403 73H529.107ZM541.236 73L546.154 59.6068H548.239L553.156 73H551.109L547.187 61.9028L543.245 73H541.236ZM543.456 69.69L543.992 68.1593H550.286L550.822 69.69H543.456ZM560.805 73V59.6068H565.339C566.398 59.6068 567.265 59.7854 567.941 60.1426C568.617 60.4997 569.115 60.978 569.434 61.5775C569.765 62.1643 569.931 62.8339 569.931 63.5865C569.931 64.3008 569.765 64.9641 569.434 65.5764C569.115 66.1759 568.611 66.6606 567.922 67.0305C567.233 67.3876 566.353 67.5662 565.282 67.5662H562.718V73H560.805ZM567.846 73L564.956 67.0496H567.061L570.065 73H567.846ZM562.718 66.1121H565.205C566.149 66.1121 566.844 65.8825 567.291 65.4233C567.737 64.9513 567.96 64.3518 567.96 63.6248C567.96 62.885 567.743 62.2982 567.31 61.8645C566.876 61.4308 566.175 61.214 565.205 61.214H562.718V66.1121ZM578.148 73V59.6068H582.261C583.817 59.6068 585.106 59.8811 586.126 60.4296C587.147 60.978 587.899 61.7561 588.384 62.7638C588.881 63.7587 589.13 64.945 589.13 66.3225C589.13 67.7001 588.881 68.8864 588.384 69.8813C587.899 70.8762 587.147 71.6479 586.126 72.1964C585.118 72.7321 583.83 73 582.261 73H578.148ZM580.061 71.3928H582.185C583.422 71.3928 584.404 71.1887 585.131 70.7806C585.858 70.3724 586.375 69.792 586.681 69.0394C587 68.2741 587.159 67.3685 587.159 66.3225C587.159 65.2638 587 64.3518 586.681 63.5865C586.375 62.8212 585.858 62.2344 585.131 61.8263C584.404 61.4181 583.422 61.214 582.185 61.214H580.061V71.3928ZM610.984 73.2296C610.155 73.2296 609.44 73.0765 608.841 72.7704C608.241 72.4515 607.776 71.9923 607.444 71.3928C607.112 70.7933 606.947 70.079 606.947 69.2499H608.879C608.879 69.6836 608.949 70.0726 609.09 70.417C609.23 70.7614 609.447 71.0357 609.74 71.2398C610.046 71.4311 610.448 71.5268 610.945 71.5268C611.443 71.5268 611.832 71.4311 612.113 71.2398C612.406 71.0484 612.616 70.7933 612.744 70.4744C612.872 70.1428 612.935 69.7665 612.935 69.3456V59.6068H614.849V69.3456C614.849 70.5829 614.504 71.5395 613.815 72.2155C613.127 72.8916 612.183 73.2296 610.984 73.2296ZM629.403 73.2296C628.114 73.2296 626.979 72.9426 625.997 72.3686C625.028 71.7819 624.262 70.9719 623.701 69.9387C623.153 68.8928 622.878 67.681 622.878 66.3034C622.878 64.9386 623.153 63.7396 623.701 62.7064C624.262 61.6604 625.028 60.8441 625.997 60.2574C626.979 59.6706 628.114 59.3772 629.403 59.3772C630.717 59.3772 631.865 59.6706 632.847 60.2574C633.829 60.8441 634.588 61.6604 635.124 62.7064C635.672 63.7396 635.946 64.9386 635.946 66.3034C635.946 67.681 635.672 68.8928 635.124 69.9387C634.588 70.9719 633.829 71.7819 632.847 72.3686C631.865 72.9426 630.717 73.2296 629.403 73.2296ZM629.422 71.5268C630.34 71.5268 631.144 71.3163 631.833 70.8954C632.521 70.4744 633.051 69.8749 633.421 69.0968C633.803 68.3188 633.995 67.3876 633.995 66.3034C633.995 65.2192 633.803 64.2881 633.421 63.51C633.051 62.7319 632.521 62.1388 631.833 61.7306C631.144 61.3097 630.34 61.0992 629.422 61.0992C628.503 61.0992 627.7 61.3097 627.011 61.7306C626.322 62.1388 625.787 62.7319 625.404 63.51C625.021 64.2881 624.83 65.2192 624.83 66.3034C624.83 67.3876 625.021 68.3188 625.404 69.0968C625.787 69.8749 626.322 70.4744 627.011 70.8954C627.7 71.3163 628.503 71.5268 629.422 71.5268ZM648.925 73.2296C647.981 73.2296 647.127 73.0446 646.361 72.6747C645.596 72.2921 644.984 71.7181 644.524 70.9528C644.078 70.1747 643.855 69.1861 643.855 67.9871V59.6068H645.768V68.0063C645.768 68.8099 645.902 69.4731 646.17 69.9961C646.438 70.5063 646.808 70.889 647.28 71.1441C647.764 71.3864 648.326 71.5076 648.963 71.5076C649.614 71.5076 650.175 71.3864 650.647 71.1441C651.119 70.889 651.482 70.5063 651.738 69.9961C652.005 69.4731 652.139 68.8099 652.139 68.0063V59.6068H654.053V67.9871C654.053 69.1861 653.823 70.1747 653.364 70.9528C652.905 71.7181 652.286 72.2921 651.508 72.6747C650.73 73.0446 649.869 73.2296 648.925 73.2296ZM662.453 73V59.6068H666.987C668.046 59.6068 668.913 59.7854 669.59 60.1426C670.266 60.4997 670.763 60.978 671.082 61.5775C671.414 62.1643 671.579 62.8339 671.579 63.5865C671.579 64.3008 671.414 64.9641 671.082 65.5764C670.763 66.1759 670.259 66.6606 669.57 67.0305C668.882 67.3876 668.001 67.5662 666.93 67.5662H664.366V73H662.453ZM669.494 73L666.605 67.0496H668.709L671.713 73H669.494ZM664.366 66.1121H666.853C667.797 66.1121 668.493 65.8825 668.939 65.4233C669.385 64.9513 669.609 64.3518 669.609 63.6248C669.609 62.885 669.392 62.2982 668.958 61.8645C668.524 61.4308 667.823 61.214 666.853 61.214H664.366V66.1121ZM679.796 73V59.6068H683.91C685.466 59.6068 686.754 59.8811 687.775 60.4296C688.795 60.978 689.548 61.7561 690.032 62.7638C690.53 63.7587 690.778 64.945 690.778 66.3225C690.778 67.7001 690.53 68.8864 690.032 69.8813C689.548 70.8762 688.795 71.6479 687.775 72.1964C686.767 72.7321 685.479 73 683.91 73H679.796ZM681.709 71.3928H683.833C685.07 71.3928 686.053 71.1887 686.78 70.7806C687.507 70.3724 688.023 69.792 688.329 69.0394C688.648 68.2741 688.808 67.3685 688.808 66.3225C688.808 65.2638 688.648 64.3518 688.329 63.5865C688.023 62.8212 687.507 62.2344 686.78 61.8263C686.053 61.4181 685.07 61.214 683.833 61.214H681.709V71.3928ZM697.044 73L701.961 59.6068H704.047L708.964 73H706.917L702.995 61.9028L699.053 73H697.044ZM699.264 69.69L699.799 68.1593H706.094L706.63 69.69H699.264ZM716.612 73V59.6068H718.526L725.356 69.8813V59.6068H727.269V73H725.356L718.526 62.7447V73H716.612ZM734.6 75.3534L735.69 70.9336H737.623L735.882 75.3534H734.6ZM757.139 73L762.247 61.2523H755.168V59.6068H764.218V61.0035L759.129 73H757.139ZM776.115 73.2296C775.171 73.2296 774.361 73.0638 773.685 72.7321C773.009 72.3877 772.473 71.9285 772.078 71.3546C771.683 70.7678 771.44 70.1109 771.351 69.3838H773.226C773.354 70.0344 773.672 70.5701 774.183 70.991C774.693 71.3992 775.337 71.6033 776.115 71.6033C776.702 71.6033 777.206 71.463 777.627 71.1824C778.048 70.9017 778.373 70.5255 778.602 70.0535C778.832 69.5816 778.947 69.0586 778.947 68.4846C778.947 67.8723 778.826 67.343 778.583 66.8965C778.354 66.4373 778.028 66.0802 777.608 65.8251C777.199 65.57 776.721 65.4424 776.173 65.4424C775.509 65.4424 774.935 65.5955 774.451 65.9016C773.979 66.195 773.634 66.5713 773.417 67.0305H771.561L772.671 59.6068H779.884V61.2714H774.144L773.437 65.0215C773.743 64.6771 774.151 64.3965 774.661 64.1796C775.184 63.9628 775.777 63.8544 776.44 63.8544C777.116 63.8544 777.722 63.9756 778.258 64.2179C778.794 64.4475 779.247 64.7728 779.617 65.1937C779.999 65.6146 780.286 66.1057 780.478 66.6669C780.682 67.2282 780.784 67.8213 780.784 68.4463C780.784 69.1224 780.675 69.7474 780.458 70.3214C780.242 70.8954 779.929 71.4056 779.521 71.852C779.125 72.2857 778.634 72.6237 778.048 72.8661C777.474 73.1084 776.829 73.2296 776.115 73.2296ZM794.22 73.2296C793.034 73.2296 792.013 72.9426 791.159 72.3686C790.304 71.7819 789.647 70.9719 789.188 69.9387C788.729 68.8928 788.499 67.681 788.499 66.3034C788.499 64.9258 788.729 63.7204 789.188 62.6873C789.647 61.6413 790.304 60.8313 791.159 60.2574C792.013 59.6706 793.034 59.3772 794.22 59.3772C795.406 59.3772 796.42 59.6706 797.262 60.2574C798.117 60.8313 798.767 61.6413 799.214 62.6873C799.673 63.7204 799.903 64.9258 799.903 66.3034C799.903 67.681 799.673 68.8928 799.214 69.9387C798.767 70.9719 798.117 71.7819 797.262 72.3686C796.42 72.9426 795.406 73.2296 794.22 73.2296ZM794.22 71.5268C794.934 71.5268 795.572 71.3163 796.133 70.8954C796.707 70.4744 797.154 69.8749 797.473 69.0968C797.792 68.3188 797.951 67.3876 797.951 66.3034C797.951 65.2192 797.792 64.2881 797.473 63.51C797.154 62.7319 796.707 62.1388 796.133 61.7306C795.572 61.3097 794.934 61.0992 794.22 61.0992C793.493 61.0992 792.842 61.3097 792.268 61.7306C791.694 62.1388 791.248 62.7319 790.929 63.51C790.61 64.2881 790.451 65.2192 790.451 66.3034C790.451 67.3876 790.61 68.3188 790.929 69.0968C791.248 69.8749 791.694 70.4744 792.268 70.8954C792.842 71.3163 793.493 71.5268 794.22 71.5268ZM809.477 73V61.7689L807.143 62.362V60.927L810.185 59.6068H811.429V73H809.477ZM826.049 73V70.264H819.333V68.7716L825.743 59.6068H827.943V68.5994H829.856V70.264H827.943V73H826.049ZM821.419 68.5994H826.164V61.7115L821.419 68.5994ZM836.383 75.3534L837.473 70.9336H839.406L837.665 75.3534H836.383ZM857.831 73V59.6068H862.404C863.475 59.6068 864.355 59.7854 865.044 60.1426C865.733 60.4997 866.243 60.978 866.575 61.5775C866.906 62.177 867.072 62.8595 867.072 63.6248C867.072 64.3518 866.906 65.0215 866.575 65.6338C866.256 66.2333 865.752 66.718 865.063 67.0879C864.375 67.445 863.488 67.6236 862.404 67.6236H859.744V73H857.831ZM859.744 66.0356H862.327C863.335 66.0356 864.049 65.8187 864.47 65.385C864.904 64.9386 865.121 64.3518 865.121 63.6248C865.121 62.8467 864.904 62.2472 864.47 61.8263C864.049 61.4053 863.335 61.1949 862.327 61.1949H859.744V66.0356ZM872.426 73L877.343 59.6068H879.429L884.346 73H882.299L878.376 61.9028L874.435 73H872.426ZM874.645 69.69L875.181 68.1593H881.476L882.012 69.69H874.645ZM891.994 73V59.6068H896.529C897.587 59.6068 898.455 59.7854 899.131 60.1426C899.807 60.4997 900.304 60.978 900.623 61.5775C900.955 62.1643 901.121 62.8339 901.121 63.5865C901.121 64.3008 900.955 64.9641 900.623 65.5764C900.304 66.1759 899.8 66.6606 899.112 67.0305C898.423 67.3876 897.543 67.5662 896.471 67.5662H893.907V73H891.994ZM899.035 73L896.146 67.0496H898.251L901.254 73H899.035ZM893.907 66.1121H896.395C897.339 66.1121 898.034 65.8825 898.48 65.4233C898.927 64.9513 899.15 64.3518 899.15 63.6248C899.15 62.885 898.933 62.2982 898.499 61.8645C898.066 61.4308 897.364 61.214 896.395 61.214H893.907V66.1121ZM909.337 73V59.6068H911.25V73H909.337ZM924.167 73.2296C923.185 73.2296 922.324 73.0574 921.584 72.713C920.844 72.3559 920.27 71.8584 919.862 71.2206C919.454 70.5829 919.25 69.8367 919.25 68.982H921.259C921.272 69.4668 921.386 69.9132 921.603 70.3214C921.833 70.7168 922.158 71.0357 922.579 71.278C923.013 71.5076 923.542 71.6224 924.167 71.6224C924.703 71.6224 925.162 71.5331 925.545 71.3546C925.94 71.176 926.24 70.9336 926.444 70.6275C926.648 70.3086 926.75 69.9451 926.75 69.5369C926.75 69.065 926.642 68.6759 926.425 68.3698C926.208 68.0637 925.915 67.8149 925.545 67.6236C925.188 67.4195 924.767 67.2409 924.282 67.0879C923.81 66.9348 923.313 66.769 922.79 66.5904C921.731 66.246 920.94 65.7996 920.417 65.2511C919.907 64.7026 919.652 63.9883 919.652 63.1082C919.652 62.3556 919.83 61.7051 920.187 61.1566C920.545 60.5954 921.042 60.1617 921.68 59.8556C922.33 59.5367 923.096 59.3772 923.976 59.3772C924.843 59.3772 925.602 59.5367 926.253 59.8556C926.903 60.1744 927.413 60.6145 927.783 61.1757C928.153 61.737 928.338 62.3939 928.338 63.1465H926.31C926.31 62.8021 926.221 62.464 926.042 62.1324C925.864 61.8008 925.596 61.5329 925.239 61.3288C924.881 61.112 924.441 61.0035 923.918 61.0035C923.485 60.9908 923.096 61.0609 922.751 61.214C922.407 61.3671 922.139 61.5903 921.948 61.8837C921.756 62.177 921.661 62.5278 921.661 62.936C921.661 63.3442 921.744 63.6758 921.909 63.9309C922.088 64.1733 922.343 64.3837 922.675 64.5623C923.006 64.7409 923.389 64.9067 923.823 65.0598C924.269 65.2001 924.76 65.3595 925.296 65.5381C925.959 65.7549 926.546 66.0228 927.056 66.3417C927.579 66.6478 927.987 67.0496 928.281 67.5471C928.587 68.0318 928.74 68.6568 928.74 69.4221C928.74 70.0854 928.568 70.704 928.223 71.278C927.879 71.852 927.369 72.324 926.693 72.6939C926.017 73.051 925.175 73.2296 924.167 73.2296Z" fill="#FCF3E7"/>
</svg>
