<svg width="268" height="70" viewBox="0 0 268 70" fill="none" xmlns="http://www.w3.org/2000/svg">
<path d="M11.2374 22L11.2374 6.54587L14.3282 6.54587L14.3282 22L11.2374 22ZM1.50126 22L1.50126 6.54587L4.59208 6.54587L4.59208 22L1.50126 22ZM4.19469 15.3547L4.19469 12.86L11.7451 12.86L11.7451 15.3547L4.19469 15.3547ZM32.2063 22L37.836 6.54587L41.3463 6.54587L46.9761 22L43.7086 22L39.5802 10.0562L35.4296 22L32.2063 22ZM34.679 18.5339L35.4958 16.1274L43.4437 16.1274L44.2385 18.5339L34.679 18.5339ZM70.9487 22.2649C69.4033 22.2649 68.0713 21.9338 66.9528 21.2714C65.8342 20.5944 64.9732 19.6598 64.3697 18.4676C63.7663 17.2607 63.4645 15.8699 63.4645 14.295C63.4645 12.7202 63.7663 11.3293 64.3697 10.1224C64.9732 8.91551 65.8342 7.97354 66.9528 7.2965C68.0713 6.61947 69.4033 6.28095 70.9487 6.28095C72.818 6.28095 74.356 6.75193 75.5629 7.6939C76.7698 8.63586 77.5204 9.9605 77.8148 11.6678L74.4149 11.6678C74.2383 10.8436 73.8482 10.2107 73.2448 9.76916C72.6561 9.3129 71.876 9.08477 70.9046 9.08477C70.0068 9.08477 69.2341 9.29818 68.5865 9.72501C67.9536 10.1371 67.4679 10.7332 67.1294 11.5133C66.7909 12.2933 66.6216 13.2206 66.6216 14.295C66.6216 15.3694 66.7909 16.2967 67.1294 17.0768C67.4679 17.8421 67.9536 18.4382 68.5865 18.865C69.2341 19.2771 70.0068 19.4832 70.9046 19.4832C71.876 19.4832 72.6561 19.2771 73.2448 18.865C73.8335 18.4382 74.2235 17.8495 74.4149 17.0988L77.8148 17.0988C77.5204 18.7031 76.7698 19.9689 75.5629 20.8961C74.356 21.8087 72.818 22.2649 70.9487 22.2649ZM96.2104 22L96.2104 6.54587L99.3012 6.54587L99.3012 12.573L104.821 6.54587L108.618 6.54587L102.944 12.6613L108.794 22L105.019 22L100.736 15.0456L99.3012 16.5911L99.3012 22L96.2104 22ZM125.665 22L131.295 6.54587L134.805 6.54587L140.435 22L137.167 22L133.039 10.0562L128.888 22L125.665 22ZM128.138 18.5339L128.954 16.1274L136.902 16.1274L137.697 18.5339L128.138 18.5339ZM160.297 22L160.297 9.04061L155.793 9.04061L155.793 6.54587L167.869 6.54587L167.869 9.04061L163.365 9.04061L163.365 22L160.297 22ZM195.589 22L195.589 6.54587L198.68 6.54587L198.68 22L195.589 22ZM185.853 22L185.853 6.54587L188.944 6.54587L188.944 22L185.853 22ZM188.546 15.3547L188.546 12.86L196.097 12.86L196.097 15.3547L188.546 15.3547ZM224.727 22.2649C223.225 22.2649 221.901 21.9264 220.753 21.2494C219.605 20.5723 218.699 19.6377 218.037 18.4456C217.39 17.2387 217.066 15.8478 217.066 14.2729C217.066 12.6981 217.39 11.3146 218.037 10.1224C218.699 8.91551 219.605 7.97354 220.753 7.2965C221.901 6.61946 223.225 6.28095 224.727 6.28095C226.243 6.28095 227.575 6.61946 228.723 7.2965C229.885 7.97354 230.783 8.91551 231.416 10.1224C232.064 11.3146 232.387 12.6981 232.387 14.2729C232.387 15.8478 232.064 17.2387 231.416 18.4456C230.783 19.6377 229.885 20.5723 228.723 21.2494C227.575 21.9264 226.243 22.2649 224.727 22.2649ZM224.727 19.4832C225.654 19.4832 226.456 19.2698 227.133 18.8429C227.81 18.4161 228.333 17.82 228.701 17.0547C229.068 16.2746 229.252 15.3474 229.252 14.2729C229.252 13.1985 229.068 12.2786 228.701 11.5133C228.333 10.7332 227.81 10.1298 227.133 9.70293C226.456 9.2761 225.654 9.06269 224.727 9.06269C223.814 9.06269 223.019 9.2761 222.342 9.70293C221.68 10.1298 221.157 10.7332 220.775 11.5133C220.407 12.2786 220.223 13.1985 220.223 14.2729C220.223 15.3474 220.407 16.2746 220.775 17.0547C221.157 17.82 221.68 18.4161 222.342 18.8429C223.019 19.2698 223.814 19.4832 224.727 19.4832ZM250.803 22L250.803 6.54587L253.894 6.54587L260.893 17.0326L260.893 6.54587L263.984 6.54587L263.984 22L260.893 22L253.894 11.5353L253.894 22L250.803 22Z" fill="#FCF3E7"/>
<path d="M0.460435 48L4.68656 36.4891L6.47897 36.4891L10.7051 48L8.94558 48L5.57455 38.4624L2.18706 48L0.460435 48ZM2.36795 45.1552L2.82838 43.8396L8.23849 43.8396L8.69892 45.1552L2.36795 45.1552ZM15.634 48L15.634 36.4891L17.2784 36.4891L17.2784 48L15.634 48ZM39.1482 48L32.8995 41.669C32.3842 41.1647 32.017 40.7043 31.7977 40.2877C31.5894 39.8711 31.4853 39.4217 31.4853 38.9393C31.4853 38.435 31.6059 37.9856 31.8471 37.5909C32.0992 37.1853 32.4555 36.8674 32.9159 36.6371C33.3873 36.4069 33.9464 36.2918 34.5932 36.2918C35.24 36.2918 35.7882 36.4124 36.2376 36.6536C36.6981 36.8838 37.0489 37.2017 37.29 37.6073C37.5422 38.013 37.6628 38.4734 37.6518 38.9886L36.0403 38.9886C36.0403 38.5282 35.8978 38.1829 35.6127 37.9527C35.3277 37.7115 34.9879 37.5909 34.5932 37.5909C34.1218 37.5909 33.7491 37.717 33.475 37.9691C33.2119 38.2103 33.0804 38.5282 33.0804 38.9229C33.0804 39.2408 33.1735 39.5642 33.3599 39.8931C33.5463 40.211 33.8258 40.5673 34.1986 40.9619L41.1709 48L39.1482 48ZM33.919 48.1973C33.1297 48.1973 32.4336 48.0548 31.8306 47.7698C31.2277 47.4738 30.7617 47.0627 30.4329 46.5365C30.104 45.9993 29.9395 45.3799 29.9395 44.6783C29.9395 44.1192 30.0546 43.6094 30.2849 43.149C30.5151 42.6776 30.8549 42.2665 31.3044 41.9157C31.7539 41.5539 32.3075 41.2634 32.9653 41.0442L33.5901 40.8304L34.3959 41.8828L33.7217 42.113C32.9872 42.3652 32.4445 42.6995 32.0937 43.1161C31.7429 43.5327 31.5675 44.026 31.5675 44.5961C31.5675 45.0127 31.6662 45.3909 31.8635 45.7307C32.0718 46.0706 32.3568 46.3337 32.7186 46.52C33.0804 46.7064 33.5024 46.7996 33.9848 46.7996C34.6097 46.7996 35.1688 46.668 35.6621 46.4049C36.1554 46.1309 36.6432 45.6869 37.1256 45.073C37.3449 44.7879 37.5696 44.4645 37.7998 44.1028C38.03 43.741 38.2712 43.3299 38.5234 42.8694L38.9838 42.0308L40.694 42.0308L40.0033 43.297C39.7183 43.8561 39.4278 44.3659 39.1318 44.8263C38.8468 45.2758 38.5562 45.6759 38.2602 46.0267C37.6354 46.7941 36.9721 47.3477 36.2705 47.6876C35.5799 48.0274 34.796 48.1973 33.919 48.1973ZM53.5517 48L53.5517 36.4891L57.0872 36.4891C58.4246 36.4891 59.5319 36.7248 60.4089 37.1962C61.2859 37.6676 61.9327 38.3364 62.3493 39.2024C62.7768 40.0575 62.9906 41.077 62.9906 42.261C62.9906 43.445 62.7768 44.4645 62.3493 45.3196C61.9327 46.1747 61.2859 46.838 60.4089 47.3093C59.5428 47.7698 58.4356 48 57.0872 48L53.5517 48ZM55.1961 46.6187L57.0214 46.6187C58.0848 46.6187 58.9289 46.4433 59.5538 46.0925C60.1787 45.7417 60.6227 45.2429 60.8858 44.5961C61.1598 43.9383 61.2969 43.16 61.2969 42.261C61.2969 41.3511 61.1598 40.5673 60.8858 39.9095C60.6227 39.2517 60.1787 38.7475 59.5538 38.3967C58.9289 38.0458 58.0848 37.8704 57.0214 37.8704L55.1961 37.8704L55.1961 46.6187ZM68.2582 48L68.2582 36.4891L69.9026 36.4891L69.9026 48L68.2582 48ZM80.5764 48.1973C79.4911 48.1973 78.5428 47.9507 77.7316 47.4573C76.9203 46.964 76.29 46.2734 75.8405 45.3854C75.391 44.4974 75.1663 43.4614 75.1663 42.2775C75.1663 41.1044 75.391 40.0685 75.8405 39.1695C76.3009 38.2706 76.9532 37.569 77.7974 37.0647C78.6524 36.5494 79.661 36.2918 80.8231 36.2918C82.1276 36.2918 83.2184 36.6097 84.0954 37.2456C84.9725 37.8704 85.537 38.742 85.7892 39.8602L83.9146 39.8602C83.7501 39.2243 83.4048 38.7255 82.8786 38.3638C82.3524 37.991 81.6617 37.8047 80.8066 37.8047C79.9954 37.8047 79.2883 37.9856 78.6853 38.3473C78.0933 38.7091 77.6384 39.2243 77.3205 39.8931C77.0026 40.5618 76.8436 41.3566 76.8436 42.2775C76.8436 43.2093 77.0026 44.0096 77.3205 44.6783C77.6384 45.347 78.0879 45.8568 78.6689 46.2076C79.2499 46.5584 79.9186 46.7338 80.6751 46.7338C81.8371 46.7338 82.7087 46.3994 83.2897 45.7307C83.8817 45.062 84.227 44.1685 84.3257 43.0503L81.1519 43.0503L81.1519 41.7841L85.9865 41.7841L85.9865 48L84.4901 48L84.3421 46.2405C84.079 46.668 83.772 47.0298 83.4212 47.3258C83.0814 47.6108 82.6812 47.8301 82.2208 47.9836C81.7604 48.1261 81.2122 48.1973 80.5764 48.1973ZM91.4405 48L91.4405 36.4891L93.085 36.4891L93.085 48L91.4405 48ZM101.457 48L101.457 37.8376L98.0526 37.8376L98.0526 36.4891L106.521 36.4891L106.521 37.8376L103.101 37.8376L103.101 48L101.457 48ZM109.467 48L113.693 36.4891L115.485 36.4891L119.711 48L117.952 48L114.581 38.4624L111.193 48L109.467 48ZM111.374 45.1552L111.835 43.8396L117.245 43.8396L117.705 45.1552L111.374 45.1552ZM124.64 48L124.64 36.4891L126.285 36.4891L126.285 46.7009L131.547 46.7009L131.547 48L124.64 48ZM146.609 48L143.485 36.4891L145.244 36.4891L147.579 46.076L150.26 36.4891L152.085 36.4891L154.683 46.1089L157.051 36.4891L158.811 36.4891L155.637 48L153.713 48L151.131 38.8406L148.484 48L146.609 48ZM168.464 48.1973C167.357 48.1973 166.381 47.9507 165.537 47.4573C164.704 46.9531 164.046 46.2569 163.563 45.3689C163.092 44.47 162.856 43.4285 162.856 42.2446C162.856 41.0716 163.092 40.0411 163.563 39.1531C164.046 38.2541 164.704 37.5525 165.537 37.0482C166.381 36.544 167.357 36.2918 168.464 36.2918C169.593 36.2918 170.58 36.544 171.424 37.0482C172.268 37.5525 172.92 38.2541 173.381 39.1531C173.852 40.0411 174.088 41.0716 174.088 42.2446C174.088 43.4285 173.852 44.47 173.381 45.3689C172.92 46.2569 172.268 46.9531 171.424 47.4573C170.58 47.9507 169.593 48.1973 168.464 48.1973ZM168.48 46.7338C169.27 46.7338 169.96 46.5529 170.552 46.1911C171.144 45.8294 171.599 45.3141 171.917 44.6454C172.246 43.9767 172.41 43.1764 172.41 42.2446C172.41 41.3127 172.246 40.5125 171.917 39.8437C171.599 39.175 171.144 38.6652 170.552 38.3144C169.96 37.9527 169.27 37.7718 168.48 37.7718C167.691 37.7718 167 37.9527 166.408 38.3144C165.816 38.6652 165.356 39.175 165.027 39.8437C164.698 40.5125 164.534 41.3127 164.534 42.2446C164.534 43.1764 164.698 43.9767 165.027 44.6454C165.356 45.3141 165.816 45.8294 166.408 46.1911C167 46.5529 167.691 46.7338 168.48 46.7338ZM179.355 48L179.355 36.4891L183.253 36.4891C184.163 36.4891 184.908 36.6426 185.489 36.9496C186.07 37.2565 186.498 37.6676 186.772 38.1829C187.057 38.6872 187.199 39.2627 187.199 39.9095C187.199 40.5234 187.057 41.0935 186.772 41.6197C186.498 42.1349 186.065 42.5515 185.473 42.8694C184.881 43.1764 184.124 43.3299 183.203 43.3299L181 43.3299L181 48L179.355 48ZM185.407 48L182.924 42.8859L184.733 42.8859L187.314 48L185.407 48ZM181 42.0801L183.138 42.0801C183.949 42.0801 184.546 41.8828 184.93 41.4881C185.314 41.0825 185.505 40.5673 185.505 39.9424C185.505 39.3066 185.319 38.8023 184.946 38.4295C184.574 38.0568 183.971 37.8704 183.138 37.8704L181 37.8704L181 42.0801ZM192.617 48L192.617 36.4891L194.261 36.4891L194.261 41.4881L198.865 36.4891L200.921 36.4891L196.645 41.0606L201.003 48L198.997 48L195.478 42.3432L194.261 43.6423L194.261 48L192.617 48ZM209.644 48.1973C208.799 48.1973 208.059 48.0493 207.424 47.7533C206.788 47.4464 206.294 47.0188 205.944 46.4707C205.593 45.9226 205.417 45.2812 205.417 44.5467L207.144 44.5467C207.155 44.9633 207.254 45.347 207.44 45.6978C207.637 46.0377 207.917 46.3117 208.279 46.52C208.651 46.7174 209.106 46.816 209.644 46.816C210.104 46.816 210.499 46.7393 210.828 46.5858C211.167 46.4323 211.425 46.224 211.6 45.9609C211.776 45.6869 211.864 45.3744 211.864 45.0236C211.864 44.618 211.77 44.2836 211.584 44.0205C211.398 43.7574 211.145 43.5437 210.828 43.3792C210.521 43.2038 210.159 43.0503 209.742 42.9188C209.337 42.7872 208.909 42.6447 208.46 42.4912C207.55 42.1952 206.87 41.8115 206.421 41.3401C205.982 40.8687 205.763 40.2548 205.763 39.4984C205.763 38.8516 205.916 38.2925 206.223 37.8211C206.53 37.3387 206.958 36.966 207.506 36.7029C208.065 36.4288 208.723 36.2918 209.479 36.2918C210.225 36.2918 210.877 36.4288 211.436 36.7029C211.995 36.977 212.434 37.3552 212.752 37.8376C213.069 38.3199 213.228 38.8845 213.228 39.5313L211.485 39.5313C211.485 39.2353 211.409 38.9448 211.255 38.6598C211.102 38.3747 210.871 38.1445 210.564 37.9691C210.257 37.7827 209.879 37.6896 209.43 37.6896C209.057 37.6786 208.723 37.7389 208.427 37.8704C208.131 38.002 207.901 38.1938 207.736 38.446C207.572 38.6981 207.489 38.9996 207.489 39.3504C207.489 39.7012 207.561 39.9862 207.703 40.2055C207.857 40.4138 208.076 40.5947 208.361 40.7482C208.646 40.9016 208.975 41.0442 209.348 41.1757C209.731 41.2963 210.153 41.4333 210.614 41.5868C211.184 41.7732 211.688 42.0034 212.127 42.2775C212.576 42.5406 212.927 42.8859 213.179 43.3134C213.442 43.73 213.574 44.2672 213.574 44.925C213.574 45.495 213.426 46.0267 213.13 46.52C212.834 47.0134 212.395 47.419 211.814 47.7369C211.233 48.0439 210.51 48.1973 209.644 48.1973ZM218.818 48L218.818 36.4891L222.748 36.4891C223.669 36.4891 224.425 36.6426 225.017 36.9496C225.609 37.2565 226.048 37.6676 226.333 38.1829C226.618 38.6981 226.76 39.2846 226.76 39.9424C226.76 40.5673 226.618 41.1428 226.333 41.669C226.059 42.1843 225.626 42.6009 225.034 42.9188C224.442 43.2257 223.68 43.3792 222.748 43.3792L220.462 43.3792L220.462 48L218.818 48ZM220.462 42.0144L222.682 42.0144C223.548 42.0144 224.162 41.828 224.524 41.4553C224.897 41.0716 225.083 40.5673 225.083 39.9424C225.083 39.2737 224.897 38.7584 224.524 38.3967C224.162 38.0349 223.548 37.854 222.682 37.854L220.462 37.854L220.462 42.0144ZM229.717 48L233.943 36.4891L235.736 36.4891L239.962 48L238.202 48L234.831 38.4624L231.444 48L229.717 48ZM231.625 45.1552L232.085 43.8396L237.495 43.8396L237.956 45.1552L231.625 45.1552ZM249.281 48.1973C248.152 48.1973 247.176 47.9507 246.354 47.4573C245.542 46.9531 244.912 46.2569 244.463 45.3689C244.024 44.47 243.805 43.4285 243.805 42.2446C243.805 41.0716 244.024 40.0356 244.463 39.1366C244.912 38.2377 245.542 37.5416 246.354 37.0482C247.176 36.544 248.152 36.2918 249.281 36.2918C250.629 36.2918 251.72 36.6152 252.553 37.262C253.397 37.9088 253.934 38.8187 254.165 39.9917L252.356 39.9917C252.191 39.312 251.852 38.7694 251.336 38.3638C250.832 37.9581 250.147 37.7553 249.281 37.7553C248.502 37.7553 247.828 37.9362 247.258 38.298C246.688 38.6598 246.25 39.175 245.943 39.8437C245.636 40.5125 245.482 41.3127 245.482 42.2446C245.482 43.1764 245.636 43.9822 245.943 44.6618C246.25 45.3306 246.688 45.8458 247.258 46.2076C247.828 46.5584 248.502 46.7338 249.281 46.7338C250.147 46.7338 250.832 46.542 251.336 46.1583C251.852 45.7636 252.191 45.2319 252.356 44.5632L254.165 44.5632C253.934 45.7033 253.397 46.5968 252.553 47.2436C251.72 47.8794 250.629 48.1973 249.281 48.1973ZM259.421 48L259.421 36.4891L266.689 36.4891L266.689 37.8376L261.065 37.8376L261.065 41.521L266.196 41.521L266.196 42.8366L261.065 42.8366L261.065 46.6516L266.689 46.6516L266.689 48L259.421 48Z" fill="#FCF3E7"/>
<path d="M0.633166 67V66.2273C1.13397 65.841 1.60974 65.4511 2.06047 65.0576C2.5112 64.6641 2.91185 64.2742 3.26241 63.8878C3.62013 63.4943 3.89916 63.1116 4.09948 62.7395C4.2998 62.3604 4.39997 61.9991 4.39997 61.6557C4.39997 61.4124 4.35704 61.187 4.27119 60.9796C4.18533 60.7721 4.0494 60.604 3.86338 60.4752C3.67737 60.3392 3.42339 60.2713 3.10144 60.2713C2.7938 60.2713 2.53624 60.3392 2.32876 60.4752C2.12844 60.6111 1.97462 60.7935 1.8673 61.0225C1.76714 61.2443 1.71706 61.4911 1.71706 61.763H0.676092C0.683247 61.2478 0.79414 60.8114 1.00877 60.4537C1.22341 60.096 1.51316 59.8241 1.87803 59.6381C2.25006 59.4521 2.66502 59.3591 3.1229 59.3591C3.60225 59.3591 4.0172 59.4485 4.36777 59.6274C4.71834 59.7991 4.99021 60.0531 5.18337 60.3893C5.37654 60.7184 5.47313 61.1226 5.47313 61.602C5.47313 61.9454 5.40516 62.2888 5.26923 62.6322C5.13329 62.9685 4.94728 63.2976 4.71118 63.6195C4.48224 63.9415 4.22468 64.2527 3.93851 64.5532C3.65233 64.8465 3.35542 65.1255 3.04778 65.3903C2.7473 65.655 2.45754 65.8946 2.17852 66.1093H5.70922V67H0.633166ZM12.6327 68.32L13.2444 65.841H14.3283L13.3517 68.32H12.6327ZM33.2697 67.1288C32.7904 67.1288 32.3504 67.0429 31.9497 66.8712C31.5562 66.6924 31.2414 66.4276 31.0053 66.0771C30.7764 65.7194 30.6548 65.2722 30.6405 64.7356H31.7136C31.7208 65.0075 31.7852 65.2543 31.9068 65.4761C32.0284 65.6979 32.2037 65.8768 32.4326 66.0127C32.6687 66.1415 32.9478 66.2059 33.2697 66.2059C33.5917 66.2059 33.86 66.145 34.0746 66.0234C34.2964 65.9018 34.4609 65.7372 34.5682 65.5298C34.6827 65.3223 34.7399 65.0898 34.7399 64.8322C34.7399 64.5103 34.6612 64.2491 34.5038 64.0488C34.3536 63.8485 34.1461 63.6982 33.8814 63.5981C33.6239 63.4979 33.3341 63.4478 33.0122 63.4478H32.4541V62.5464H33.0122C33.4629 62.5464 33.8206 62.4426 34.0853 62.2352C34.3572 62.0277 34.4931 61.7343 34.4931 61.3552C34.4931 61.0404 34.3894 60.7828 34.1819 60.5825C33.9744 60.3822 33.6704 60.282 33.2697 60.282C32.8691 60.282 32.5507 60.3965 32.3146 60.6254C32.0857 60.8544 31.9569 61.1441 31.9283 61.4947H30.8658C30.8873 61.0726 30.9982 60.7005 31.1985 60.3786C31.406 60.0495 31.685 59.7991 32.0356 59.6274C32.3933 59.4485 32.8047 59.3591 33.2697 59.3591C33.7705 59.3591 34.1891 59.4485 34.5253 59.6274C34.8687 59.7991 35.1263 60.0316 35.298 60.3249C35.4768 60.6183 35.5663 60.9402 35.5663 61.2908C35.5663 61.5555 35.5162 61.8023 35.416 62.0313C35.3159 62.253 35.1728 62.4462 34.9868 62.6108C34.8008 62.7753 34.5754 62.8934 34.3107 62.9649C34.5969 63.0221 34.8544 63.133 35.0834 63.2976C35.3123 63.4621 35.4912 63.6768 35.6199 63.9415C35.7487 64.199 35.8131 64.4995 35.8131 64.8429C35.8131 65.2507 35.7165 65.6299 35.5234 65.9805C35.3302 66.3239 35.044 66.6029 34.6648 66.8176C34.2928 67.025 33.8278 67.1288 33.2697 67.1288ZM58.3346 67L54.2566 62.8683C53.9203 62.5392 53.6806 62.2387 53.5376 61.9669C53.4016 61.695 53.3337 61.4017 53.3337 61.0869C53.3337 60.7578 53.4124 60.4644 53.5697 60.2069C53.7343 59.9422 53.9668 59.7347 54.2673 59.5844C54.5749 59.4342 54.9398 59.3591 55.3619 59.3591C55.784 59.3591 56.1418 59.4378 56.4351 59.5952C56.7356 59.7454 56.9645 59.9529 57.1219 60.2176C57.2865 60.4823 57.3652 60.7828 57.358 61.1191H56.3063C56.3063 60.8186 56.2133 60.5932 56.0273 60.443C55.8413 60.2856 55.6195 60.2069 55.3619 60.2069C55.0543 60.2069 54.811 60.2892 54.6322 60.4537C54.4605 60.6111 54.3746 60.8186 54.3746 61.0761C54.3746 61.2836 54.4354 61.4947 54.5571 61.7093C54.6787 61.9168 54.8611 62.1493 55.1044 62.4069L59.6546 67H58.3346ZM54.9219 67.1288C54.4068 67.1288 53.9525 67.0358 53.559 66.8498C53.1655 66.6566 52.8615 66.3883 52.6468 66.0449C52.4322 65.6943 52.3249 65.2901 52.3249 64.8322C52.3249 64.4673 52.4 64.1347 52.5502 63.8342C52.7005 63.5265 52.9223 63.2582 53.2156 63.0293C53.5089 62.7932 53.8702 62.6036 54.2995 62.4605L54.7073 62.321L55.2332 63.0078L54.7932 63.1581C54.3138 63.3226 53.9597 63.5408 53.7307 63.8127C53.5018 64.0846 53.3873 64.4065 53.3873 64.7786C53.3873 65.0504 53.4517 65.2972 53.5805 65.519C53.7164 65.7408 53.9024 65.9125 54.1385 66.0342C54.3746 66.1558 54.6501 66.2166 54.9649 66.2166C55.3727 66.2166 55.7375 66.1307 56.0595 65.959C56.3814 65.7802 56.6998 65.4904 57.0146 65.0898C57.1577 64.9038 57.3044 64.6927 57.4546 64.4566C57.6048 64.2205 57.7622 63.9522 57.9268 63.6517L58.2273 63.1044H59.3434L58.8926 63.9308C58.7066 64.2956 58.517 64.6283 58.3239 64.9288C58.1378 65.2221 57.9483 65.4833 57.7551 65.7122C57.3473 66.213 56.9144 66.5743 56.4566 66.7961C56.0058 67.0179 55.4943 67.1288 54.9219 67.1288ZM79.5178 67V65.4654H75.751V64.6283L79.3461 59.4879H80.5802V64.5317H81.6534V65.4654H80.5802V67H79.5178ZM76.9208 64.5317H79.5822V60.6683L76.9208 64.5317ZM99.9611 67.1288C99.496 67.1288 99.0954 67.0429 98.7591 66.8712C98.4229 66.6924 98.1617 66.4348 97.9757 66.0985C97.7897 65.7623 97.6967 65.3616 97.6967 64.8966H98.7806C98.7806 65.1399 98.8199 65.3581 98.8986 65.5512C98.9773 65.7444 99.0989 65.8982 99.2635 66.0127C99.4352 66.12 99.6606 66.1737 99.9396 66.1737C100.219 66.1737 100.437 66.12 100.594 66.0127C100.759 65.9054 100.877 65.7623 100.948 65.5834C101.02 65.3974 101.056 65.1864 101.056 64.9503V59.4879H102.129V64.9503C102.129 65.6442 101.936 66.1808 101.549 66.56C101.163 66.9392 100.634 67.1288 99.9611 67.1288ZM112.793 67.1288C112.263 67.1288 111.784 67.025 111.355 66.8176C110.925 66.6029 110.582 66.281 110.324 65.8517C110.074 65.4153 109.949 64.8608 109.949 64.1883V59.4879H111.022V64.199C111.022 64.6498 111.097 65.0218 111.247 65.3151C111.397 65.6013 111.605 65.8159 111.87 65.959C112.141 66.095 112.456 66.1629 112.814 66.1629C113.179 66.1629 113.494 66.095 113.758 65.959C114.023 65.8159 114.227 65.6013 114.37 65.3151C114.52 65.0218 114.595 64.6498 114.595 64.199V59.4879H115.669V64.1883C115.669 64.8608 115.54 65.4153 115.282 65.8517C115.025 66.281 114.678 66.6029 114.241 66.8176C113.805 67.025 113.322 67.1288 112.793 67.1288ZM123.492 67V59.4879H124.566V67H123.492ZM132.465 67V59.4879H133.538L137.369 65.2507V59.4879H138.443V67H137.369L133.538 61.2478V67H132.465ZM155.27 67V66.2273C155.77 65.841 156.246 65.4511 156.697 65.0576C157.148 64.6641 157.548 64.2742 157.899 63.8878C158.257 63.4943 158.536 63.1116 158.736 62.7395C158.936 62.3604 159.036 61.9991 159.036 61.6557C159.036 61.4124 158.993 61.187 158.908 60.9796C158.822 60.7721 158.686 60.604 158.5 60.4752C158.314 60.3392 158.06 60.2713 157.738 60.2713C157.43 60.2713 157.173 60.3392 156.965 60.4752C156.765 60.6111 156.611 60.7935 156.504 61.0225C156.404 61.2443 156.353 61.4911 156.353 61.763H155.313C155.32 61.2478 155.431 60.8114 155.645 60.4537C155.86 60.096 156.15 59.8241 156.514 59.6381C156.886 59.4521 157.301 59.3591 157.759 59.3591C158.239 59.3591 158.654 59.4485 159.004 59.6274C159.355 59.7991 159.627 60.0531 159.82 60.3893C160.013 60.7184 160.11 61.1226 160.11 61.602C160.11 61.9454 160.042 62.2888 159.906 62.6322C159.77 62.9685 159.584 63.2976 159.348 63.6195C159.119 63.9415 158.861 64.2527 158.575 64.5532C158.289 64.8465 157.992 65.1255 157.684 65.3903C157.384 65.655 157.094 65.8946 156.815 66.1093H160.346V67H155.27ZM170.791 67.1288C170.126 67.1288 169.553 66.9678 169.074 66.6459C168.595 66.3168 168.226 65.8624 167.969 65.2829C167.711 64.6963 167.582 64.0166 167.582 63.2439C167.582 62.4713 167.711 61.7952 167.969 61.2157C168.226 60.629 168.595 60.1747 169.074 59.8527C169.553 59.5236 170.126 59.3591 170.791 59.3591C171.456 59.3591 172.025 59.5236 172.497 59.8527C172.977 60.1747 173.342 60.629 173.592 61.2157C173.85 61.7952 173.978 62.4713 173.978 63.2439C173.978 64.0166 173.85 64.6963 173.592 65.2829C173.342 65.8624 172.977 66.3168 172.497 66.6459C172.025 66.9678 171.456 67.1288 170.791 67.1288ZM170.791 66.1737C171.192 66.1737 171.549 66.0556 171.864 65.8195C172.186 65.5834 172.437 65.2472 172.615 64.8107C172.794 64.3743 172.884 63.8521 172.884 63.2439C172.884 62.6358 172.794 62.1135 172.615 61.6771C172.437 61.2407 172.186 60.908 171.864 60.6791C171.549 60.443 171.192 60.3249 170.791 60.3249C170.383 60.3249 170.018 60.443 169.696 60.6791C169.375 60.908 169.124 61.2407 168.945 61.6771C168.766 62.1135 168.677 62.6358 168.677 63.2439C168.677 63.8521 168.766 64.3743 168.945 64.8107C169.124 65.2472 169.375 65.5834 169.696 65.8195C170.018 66.0556 170.383 66.1737 170.791 66.1737ZM181.368 67V66.2273C181.869 65.841 182.345 65.4511 182.796 65.0576C183.246 64.6641 183.647 64.2742 183.998 63.8878C184.355 63.4943 184.634 63.1116 184.835 62.7395C185.035 62.3604 185.135 61.9991 185.135 61.6557C185.135 61.4124 185.092 61.187 185.006 60.9796C184.921 60.7721 184.785 60.604 184.599 60.4752C184.413 60.3392 184.159 60.2713 183.837 60.2713C183.529 60.2713 183.271 60.3392 183.064 60.4752C182.864 60.6111 182.71 60.7935 182.603 61.0225C182.502 61.2443 182.452 61.4911 182.452 61.763H181.411C181.418 61.2478 181.529 60.8114 181.744 60.4537C181.959 60.096 182.248 59.8241 182.613 59.6381C182.985 59.4521 183.4 59.3591 183.858 59.3591C184.337 59.3591 184.752 59.4485 185.103 59.6274C185.454 59.7991 185.725 60.0531 185.919 60.3893C186.112 60.7184 186.208 61.1226 186.208 61.602C186.208 61.9454 186.14 62.2888 186.004 62.6322C185.869 62.9685 185.682 63.2976 185.446 63.6195C185.217 63.9415 184.96 64.2527 184.674 64.5532C184.388 64.8465 184.091 65.1255 183.783 65.3903C183.483 65.655 183.193 65.8946 182.914 66.1093H186.444V67H181.368ZM196.63 67.1288C196.101 67.1288 195.647 67.0358 195.267 66.8498C194.888 66.6566 194.588 66.399 194.366 66.0771C194.144 65.748 194.008 65.3795 193.958 64.9717H195.01C195.081 65.3366 195.26 65.6371 195.546 65.8732C195.833 66.1021 196.194 66.2166 196.63 66.2166C196.959 66.2166 197.242 66.1379 197.478 65.9805C197.714 65.8231 197.897 65.612 198.025 65.3473C198.154 65.0826 198.219 64.7893 198.219 64.4673C198.219 64.1239 198.151 63.827 198.015 63.5766C197.886 63.3191 197.703 63.1187 197.467 62.9756C197.238 62.8326 196.97 62.761 196.663 62.761C196.291 62.761 195.969 62.8469 195.697 63.0186C195.432 63.1831 195.239 63.3942 195.117 63.6517H194.076L194.699 59.4879H198.744V60.4215H195.525L195.128 62.5249C195.3 62.3317 195.529 62.1743 195.815 62.0527C196.108 61.9311 196.441 61.8703 196.813 61.8703C197.192 61.8703 197.532 61.9383 197.832 62.0742C198.133 62.203 198.387 62.3854 198.594 62.6215C198.809 62.8576 198.97 63.133 199.077 63.4478C199.192 63.7626 199.249 64.0953 199.249 64.4459C199.249 64.8251 199.188 65.1756 199.066 65.4976C198.945 65.8195 198.77 66.1057 198.541 66.3561C198.319 66.5994 198.043 66.7889 197.714 66.9249C197.392 67.0608 197.031 67.1288 196.63 67.1288ZM217.226 64.7786C216.982 64.7786 216.757 64.7177 216.549 64.5961C216.349 64.4745 216.188 64.3135 216.067 64.1132C215.952 63.9057 215.895 63.6768 215.895 63.4264C215.895 63.1688 215.952 62.9399 216.067 62.7395C216.188 62.5321 216.349 62.3675 216.549 62.2459C216.757 62.1243 216.982 62.0635 217.226 62.0635C217.483 62.0635 217.712 62.1243 217.912 62.2459C218.12 62.3675 218.284 62.5321 218.406 62.7395C218.528 62.9399 218.589 63.1688 218.589 63.4264C218.589 63.6768 218.528 63.9057 218.406 64.1132C218.284 64.3135 218.12 64.4745 217.912 64.5961C217.712 64.7177 217.483 64.7786 217.226 64.7786ZM235.416 67V59.4879H240.159V60.3679H236.489V62.7717H239.837V63.6303H236.489V66.12H240.159V67H235.416ZM247.878 67V59.4879H248.951L252.783 65.2507V59.4879H253.856V67H252.783L248.951 61.2478V67H247.878ZM264.213 67.1288C263.662 67.1288 263.179 67.0322 262.764 66.839C262.349 66.6387 262.027 66.3597 261.798 66.002C261.57 65.6442 261.455 65.2257 261.455 64.7464H262.582C262.589 65.0182 262.653 65.2686 262.775 65.4976C262.904 65.7194 263.086 65.8982 263.322 66.0342C263.566 66.1629 263.863 66.2273 264.213 66.2273C264.514 66.2273 264.771 66.1772 264.986 66.0771C265.208 65.9769 265.376 65.841 265.49 65.6693C265.605 65.4904 265.662 65.2865 265.662 65.0576C265.662 64.7929 265.601 64.5747 265.479 64.4029C265.358 64.2312 265.193 64.0917 264.986 63.9844C264.785 63.8699 264.549 63.7698 264.277 63.6839C264.013 63.5981 263.734 63.5051 263.44 63.4049C262.847 63.2117 262.403 62.9613 262.11 62.6537C261.824 62.3461 261.68 61.9454 261.68 61.4518C261.68 61.0296 261.781 60.6648 261.981 60.3571C262.181 60.0423 262.46 59.7991 262.818 59.6274C263.183 59.4485 263.612 59.3591 264.106 59.3591C264.592 59.3591 265.018 59.4485 265.383 59.6274C265.748 59.8062 266.034 60.0531 266.241 60.3679C266.449 60.6827 266.553 61.0511 266.553 61.4732H265.415C265.415 61.28 265.365 61.0905 265.265 60.9044C265.165 60.7184 265.014 60.5682 264.814 60.4537C264.614 60.3321 264.367 60.2713 264.074 60.2713C263.83 60.2641 263.612 60.3035 263.419 60.3893C263.226 60.4752 263.076 60.6004 262.968 60.7649C262.861 60.9295 262.807 61.1262 262.807 61.3552C262.807 61.5841 262.854 61.7701 262.947 61.9132C263.047 62.0491 263.19 62.1672 263.376 62.2674C263.562 62.3675 263.777 62.4605 264.02 62.5464C264.27 62.6251 264.546 62.7145 264.846 62.8147C265.218 62.9363 265.547 63.0865 265.834 63.2654C266.127 63.4371 266.356 63.6625 266.52 63.9415C266.692 64.2134 266.778 64.5639 266.778 64.9932C266.778 65.3652 266.681 65.7122 266.488 66.0342C266.295 66.3561 266.009 66.6208 265.63 66.8283C265.25 67.0286 264.778 67.1288 264.213 67.1288Z" fill="#FCF3E7"/>
</svg>
