<svg width="149" height="54" viewBox="0 0 149 54" fill="none" xmlns="http://www.w3.org/2000/svg">
<path d="M1.87357 19.9328C1.66943 20.9803 1.66943 22.2702 1.66943 24.4308V29.6282C1.66943 32.3089 1.66943 33.6492 2.0593 34.8491C2.40425 35.9108 2.9685 36.8881 3.71544 37.7177C4.55963 38.6552 5.7204 39.3254 8.04192 40.6657L12.543 43.2645C14.5975 44.4506 15.7429 45.112 16.8346 45.4302V29.3938C16.8346 28.5922 16.3968 27.8546 15.693 27.4708L1.87357 19.9328Z" fill="#31423D"/>
<path d="M39.5063 22.2882V30.6497C39.5063 31.8058 40.0086 32.9048 40.8829 33.6614L46.9009 38.8693C47.253 39.1673 47.6187 39.4111 47.9979 39.6007C48.3907 39.7767 48.7699 39.8648 49.1356 39.8648C49.9211 39.8648 50.5508 39.6074 51.0248 39.0928C51.5124 38.5646 51.7562 37.8807 51.7562 37.041V15.9134C51.7562 15.0737 51.5124 14.3965 51.0248 13.8819C50.5508 13.3537 49.9211 13.0896 49.1356 13.0896C48.7699 13.0896 48.3907 13.1776 47.9979 13.3537C47.6187 13.5298 47.253 13.7735 46.9009 14.085L40.8876 19.2724C40.0105 20.029 39.5063 21.1299 39.5063 22.2882Z" fill="#31423D"/>
<path d="M3.88477 16.9467C3.71743 16.8554 3.54195 16.7935 3.36427 16.7594C3.47638 16.6163 3.59352 16.4769 3.71553 16.3413C4.55972 15.4038 5.72049 14.7336 8.04201 13.3933L12.5431 10.7945C14.8646 9.4542 16.0254 8.78403 17.2594 8.52172C18.3513 8.28963 19.4798 8.28963 20.5717 8.52172C21.8058 8.78403 22.9665 9.4542 25.288 10.7945L29.736 13.3626C29.7538 13.3728 29.7715 13.383 29.7892 13.3933C32.1108 14.7336 33.2715 15.4038 34.1157 16.3413C34.8627 17.1709 35.4269 18.1482 35.7719 19.2099C36.1617 20.4098 36.1617 21.7501 36.1617 24.4308V29.6282C36.1617 32.3089 36.1617 33.6492 35.7719 34.8491C35.4269 35.9108 34.8627 36.8881 34.1157 37.7177C33.2715 38.6552 32.1108 39.3254 29.7894 40.6656C29.7695 40.6771 29.7494 40.6887 29.7295 40.7001L25.288 43.2644C22.9665 44.6048 21.8058 45.275 20.5717 45.5373C20.521 45.548 20.4702 45.5583 20.4193 45.5681L20.4193 29.3938C20.4193 27.2805 19.2649 25.3359 17.4096 24.3239L3.88477 16.9467Z" fill="#31423D"/>
<path d="M60.6554 13.5015H66.2018L73.805 33.5931L81.4082 13.5015H86.9545L77.2209 39.2129H70.389L60.6554 13.5015ZM92.6511 17.4684C90.9983 17.4684 89.6025 16.0727 89.6025 14.4198C89.6025 12.7669 90.9983 11.3712 92.6511 11.3712C94.304 11.3712 95.663 12.7669 95.663 14.4198C95.663 16.0727 94.304 17.4684 92.6511 17.4684ZM90.3004 39.2129V20.7007H94.9652V39.2129H90.3004ZM98.6919 36.5316L101.777 33.74C102.916 35.1725 104.275 36.201 106.038 36.201C107.544 36.201 108.315 35.3195 108.315 34.2175C108.315 30.9853 99.4632 32.1974 99.4632 25.6961C99.4632 22.4271 102.218 19.9661 106.075 19.9661C108.903 19.9661 111.474 21.3251 112.796 23.1249L109.711 25.843C108.756 24.6676 107.544 23.7126 106.111 23.7126C104.642 23.7126 103.944 24.5207 103.944 25.4757C103.944 28.6345 112.796 27.5326 112.796 33.9237C112.723 37.8171 109.601 39.9475 106.111 39.9475C102.806 39.9475 100.455 38.6252 98.6919 36.5316ZM119.446 17.4684C117.793 17.4684 116.397 16.0727 116.397 14.4198C116.397 12.7669 117.793 11.3712 119.446 11.3712C121.099 11.3712 122.458 12.7669 122.458 14.4198C122.458 16.0727 121.099 17.4684 119.446 17.4684ZM117.095 39.2129V20.7007H121.76V39.2129H117.095ZM136.169 19.9661C142.193 19.9661 146.307 24.4105 146.307 29.9568C146.307 35.5031 142.193 39.9475 136.169 39.9475C130.145 39.9475 126.031 35.5031 126.031 29.9568C126.031 24.4105 130.145 19.9661 136.169 19.9661ZM136.242 35.5398C139.218 35.5398 141.458 33.1524 141.458 29.9568C141.458 26.7245 139.218 24.3738 136.242 24.3738C133.157 24.3738 130.88 26.7245 130.88 29.9568C130.88 33.1891 133.157 35.5398 136.242 35.5398Z" fill="#31423D"/>
</svg>
