<svg width="140" height="92" viewBox="0 0 140 92" fill="none" xmlns="http://www.w3.org/2000/svg">
<path d="M35.3239 0H0.00292969V12.844H35.3239V0Z" fill="url(#paint0_linear_9760_9968)"/>
<mask id="mask0_9760_9968" style="mask-type:luminance" maskUnits="userSpaceOnUse" x="0" y="0" width="36" height="13">
<path d="M35.321 0H0V12.844H35.321V0Z" fill="white"/>
</mask>
<g mask="url(#mask0_9760_9968)">
<mask id="mask1_9760_9968" style="mask-type:luminance" maskUnits="userSpaceOnUse" x="-1" y="-1" width="37" height="15">
<path d="M35.3146 -0.802734H-0.00634766V13.6467H35.3146V-0.802734Z" fill="white"/>
</mask>
<g mask="url(#mask1_9760_9968)">
<path d="M9.068 7.38588C8.34553 7.86753 7.70333 8.42945 7.22168 9.07165V8.99138C7.54278 8.59 7.7836 8.18863 8.02443 7.78725C8.34553 7.6267 8.58635 7.38588 8.82718 7.14505C9.22855 6.74368 9.62993 6.3423 10.1919 6.10148C10.4327 6.0212 10.5932 6.0212 10.8341 6.10148C10.7538 6.18175 10.6735 6.18175 10.513 6.26203H10.4327V6.18175C10.1919 6.42258 9.87075 6.58313 9.62993 6.90423C9.54965 7.06478 9.46938 7.38588 9.068 7.38588C9.14828 7.38588 9.068 7.46615 9.068 7.38588ZM10.3524 11.0785C10.3524 10.9983 10.2721 11.0785 10.1919 11.0785L10.1116 11.1588L10.0313 11.2391L9.87075 11.3996C9.87075 11.3996 9.95103 11.4799 10.0313 11.3996L10.1116 11.3194C10.1919 11.3194 10.2721 11.2391 10.2721 11.1588C10.3524 11.1588 10.3524 11.1588 10.3524 11.0785ZM9.068 7.6267C9.14828 7.6267 9.22855 7.6267 9.22855 7.54643C9.22855 7.46615 9.30883 7.46615 9.30883 7.46615V7.38588C9.14828 7.46615 9.068 7.54643 9.068 7.6267ZM10.9946 9.15193C11.0749 9.07165 11.1551 9.07165 11.2354 9.07165C11.7973 8.99137 12.3593 8.83083 12.9212 8.59C12.279 8.18863 11.5565 7.86753 10.8341 7.78725H10.9143C10.8341 7.70698 10.6735 7.70698 10.513 7.6267H10.5932C10.4327 7.54643 10.1919 7.54643 10.0313 7.46615C10.1116 7.46615 10.1919 7.3056 10.1919 7.22533H10.1116C9.79048 7.38588 9.62993 7.6267 9.46938 7.9478C9.62993 8.02808 9.87075 7.9478 10.0313 8.02808H9.79048C9.7102 8.02808 9.62993 8.10835 9.62993 8.18863H9.7102C9.62993 8.18863 9.62993 8.2689 9.54965 8.2689C9.62993 8.34918 9.7102 8.2689 9.87075 8.2689C9.87075 8.34918 9.95103 8.34918 9.95103 8.34918C9.87075 8.34918 9.79048 8.42945 9.7102 8.59C9.62993 8.75055 9.54965 8.75055 9.46938 8.83083V8.9111C9.22855 9.07165 8.98773 9.31247 8.7469 9.5533V9.63358C8.66663 9.71385 8.58635 9.71385 8.58635 9.79412V9.8744C8.90745 9.79412 9.068 9.5533 9.3891 9.47302L9.87075 9.2322C10.0313 9.2322 10.1116 9.15193 10.2721 9.15193V9.2322H10.4327C10.4327 9.31248 10.2721 9.2322 10.3524 9.31248C10.4327 9.39275 10.5932 9.39275 10.6735 9.31248C10.8341 9.15193 10.9143 9.15193 10.9946 9.15193ZM9.95103 10.4363C9.62993 10.5969 9.22855 10.5969 8.98773 10.7574C8.98773 10.7574 8.98773 10.8377 8.90745 10.8377C8.90745 10.8377 8.82718 10.8377 8.82718 10.918C8.7469 10.918 8.7469 10.9983 8.66663 11.0785L8.58635 11.1588C8.58635 11.1588 8.58635 11.2391 8.66663 11.1588L8.7469 11.0785C8.7469 11.0785 8.66663 11.1588 8.66663 11.2391V11.4799L8.58635 11.5602C8.58635 11.5602 8.58635 11.6405 8.50608 11.6405L8.4258 11.7207L8.58635 11.5602L8.66663 11.4799H8.82718C8.82718 11.4799 8.82718 11.3996 8.90745 11.3996C8.98773 11.3194 9.068 11.2391 9.14828 11.2391H9.22855C9.30883 11.1588 9.46938 11.1588 9.54965 11.0785C9.62993 10.9983 9.7102 10.918 9.79048 10.918C9.95103 10.7574 10.1919 10.6771 10.4327 10.5166C10.3524 10.5166 10.2721 10.4363 10.1919 10.4363C10.1919 10.5166 10.0313 10.4363 9.95103 10.4363ZM24.0794 6.9845C23.9991 7.14505 23.7583 7.14505 23.5978 7.22533C23.4372 7.38588 23.5978 7.54643 23.678 7.6267C23.7583 7.86753 23.5175 8.02808 23.3569 8.02808C23.4372 8.10835 23.5175 8.10835 23.5175 8.10835C23.5175 8.2689 23.678 8.2689 23.5978 8.42945C23.5175 8.59 23.1964 8.67028 23.3569 8.83083C23.4372 8.99138 23.4372 9.2322 23.3569 9.39275C23.2767 9.5533 23.1161 9.71385 22.9556 9.79412C22.795 9.8744 22.6345 9.8744 22.4739 9.79412C22.3936 9.79412 22.3936 9.71385 22.3134 9.71385C21.912 9.63357 21.5106 9.5533 21.1092 9.5533C21.029 9.5533 20.8684 9.63358 20.7881 9.63358C20.7079 9.71385 20.5473 9.79412 20.467 9.8744L20.3868 9.95467C20.3065 10.0349 20.2262 10.1152 20.2262 10.1955C20.1459 10.356 20.0657 10.5166 20.0657 10.6771C19.9051 11.0785 19.9051 11.4799 20.0657 11.801C20.0657 11.801 20.8684 12.0418 21.4303 12.2827C21.5909 12.3629 21.8317 12.4432 21.9923 12.6038L23.3569 13.4065H10.5932L11.8776 12.6038C12.3593 12.2827 12.9212 12.0418 13.4831 11.801C13.8845 11.6405 14.3661 11.3996 14.6872 11.0785C14.8478 10.918 14.9281 10.7574 15.0886 10.6771C15.3294 10.356 15.5703 10.1152 15.8914 9.8744L16.1322 9.63358C16.1322 9.63358 16.1322 9.5533 16.2125 9.5533C16.0519 9.63357 16.0519 9.71385 15.8914 9.71385C15.8914 9.71385 15.8111 9.71385 15.8914 9.63358C15.9716 9.5533 16.0519 9.47302 16.1322 9.47302V9.39275C15.8111 9.39275 15.5703 9.5533 15.3294 9.79412H15.1689C14.7675 9.95467 14.5267 10.1955 14.2056 10.356V10.2758C14.045 10.356 13.8845 10.4363 13.8042 10.4363C13.6437 10.4363 13.4028 10.5166 13.162 10.4363C12.8409 10.4363 12.6001 10.5166 12.279 10.5969C12.1184 10.6771 11.9579 10.6771 11.7973 10.7574V10.8377L11.6368 10.9983C11.4762 11.0785 11.396 11.1588 11.2354 11.3194L10.8341 11.7207H10.7538L10.8341 11.6405L10.9143 11.5602C10.9143 11.4799 10.9946 11.4799 10.9946 11.3996C11.1551 11.3194 11.2354 11.1588 11.396 11.0785C11.396 11.0785 11.396 10.9983 11.4763 10.9983L11.396 11.0785C11.3157 11.1588 11.3157 11.2391 11.2354 11.2391V11.1588V11.0785L11.396 10.918C11.4762 10.8377 11.5565 10.8377 11.6368 10.7574H11.7171C11.5565 10.8377 11.4762 10.8377 11.3157 10.918H11.2354H11.1552C11.1552 10.8377 11.2354 10.8377 11.3157 10.7574H11.396C12.1987 10.1152 13.2423 10.2758 14.1253 9.95467C14.2056 9.8744 14.2859 9.8744 14.3661 9.79412C14.4464 9.71385 14.607 9.63357 14.7675 9.5533C14.9281 9.39275 15.0886 9.2322 15.1689 8.99138V8.9111C14.8478 9.2322 14.5267 9.47303 14.1253 9.71385C13.6437 9.8744 13.0817 10.0349 12.5198 10.0349C12.5198 9.95467 12.6001 9.95467 12.6001 9.95467C12.6001 9.8744 12.6804 9.8744 12.6804 9.79412H12.7606C12.7606 9.79412 12.7606 9.71385 12.8409 9.71385H12.9212C12.8409 9.63357 12.6804 9.79412 12.6001 9.71385C12.6804 9.63357 12.6001 9.5533 12.6804 9.5533H12.7606C12.7606 9.5533 12.7606 9.47302 12.8409 9.47302C13.2423 9.2322 13.5634 9.07165 13.8845 8.9111C13.8042 8.9111 13.8042 8.99138 13.7239 8.9111C13.8042 8.9111 13.7239 8.83083 13.8042 8.83083C14.045 8.75055 14.2859 8.59 14.5267 8.50973C14.4464 8.50973 14.3661 8.59 14.2859 8.50973C14.3661 8.50973 14.3661 8.42945 14.4464 8.42945V8.34918C14.4464 8.2689 14.5267 8.34918 14.607 8.2689H14.5267C14.607 8.18863 14.6872 8.10835 14.8478 8.10835C14.8478 8.02808 14.7675 8.10835 14.7675 8.02808H14.8478H14.4464C14.3661 8.02808 14.4464 7.9478 14.4464 7.9478C14.5267 7.78725 14.607 7.54643 14.6872 7.38588H14.607C14.3661 7.6267 13.9648 7.78725 13.6437 7.86753H13.4831C13.3226 7.9478 13.162 7.9478 13.0817 7.86753C13.0015 7.78725 12.9212 7.70698 12.8409 7.70698C12.6804 7.6267 12.4395 7.46615 12.1987 7.38588C11.6368 7.22533 10.9946 7.06478 10.3524 7.14505C10.5932 7.06478 10.9143 6.9845 11.2354 6.90423C11.6368 6.74368 12.0382 6.6634 12.4395 6.6634H12.1987C11.8776 6.6634 11.4762 6.74368 11.1552 6.82395C10.9143 6.90423 10.6735 6.9845 10.4327 6.9845C10.2721 7.06478 10.1919 7.14505 10.0313 7.14505V7.06478C10.2721 6.74368 10.5932 6.50285 10.9143 6.42258C11.3157 6.3423 11.7973 6.42258 12.1987 6.50285C12.5198 6.50285 12.8409 6.58313 13.0817 6.6634C13.162 6.6634 13.2423 6.82395 13.3226 6.90423C13.4831 6.9845 13.6437 6.90423 13.7239 6.9845V6.82395C13.8042 6.74368 13.9648 6.82395 14.045 6.82395C14.2056 6.6634 13.8845 6.50285 13.8042 6.3423V6.26203C13.9648 6.42258 14.2056 6.58313 14.3661 6.74368C14.4464 6.82395 14.7675 6.90423 14.7675 6.74368C14.607 6.50285 14.4464 6.26203 14.2056 6.0212V5.86065C14.1253 5.86065 14.1253 5.86065 14.1253 5.78038C14.045 5.7001 14.045 5.61983 14.045 5.53955C13.9648 5.379 14.045 5.21846 13.9648 5.13818C13.8845 4.97763 13.8845 4.89736 13.8845 4.73681C13.8042 4.33543 13.7239 3.93406 13.6437 3.61296C13.5634 3.13131 13.8845 2.81021 14.1253 2.40883C14.2859 2.08773 14.5267 1.84691 14.7675 1.60608C14.8478 1.28498 15.0083 1.04416 15.2492 0.803339C15.49 0.562515 15.7308 0.401965 15.9716 0.32169C16.2125 0.241415 16.373 0.16114 16.6138 0.0808651L18.6207 -0.240234H20.0657L21.5106 0.000590235C21.5909 0.000590235 21.6712 0.000590235 21.6712 0.0808651C21.7514 0.16114 21.912 0.241415 21.9923 0.241415C22.1528 0.32169 22.3134 0.48224 22.4739 0.64279C22.5542 0.723064 22.6345 0.883614 22.5542 0.963889C22.4739 1.04416 22.4739 1.28498 22.3936 1.28498C22.2331 1.36526 22.0725 1.36526 21.912 1.36526C21.8317 1.36526 21.7514 1.36526 21.5909 1.28498C21.9923 1.44553 22.3134 1.60608 22.5542 1.92718C22.5542 2.00746 22.7147 2.00746 22.795 2.00746V2.08773C22.7147 2.16801 22.7147 2.16801 22.7147 2.24828H22.795C22.8753 2.16801 22.8753 1.92718 23.0358 2.00746C23.1964 2.08773 23.1964 2.24828 23.1161 2.32856C23.0358 2.40883 22.9556 2.48911 22.795 2.56938V2.72993C22.8753 2.81021 22.8753 2.89048 22.9556 3.05103C23.0358 3.21158 23.0358 3.45241 23.1161 3.61296C23.1964 4.01433 23.2767 4.33543 23.2767 4.73681C23.2767 4.89736 23.1964 5.13818 23.2767 5.29873L23.5175 5.78038C23.5978 5.94093 23.678 6.0212 23.7583 6.18175C23.9189 6.42258 24.24 6.6634 24.0794 6.9845ZM11.5565 11.1588C11.4762 11.1588 11.4763 11.2391 11.4763 11.2391C11.4763 11.2391 11.5565 11.2391 11.5565 11.1588ZM10.8341 9.5533C10.8341 9.63357 10.9143 9.5533 10.9143 9.5533C11.0749 9.47302 11.3157 9.5533 11.396 9.39275C11.3157 9.31248 11.2354 9.39275 11.2354 9.31248C11.1551 9.31248 11.0749 9.31248 11.0749 9.39275C10.9946 9.47303 10.8341 9.47302 10.8341 9.5533Z" fill="white"/>
<path d="M22.3942 4.65699C22.4744 4.65699 22.6349 4.657 22.6349 4.73722C22.5547 4.89768 22.314 4.9779 22.1535 5.13836H22.0733C21.9931 5.21858 21.9931 5.29881 21.9931 5.29881H21.7524C21.8326 5.37904 21.9931 5.45927 22.1535 5.45927L22.2338 5.53949H22.3942V5.61972C22.314 5.69995 22.2338 5.69995 22.0733 5.69995C22.2338 5.78017 22.4744 5.78017 22.6349 5.69995C22.7954 5.61972 22.6349 5.37904 22.7151 5.29881C22.6349 5.29881 22.7151 5.21858 22.6349 5.21858C22.7151 5.13836 22.7151 5.05813 22.7954 5.05813C22.8756 5.05813 22.8756 5.05813 22.9558 4.9779C22.9558 4.89768 22.8756 4.89768 22.8756 4.81745C23.036 4.73722 23.1163 4.57677 23.1163 4.41631C23.1163 4.33609 22.8756 4.33609 22.7954 4.25586H22.3942C22.2338 4.25586 22.1535 4.33609 21.9931 4.33609L21.5117 4.57677C21.6722 4.49654 21.8326 4.49654 22.0733 4.41631C22.0733 4.65699 22.2338 4.65699 22.3942 4.65699Z" fill="#7C7C7C"/>
</g>
</g>
<path d="M1.39795 28.899V19.4587H5.10665C8.10058 19.4587 10.1235 21.63 10.1235 24.1789C10.1235 26.7277 8.10058 28.899 5.10665 28.899H1.39795ZM5.13362 21.1984H3.31299V27.1593H5.13362C6.88683 27.1593 8.15453 25.8511 8.15453 24.1789C8.15453 22.4931 6.88683 21.1984 5.13362 21.1984ZM11.9704 28.899V19.4587H13.8854V28.899H11.9704ZM16.5241 28.899V19.4587H19.4101C21.487 19.4587 22.7682 20.5241 22.7682 22.2773C22.7682 23.4236 22.2153 24.2733 21.2443 24.7183L24.1977 28.899H21.9455L19.4236 25.0824H18.4391V28.899H16.5241ZM19.518 21.0501H18.4391V23.4911H19.518C20.3272 23.4911 20.7992 23.019 20.7992 22.2503C20.7992 21.5356 20.3272 21.0501 19.518 21.0501ZM25.4107 28.899V19.4587H30.9131V21.0501H27.3258V23.2888H30.3737V24.8801H27.3258V27.3076H30.9131V28.899H25.4107ZM37.1354 27.3751C38.2143 27.3751 39.0639 26.8491 39.6033 26.0804L41.1138 27.2402C40.2507 28.4135 38.8481 29.1687 37.1354 29.1687C34.1549 29.1687 32.1185 26.8761 32.1185 24.1789C32.1185 21.4816 34.1549 19.189 37.1354 19.189C38.8481 19.189 40.2507 19.9577 41.1138 21.104L39.6033 22.2773C39.0639 21.5086 38.2143 20.9826 37.1354 20.9826C35.3552 20.9826 34.0875 22.3717 34.0875 24.1789C34.0875 25.986 35.3552 27.3751 37.1354 27.3751ZM41.8048 21.1984V19.4587H49.5459V21.1984H46.6329V28.899H44.7178V21.1984H41.8048ZM51.2278 28.899V19.4587H53.1428V28.899H51.2278ZM59.9892 19.189C62.9562 19.189 64.9926 21.4816 64.9926 24.1789C64.9926 26.8761 62.9562 29.1687 59.9892 29.1687C57.0088 29.1687 54.9723 26.8761 54.9723 24.1789C54.9723 21.4816 57.0088 19.189 59.9892 19.189ZM59.9892 27.3751C61.7559 27.3751 63.0236 25.986 63.0236 24.1789C63.0236 22.3717 61.7559 20.9826 59.9892 20.9826C58.209 20.9826 56.9413 22.3717 56.9413 24.1789C56.9413 25.986 58.209 27.3751 59.9892 27.3751ZM66.8281 28.899V19.4587H69.2826L73.5037 26.2827V19.4587H75.4188V28.899H72.9643L68.7431 22.075V28.899H66.8281ZM1.39795 42.8133V33.373H3.31299V42.8133H1.39795ZM5.95164 42.8133V33.373H8.40613L12.6273 40.197V33.373H14.5424V42.8133H12.0879L7.86668 35.9893V42.8133H5.95164ZM16.2116 35.1127V33.373H23.9526V35.1127H21.0396V42.8133H19.1246V35.1127H16.2116ZM25.6347 42.8133V33.373H31.137V34.9644H27.5497V37.2031H30.5976V38.7945H27.5497V41.222H31.137V42.8133H25.6347ZM33.3623 42.8133V33.373H36.2484C38.3253 33.373 39.6064 34.4384 39.6064 36.1916C39.6064 37.3379 39.0535 38.1876 38.0825 38.6326L41.036 42.8133H38.7838L36.2619 38.9967H35.2774V42.8133H33.3623ZM36.3563 34.9644H35.2774V37.4054H36.3563C37.1654 37.4054 37.6375 36.9334 37.6375 36.1646C37.6375 35.4499 37.1654 34.9644 36.3563 34.9644ZM42.249 42.8133V33.373H44.636L46.9422 37.3379L49.2483 33.373H51.6354V42.8133H49.7203V36.0433L47.6165 39.5767H46.2679L44.164 36.0433V42.8133H42.249ZM54.2701 42.8133V33.373H56.1851V42.8133H54.2701ZM58.8238 42.8133V33.373H61.2783L65.4995 40.197V33.373H67.4145V42.8133H64.96L60.7389 35.9893V42.8133H58.8238ZM70.0547 42.8133V33.373H71.9697V42.8133H70.0547ZM73.7588 41.5052L75.1479 40.224C75.7143 40.9522 76.4695 41.3838 77.2383 41.3838C77.9935 41.3838 78.452 40.9792 78.452 40.3049C78.452 38.5652 74.1634 39.0372 74.1634 35.841C74.1634 34.344 75.4041 33.1033 77.2113 33.1033C78.6273 33.1033 79.7062 33.7371 80.5154 34.6946L79.1128 35.9624C78.5599 35.2476 77.9395 34.7756 77.2248 34.7756C76.5505 34.7756 76.1054 35.2071 76.1054 35.7735C76.1054 37.4863 80.394 37.0008 80.394 40.2375C80.367 42.0176 78.9914 43.0831 77.2517 43.0831C75.6604 43.0831 74.595 42.5032 73.7588 41.5052ZM81.3651 35.1127V33.373H89.1062V35.1127H86.1932V42.8133H84.2781V35.1127H81.3651ZM94.3889 32.5638H92.6493L94.1731 30.7432H96.1421L94.3889 32.5638ZM90.7881 42.8133V33.373H96.2906V34.9644H92.7032V37.2031H95.7511V38.7945H92.7032V41.222H96.2906V42.8133H90.7881ZM98.5158 42.8133V33.373H101.402C103.479 33.373 104.76 34.4384 104.76 36.1916C104.76 37.3379 104.207 38.1876 103.236 38.6326L106.189 42.8133H103.937L101.415 38.9967H100.431V42.8133H98.5158ZM101.51 34.9644H100.431V37.4054H101.51C102.319 37.4054 102.791 36.9334 102.791 36.1646C102.791 35.4499 102.319 34.9644 101.51 34.9644ZM107.403 42.8133V33.373H109.318V42.8133H107.403ZM111.956 42.8133V33.373H117.459V34.9644H113.871V37.2031H116.919V38.7945H113.871V41.222H117.459V42.8133H111.956ZM119.684 42.8133V33.373H121.599V41.0736H125.186V42.8133H119.684ZM126.872 42.8133V33.373H128.787V41.0736H132.374V42.8133H126.872ZM134.059 42.8133V33.373H139.562V34.9644H135.974V37.2031H139.023V38.7945H135.974V41.222H139.562V42.8133H134.059ZM1.39795 56.7276V47.2873H5.10665C8.10058 47.2873 10.1235 49.4586 10.1235 52.0075C10.1235 54.5564 8.10058 56.7276 5.10665 56.7276H1.39795ZM5.13362 49.027H3.31299V54.9879H5.13362C6.88683 54.9879 8.15453 53.6798 8.15453 52.0075C8.15453 50.3217 6.88683 49.027 5.13362 49.027ZM17.5376 53.1943V47.2873H19.4526V53.0324C19.4526 55.5139 17.9961 56.9974 15.6226 56.9974C13.2625 56.9974 11.806 55.5139 11.806 53.0324V47.2873H13.721V53.1943C13.721 54.462 14.4358 55.2037 15.636 55.2037C16.8093 55.2037 17.5376 54.462 17.5376 53.1943ZM25.3317 56.7276V47.2873H27.7862L32.0074 54.1113V47.2873H33.9224V56.7276H31.468L27.2468 49.9036V56.7276H25.3317ZM42.0245 53.1943V47.2873H43.9396V53.0324C43.9396 55.5139 42.4831 56.9974 40.1095 56.9974C37.7494 56.9974 36.2929 55.5139 36.2929 53.0324V47.2873H38.208V53.1943C38.208 54.462 38.9227 55.2037 40.123 55.2037C41.2963 55.2037 42.0245 54.462 42.0245 53.1943ZM46.3185 56.7276V47.2873H48.7056L51.0117 51.2523L53.3178 47.2873H55.7049V56.7276H53.7898V49.9576L51.686 53.491H50.3374L48.2335 49.9576V56.7276H46.3185ZM61.9405 46.4781H60.2008L61.7247 44.6575H63.6937L61.9405 46.4781ZM58.3397 56.7276V47.2873H63.8421V48.8787H60.2548V51.1174H63.3026V52.7088H60.2548V55.1363H63.8421V56.7276H58.3397ZM66.0674 56.7276V47.2873H68.9535C71.0303 47.2873 72.3115 48.3527 72.3115 50.1059C72.3115 51.2523 71.7586 52.1019 70.7876 52.5469L73.741 56.7276H71.4888L68.9669 52.9111H67.9824V56.7276H66.0674ZM69.0613 48.8787H67.9824V51.3197H69.0613C69.8705 51.3197 70.3425 50.8477 70.3425 50.079C70.3425 49.3642 69.8705 48.8787 69.0613 48.8787ZM74.954 56.7276V47.2873H76.8691V56.7276H74.954ZM87.4241 56.4849C88.1523 57.1457 88.7997 57.3885 89.4065 57.3885C89.6088 57.3885 89.8785 57.3615 90.0808 57.2806V58.8989C89.7707 59.0203 89.5009 59.0742 89.0829 59.0742C88.0309 59.0742 87.0599 58.6427 86.1294 57.8335L85.01 56.8355C84.6055 56.9434 84.1739 56.9974 83.7154 56.9974C80.7349 56.9974 78.6985 54.7047 78.6985 52.0075C78.6985 49.3102 80.7349 47.0176 83.7154 47.0176C86.6823 47.0176 88.7187 49.3102 88.7187 52.0075C88.7187 53.5854 88.0174 55.0284 86.8576 55.9454L87.4241 56.4849ZM83.7154 55.2037C85.482 55.2037 86.7497 53.8146 86.7497 52.0075C86.7497 50.2003 85.482 48.8113 83.7154 48.8113C81.9352 48.8113 80.6675 50.2003 80.6675 52.0075C80.6675 53.8146 81.9352 55.2037 83.7154 55.2037ZM96.1216 53.1943V47.2873H98.0366V53.0324C98.0366 55.5139 96.5801 56.9974 94.2065 56.9974C91.8465 56.9974 90.39 55.5139 90.39 53.0324V47.2873H92.305V53.1943C92.305 54.462 93.0198 55.2037 94.22 55.2037C95.3933 55.2037 96.1216 54.462 96.1216 53.1943ZM100.416 56.7276V47.2873H105.918V48.8787H102.331V51.1174H105.378V52.7088H102.331V55.1363H105.918V56.7276H100.416Z" fill="#31423D"/>
<mask id="mask2_9760_9968" style="mask-type:luminance" maskUnits="userSpaceOnUse" x="0" y="63" width="117" height="29">
<path d="M116.539 63.1489H0.000976562V91.5127H116.539V63.1489Z" fill="white"/>
</mask>
<g mask="url(#mask2_9760_9968)">
<mask id="mask3_9760_9968" style="mask-type:luminance" maskUnits="userSpaceOnUse" x="-1" y="67" width="69" height="49">
<path d="M67.4255 67.4292H-0.00537109V115.594H67.4255V67.4292Z" fill="white"/>
</mask>
<g mask="url(#mask3_9760_9968)">
<mask id="mask4_9760_9968" style="mask-type:luminance" maskUnits="userSpaceOnUse" x="-1" y="67" width="35" height="25">
<path d="M33.7013 67.4292H-0.0141602V91.5117H33.7013V67.4292Z" fill="white"/>
</mask>
<g mask="url(#mask4_9760_9968)">
<mask id="mask5_9760_9968" style="mask-type:luminance" maskUnits="userSpaceOnUse" x="30" y="85" width="4" height="6">
<path d="M33.4635 85.1152H30.1455V90.9485H33.4635V85.1152Z" fill="white"/>
</mask>
<g mask="url(#mask5_9760_9968)">
<mask id="mask6_9760_9968" style="mask-type:luminance" maskUnits="userSpaceOnUse" x="30" y="86" width="4" height="5">
<path d="M33.0958 86.8281H30.1523V90.9757H33.0958V86.8281Z" fill="white"/>
</mask>
<g mask="url(#mask6_9760_9968)">
<path d="M32.9352 88.2463C33.3366 87.2295 32.8549 86.8281 32.2662 86.8281C31.2762 86.8281 30.1523 88.5674 30.1523 89.9588C30.1523 90.6278 30.4734 90.9757 30.9551 90.9757C31.517 90.9757 32.1057 90.4405 32.6141 89.504H32.3465C32.0254 89.9053 31.6508 90.1997 31.3029 90.1997C30.9551 90.1997 30.7678 89.9856 30.7678 89.504C30.7741 89.3055 30.801 89.1081 30.8481 88.9153L32.9352 88.2463ZM31.8649 87.4168C32.1592 87.4168 32.4 87.6309 32.2662 88.1125L30.9819 88.4604C31.1959 87.8717 31.5705 87.3901 31.8916 87.3901L31.8649 87.4168Z" fill="#31423D"/>
</g>
<path d="M32.2618 86.3716L33.4652 85.2752V85.1147H32.663L31.9409 86.3716H32.2886H32.2618Z" fill="#31423D"/>
</g>
<mask id="mask7_9760_9968" style="mask-type:luminance" maskUnits="userSpaceOnUse" x="27" y="85" width="4" height="6">
<path d="M30.4039 85.8926H27.3267V90.9767H30.4039V85.8926Z" fill="white"/>
</mask>
<g mask="url(#mask7_9760_9968)">
<path d="M27.7829 87.4178H28.4787L27.3548 90.4682C27.3196 90.5228 27.3004 90.5862 27.2994 90.6512C27.2983 90.716 27.3154 90.78 27.3489 90.8357C27.3823 90.8915 27.4306 90.9366 27.4884 90.9663C27.5462 90.9959 27.6112 91.0088 27.6759 91.0034C28.4787 91.0034 29.3884 90.3077 29.7631 89.3444H29.5757C29.2396 89.8015 28.7585 90.1316 28.2111 90.2809L29.2011 87.4178H30.2715L30.4053 86.9897H29.3884L29.7363 85.8926H29.3617L28.6392 86.9897L27.7829 87.0967V87.4178Z" fill="#31423D"/>
</g>
<mask id="mask8_9760_9968" style="mask-type:luminance" maskUnits="userSpaceOnUse" x="25" y="85" width="3" height="6">
<path d="M27.6599 85.1152H25.0376V90.9753H27.6599V85.1152Z" fill="white"/>
</mask>
<g mask="url(#mask8_9760_9968)">
<path d="M27.0659 87.2564C27.1462 86.9888 26.9589 86.8283 26.7983 86.8283C26.2096 86.8283 25.4604 87.3902 25.1928 88.1662H25.3801C25.5702 87.8592 25.8648 87.6311 26.2096 87.524L25.059 90.5477C25.0359 90.5929 25.0249 90.6435 25.0271 90.6942C25.0293 90.745 25.0446 90.7944 25.0716 90.8375C25.0985 90.8806 25.1362 90.9161 25.1808 90.9403C25.2256 90.9644 25.2758 90.9768 25.3266 90.9758C25.9153 90.9758 26.5843 90.4406 26.8786 89.6379H26.6378C26.4641 89.96 26.1786 90.2075 25.835 90.3336L27.0659 87.2564ZM27.1729 86.1058C27.2362 86.1058 27.2988 86.0934 27.3573 86.0691C27.4157 86.0449 27.4688 86.0094 27.5135 85.9647C27.5583 85.92 27.5937 85.8669 27.6179 85.8084C27.6421 85.75 27.6546 85.6874 27.6546 85.6241C27.6582 85.5586 27.6485 85.4931 27.6259 85.4316C27.6033 85.37 27.5684 85.3137 27.5234 85.2661C27.4782 85.2185 27.4239 85.1806 27.3637 85.1548C27.3034 85.1289 27.2384 85.1156 27.1729 85.1157C27.0451 85.1157 26.9227 85.1665 26.8324 85.2568C26.742 85.3471 26.6913 85.4697 26.6913 85.5974C26.6913 85.7251 26.742 85.8476 26.8324 85.9379C26.9227 86.0283 27.0451 86.079 27.1729 86.079" fill="#31423D"/>
</g>
<mask id="mask9_9760_9968" style="mask-type:luminance" maskUnits="userSpaceOnUse" x="20" y="86" width="5" height="5">
<path d="M24.6028 86.8281H20.6426V90.9757H24.6028V86.8281Z" fill="white"/>
</mask>
<g mask="url(#mask9_9760_9968)">
<path d="M21.5321 87.6582C21.7194 87.6582 21.7997 87.9258 21.5321 88.568L20.7293 90.3875C20.542 90.7354 20.7293 90.9762 21.0504 90.9762C21.1389 90.9922 21.2302 90.9732 21.3051 90.9234C21.3799 90.8735 21.4325 90.7965 21.4518 90.7086L22.2546 88.568C22.6292 88.1131 23.3249 87.6314 23.5925 87.6314C23.8601 87.6314 23.8065 87.792 23.6727 88.0596L22.4419 90.4678C22.4148 90.5197 22.4013 90.5777 22.4026 90.6363C22.4039 90.6949 22.4199 90.7522 22.4492 90.8029C22.4787 90.8537 22.5203 90.8962 22.5705 90.9265C22.6207 90.9567 22.6777 90.9739 22.7362 90.9762C23.3516 90.9762 24.0741 90.4411 24.3417 89.6383H24.1812C23.9896 89.9606 23.684 90.1993 23.3249 90.3073L24.3952 88.1666C24.526 87.9378 24.5995 87.6808 24.6093 87.4174C24.6177 87.338 24.6083 87.2578 24.5817 87.1825C24.5551 87.1072 24.512 87.0389 24.4556 86.9825C24.3992 86.926 24.3308 86.883 24.2555 86.8563C24.1803 86.8297 24.1 86.8202 24.0206 86.8287C23.4854 86.8287 23.0573 87.4174 22.4151 88.1666V87.5779C22.4151 87.2033 22.2813 86.8287 21.9335 86.8287C21.5053 86.8287 21.1307 87.4976 20.8364 88.1398H21.0237C21.211 87.8455 21.3715 87.6582 21.5588 87.6582" fill="#31423D"/>
</g>
<mask id="mask10_9760_9968" style="mask-type:luminance" maskUnits="userSpaceOnUse" x="17" y="86" width="4" height="5">
<path d="M20.7789 86.8281H17.5679V90.9757H20.7789V86.8281Z" fill="white"/>
</mask>
<g mask="url(#mask10_9760_9968)">
<path d="M20.7217 87.7636C20.8554 87.2555 20.7751 86.8276 20.4007 86.8276C19.9194 86.8276 19.7857 87.1485 19.3311 88.1648V87.5764C19.3043 87.1753 19.1706 86.8276 18.7962 86.8276C18.3951 86.8276 18.0207 87.4962 17.6998 88.1648H17.9137C18.1009 87.8171 18.3148 87.6299 18.4486 87.6299C18.6357 87.6299 18.716 87.8973 18.4486 88.5391L17.6463 90.3576C17.4591 90.7053 17.6463 90.9192 17.9672 90.9192C18.0557 90.9352 18.1469 90.9162 18.2217 90.8664C18.2964 90.8164 18.3491 90.7396 18.3683 90.6518L19.1706 88.5124C19.3917 88.2359 19.6237 87.9682 19.8659 87.7101H20.7217V87.7636Z" fill="#31423D"/>
</g>
<mask id="mask11_9760_9968" style="mask-type:luminance" maskUnits="userSpaceOnUse" x="14" y="86" width="4" height="5">
<path d="M17.4585 86.8281H14.5151V90.9757H17.4585V86.8281Z" fill="white"/>
</mask>
<g mask="url(#mask11_9760_9968)">
<path d="M17.298 88.2463C17.6994 87.2295 17.2177 86.8281 16.629 86.8281C15.639 86.8281 14.5151 88.5674 14.5151 89.9588C14.5151 90.6278 14.8362 90.9757 15.3179 90.9757C15.8798 90.9757 16.4685 90.4405 16.9769 89.504H16.7093C16.3882 89.9053 16.0136 90.1997 15.6657 90.1997C15.3179 90.1997 15.1306 89.9856 15.1306 89.504C15.1369 89.3055 15.1638 89.1081 15.2109 88.9153L17.298 88.2463ZM16.2277 87.4168C16.522 87.4168 16.7628 87.6309 16.629 88.1125L15.3446 88.4604C15.5587 87.8717 15.9333 87.3901 16.2544 87.3901L16.2277 87.4168Z" fill="#31423D"/>
</g>
<mask id="mask12_9760_9968" style="mask-type:luminance" maskUnits="userSpaceOnUse" x="11" y="85" width="4" height="6">
<path d="M14.7637 85.8926H11.6865V90.9767H14.7637V85.8926Z" fill="white"/>
</mask>
<g mask="url(#mask12_9760_9968)">
<path d="M12.1428 87.4178H12.8385L11.7147 90.4682C11.6795 90.5228 11.6603 90.5862 11.6592 90.6512C11.6582 90.716 11.6753 90.78 11.7088 90.8357C11.7422 90.8915 11.7904 90.9366 11.8482 90.9663C11.906 90.9959 11.971 91.0088 12.0358 91.0034C12.8385 91.0034 13.7483 90.3077 14.1229 89.3444H13.9356C13.5994 89.8015 13.1184 90.1316 12.5709 90.2809L13.561 87.4178H14.6313L14.7651 86.9897H13.7483L14.0962 85.8926H13.7215L12.9991 86.9897L12.1428 87.0967V87.4178Z" fill="#31423D"/>
</g>
<mask id="mask13_9760_9968" style="mask-type:luminance" maskUnits="userSpaceOnUse" x="7" y="86" width="5" height="5">
<path d="M11.6527 86.6416H7.71924V90.9764H11.6527V86.6416Z" fill="white"/>
</mask>
<g mask="url(#mask13_9760_9968)">
<path d="M10.5296 90.1469C10.369 90.1469 10.262 89.8794 10.5296 89.2372L11.6267 86.6684L11.3056 86.6416L10.9577 86.9895H10.8774C9.3522 86.9895 7.71994 88.9428 7.71994 90.4413C7.7161 90.5161 7.728 90.5909 7.75488 90.6608C7.78177 90.7307 7.82302 90.7942 7.87599 90.8472C7.92896 90.9001 7.99245 90.9413 8.06236 90.9683C8.13228 90.9952 8.20706 91.0071 8.28187 91.0032C8.73676 91.0032 9.16489 90.361 9.6733 89.6653L9.64654 89.9329C9.56627 90.6286 9.80709 91.0032 10.1817 91.0032C10.5831 91.0032 10.9845 90.361 11.252 89.6921H11.0647C10.8774 89.9864 10.6634 90.1737 10.5296 90.1737V90.1469ZM9.83385 89.2639C9.48599 89.6921 8.92407 90.2005 8.68324 90.2005C8.54945 90.2005 8.44242 90.0667 8.44242 89.7723C8.44242 88.8358 9.51275 87.5781 10.0479 87.5781C10.1749 87.5747 10.3016 87.5928 10.4225 87.6317L9.83385 89.2639Z" fill="#31423D"/>
</g>
<mask id="mask14_9760_9968" style="mask-type:luminance" maskUnits="userSpaceOnUse" x="5" y="86" width="4" height="5">
<path d="M8.44342 86.8281H5.23242V90.9757H8.44342V86.8281Z" fill="white"/>
</mask>
<g mask="url(#mask14_9760_9968)">
<path d="M8.3862 87.7641C8.51992 87.256 8.43969 86.8281 8.0653 86.8281C7.58393 86.8281 7.45022 87.149 6.9956 88.1652V87.5769C6.96886 87.1758 6.83515 86.8281 6.46075 86.8281C6.05962 86.8281 5.68522 87.4967 5.36432 88.1652H5.57825C5.76545 87.8176 5.97939 87.6304 6.1131 87.6304C6.3003 87.6304 6.38053 87.8978 6.1131 88.5396L5.31083 90.3581C5.12363 90.7058 5.31083 90.9197 5.63174 90.9197C5.7202 90.9356 5.81141 90.9167 5.8862 90.8669C5.96098 90.8169 6.01356 90.7401 6.03288 90.6523L6.83515 88.5129C7.05627 88.2364 7.28822 87.9687 7.53045 87.7106H8.3862V87.7641Z" fill="#31423D"/>
</g>
<mask id="mask15_9760_9968" style="mask-type:luminance" maskUnits="userSpaceOnUse" x="-1" y="85" width="7" height="6">
<path d="M5.84591 85.5176H-0.0141602V90.8157H5.84591V85.5176Z" fill="white"/>
</mask>
<g mask="url(#mask15_9760_9968)">
<path d="M2.98218 90.8162L3.06246 90.5754C2.04564 90.3881 1.91185 90.3881 2.33999 89.291L2.7146 88.2474H3.51735C4.02576 88.2474 4.02576 88.4882 3.94548 89.0502H4.21307L4.90878 87.2038H4.6412C4.37362 87.632 4.15955 87.9798 3.62438 87.9798H2.82163L3.3568 86.4814C3.57087 85.9462 3.65114 85.8392 4.34686 85.8392H4.53417C5.22988 85.8392 5.33691 86.0265 5.33691 86.7757H5.6045L5.84532 85.5181H1.93861L1.85834 85.7589C2.66108 85.9194 2.74136 85.9997 2.3935 87.0433L1.51048 89.2642C1.1091 90.3078 0.975311 90.3881 0.038771 90.5486L-0.0415039 90.7894L2.98218 90.8162Z" fill="#31423D"/>
</g>
<mask id="mask16_9760_9968" style="mask-type:luminance" maskUnits="userSpaceOnUse" x="20" y="76" width="4" height="7">
<path d="M23.9831 76.2866H20.665V82.1199H23.9831V76.2866Z" fill="white"/>
</mask>
<g mask="url(#mask16_9760_9968)">
<mask id="mask17_9760_9968" style="mask-type:luminance" maskUnits="userSpaceOnUse" x="20" y="77" width="4" height="6">
<path d="M23.5977 77.999H20.6543V82.1466H23.5977V77.999Z" fill="white"/>
</mask>
<g mask="url(#mask17_9760_9968)">
<path d="M23.4372 79.4172C23.8385 78.4004 23.3569 77.999 22.7682 77.999C21.7781 77.999 20.6543 79.7383 20.6543 81.1297C20.6543 81.7987 20.9754 82.1466 21.457 82.1466C22.019 82.1466 22.6077 81.6114 23.1161 80.6749H22.8485C22.5274 81.0762 22.1528 81.3706 21.8049 81.3706C21.457 81.3706 21.2697 81.1565 21.2697 80.6749C21.2761 80.4764 21.3029 80.279 21.35 80.0862L23.4372 79.4172ZM22.3668 78.5877C22.6612 78.5877 22.902 78.8018 22.7682 79.2834L21.4838 79.6313C21.6979 79.0426 22.0725 78.5609 22.3936 78.5609L22.3668 78.5877Z" fill="#31423D"/>
</g>
<path d="M22.7794 77.543L23.9828 76.4466V76.2861H23.1805L22.4585 77.543H22.8061H22.7794Z" fill="#31423D"/>
</g>
<mask id="mask18_9760_9968" style="mask-type:luminance" maskUnits="userSpaceOnUse" x="17" y="77" width="4" height="6">
<path d="M20.9351 77.062H17.8579V82.1461H20.9351V77.062Z" fill="white"/>
</mask>
<g mask="url(#mask18_9760_9968)">
<path d="M18.3142 78.5877H19.0099L17.8861 81.6382C17.8508 81.6928 17.8316 81.7561 17.8306 81.8211C17.8295 81.886 17.8467 81.95 17.8801 82.0056C17.9136 82.0614 17.9618 82.1065 18.0196 82.1362C18.0774 82.1658 18.1424 82.1787 18.2072 82.1733C19.0099 82.1733 19.9197 81.4776 20.2943 80.5143H20.107C19.7708 80.9715 19.2898 81.3015 18.7423 81.4509L19.7324 78.5877H20.8027L20.9365 78.1596H19.9197L20.2675 77.0625H19.8929L19.1705 78.1596L18.3142 78.2666V78.5877Z" fill="#31423D"/>
</g>
<mask id="mask19_9760_9968" style="mask-type:luminance" maskUnits="userSpaceOnUse" x="15" y="76" width="4" height="7">
<path d="M18.1838 76.2593H15.5615V82.1193H18.1838V76.2593Z" fill="white"/>
</mask>
<g mask="url(#mask19_9760_9968)">
<path d="M17.5947 78.3999C17.675 78.1324 17.4877 77.9718 17.3271 77.9718C16.7385 77.9718 15.9892 78.5337 15.7216 79.3097H15.9089C16.099 79.0028 16.3936 78.7747 16.7385 78.6675L15.5878 81.6912C15.5647 81.7365 15.5537 81.787 15.556 81.8377C15.5581 81.8886 15.5734 81.9379 15.6004 81.9811C15.6273 82.0242 15.665 82.0596 15.7096 82.0838C15.7544 82.108 15.8046 82.1203 15.8554 82.1193C16.4441 82.1193 17.1131 81.5842 17.4074 80.7814H17.1666C16.993 81.1036 16.7074 81.3511 16.3638 81.4771L17.5947 78.3999ZM17.7018 77.2493C17.765 77.2493 17.8276 77.2369 17.8861 77.2126C17.9445 77.1884 17.9976 77.153 18.0423 77.1083C18.0871 77.0635 18.1225 77.0104 18.1467 76.952C18.171 76.8936 18.1834 76.8309 18.1834 76.7677C18.187 76.7022 18.1773 76.6367 18.1547 76.5751C18.1321 76.5136 18.0972 76.4573 18.0522 76.4097C18.007 76.362 17.9527 76.3241 17.8925 76.2983C17.8322 76.2724 17.7674 76.2592 17.7018 76.2593C17.574 76.2593 17.4515 76.31 17.3612 76.4003C17.2708 76.4907 17.2201 76.6132 17.2201 76.7409C17.2201 76.8686 17.2708 76.9912 17.3612 77.0815C17.4515 77.1718 17.574 77.2226 17.7018 77.2226" fill="#31423D"/>
</g>
<mask id="mask20_9760_9968" style="mask-type:luminance" maskUnits="userSpaceOnUse" x="13" y="76" width="3" height="7">
<path d="M15.9101 76.2861H13.2075V82.1462H15.9101V76.2861Z" fill="white"/>
</mask>
<g mask="url(#mask20_9760_9968)">
<path d="M13.9848 81.4772L15.9114 76.3664L15.8311 76.2861L14.4932 76.4467V76.6072L14.7608 76.7945C15.0016 76.9818 14.9213 77.1424 14.7072 77.7043L13.2623 81.611C13.2286 81.6637 13.2097 81.7245 13.2077 81.7869C13.2057 81.8494 13.2204 81.9113 13.2506 81.966C13.2807 82.0208 13.325 82.0664 13.3789 82.098C13.4327 82.1298 13.4941 82.1464 13.5566 82.1462C14.1721 82.1462 14.8143 81.5843 15.1086 80.8083H14.9213C14.6941 81.1311 14.3638 81.367 13.9848 81.4772Z" fill="#31423D"/>
</g>
<mask id="mask21_9760_9968" style="mask-type:luminance" maskUnits="userSpaceOnUse" x="9" y="77" width="5" height="6">
<path d="M13.2631 77.8101H9.32959V82.1449H13.2631V77.8101Z" fill="white"/>
</mask>
<g mask="url(#mask21_9760_9968)">
<path d="M12.1399 81.3159C11.9794 81.3159 11.8723 81.0483 12.1399 80.4061L13.237 77.8373L12.9159 77.8105L12.5681 78.1584H12.4878C10.9626 78.1584 9.33029 80.1118 9.33029 81.6102C9.32645 81.685 9.33835 81.7599 9.36523 81.8298C9.39212 81.8996 9.43337 81.9631 9.48634 82.0161C9.53931 82.0691 9.6028 82.1103 9.67272 82.1373C9.74263 82.1641 9.81741 82.176 9.89222 82.1722C10.3471 82.1722 10.7753 81.53 11.2837 80.8342L11.2569 81.1018C11.1766 81.7975 11.4175 82.1722 11.7921 82.1722C12.1934 82.1722 12.5948 81.53 12.8624 80.861H12.6751C12.4878 81.1553 12.2737 81.3426 12.1399 81.3426V81.3159ZM11.4442 80.4329C11.0964 80.861 10.5344 81.3694 10.2936 81.3694C10.1598 81.3694 10.0528 81.2356 10.0528 80.9413C10.0528 80.0047 11.1231 78.7471 11.6583 78.7471C11.7852 78.7437 11.9119 78.7618 12.0329 78.8006L11.4442 80.4329Z" fill="#31423D"/>
</g>
<mask id="mask22_9760_9968" style="mask-type:luminance" maskUnits="userSpaceOnUse" x="4" y="77" width="6" height="7">
<path d="M9.77694 77.9717H4.96045V83.8585H9.77694V77.9717Z" fill="white"/>
</mask>
<g mask="url(#mask22_9760_9968)">
<path d="M9.77636 78.1318H8.62575C8.45819 78.0245 8.26281 77.9686 8.06383 77.9713C7.60004 77.9712 7.15485 78.1537 6.8244 78.4791C6.49397 78.8044 6.30481 79.2468 6.29778 79.7106C6.28674 79.8266 6.2988 79.9437 6.33325 80.0551C6.36769 80.1664 6.42385 80.2699 6.49848 80.3594C6.57311 80.449 6.66473 80.5229 6.76806 80.5769C6.87139 80.6308 6.98439 80.6638 7.10053 80.6739C6.59212 80.8879 6.29778 81.1555 6.29778 81.4499C6.29778 81.5323 6.32018 81.6132 6.36261 81.6839C6.40503 81.7546 6.46585 81.8124 6.5386 81.8512C5.388 82.1991 4.93311 82.6005 4.93311 83.1089C4.93311 83.644 5.62882 83.8581 6.43157 83.8581C7.84976 83.8581 9.00037 83.1356 9.00037 82.4934C9.00037 82.0118 8.57223 81.8245 7.84976 81.6104C7.26108 81.4231 6.99349 81.3963 6.99349 81.1823C7.01109 81.0772 7.05455 80.9782 7.11994 80.8942C7.18534 80.81 7.27062 80.7436 7.36811 80.7006C7.80835 80.6672 8.22011 80.4701 8.52223 80.1481C8.82436 79.8263 8.99494 79.4029 9.00037 78.9613C9.00531 78.8255 8.98722 78.6898 8.94685 78.56H9.61581L9.77636 78.1318ZM7.58218 82.3061C8.1441 82.4934 8.38493 82.5737 8.38493 82.7343C8.38493 83.1089 7.84976 83.4032 6.88646 83.4032C6.16399 83.4032 5.81613 83.2427 5.81613 82.8681C5.81613 82.4667 6.19075 82.1991 6.75267 81.985C7.01182 82.1121 7.28016 82.2194 7.55542 82.3061H7.58218ZM7.36811 80.3795C7.10053 80.3795 7.02025 80.1655 7.02025 79.9246C7.02025 79.1754 7.39487 78.2656 7.95679 78.2656C8.22438 78.2656 8.30465 78.4797 8.30465 78.6938C8.30465 79.4698 7.93003 80.3795 7.36811 80.3795Z" fill="#31423D"/>
</g>
<mask id="mask23_9760_9968" style="mask-type:luminance" maskUnits="userSpaceOnUse" x="-1" y="75" width="8" height="7">
<path d="M6.14025 75.2686H-0.0141602V81.9849H6.14025V75.2686Z" fill="white"/>
</mask>
<g mask="url(#mask23_9760_9968)">
<path d="M3.81228 79.4429C4.32068 79.4429 4.34744 79.6569 4.24041 80.1921H4.53475L5.20371 78.3725H4.93612C4.66854 78.8007 4.48123 79.1485 3.91931 79.1485H2.82222L3.35739 77.65C3.54469 77.1149 3.62497 77.0078 4.34744 77.0078H4.80233C5.49805 77.0078 5.60508 77.1952 5.60508 77.9444H5.87267L6.11349 76.6867H1.9392L1.85892 76.9276C2.66167 77.0881 2.74194 77.1684 2.39409 78.212L1.53782 80.4597C1.13645 81.5032 1.00266 81.5835 0.0393564 81.7441L-0.0141602 82.0117H4.64178L5.49805 80.6737H5.17695C4.64178 81.2089 4.10662 81.6905 3.03629 81.6905C1.77865 81.6905 1.88568 81.6103 2.31381 80.4597L2.68843 79.4429H3.81228ZM4.42772 76.2854L5.60508 75.4291V75.2686H4.80233L4.10662 76.3121H4.42772V76.2854Z" fill="#31423D"/>
</g>
<mask id="mask24_9760_9968" style="mask-type:luminance" maskUnits="userSpaceOnUse" x="20" y="67" width="4" height="7">
<path d="M23.8605 67.4551H20.5425V73.2884H23.8605V67.4551Z" fill="white"/>
</mask>
<g mask="url(#mask24_9760_9968)">
<mask id="mask25_9760_9968" style="mask-type:luminance" maskUnits="userSpaceOnUse" x="20" y="69" width="4" height="5">
<path d="M23.4878 69.1675H20.5444V73.315H23.4878V69.1675Z" fill="white"/>
</mask>
<g mask="url(#mask25_9760_9968)">
<path d="M23.3273 70.5857C23.7287 69.5689 23.247 69.1675 22.6583 69.1675C21.6683 69.1675 20.5444 70.9068 20.5444 72.2982C20.5444 72.9672 20.8655 73.315 21.3472 73.315C21.9091 73.315 22.4978 72.7799 23.0062 71.8433H22.7386C22.4175 72.2447 22.0429 72.539 21.695 72.539C21.3472 72.539 21.1599 72.325 21.1599 71.8433C21.1662 71.6449 21.1931 71.4475 21.2402 71.2546L23.3273 70.5857ZM22.257 69.7562C22.5513 69.7562 22.7921 69.9702 22.6583 70.4519L21.3739 70.7997C21.588 70.2111 21.9626 69.7294 22.2837 69.7294L22.257 69.7562Z" fill="#31423D"/>
</g>
<path d="M22.6515 68.712L23.8549 67.6155V67.4551H23.0526L22.3306 68.712H22.6782H22.6515Z" fill="#31423D"/>
</g>
<mask id="mask26_9760_9968" style="mask-type:luminance" maskUnits="userSpaceOnUse" x="17" y="68" width="4" height="6">
<path d="M20.774 68.2046H17.6968V73.2887H20.774V68.2046Z" fill="white"/>
</mask>
<g mask="url(#mask26_9760_9968)">
<path d="M18.157 69.7298H18.8527L17.7288 72.7803C17.6936 72.8348 17.6745 72.8982 17.6734 72.9632C17.6723 73.028 17.6894 73.092 17.7229 73.1477C17.7563 73.2035 17.8046 73.2486 17.8624 73.2783C17.9202 73.3079 17.9852 73.3208 18.0499 73.3154C18.8527 73.3154 19.7625 72.6197 20.1371 71.6564H19.9498C19.6136 72.1135 19.1326 72.4436 18.5851 72.5929L19.5752 69.7298H20.6455L20.7793 69.3017H19.7625L20.1103 68.2046H19.7357L19.0132 69.3017L18.157 69.4087V69.7298Z" fill="#31423D"/>
</g>
<mask id="mask27_9760_9968" style="mask-type:luminance" maskUnits="userSpaceOnUse" x="14" y="69" width="4" height="5">
<path d="M17.8629 69.1675H14.6519V73.315H17.8629V69.1675Z" fill="white"/>
</mask>
<g mask="url(#mask27_9760_9968)">
<path d="M17.8076 70.1035C17.9413 69.5954 17.8611 69.1675 17.4867 69.1675C17.0053 69.1675 16.8716 69.4884 16.417 70.5046V69.9163C16.3902 69.5151 16.2565 69.1675 15.8821 69.1675C15.481 69.1675 15.1066 69.836 14.7857 70.5046H14.9996C15.1868 70.1569 15.4008 69.9698 15.5345 69.9698C15.7217 69.9698 15.8019 70.2372 15.5345 70.879L14.7322 72.6975C14.545 73.0451 14.7322 73.2591 15.0531 73.2591C15.1416 73.275 15.2328 73.2561 15.3076 73.2062C15.3824 73.1563 15.435 73.0795 15.4543 72.9916L16.2565 70.8522C16.4776 70.5757 16.7097 70.3081 16.9518 70.05H17.8076V70.1035Z" fill="#31423D"/>
</g>
<mask id="mask28_9760_9968" style="mask-type:luminance" maskUnits="userSpaceOnUse" x="11" y="69" width="4" height="5">
<path d="M14.5406 69.1421H11.5972V73.2896H14.5406V69.1421Z" fill="white"/>
</mask>
<g mask="url(#mask28_9760_9968)">
<path d="M14.38 70.5603C14.7814 69.5435 14.2998 69.1421 13.7111 69.1421C12.721 69.1421 11.5972 70.8814 11.5972 72.2728C11.5972 72.9418 11.9183 73.2896 12.3999 73.2896C12.9618 73.2896 13.5505 72.7545 14.0589 71.8179H13.7913C13.4702 72.2193 13.0956 72.5136 12.7478 72.5136C12.3999 72.5136 12.2126 72.2996 12.2126 71.8179C12.2189 71.6195 12.2458 71.4221 12.2929 71.2292L14.38 70.5603ZM13.3097 69.7308C13.604 69.7308 13.8449 69.9448 13.7111 70.4265L12.4267 70.7743C12.6407 70.1857 13.0154 69.704 13.3365 69.704L13.3097 69.7308Z" fill="#31423D"/>
</g>
<mask id="mask29_9760_9968" style="mask-type:luminance" maskUnits="userSpaceOnUse" x="7" y="67" width="5" height="7">
<path d="M11.4882 67.4551H7.84912V73.2884H11.4882V67.4551Z" fill="white"/>
</mask>
<g mask="url(#mask29_9760_9968)">
<path d="M10.8996 69.1676C10.3644 69.1676 9.82924 69.7563 9.34759 70.452L10.4179 67.5353L10.3644 67.4551L9.02649 67.6156V67.7227L9.29407 67.9367C9.53489 68.124 9.45462 68.2846 9.24055 68.8465L8.06319 71.9505C7.97541 72.1403 7.90379 72.3373 7.84912 72.5392C7.84912 72.9138 8.33077 73.2616 8.78566 73.2616C9.80248 73.2616 11.4615 71.4153 11.4615 69.9971C11.4615 69.3817 11.3277 69.1408 10.8996 69.1408V69.1676ZM9.13352 72.6729C8.91945 72.6729 8.62511 72.4856 8.62511 72.3251C8.68153 72.1238 8.75308 71.9269 8.83918 71.7364L9.18704 70.8534C9.53489 70.3985 10.0968 69.9436 10.4179 69.9436C10.6052 69.9436 10.739 70.0506 10.739 70.345C10.739 71.1745 9.96303 72.6729 9.13352 72.6729Z" fill="#31423D"/>
</g>
<mask id="mask30_9760_9968" style="mask-type:luminance" maskUnits="userSpaceOnUse" x="5" y="67" width="4" height="7">
<path d="M8.12476 67.4287H5.50244V73.2888H8.12476V67.4287Z" fill="white"/>
</mask>
<g mask="url(#mask30_9760_9968)">
<path d="M7.53222 69.5689C7.61249 69.3013 7.42519 69.1408 7.26464 69.1408C6.67595 69.1408 5.92672 69.7027 5.65914 70.4787H5.84645C6.03654 70.1717 6.3311 69.9436 6.67595 69.8365L5.52535 72.8602C5.50223 72.9054 5.49124 72.956 5.49344 73.0067C5.49564 73.0575 5.51095 73.1069 5.5379 73.15C5.56484 73.1931 5.6025 73.2286 5.64719 73.2528C5.69189 73.2769 5.7421 73.2893 5.79293 73.2883C6.38161 73.2883 7.05057 72.7531 7.34491 71.9504H7.10409C6.93045 72.2725 6.6449 72.52 6.30134 72.6461L7.53222 69.5689ZM7.63925 68.4183C7.70251 68.4183 7.76513 68.4059 7.82358 68.3816C7.88202 68.3574 7.9351 68.322 7.97983 68.2772C8.02456 68.2325 8.06003 68.1794 8.08424 68.1209C8.10844 68.0625 8.1209 67.9999 8.1209 67.9366C8.12455 67.8711 8.11479 67.8056 8.09222 67.7441C8.06964 67.6825 8.03475 67.6262 7.98966 67.5786C7.94457 67.531 7.89022 67.4931 7.82998 67.4673C7.76972 67.4414 7.70482 67.4281 7.63925 67.4282C7.51152 67.4282 7.38901 67.479 7.29867 67.5693C7.20835 67.6596 7.1576 67.7822 7.1576 67.9099C7.1576 68.0376 7.20835 68.1601 7.29867 68.2505C7.38901 68.3408 7.51152 68.3915 7.63925 68.3915" fill="#31423D"/>
</g>
<mask id="mask31_9760_9968" style="mask-type:luminance" maskUnits="userSpaceOnUse" x="-1" y="67" width="7" height="7">
<path d="M5.12343 67.8042H-0.0141602V73.1291H5.12343V67.8042Z" fill="white"/>
</mask>
<g mask="url(#mask31_9760_9968)">
<path d="M4.6953 67.8042H1.9392L1.85892 68.045C2.66167 68.2056 2.74194 68.2859 2.39409 69.3294L1.53782 71.6039C1.13645 72.6475 1.00266 72.7277 0.0661147 72.8883L-0.0141602 73.1559H4.18689L5.12343 71.5504H4.80233C4.26717 72.0855 3.67849 72.8348 2.74194 72.8348C2.01947 72.8348 1.9392 72.701 2.31381 71.6306L3.14332 69.3562C3.51794 68.3126 3.67848 68.2323 4.61503 68.0718L4.6953 67.8042Z" fill="#31423D"/>
</g>
</g>
</g>
</g>
<defs>
<linearGradient id="paint0_linear_9760_9968" x1="0.00292969" y1="6.42199" x2="35.3239" y2="6.42199" gradientUnits="userSpaceOnUse">
<stop stop-color="#000091"/>
<stop offset="0.54" stop-color="#350072"/>
<stop offset="0.5401" stop-color="#E1000F"/>
<stop offset="1" stop-color="#E1000F"/>
</linearGradient>
</defs>
</svg>
